G04 EAGLE Gerber RS-274X export*
G75*
%MOMM*%
%FSLAX34Y34*%
%LPD*%
%IN*%
%IPPOS*%
%AMOC8*
5,1,8,0,0,1.08239X$1,22.5*%
G01*
%ADD10C,0.254000*%


D10*
X0Y0D02*
X1850000Y0D01*
X1850000Y300000D01*
X1848744Y328761D01*
X1844987Y357304D01*
X1838756Y385410D01*
X1830099Y412867D01*
X1819082Y439464D01*
X1805788Y465000D01*
X1790320Y489280D01*
X1772795Y512120D01*
X1753345Y533345D01*
X1732120Y552795D01*
X1709280Y570320D01*
X1685000Y585788D01*
X1659464Y599082D01*
X1632867Y610099D01*
X1605410Y618756D01*
X1577304Y624987D01*
X1548761Y628744D01*
X1520000Y630000D01*
X330000Y630000D01*
X301239Y628744D01*
X272696Y624987D01*
X244590Y618756D01*
X217133Y610099D01*
X190536Y599082D01*
X165000Y585788D01*
X140720Y570320D01*
X117880Y552795D01*
X96655Y533345D01*
X77205Y512120D01*
X59680Y489280D01*
X44212Y465000D01*
X30918Y439464D01*
X19901Y412867D01*
X11244Y385410D01*
X5013Y357304D01*
X1256Y328761D01*
X0Y300000D01*
X0Y0D01*
X210000Y99563D02*
X209924Y98694D01*
X209772Y97834D01*
X209546Y96990D01*
X209248Y96170D01*
X208879Y95378D01*
X208442Y94622D01*
X207941Y93907D01*
X207380Y93238D01*
X206762Y92620D01*
X206093Y92059D01*
X205378Y91558D01*
X204622Y91121D01*
X203830Y90752D01*
X203010Y90454D01*
X202166Y90228D01*
X201307Y90076D01*
X200437Y90000D01*
X199563Y90000D01*
X198694Y90076D01*
X197834Y90228D01*
X196990Y90454D01*
X196170Y90752D01*
X195378Y91121D01*
X194622Y91558D01*
X193907Y92059D01*
X193238Y92620D01*
X192620Y93238D01*
X192059Y93907D01*
X191558Y94622D01*
X191121Y95378D01*
X190752Y96170D01*
X190454Y96990D01*
X190228Y97834D01*
X190076Y98694D01*
X190000Y99563D01*
X190000Y100437D01*
X190076Y101307D01*
X190228Y102166D01*
X190454Y103010D01*
X190752Y103830D01*
X191121Y104622D01*
X191558Y105378D01*
X192059Y106093D01*
X192620Y106762D01*
X193238Y107380D01*
X193907Y107941D01*
X194622Y108442D01*
X195378Y108879D01*
X196170Y109248D01*
X196990Y109546D01*
X197834Y109772D01*
X198694Y109924D01*
X199563Y110000D01*
X200437Y110000D01*
X201307Y109924D01*
X202166Y109772D01*
X203010Y109546D01*
X203830Y109248D01*
X204622Y108879D01*
X205378Y108442D01*
X206093Y107941D01*
X206762Y107380D01*
X207380Y106762D01*
X207941Y106093D01*
X208442Y105378D01*
X208879Y104622D01*
X209248Y103830D01*
X209546Y103010D01*
X209772Y102166D01*
X209924Y101307D01*
X210000Y100437D01*
X210000Y99563D01*
X210000Y399563D02*
X209924Y398694D01*
X209772Y397834D01*
X209546Y396990D01*
X209248Y396170D01*
X208879Y395378D01*
X208442Y394622D01*
X207941Y393907D01*
X207380Y393238D01*
X206762Y392620D01*
X206093Y392059D01*
X205378Y391558D01*
X204622Y391121D01*
X203830Y390752D01*
X203010Y390454D01*
X202166Y390228D01*
X201307Y390076D01*
X200437Y390000D01*
X199563Y390000D01*
X198694Y390076D01*
X197834Y390228D01*
X196990Y390454D01*
X196170Y390752D01*
X195378Y391121D01*
X194622Y391558D01*
X193907Y392059D01*
X193238Y392620D01*
X192620Y393238D01*
X192059Y393907D01*
X191558Y394622D01*
X191121Y395378D01*
X190752Y396170D01*
X190454Y396990D01*
X190228Y397834D01*
X190076Y398694D01*
X190000Y399563D01*
X190000Y400437D01*
X190076Y401307D01*
X190228Y402166D01*
X190454Y403010D01*
X190752Y403830D01*
X191121Y404622D01*
X191558Y405378D01*
X192059Y406093D01*
X192620Y406762D01*
X193238Y407380D01*
X193907Y407941D01*
X194622Y408442D01*
X195378Y408879D01*
X196170Y409248D01*
X196990Y409546D01*
X197834Y409772D01*
X198694Y409924D01*
X199563Y410000D01*
X200437Y410000D01*
X201307Y409924D01*
X202166Y409772D01*
X203010Y409546D01*
X203830Y409248D01*
X204622Y408879D01*
X205378Y408442D01*
X206093Y407941D01*
X206762Y407380D01*
X207380Y406762D01*
X207941Y406093D01*
X208442Y405378D01*
X208879Y404622D01*
X209248Y403830D01*
X209546Y403010D01*
X209772Y402166D01*
X209924Y401307D01*
X210000Y400437D01*
X210000Y399563D01*
X1710000Y99563D02*
X1709924Y98694D01*
X1709772Y97834D01*
X1709546Y96990D01*
X1709248Y96170D01*
X1708879Y95378D01*
X1708442Y94622D01*
X1707941Y93907D01*
X1707380Y93238D01*
X1706762Y92620D01*
X1706093Y92059D01*
X1705378Y91558D01*
X1704622Y91121D01*
X1703830Y90752D01*
X1703010Y90454D01*
X1702166Y90228D01*
X1701307Y90076D01*
X1700437Y90000D01*
X1699563Y90000D01*
X1698694Y90076D01*
X1697834Y90228D01*
X1696990Y90454D01*
X1696170Y90752D01*
X1695378Y91121D01*
X1694622Y91558D01*
X1693907Y92059D01*
X1693238Y92620D01*
X1692620Y93238D01*
X1692059Y93907D01*
X1691558Y94622D01*
X1691121Y95378D01*
X1690752Y96170D01*
X1690454Y96990D01*
X1690228Y97834D01*
X1690076Y98694D01*
X1690000Y99563D01*
X1690000Y100437D01*
X1690076Y101307D01*
X1690228Y102166D01*
X1690454Y103010D01*
X1690752Y103830D01*
X1691121Y104622D01*
X1691558Y105378D01*
X1692059Y106093D01*
X1692620Y106762D01*
X1693238Y107380D01*
X1693907Y107941D01*
X1694622Y108442D01*
X1695378Y108879D01*
X1696170Y109248D01*
X1696990Y109546D01*
X1697834Y109772D01*
X1698694Y109924D01*
X1699563Y110000D01*
X1700437Y110000D01*
X1701307Y109924D01*
X1702166Y109772D01*
X1703010Y109546D01*
X1703830Y109248D01*
X1704622Y108879D01*
X1705378Y108442D01*
X1706093Y107941D01*
X1706762Y107380D01*
X1707380Y106762D01*
X1707941Y106093D01*
X1708442Y105378D01*
X1708879Y104622D01*
X1709248Y103830D01*
X1709546Y103010D01*
X1709772Y102166D01*
X1709924Y101307D01*
X1710000Y100437D01*
X1710000Y99563D01*
X1710000Y399563D02*
X1709924Y398694D01*
X1709772Y397834D01*
X1709546Y396990D01*
X1709248Y396170D01*
X1708879Y395378D01*
X1708442Y394622D01*
X1707941Y393907D01*
X1707380Y393238D01*
X1706762Y392620D01*
X1706093Y392059D01*
X1705378Y391558D01*
X1704622Y391121D01*
X1703830Y390752D01*
X1703010Y390454D01*
X1702166Y390228D01*
X1701307Y390076D01*
X1700437Y390000D01*
X1699563Y390000D01*
X1698694Y390076D01*
X1697834Y390228D01*
X1696990Y390454D01*
X1696170Y390752D01*
X1695378Y391121D01*
X1694622Y391558D01*
X1693907Y392059D01*
X1693238Y392620D01*
X1692620Y393238D01*
X1692059Y393907D01*
X1691558Y394622D01*
X1691121Y395378D01*
X1690752Y396170D01*
X1690454Y396990D01*
X1690228Y397834D01*
X1690076Y398694D01*
X1690000Y399563D01*
X1690000Y400437D01*
X1690076Y401307D01*
X1690228Y402166D01*
X1690454Y403010D01*
X1690752Y403830D01*
X1691121Y404622D01*
X1691558Y405378D01*
X1692059Y406093D01*
X1692620Y406762D01*
X1693238Y407380D01*
X1693907Y407941D01*
X1694622Y408442D01*
X1695378Y408879D01*
X1696170Y409248D01*
X1696990Y409546D01*
X1697834Y409772D01*
X1698694Y409924D01*
X1699563Y410000D01*
X1700437Y410000D01*
X1701307Y409924D01*
X1702166Y409772D01*
X1703010Y409546D01*
X1703830Y409248D01*
X1704622Y408879D01*
X1705378Y408442D01*
X1706093Y407941D01*
X1706762Y407380D01*
X1707380Y406762D01*
X1707941Y406093D01*
X1708442Y405378D01*
X1708879Y404622D01*
X1709248Y403830D01*
X1709546Y403010D01*
X1709772Y402166D01*
X1709924Y401307D01*
X1710000Y400437D01*
X1710000Y399563D01*
X1780509Y310750D02*
X1781524Y310823D01*
X1782532Y310967D01*
X1783526Y311184D01*
X1784503Y311471D01*
X1785457Y311826D01*
X1786383Y312249D01*
X1787276Y312737D01*
X1788132Y313287D01*
X1788947Y313897D01*
X1789716Y314564D01*
X1790436Y315284D01*
X1791103Y316053D01*
X1791713Y316868D01*
X1792263Y317724D01*
X1792751Y318617D01*
X1793174Y319543D01*
X1793529Y320497D01*
X1793816Y321474D01*
X1794033Y322468D01*
X1794177Y323476D01*
X1794250Y324491D01*
X1794250Y325509D01*
X1794177Y326524D01*
X1794033Y327532D01*
X1793816Y328526D01*
X1793529Y329503D01*
X1793174Y330457D01*
X1792751Y331383D01*
X1792263Y332276D01*
X1791713Y333132D01*
X1791103Y333947D01*
X1790436Y334716D01*
X1789716Y335436D01*
X1788947Y336103D01*
X1788132Y336713D01*
X1787276Y337263D01*
X1786383Y337751D01*
X1785457Y338174D01*
X1784503Y338529D01*
X1783526Y338816D01*
X1782532Y339033D01*
X1781524Y339177D01*
X1780509Y339250D01*
X1779491Y339250D01*
X1778476Y339177D01*
X1777468Y339033D01*
X1776474Y338816D01*
X1775497Y338529D01*
X1774543Y338174D01*
X1773617Y337751D01*
X1772724Y337263D01*
X1771868Y336713D01*
X1771053Y336103D01*
X1770284Y335436D01*
X1769564Y334716D01*
X1768897Y333947D01*
X1768287Y333132D01*
X1767737Y332276D01*
X1767249Y331383D01*
X1766826Y330457D01*
X1766471Y329503D01*
X1766184Y328526D01*
X1765967Y327532D01*
X1765823Y326524D01*
X1765750Y325509D01*
X1765750Y324491D01*
X1765823Y323476D01*
X1765967Y322468D01*
X1766184Y321474D01*
X1766471Y320497D01*
X1766826Y319543D01*
X1767249Y318617D01*
X1767737Y317724D01*
X1768287Y316868D01*
X1768897Y316053D01*
X1769564Y315284D01*
X1770284Y314564D01*
X1771053Y313897D01*
X1771868Y313287D01*
X1772724Y312737D01*
X1773617Y312249D01*
X1774543Y311826D01*
X1775497Y311471D01*
X1776474Y311184D01*
X1777468Y310967D01*
X1778476Y310823D01*
X1779491Y310750D01*
X1780509Y310750D01*
X1780509Y100750D02*
X1781524Y100823D01*
X1782532Y100967D01*
X1783526Y101184D01*
X1784503Y101471D01*
X1785457Y101826D01*
X1786383Y102249D01*
X1787276Y102737D01*
X1788132Y103287D01*
X1788947Y103897D01*
X1789716Y104564D01*
X1790436Y105284D01*
X1791103Y106053D01*
X1791713Y106868D01*
X1792263Y107724D01*
X1792751Y108617D01*
X1793174Y109543D01*
X1793529Y110497D01*
X1793816Y111474D01*
X1794033Y112468D01*
X1794177Y113476D01*
X1794250Y114491D01*
X1794250Y115509D01*
X1794177Y116524D01*
X1794033Y117532D01*
X1793816Y118526D01*
X1793529Y119503D01*
X1793174Y120457D01*
X1792751Y121383D01*
X1792263Y122276D01*
X1791713Y123132D01*
X1791103Y123947D01*
X1790436Y124716D01*
X1789716Y125436D01*
X1788947Y126103D01*
X1788132Y126713D01*
X1787276Y127263D01*
X1786383Y127751D01*
X1785457Y128174D01*
X1784503Y128529D01*
X1783526Y128816D01*
X1782532Y129033D01*
X1781524Y129177D01*
X1780509Y129250D01*
X1779491Y129250D01*
X1778476Y129177D01*
X1777468Y129033D01*
X1776474Y128816D01*
X1775497Y128529D01*
X1774543Y128174D01*
X1773617Y127751D01*
X1772724Y127263D01*
X1771868Y126713D01*
X1771053Y126103D01*
X1770284Y125436D01*
X1769564Y124716D01*
X1768897Y123947D01*
X1768287Y123132D01*
X1767737Y122276D01*
X1767249Y121383D01*
X1766826Y120457D01*
X1766471Y119503D01*
X1766184Y118526D01*
X1765967Y117532D01*
X1765823Y116524D01*
X1765750Y115509D01*
X1765750Y114491D01*
X1765823Y113476D01*
X1765967Y112468D01*
X1766184Y111474D01*
X1766471Y110497D01*
X1766826Y109543D01*
X1767249Y108617D01*
X1767737Y107724D01*
X1768287Y106868D01*
X1768897Y106053D01*
X1769564Y105284D01*
X1770284Y104564D01*
X1771053Y103897D01*
X1771868Y103287D01*
X1772724Y102737D01*
X1773617Y102249D01*
X1774543Y101826D01*
X1775497Y101471D01*
X1776474Y101184D01*
X1777468Y100967D01*
X1778476Y100823D01*
X1779491Y100750D01*
X1780509Y100750D01*
M02*
