G04 EAGLE Gerber RS-274X export*
G75*
%MOMM*%
%FSLAX34Y34*%
%LPD*%
%INSilkscreen Bottom*%
%IPPOS*%
%AMOC8*
5,1,8,0,0,1.08239X$1,22.5*%
G01*
%ADD10C,0.076200*%
%ADD11C,0.203200*%
%ADD12C,0.152400*%
%ADD13C,0.127000*%
%ADD14C,0.500000*%

G36*
X398507Y326791D02*
X398507Y326791D01*
X398522Y326789D01*
X399926Y326857D01*
X399938Y326860D01*
X399954Y326859D01*
X401352Y327006D01*
X401364Y327009D01*
X401380Y327009D01*
X402767Y327234D01*
X402776Y327238D01*
X402788Y327238D01*
X403476Y327380D01*
X403482Y327383D01*
X403490Y327383D01*
X404174Y327544D01*
X404183Y327548D01*
X404195Y327550D01*
X405548Y327930D01*
X405559Y327936D01*
X405575Y327939D01*
X406904Y328395D01*
X406915Y328402D01*
X406931Y328405D01*
X408232Y328937D01*
X408243Y328944D01*
X408258Y328948D01*
X409527Y329552D01*
X409535Y329558D01*
X409546Y329562D01*
X410167Y329891D01*
X410175Y329897D01*
X410186Y329901D01*
X411399Y330611D01*
X411409Y330619D01*
X411423Y330625D01*
X412594Y331402D01*
X412601Y331409D01*
X412612Y331414D01*
X413181Y331827D01*
X413187Y331834D01*
X413197Y331840D01*
X414299Y332712D01*
X414308Y332722D01*
X414321Y332730D01*
X415372Y333663D01*
X415380Y333673D01*
X415393Y333682D01*
X416390Y334673D01*
X416397Y334683D01*
X416409Y334693D01*
X417350Y335738D01*
X417356Y335749D01*
X417368Y335759D01*
X418248Y336855D01*
X418254Y336866D01*
X418265Y336877D01*
X419083Y338020D01*
X419087Y338029D01*
X419095Y338038D01*
X419479Y338626D01*
X419482Y338635D01*
X419490Y338644D01*
X420208Y339853D01*
X420212Y339865D01*
X420222Y339877D01*
X420871Y341124D01*
X420873Y341133D01*
X420880Y341143D01*
X421178Y341780D01*
X421180Y341789D01*
X421186Y341799D01*
X421727Y343096D01*
X421729Y343106D01*
X421735Y343116D01*
X421977Y343776D01*
X421979Y343786D01*
X421984Y343796D01*
X422413Y345135D01*
X422414Y345145D01*
X422419Y345155D01*
X422604Y345833D01*
X422605Y345843D01*
X422609Y345854D01*
X422922Y347224D01*
X422923Y347237D01*
X422928Y347252D01*
X423163Y348638D01*
X423162Y348647D01*
X423166Y348659D01*
X423254Y349356D01*
X423253Y349365D01*
X423256Y349377D01*
X423373Y350778D01*
X423372Y350790D01*
X423375Y350805D01*
X423414Y352210D01*
X423411Y352223D01*
X423414Y352238D01*
X423375Y353643D01*
X423372Y353655D01*
X423373Y353671D01*
X423256Y355072D01*
X423253Y355081D01*
X423254Y355092D01*
X423166Y355790D01*
X423163Y355799D01*
X423163Y355811D01*
X421106Y367950D01*
X421076Y368026D01*
X421053Y368104D01*
X421040Y368120D01*
X421034Y368136D01*
X421003Y368168D01*
X420950Y368235D01*
X411851Y376563D01*
X411781Y376605D01*
X411714Y376652D01*
X411694Y376657D01*
X411681Y376665D01*
X411636Y376671D01*
X411552Y376692D01*
X399238Y377634D01*
X399226Y377633D01*
X399211Y377636D01*
X397805Y377665D01*
X397793Y377663D01*
X397778Y377665D01*
X396373Y377616D01*
X396361Y377613D01*
X396345Y377614D01*
X394945Y377487D01*
X394933Y377484D01*
X394917Y377484D01*
X393527Y377278D01*
X393518Y377275D01*
X393506Y377275D01*
X392816Y377143D01*
X392807Y377139D01*
X392795Y377138D01*
X391427Y376816D01*
X391415Y376810D01*
X391400Y376808D01*
X390052Y376409D01*
X390044Y376404D01*
X390032Y376402D01*
X389367Y376174D01*
X389359Y376169D01*
X389347Y376167D01*
X388038Y375654D01*
X388030Y375648D01*
X388019Y375646D01*
X387376Y375361D01*
X387368Y375356D01*
X387357Y375352D01*
X386096Y374730D01*
X386086Y374722D01*
X386071Y374717D01*
X384848Y374025D01*
X384839Y374016D01*
X384824Y374010D01*
X383642Y373250D01*
X383635Y373243D01*
X383624Y373238D01*
X383050Y372834D01*
X383043Y372827D01*
X383033Y372821D01*
X381919Y371964D01*
X381910Y371955D01*
X381897Y371946D01*
X380833Y371028D01*
X380825Y371018D01*
X380812Y371009D01*
X379801Y370033D01*
X379795Y370025D01*
X379786Y370018D01*
X379301Y369509D01*
X379296Y369501D01*
X379287Y369494D01*
X378361Y368436D01*
X378355Y368425D01*
X378343Y368415D01*
X377478Y367307D01*
X377473Y367295D01*
X377462Y367284D01*
X376661Y366129D01*
X376655Y366118D01*
X376645Y366106D01*
X375910Y364908D01*
X375906Y364896D01*
X375896Y364883D01*
X375229Y363646D01*
X375226Y363633D01*
X375217Y363620D01*
X374621Y362347D01*
X374619Y362338D01*
X374613Y362328D01*
X374342Y361679D01*
X374341Y361670D01*
X374335Y361659D01*
X373850Y360340D01*
X373848Y360330D01*
X373843Y360320D01*
X373628Y359651D01*
X373627Y359641D01*
X373622Y359630D01*
X373251Y358274D01*
X373251Y358261D01*
X373245Y358247D01*
X372951Y356872D01*
X372951Y356863D01*
X372947Y356851D01*
X372830Y356158D01*
X372830Y356149D01*
X372827Y356138D01*
X372651Y354743D01*
X372652Y354730D01*
X372648Y354715D01*
X372550Y353313D01*
X372552Y353300D01*
X372549Y353285D01*
X372530Y351880D01*
X372532Y351867D01*
X372530Y351852D01*
X372589Y350448D01*
X372592Y350435D01*
X372591Y350420D01*
X372727Y349021D01*
X372730Y349012D01*
X372730Y349000D01*
X372828Y348304D01*
X372831Y348295D01*
X372831Y348283D01*
X373086Y346901D01*
X373089Y346892D01*
X373090Y346880D01*
X373246Y346195D01*
X373250Y346186D01*
X373251Y346174D01*
X373622Y344818D01*
X373628Y344807D01*
X373631Y344791D01*
X374078Y343459D01*
X374084Y343448D01*
X374088Y343432D01*
X374610Y342127D01*
X374617Y342116D01*
X374621Y342101D01*
X375217Y340828D01*
X375224Y340818D01*
X375229Y340803D01*
X375896Y339565D01*
X375904Y339555D01*
X375910Y339541D01*
X376645Y338343D01*
X376652Y338336D01*
X376656Y338325D01*
X377049Y337742D01*
X377054Y337737D01*
X377057Y337730D01*
X377466Y337159D01*
X377473Y337152D01*
X377478Y337142D01*
X378343Y336034D01*
X378353Y336026D01*
X378361Y336012D01*
X379287Y334955D01*
X379297Y334947D01*
X379306Y334934D01*
X380290Y333930D01*
X380300Y333923D01*
X380310Y333910D01*
X381348Y332963D01*
X381359Y332956D01*
X381369Y332945D01*
X382459Y332057D01*
X382470Y332051D01*
X382481Y332040D01*
X383619Y331214D01*
X383627Y331210D01*
X383636Y331202D01*
X384222Y330814D01*
X384231Y330810D01*
X384240Y330803D01*
X385443Y330076D01*
X385455Y330072D01*
X385467Y330062D01*
X386710Y329405D01*
X386719Y329402D01*
X386728Y329395D01*
X387363Y329093D01*
X387372Y329091D01*
X387382Y329084D01*
X388676Y328534D01*
X388686Y328532D01*
X388696Y328527D01*
X389354Y328279D01*
X389363Y328278D01*
X389374Y328272D01*
X390709Y327834D01*
X390722Y327833D01*
X390737Y327826D01*
X392095Y327465D01*
X392108Y327464D01*
X392123Y327459D01*
X393499Y327175D01*
X393509Y327175D01*
X393520Y327171D01*
X394214Y327058D01*
X394223Y327059D01*
X394235Y327056D01*
X395630Y326889D01*
X395643Y326890D01*
X395658Y326887D01*
X397061Y326799D01*
X397074Y326801D01*
X397089Y326798D01*
X398495Y326788D01*
X398507Y326791D01*
G37*
G36*
X1216190Y31172D02*
X1216190Y31172D01*
X1216205Y31170D01*
X1217609Y31239D01*
X1217621Y31242D01*
X1217637Y31241D01*
X1219035Y31388D01*
X1219047Y31391D01*
X1219063Y31391D01*
X1220450Y31616D01*
X1220460Y31620D01*
X1220471Y31620D01*
X1221160Y31762D01*
X1221169Y31766D01*
X1221180Y31767D01*
X1222544Y32109D01*
X1222552Y32113D01*
X1222564Y32115D01*
X1223238Y32315D01*
X1223247Y32319D01*
X1223258Y32321D01*
X1224588Y32778D01*
X1224599Y32785D01*
X1224614Y32788D01*
X1225915Y33320D01*
X1225923Y33325D01*
X1225935Y33328D01*
X1226574Y33621D01*
X1226582Y33627D01*
X1226593Y33631D01*
X1227844Y34271D01*
X1227854Y34279D01*
X1227869Y34284D01*
X1229082Y34994D01*
X1229092Y35002D01*
X1229106Y35009D01*
X1230278Y35786D01*
X1230287Y35795D01*
X1230301Y35802D01*
X1231426Y36643D01*
X1231433Y36651D01*
X1231443Y36656D01*
X1231988Y37100D01*
X1231994Y37108D01*
X1232004Y37114D01*
X1233055Y38047D01*
X1233063Y38057D01*
X1233075Y38066D01*
X1234073Y39057D01*
X1234080Y39067D01*
X1234092Y39077D01*
X1235033Y40122D01*
X1235039Y40133D01*
X1235051Y40143D01*
X1235931Y41239D01*
X1235935Y41247D01*
X1235944Y41256D01*
X1236361Y41822D01*
X1236365Y41830D01*
X1236373Y41839D01*
X1237158Y43005D01*
X1237162Y43016D01*
X1237173Y43029D01*
X1237891Y44237D01*
X1237895Y44249D01*
X1237905Y44262D01*
X1238553Y45508D01*
X1238557Y45521D01*
X1238566Y45534D01*
X1239143Y46816D01*
X1239145Y46825D01*
X1239151Y46835D01*
X1239412Y47488D01*
X1239413Y47494D01*
X1239417Y47501D01*
X1239660Y48161D01*
X1239661Y48170D01*
X1239667Y48181D01*
X1240095Y49520D01*
X1240096Y49529D01*
X1240101Y49540D01*
X1240287Y50218D01*
X1240288Y50228D01*
X1240292Y50239D01*
X1240605Y51609D01*
X1240605Y51622D01*
X1240610Y51637D01*
X1240845Y53022D01*
X1240845Y53032D01*
X1240848Y53043D01*
X1240936Y53741D01*
X1240936Y53750D01*
X1240939Y53762D01*
X1241056Y55162D01*
X1241054Y55175D01*
X1241057Y55190D01*
X1241096Y56595D01*
X1241094Y56608D01*
X1241096Y56623D01*
X1241057Y58028D01*
X1241054Y58040D01*
X1241056Y58056D01*
X1240939Y59457D01*
X1240936Y59466D01*
X1240936Y59478D01*
X1240848Y60175D01*
X1240845Y60184D01*
X1240845Y60196D01*
X1240610Y61582D01*
X1240606Y61594D01*
X1240605Y61609D01*
X1240292Y62980D01*
X1240287Y62992D01*
X1240285Y63007D01*
X1239895Y64358D01*
X1239889Y64369D01*
X1239886Y64385D01*
X1239420Y65711D01*
X1239415Y65719D01*
X1239412Y65731D01*
X1239151Y66383D01*
X1239146Y66391D01*
X1239143Y66403D01*
X1238565Y67684D01*
X1238558Y67695D01*
X1238553Y67710D01*
X1237904Y68957D01*
X1237898Y68964D01*
X1237894Y68975D01*
X1237543Y69584D01*
X1237537Y69592D01*
X1237533Y69603D01*
X1236780Y70790D01*
X1236772Y70799D01*
X1236765Y70813D01*
X1235947Y71957D01*
X1235940Y71963D01*
X1235935Y71974D01*
X1235502Y72528D01*
X1235495Y72534D01*
X1235489Y72544D01*
X1234578Y73614D01*
X1234568Y73622D01*
X1234559Y73635D01*
X1233590Y74653D01*
X1233579Y74660D01*
X1233570Y74673D01*
X1232545Y75635D01*
X1232537Y75640D01*
X1232529Y75649D01*
X1231997Y76108D01*
X1231989Y76113D01*
X1231981Y76121D01*
X1230879Y76994D01*
X1230867Y77000D01*
X1230856Y77011D01*
X1229707Y77820D01*
X1229698Y77824D01*
X1229690Y77832D01*
X1229098Y78212D01*
X1229090Y78215D01*
X1229080Y78223D01*
X1227867Y78933D01*
X1227855Y78937D01*
X1227842Y78946D01*
X1226591Y79586D01*
X1226578Y79589D01*
X1226565Y79598D01*
X1225279Y80166D01*
X1225267Y80169D01*
X1225253Y80177D01*
X1223937Y80671D01*
X1223928Y80673D01*
X1223917Y80678D01*
X1223249Y80897D01*
X1223240Y80898D01*
X1223229Y80903D01*
X1221876Y81284D01*
X1221863Y81285D01*
X1221848Y81291D01*
X1220476Y81594D01*
X1220466Y81594D01*
X1220455Y81598D01*
X1219763Y81720D01*
X1219753Y81720D01*
X1219742Y81723D01*
X1218349Y81909D01*
X1218336Y81908D01*
X1218321Y81912D01*
X1216919Y82019D01*
X1216907Y82018D01*
X1216891Y82021D01*
X1215486Y82050D01*
X1215474Y82048D01*
X1215458Y82050D01*
X1214054Y82001D01*
X1214041Y81998D01*
X1214026Y81999D01*
X1212626Y81872D01*
X1212617Y81870D01*
X1212605Y81870D01*
X1211908Y81777D01*
X1211899Y81774D01*
X1211887Y81774D01*
X1210503Y81529D01*
X1210491Y81525D01*
X1210476Y81524D01*
X1209107Y81201D01*
X1209096Y81196D01*
X1209080Y81194D01*
X1207732Y80794D01*
X1207721Y80788D01*
X1207705Y80785D01*
X1206383Y80310D01*
X1206374Y80305D01*
X1206363Y80302D01*
X1205712Y80036D01*
X1205704Y80031D01*
X1205693Y80028D01*
X1204415Y79441D01*
X1204405Y79434D01*
X1204390Y79429D01*
X1203147Y78771D01*
X1203140Y78765D01*
X1203129Y78761D01*
X1202522Y78406D01*
X1202515Y78400D01*
X1202504Y78395D01*
X1201322Y77635D01*
X1201313Y77626D01*
X1201299Y77619D01*
X1200161Y76794D01*
X1200154Y76786D01*
X1200144Y76781D01*
X1199593Y76345D01*
X1199587Y76337D01*
X1199577Y76331D01*
X1198513Y75413D01*
X1198505Y75403D01*
X1198492Y75394D01*
X1197481Y74418D01*
X1197474Y74407D01*
X1197461Y74398D01*
X1196507Y73366D01*
X1196500Y73355D01*
X1196488Y73345D01*
X1195592Y72262D01*
X1195588Y72253D01*
X1195579Y72245D01*
X1195155Y71685D01*
X1195151Y71676D01*
X1195143Y71668D01*
X1194341Y70513D01*
X1194336Y70501D01*
X1194326Y70489D01*
X1193591Y69291D01*
X1193587Y69279D01*
X1193577Y69267D01*
X1192911Y68029D01*
X1192907Y68017D01*
X1192898Y68004D01*
X1192303Y66730D01*
X1192300Y66721D01*
X1192294Y66711D01*
X1192024Y66062D01*
X1192022Y66053D01*
X1192016Y66042D01*
X1191531Y64723D01*
X1191529Y64710D01*
X1191522Y64696D01*
X1191113Y63351D01*
X1191112Y63339D01*
X1191106Y63324D01*
X1190773Y61958D01*
X1190773Y61949D01*
X1190769Y61937D01*
X1190632Y61248D01*
X1190632Y61238D01*
X1190628Y61227D01*
X1190413Y59838D01*
X1190414Y59828D01*
X1190410Y59817D01*
X1190332Y59119D01*
X1190333Y59109D01*
X1190330Y59098D01*
X1190233Y57695D01*
X1190235Y57683D01*
X1190232Y57668D01*
X1190213Y56262D01*
X1190215Y56250D01*
X1190213Y56235D01*
X1190271Y54830D01*
X1190274Y54818D01*
X1190273Y54802D01*
X1190410Y53403D01*
X1190414Y53391D01*
X1190414Y53376D01*
X1190629Y51986D01*
X1190632Y51977D01*
X1190633Y51966D01*
X1190770Y51276D01*
X1190774Y51267D01*
X1190774Y51255D01*
X1191107Y49890D01*
X1191111Y49881D01*
X1191112Y49869D01*
X1191307Y49194D01*
X1191312Y49185D01*
X1191314Y49173D01*
X1191761Y47841D01*
X1191768Y47830D01*
X1191771Y47814D01*
X1192293Y46509D01*
X1192298Y46501D01*
X1192301Y46490D01*
X1192590Y45849D01*
X1192596Y45841D01*
X1192599Y45830D01*
X1193230Y44574D01*
X1193238Y44564D01*
X1193244Y44549D01*
X1193945Y43331D01*
X1193953Y43321D01*
X1193960Y43307D01*
X1194728Y42130D01*
X1194735Y42123D01*
X1194740Y42112D01*
X1195149Y41541D01*
X1195156Y41534D01*
X1195161Y41524D01*
X1196026Y40416D01*
X1196036Y40407D01*
X1196044Y40394D01*
X1196970Y39336D01*
X1196980Y39328D01*
X1196989Y39316D01*
X1197972Y38311D01*
X1197982Y38304D01*
X1197992Y38292D01*
X1199030Y37344D01*
X1199041Y37338D01*
X1199051Y37326D01*
X1200141Y36438D01*
X1200152Y36432D01*
X1200163Y36421D01*
X1201301Y35595D01*
X1201310Y35591D01*
X1201318Y35583D01*
X1201904Y35195D01*
X1201913Y35191D01*
X1201922Y35184D01*
X1203125Y34457D01*
X1203137Y34453D01*
X1203150Y34443D01*
X1204392Y33785D01*
X1204401Y33783D01*
X1204411Y33776D01*
X1205046Y33474D01*
X1205055Y33471D01*
X1205065Y33465D01*
X1206358Y32915D01*
X1206368Y32913D01*
X1206378Y32907D01*
X1207036Y32660D01*
X1207046Y32659D01*
X1207056Y32653D01*
X1208392Y32215D01*
X1208405Y32214D01*
X1208419Y32207D01*
X1209778Y31846D01*
X1209790Y31845D01*
X1209805Y31839D01*
X1211182Y31556D01*
X1211192Y31556D01*
X1211203Y31552D01*
X1211897Y31440D01*
X1211906Y31440D01*
X1211918Y31437D01*
X1213313Y31270D01*
X1213326Y31272D01*
X1213341Y31268D01*
X1214744Y31180D01*
X1214757Y31182D01*
X1214772Y31179D01*
X1216178Y31170D01*
X1216190Y31172D01*
G37*
G36*
X281732Y546760D02*
X281732Y546760D01*
X281744Y546763D01*
X281760Y546761D01*
X283161Y546868D01*
X283171Y546871D01*
X283182Y546870D01*
X283880Y546953D01*
X283889Y546956D01*
X283901Y546956D01*
X285289Y547181D01*
X285301Y547186D01*
X285317Y547187D01*
X286689Y547490D01*
X286698Y547494D01*
X286710Y547495D01*
X287389Y547675D01*
X287398Y547680D01*
X287410Y547681D01*
X288751Y548100D01*
X288762Y548106D01*
X288778Y548109D01*
X290094Y548604D01*
X290105Y548610D01*
X290120Y548614D01*
X291406Y549182D01*
X291414Y549188D01*
X291425Y549191D01*
X292055Y549502D01*
X292063Y549508D01*
X292074Y549512D01*
X293307Y550187D01*
X293317Y550195D01*
X293331Y550201D01*
X294524Y550945D01*
X294531Y550951D01*
X294542Y550956D01*
X295122Y551353D01*
X295129Y551360D01*
X295139Y551365D01*
X296265Y552206D01*
X296274Y552216D01*
X296287Y552224D01*
X297365Y553127D01*
X297372Y553137D01*
X297385Y553146D01*
X298410Y554108D01*
X298418Y554118D01*
X298430Y554127D01*
X299399Y555145D01*
X299404Y555153D01*
X299413Y555161D01*
X299876Y555690D01*
X299881Y555698D01*
X299890Y555706D01*
X300770Y556802D01*
X300776Y556813D01*
X300787Y556824D01*
X301605Y557967D01*
X301610Y557979D01*
X301620Y557991D01*
X302373Y559178D01*
X302377Y559190D01*
X302387Y559202D01*
X303071Y560430D01*
X303075Y560443D01*
X303084Y560456D01*
X303697Y561720D01*
X303700Y561730D01*
X303706Y561740D01*
X303986Y562384D01*
X303987Y562391D01*
X303991Y562398D01*
X304252Y563050D01*
X304254Y563060D01*
X304260Y563070D01*
X304726Y564396D01*
X304728Y564409D01*
X304735Y564423D01*
X305125Y565773D01*
X305126Y565786D01*
X305132Y565801D01*
X305445Y567171D01*
X305445Y567181D01*
X305449Y567192D01*
X305576Y567883D01*
X305576Y567893D01*
X305580Y567904D01*
X305775Y569296D01*
X305775Y569309D01*
X305778Y569324D01*
X305896Y570725D01*
X305894Y570737D01*
X305897Y570753D01*
X305936Y572158D01*
X305934Y572170D01*
X305936Y572185D01*
X305897Y573590D01*
X305894Y573603D01*
X305896Y573618D01*
X305778Y575019D01*
X305775Y575031D01*
X305775Y575047D01*
X305580Y576439D01*
X305577Y576448D01*
X305576Y576460D01*
X305449Y577151D01*
X305447Y577157D01*
X305446Y577165D01*
X305300Y577852D01*
X305296Y577861D01*
X305295Y577873D01*
X304943Y579234D01*
X304938Y579245D01*
X304935Y579261D01*
X304507Y580600D01*
X304502Y580608D01*
X304500Y580620D01*
X304257Y581280D01*
X304254Y581285D01*
X304252Y581293D01*
X303991Y581945D01*
X303986Y581954D01*
X303983Y581965D01*
X303406Y583247D01*
X303398Y583257D01*
X303393Y583272D01*
X302745Y584519D01*
X302737Y584529D01*
X302731Y584544D01*
X302013Y585752D01*
X302004Y585761D01*
X301998Y585776D01*
X301213Y586942D01*
X301206Y586948D01*
X301201Y586959D01*
X300784Y587525D01*
X300777Y587531D01*
X300771Y587542D01*
X299891Y588637D01*
X299881Y588646D01*
X299873Y588659D01*
X298932Y589704D01*
X298922Y589711D01*
X298913Y589724D01*
X297916Y590714D01*
X297905Y590721D01*
X297895Y590734D01*
X296844Y591667D01*
X296836Y591671D01*
X296828Y591680D01*
X296284Y592124D01*
X296275Y592129D01*
X296267Y592137D01*
X295141Y592979D01*
X295130Y592984D01*
X295118Y592995D01*
X293947Y593772D01*
X293935Y593777D01*
X293923Y593787D01*
X292710Y594497D01*
X292698Y594501D01*
X292685Y594510D01*
X291433Y595150D01*
X291424Y595153D01*
X291414Y595160D01*
X290776Y595453D01*
X290766Y595455D01*
X290756Y595461D01*
X289455Y595993D01*
X289442Y595995D01*
X289428Y596003D01*
X288099Y596460D01*
X288086Y596461D01*
X288072Y596468D01*
X286719Y596849D01*
X286709Y596850D01*
X286698Y596854D01*
X286014Y597016D01*
X286005Y597016D01*
X285993Y597020D01*
X284613Y597284D01*
X284603Y597284D01*
X284592Y597288D01*
X283897Y597391D01*
X283887Y597390D01*
X283876Y597393D01*
X282478Y597540D01*
X282465Y597539D01*
X282450Y597542D01*
X281046Y597610D01*
X281034Y597608D01*
X281018Y597611D01*
X279613Y597601D01*
X279600Y597599D01*
X279585Y597600D01*
X278182Y597512D01*
X278173Y597510D01*
X278161Y597511D01*
X277462Y597437D01*
X277453Y597434D01*
X277441Y597435D01*
X276051Y597229D01*
X276039Y597225D01*
X276023Y597224D01*
X274646Y596941D01*
X274634Y596936D01*
X274619Y596934D01*
X273260Y596573D01*
X273252Y596568D01*
X273240Y596567D01*
X272569Y596357D01*
X272560Y596353D01*
X272549Y596351D01*
X271226Y595875D01*
X271215Y595868D01*
X271200Y595865D01*
X270618Y595618D01*
X269906Y595315D01*
X269898Y595309D01*
X269887Y595306D01*
X269252Y595004D01*
X269244Y594998D01*
X269233Y594994D01*
X267991Y594337D01*
X267981Y594329D01*
X267966Y594323D01*
X266763Y593596D01*
X266754Y593588D01*
X266739Y593581D01*
X265579Y592788D01*
X265570Y592779D01*
X265556Y592771D01*
X264442Y591914D01*
X264434Y591905D01*
X264420Y591897D01*
X263356Y590978D01*
X263350Y590971D01*
X263341Y590964D01*
X262828Y590483D01*
X262823Y590476D01*
X262813Y590469D01*
X261830Y589464D01*
X261823Y589454D01*
X261811Y589444D01*
X260885Y588386D01*
X260879Y588375D01*
X260867Y588364D01*
X260002Y587256D01*
X259998Y587248D01*
X259990Y587240D01*
X259581Y586668D01*
X259577Y586659D01*
X259569Y586650D01*
X258800Y585474D01*
X258795Y585462D01*
X258785Y585450D01*
X258084Y584231D01*
X258080Y584219D01*
X258071Y584206D01*
X257440Y582951D01*
X257437Y582941D01*
X257431Y582931D01*
X257142Y582291D01*
X257140Y582281D01*
X257134Y582271D01*
X256611Y580966D01*
X256609Y580953D01*
X256601Y580939D01*
X256154Y579607D01*
X256153Y579597D01*
X256148Y579587D01*
X255952Y578911D01*
X255952Y578902D01*
X255947Y578891D01*
X255615Y577525D01*
X255614Y577515D01*
X255610Y577504D01*
X255473Y576815D01*
X255473Y576805D01*
X255469Y576794D01*
X255254Y575405D01*
X255254Y575392D01*
X255250Y575377D01*
X255113Y573978D01*
X255115Y573966D01*
X255111Y573950D01*
X255053Y572546D01*
X255055Y572534D01*
X255053Y572518D01*
X255072Y571113D01*
X255074Y571101D01*
X255073Y571085D01*
X255170Y569683D01*
X255174Y569671D01*
X255173Y569655D01*
X255349Y568260D01*
X255352Y568251D01*
X255352Y568239D01*
X255469Y567546D01*
X255473Y567537D01*
X255473Y567526D01*
X255767Y566151D01*
X255772Y566139D01*
X255774Y566123D01*
X256144Y564768D01*
X256150Y564756D01*
X256153Y564741D01*
X256600Y563408D01*
X256605Y563400D01*
X256607Y563388D01*
X256859Y562732D01*
X256864Y562724D01*
X256867Y562712D01*
X257426Y561422D01*
X257431Y561414D01*
X257435Y561403D01*
X257742Y560770D01*
X257747Y560763D01*
X257751Y560752D01*
X258417Y559514D01*
X258426Y559504D01*
X258432Y559490D01*
X259167Y558292D01*
X259173Y558285D01*
X259178Y558274D01*
X259571Y557691D01*
X259577Y557684D01*
X259583Y557674D01*
X260416Y556542D01*
X260426Y556533D01*
X260433Y556520D01*
X261329Y555436D01*
X261339Y555428D01*
X261348Y555415D01*
X262302Y554384D01*
X262313Y554376D01*
X262322Y554364D01*
X263333Y553387D01*
X263344Y553381D01*
X263354Y553369D01*
X264418Y552450D01*
X264426Y552446D01*
X264434Y552437D01*
X264985Y552001D01*
X264994Y551996D01*
X265002Y551988D01*
X266140Y551162D01*
X266151Y551157D01*
X266163Y551147D01*
X267345Y550386D01*
X267357Y550382D01*
X267369Y550372D01*
X268593Y549679D01*
X268605Y549675D01*
X268618Y549666D01*
X269878Y549044D01*
X269887Y549041D01*
X269897Y549035D01*
X270540Y548751D01*
X270546Y548749D01*
X270553Y548745D01*
X271204Y548479D01*
X271213Y548478D01*
X271224Y548472D01*
X272546Y547996D01*
X272559Y547994D01*
X272573Y547987D01*
X273921Y547588D01*
X273934Y547586D01*
X273948Y547580D01*
X275316Y547258D01*
X275329Y547257D01*
X275344Y547252D01*
X276728Y547007D01*
X276738Y547007D01*
X276749Y547004D01*
X277446Y546911D01*
X277455Y546912D01*
X277467Y546909D01*
X278866Y546781D01*
X278879Y546783D01*
X278894Y546780D01*
X280299Y546731D01*
X280311Y546733D01*
X280327Y546731D01*
X281732Y546760D01*
G37*
G36*
X1067872Y31194D02*
X1067872Y31194D01*
X1067884Y31197D01*
X1067900Y31195D01*
X1069301Y31303D01*
X1069313Y31306D01*
X1069329Y31306D01*
X1070722Y31492D01*
X1070732Y31495D01*
X1070743Y31495D01*
X1071436Y31617D01*
X1071442Y31620D01*
X1071449Y31620D01*
X1072138Y31762D01*
X1072147Y31766D01*
X1072159Y31767D01*
X1073522Y32109D01*
X1073533Y32114D01*
X1073549Y32116D01*
X1074891Y32535D01*
X1074902Y32542D01*
X1074918Y32545D01*
X1076234Y33039D01*
X1076244Y33046D01*
X1076260Y33050D01*
X1077545Y33618D01*
X1077556Y33626D01*
X1077571Y33630D01*
X1078822Y34270D01*
X1078832Y34278D01*
X1078847Y34284D01*
X1080060Y34994D01*
X1080067Y35000D01*
X1080078Y35005D01*
X1080669Y35385D01*
X1080676Y35392D01*
X1080687Y35397D01*
X1081836Y36206D01*
X1081842Y36213D01*
X1081853Y36219D01*
X1082410Y36647D01*
X1082416Y36655D01*
X1082426Y36661D01*
X1083503Y37564D01*
X1083511Y37574D01*
X1083524Y37583D01*
X1084549Y38545D01*
X1084554Y38553D01*
X1084564Y38559D01*
X1085055Y39062D01*
X1085061Y39070D01*
X1085070Y39077D01*
X1086010Y40122D01*
X1086017Y40133D01*
X1086028Y40143D01*
X1086909Y41239D01*
X1086914Y41250D01*
X1086925Y41261D01*
X1087743Y42405D01*
X1087748Y42416D01*
X1087759Y42428D01*
X1088510Y43616D01*
X1088515Y43628D01*
X1088525Y43640D01*
X1089209Y44868D01*
X1089211Y44877D01*
X1089219Y44887D01*
X1089534Y45515D01*
X1089537Y45524D01*
X1089543Y45534D01*
X1090120Y46816D01*
X1090123Y46828D01*
X1090131Y46842D01*
X1090177Y46961D01*
X1090635Y48154D01*
X1090636Y48164D01*
X1090642Y48174D01*
X1090866Y48841D01*
X1090867Y48850D01*
X1090872Y48861D01*
X1091262Y50211D01*
X1091263Y50224D01*
X1091269Y50239D01*
X1091582Y51609D01*
X1091583Y51619D01*
X1091587Y51630D01*
X1091714Y52321D01*
X1091714Y52331D01*
X1091717Y52342D01*
X1091913Y53734D01*
X1091912Y53747D01*
X1091916Y53762D01*
X1092033Y55162D01*
X1092032Y55175D01*
X1092035Y55190D01*
X1092074Y56595D01*
X1092071Y56608D01*
X1092074Y56623D01*
X1092035Y58028D01*
X1092032Y58040D01*
X1092033Y58056D01*
X1091916Y59457D01*
X1091912Y59469D01*
X1091913Y59484D01*
X1091717Y60876D01*
X1091714Y60886D01*
X1091714Y60897D01*
X1091587Y61589D01*
X1091583Y61598D01*
X1091582Y61609D01*
X1091269Y62980D01*
X1091265Y62989D01*
X1091264Y63000D01*
X1091079Y63678D01*
X1091074Y63687D01*
X1091073Y63699D01*
X1090644Y65037D01*
X1090638Y65049D01*
X1090635Y65064D01*
X1090131Y66376D01*
X1090126Y66385D01*
X1090123Y66396D01*
X1089843Y67041D01*
X1089838Y67049D01*
X1089835Y67060D01*
X1089221Y68325D01*
X1089214Y68335D01*
X1089208Y68350D01*
X1088524Y69578D01*
X1088516Y69588D01*
X1088510Y69602D01*
X1087758Y70790D01*
X1087749Y70799D01*
X1087742Y70813D01*
X1086925Y71957D01*
X1086916Y71965D01*
X1086908Y71979D01*
X1086027Y73075D01*
X1086020Y73081D01*
X1086014Y73091D01*
X1085551Y73620D01*
X1085543Y73626D01*
X1085537Y73635D01*
X1084568Y74653D01*
X1084557Y74660D01*
X1084548Y74673D01*
X1083523Y75635D01*
X1083512Y75642D01*
X1083502Y75653D01*
X1082425Y76557D01*
X1082416Y76561D01*
X1082408Y76570D01*
X1081851Y76998D01*
X1081843Y77003D01*
X1081834Y77011D01*
X1080685Y77820D01*
X1080674Y77825D01*
X1080662Y77836D01*
X1079469Y78579D01*
X1079457Y78584D01*
X1079444Y78593D01*
X1078212Y79268D01*
X1078202Y79271D01*
X1078193Y79278D01*
X1077563Y79589D01*
X1077553Y79592D01*
X1077543Y79598D01*
X1076258Y80166D01*
X1076248Y80168D01*
X1076238Y80175D01*
X1075583Y80431D01*
X1075574Y80433D01*
X1075564Y80438D01*
X1074234Y80895D01*
X1074224Y80896D01*
X1074214Y80902D01*
X1073540Y81101D01*
X1073531Y81102D01*
X1073520Y81107D01*
X1072156Y81449D01*
X1072147Y81449D01*
X1072135Y81454D01*
X1071447Y81595D01*
X1071437Y81596D01*
X1071426Y81599D01*
X1070039Y81824D01*
X1070026Y81824D01*
X1070011Y81828D01*
X1068613Y81974D01*
X1068600Y81973D01*
X1068585Y81977D01*
X1067181Y82045D01*
X1067169Y82043D01*
X1067153Y82045D01*
X1065748Y82035D01*
X1065735Y82033D01*
X1065720Y82034D01*
X1064317Y81946D01*
X1064305Y81943D01*
X1064289Y81944D01*
X1062893Y81778D01*
X1062884Y81775D01*
X1062872Y81775D01*
X1062179Y81662D01*
X1062170Y81659D01*
X1062158Y81658D01*
X1060781Y81374D01*
X1060769Y81369D01*
X1060754Y81368D01*
X1059395Y81007D01*
X1059384Y81001D01*
X1059368Y80998D01*
X1058032Y80561D01*
X1058024Y80556D01*
X1058012Y80554D01*
X1057354Y80306D01*
X1057346Y80301D01*
X1057335Y80298D01*
X1056754Y80052D01*
X1056041Y79749D01*
X1056033Y79743D01*
X1056022Y79740D01*
X1055387Y79438D01*
X1055379Y79432D01*
X1055368Y79428D01*
X1054126Y78771D01*
X1054116Y78762D01*
X1054101Y78757D01*
X1052898Y78030D01*
X1052891Y78023D01*
X1052880Y78019D01*
X1052294Y77630D01*
X1052288Y77624D01*
X1052277Y77618D01*
X1051139Y76793D01*
X1051131Y76783D01*
X1051117Y76776D01*
X1050028Y75888D01*
X1050020Y75878D01*
X1050006Y75869D01*
X1048968Y74922D01*
X1048963Y74914D01*
X1048953Y74907D01*
X1048454Y74412D01*
X1048449Y74404D01*
X1048440Y74397D01*
X1047485Y73365D01*
X1047478Y73355D01*
X1047467Y73344D01*
X1046571Y72261D01*
X1046565Y72250D01*
X1046553Y72239D01*
X1045720Y71107D01*
X1045715Y71096D01*
X1045704Y71084D01*
X1044936Y69907D01*
X1044931Y69895D01*
X1044921Y69883D01*
X1044220Y68665D01*
X1044216Y68653D01*
X1044206Y68640D01*
X1043575Y67384D01*
X1043573Y67375D01*
X1043566Y67365D01*
X1043278Y66724D01*
X1043275Y66714D01*
X1043269Y66704D01*
X1042747Y65399D01*
X1042745Y65390D01*
X1042740Y65379D01*
X1042507Y64716D01*
X1042505Y64707D01*
X1042500Y64696D01*
X1042091Y63351D01*
X1042090Y63339D01*
X1042083Y63324D01*
X1041751Y61958D01*
X1041751Y61949D01*
X1041746Y61937D01*
X1041609Y61248D01*
X1041609Y61238D01*
X1041606Y61227D01*
X1041391Y59838D01*
X1041391Y59825D01*
X1041387Y59810D01*
X1041250Y58411D01*
X1041252Y58399D01*
X1041249Y58383D01*
X1041190Y56979D01*
X1041192Y56967D01*
X1041190Y56951D01*
X1041209Y55546D01*
X1041212Y55534D01*
X1041211Y55518D01*
X1041308Y54116D01*
X1041312Y54104D01*
X1041311Y54088D01*
X1041487Y52693D01*
X1041490Y52684D01*
X1041490Y52672D01*
X1041608Y51979D01*
X1041610Y51973D01*
X1041610Y51966D01*
X1041747Y51276D01*
X1041751Y51267D01*
X1041752Y51255D01*
X1042084Y49890D01*
X1042090Y49878D01*
X1042092Y49862D01*
X1042501Y48518D01*
X1042508Y48506D01*
X1042510Y48491D01*
X1042996Y47172D01*
X1043001Y47163D01*
X1043003Y47152D01*
X1043274Y46503D01*
X1043279Y46495D01*
X1043282Y46484D01*
X1043878Y45210D01*
X1043885Y45200D01*
X1043890Y45185D01*
X1044557Y43948D01*
X1044565Y43938D01*
X1044571Y43923D01*
X1045306Y42725D01*
X1045313Y42718D01*
X1045317Y42707D01*
X1045710Y42124D01*
X1045717Y42118D01*
X1045722Y42107D01*
X1046556Y40975D01*
X1046565Y40967D01*
X1046573Y40953D01*
X1047469Y39870D01*
X1047478Y39862D01*
X1047487Y39849D01*
X1048442Y38817D01*
X1048452Y38810D01*
X1048462Y38797D01*
X1049473Y37821D01*
X1049484Y37814D01*
X1049494Y37802D01*
X1050558Y36884D01*
X1050569Y36878D01*
X1050579Y36866D01*
X1051694Y36009D01*
X1051702Y36005D01*
X1051711Y35997D01*
X1052285Y35592D01*
X1052294Y35588D01*
X1052303Y35580D01*
X1053485Y34820D01*
X1053497Y34815D01*
X1053509Y34805D01*
X1054732Y34113D01*
X1054741Y34110D01*
X1054751Y34103D01*
X1055377Y33783D01*
X1055386Y33780D01*
X1055396Y33774D01*
X1056673Y33187D01*
X1056686Y33185D01*
X1056699Y33176D01*
X1058008Y32663D01*
X1058018Y32662D01*
X1058028Y32656D01*
X1058693Y32428D01*
X1058702Y32426D01*
X1058713Y32421D01*
X1060061Y32021D01*
X1060073Y32020D01*
X1060088Y32014D01*
X1061456Y31691D01*
X1061466Y31691D01*
X1061477Y31687D01*
X1062167Y31555D01*
X1062177Y31555D01*
X1062188Y31551D01*
X1063579Y31346D01*
X1063591Y31347D01*
X1063606Y31343D01*
X1065006Y31216D01*
X1065019Y31217D01*
X1065034Y31214D01*
X1066439Y31165D01*
X1066451Y31167D01*
X1066467Y31165D01*
X1067872Y31194D01*
G37*
G36*
X1346696Y31172D02*
X1346696Y31172D01*
X1346711Y31170D01*
X1348115Y31239D01*
X1348127Y31242D01*
X1348143Y31241D01*
X1349541Y31388D01*
X1349553Y31391D01*
X1349569Y31391D01*
X1350956Y31617D01*
X1350965Y31620D01*
X1350977Y31620D01*
X1351665Y31762D01*
X1351674Y31766D01*
X1351686Y31767D01*
X1353049Y32109D01*
X1353058Y32113D01*
X1353070Y32115D01*
X1353744Y32315D01*
X1353752Y32319D01*
X1353764Y32321D01*
X1355093Y32778D01*
X1355104Y32785D01*
X1355120Y32788D01*
X1356421Y33320D01*
X1356432Y33327D01*
X1356447Y33331D01*
X1357716Y33936D01*
X1357723Y33941D01*
X1357735Y33945D01*
X1358356Y34274D01*
X1358363Y34280D01*
X1358374Y34284D01*
X1359588Y34994D01*
X1359597Y35003D01*
X1359612Y35009D01*
X1360783Y35786D01*
X1360792Y35795D01*
X1360806Y35802D01*
X1361932Y36644D01*
X1361940Y36653D01*
X1361954Y36661D01*
X1363031Y37564D01*
X1363039Y37574D01*
X1363052Y37583D01*
X1364076Y38545D01*
X1364082Y38553D01*
X1364091Y38560D01*
X1364583Y39062D01*
X1364588Y39070D01*
X1364597Y39077D01*
X1365538Y40122D01*
X1365544Y40133D01*
X1365556Y40143D01*
X1366436Y41239D01*
X1366441Y41248D01*
X1366449Y41256D01*
X1366866Y41822D01*
X1366870Y41830D01*
X1366878Y41839D01*
X1367663Y43005D01*
X1367668Y43017D01*
X1367678Y43029D01*
X1368396Y44237D01*
X1368400Y44249D01*
X1368410Y44262D01*
X1369059Y45509D01*
X1369062Y45521D01*
X1369071Y45534D01*
X1369648Y46816D01*
X1369650Y46825D01*
X1369656Y46835D01*
X1369918Y47488D01*
X1369919Y47494D01*
X1369923Y47501D01*
X1370165Y48161D01*
X1370167Y48170D01*
X1370172Y48181D01*
X1370601Y49520D01*
X1370602Y49532D01*
X1370608Y49547D01*
X1370960Y50908D01*
X1370961Y50917D01*
X1370965Y50928D01*
X1371112Y51616D01*
X1371112Y51626D01*
X1371116Y51637D01*
X1371351Y53022D01*
X1371350Y53032D01*
X1371354Y53043D01*
X1371442Y53741D01*
X1371441Y53750D01*
X1371444Y53762D01*
X1371561Y55163D01*
X1371560Y55175D01*
X1371563Y55190D01*
X1371601Y56595D01*
X1371599Y56608D01*
X1371601Y56623D01*
X1371563Y58028D01*
X1371560Y58040D01*
X1371561Y58056D01*
X1371444Y59457D01*
X1371441Y59466D01*
X1371442Y59477D01*
X1371354Y60175D01*
X1371351Y60184D01*
X1371351Y60196D01*
X1371116Y61582D01*
X1371111Y61594D01*
X1371110Y61609D01*
X1370797Y62980D01*
X1370792Y62991D01*
X1370790Y63007D01*
X1370400Y64358D01*
X1370395Y64366D01*
X1370394Y64378D01*
X1370170Y65044D01*
X1370165Y65053D01*
X1370163Y65064D01*
X1369659Y66376D01*
X1369654Y66385D01*
X1369651Y66396D01*
X1369371Y67041D01*
X1369366Y67049D01*
X1369362Y67060D01*
X1368749Y68325D01*
X1368741Y68335D01*
X1368736Y68350D01*
X1368052Y69578D01*
X1368044Y69588D01*
X1368038Y69602D01*
X1367286Y70790D01*
X1367277Y70799D01*
X1367270Y70813D01*
X1366452Y71957D01*
X1366445Y71963D01*
X1366440Y71973D01*
X1366007Y72527D01*
X1366000Y72534D01*
X1365994Y72544D01*
X1365083Y73614D01*
X1365073Y73622D01*
X1365064Y73635D01*
X1364095Y74653D01*
X1364085Y74660D01*
X1364075Y74673D01*
X1363050Y75635D01*
X1363040Y75641D01*
X1363029Y75653D01*
X1361952Y76556D01*
X1361941Y76562D01*
X1361930Y76574D01*
X1360804Y77415D01*
X1360796Y77419D01*
X1360787Y77427D01*
X1360207Y77824D01*
X1360198Y77828D01*
X1360189Y77835D01*
X1358996Y78579D01*
X1358984Y78583D01*
X1358972Y78593D01*
X1357739Y79268D01*
X1357730Y79271D01*
X1357720Y79278D01*
X1357090Y79589D01*
X1357081Y79591D01*
X1357071Y79598D01*
X1355785Y80166D01*
X1355772Y80169D01*
X1355759Y80177D01*
X1354443Y80671D01*
X1354433Y80672D01*
X1354423Y80678D01*
X1353755Y80897D01*
X1353745Y80898D01*
X1353735Y80903D01*
X1352381Y81284D01*
X1352369Y81284D01*
X1352354Y81290D01*
X1350981Y81594D01*
X1350972Y81594D01*
X1350961Y81598D01*
X1350268Y81720D01*
X1350259Y81720D01*
X1350248Y81723D01*
X1348854Y81909D01*
X1348841Y81908D01*
X1348826Y81912D01*
X1347425Y82019D01*
X1347412Y82018D01*
X1347397Y82021D01*
X1345992Y82050D01*
X1345979Y82048D01*
X1345964Y82050D01*
X1344559Y82001D01*
X1344547Y81998D01*
X1344531Y81999D01*
X1343132Y81872D01*
X1343122Y81870D01*
X1343111Y81870D01*
X1342414Y81777D01*
X1342405Y81774D01*
X1342393Y81774D01*
X1341009Y81529D01*
X1340997Y81524D01*
X1340981Y81523D01*
X1339613Y81201D01*
X1339601Y81195D01*
X1339586Y81194D01*
X1338238Y80794D01*
X1338227Y80788D01*
X1338211Y80785D01*
X1336888Y80309D01*
X1336880Y80304D01*
X1336869Y80302D01*
X1336218Y80036D01*
X1336210Y80030D01*
X1336198Y80027D01*
X1334921Y79441D01*
X1334913Y79435D01*
X1334902Y79432D01*
X1334276Y79112D01*
X1334268Y79106D01*
X1334257Y79102D01*
X1333034Y78409D01*
X1333025Y78401D01*
X1333010Y78395D01*
X1331828Y77634D01*
X1331821Y77628D01*
X1331810Y77623D01*
X1331236Y77218D01*
X1331229Y77211D01*
X1331219Y77205D01*
X1330105Y76348D01*
X1330097Y76339D01*
X1330083Y76331D01*
X1329019Y75412D01*
X1329011Y75402D01*
X1328998Y75393D01*
X1327987Y74417D01*
X1327980Y74407D01*
X1327967Y74397D01*
X1327013Y73366D01*
X1327006Y73355D01*
X1326994Y73344D01*
X1326099Y72261D01*
X1326094Y72253D01*
X1326086Y72245D01*
X1325661Y71685D01*
X1325657Y71676D01*
X1325648Y71668D01*
X1324847Y70513D01*
X1324842Y70501D01*
X1324832Y70489D01*
X1324097Y69291D01*
X1324092Y69279D01*
X1324083Y69267D01*
X1323416Y68029D01*
X1323414Y68020D01*
X1323407Y68010D01*
X1323100Y67378D01*
X1323098Y67368D01*
X1323091Y67358D01*
X1322532Y66069D01*
X1322530Y66056D01*
X1322522Y66042D01*
X1322037Y64723D01*
X1322035Y64710D01*
X1322028Y64696D01*
X1321619Y63351D01*
X1321618Y63342D01*
X1321613Y63331D01*
X1321437Y62650D01*
X1321436Y62641D01*
X1321432Y62630D01*
X1321139Y61255D01*
X1321139Y61245D01*
X1321135Y61234D01*
X1321017Y60541D01*
X1321018Y60531D01*
X1321014Y60520D01*
X1320838Y59126D01*
X1320839Y59113D01*
X1320836Y59098D01*
X1320738Y57696D01*
X1320740Y57683D01*
X1320737Y57668D01*
X1320718Y56262D01*
X1320720Y56250D01*
X1320718Y56235D01*
X1320777Y54830D01*
X1320780Y54818D01*
X1320779Y54802D01*
X1320916Y53403D01*
X1320918Y53394D01*
X1320918Y53382D01*
X1321016Y52686D01*
X1321019Y52677D01*
X1321019Y52666D01*
X1321274Y51283D01*
X1321279Y51271D01*
X1321280Y51255D01*
X1321612Y49890D01*
X1321616Y49881D01*
X1321618Y49869D01*
X1321813Y49194D01*
X1321817Y49185D01*
X1321819Y49174D01*
X1322267Y47841D01*
X1322273Y47830D01*
X1322277Y47815D01*
X1322799Y46510D01*
X1322806Y46499D01*
X1322810Y46484D01*
X1323405Y45210D01*
X1323411Y45203D01*
X1323415Y45191D01*
X1323739Y44568D01*
X1323745Y44560D01*
X1323749Y44549D01*
X1324451Y43331D01*
X1324459Y43321D01*
X1324465Y43307D01*
X1325234Y42130D01*
X1325241Y42123D01*
X1325246Y42113D01*
X1325655Y41541D01*
X1325662Y41535D01*
X1325667Y41524D01*
X1326532Y40416D01*
X1326542Y40408D01*
X1326550Y40395D01*
X1327476Y39337D01*
X1327486Y39329D01*
X1327495Y39316D01*
X1328478Y38312D01*
X1328486Y38306D01*
X1328493Y38297D01*
X1329005Y37816D01*
X1329014Y37811D01*
X1329021Y37802D01*
X1330085Y36884D01*
X1330096Y36878D01*
X1330107Y36866D01*
X1331221Y36009D01*
X1331232Y36003D01*
X1331244Y35993D01*
X1332404Y35199D01*
X1332416Y35194D01*
X1332428Y35184D01*
X1333631Y34457D01*
X1333643Y34453D01*
X1333656Y34444D01*
X1334898Y33786D01*
X1334907Y33783D01*
X1334917Y33776D01*
X1335551Y33474D01*
X1335561Y33472D01*
X1335571Y33465D01*
X1336864Y32916D01*
X1336877Y32913D01*
X1336891Y32905D01*
X1338213Y32430D01*
X1338223Y32428D01*
X1338234Y32423D01*
X1338905Y32213D01*
X1338914Y32212D01*
X1338925Y32207D01*
X1340283Y31846D01*
X1340296Y31845D01*
X1340311Y31840D01*
X1341688Y31556D01*
X1341700Y31556D01*
X1341715Y31551D01*
X1343106Y31346D01*
X1343116Y31346D01*
X1343127Y31343D01*
X1343826Y31270D01*
X1343836Y31271D01*
X1343847Y31268D01*
X1345250Y31180D01*
X1345262Y31182D01*
X1345278Y31179D01*
X1346683Y31170D01*
X1346696Y31172D01*
G37*
G36*
X56161Y22393D02*
X56161Y22393D01*
X56173Y22396D01*
X56188Y22394D01*
X57590Y22502D01*
X57599Y22504D01*
X57611Y22504D01*
X58309Y22587D01*
X58318Y22590D01*
X58330Y22590D01*
X59717Y22815D01*
X59726Y22818D01*
X59738Y22819D01*
X60426Y22961D01*
X60435Y22964D01*
X60447Y22965D01*
X61811Y23307D01*
X61822Y23313D01*
X61838Y23315D01*
X63180Y23734D01*
X63191Y23740D01*
X63206Y23743D01*
X64522Y24238D01*
X64530Y24243D01*
X64542Y24246D01*
X64905Y24400D01*
X65189Y24521D01*
X65197Y24526D01*
X65208Y24529D01*
X66477Y25134D01*
X66487Y25142D01*
X66502Y25147D01*
X67735Y25822D01*
X67745Y25830D01*
X67759Y25836D01*
X68952Y26580D01*
X68959Y26587D01*
X68970Y26591D01*
X69550Y26988D01*
X69557Y26995D01*
X69567Y27000D01*
X70693Y27842D01*
X70702Y27851D01*
X70715Y27859D01*
X71792Y28763D01*
X71800Y28773D01*
X71813Y28781D01*
X72838Y29743D01*
X72845Y29754D01*
X72857Y29763D01*
X73827Y30781D01*
X73832Y30789D01*
X73841Y30797D01*
X74304Y31326D01*
X74308Y31334D01*
X74317Y31342D01*
X75197Y32438D01*
X75203Y32449D01*
X75214Y32460D01*
X76032Y33604D01*
X76037Y33615D01*
X76047Y33627D01*
X76799Y34814D01*
X76804Y34826D01*
X76814Y34839D01*
X77497Y36067D01*
X77500Y36076D01*
X77507Y36085D01*
X77823Y36714D01*
X77825Y36723D01*
X77832Y36733D01*
X78409Y38014D01*
X78412Y38027D01*
X78420Y38040D01*
X78924Y39353D01*
X78926Y39365D01*
X78933Y39380D01*
X79361Y40718D01*
X79362Y40728D01*
X79367Y40739D01*
X79553Y41417D01*
X79554Y41426D01*
X79558Y41437D01*
X79871Y42808D01*
X79871Y42820D01*
X79877Y42835D01*
X80111Y44221D01*
X80111Y44231D01*
X80114Y44242D01*
X80202Y44940D01*
X80202Y44949D01*
X80205Y44960D01*
X80322Y46361D01*
X80320Y46374D01*
X80323Y46389D01*
X80362Y47794D01*
X80360Y47806D01*
X80362Y47822D01*
X80323Y49227D01*
X80320Y49239D01*
X80322Y49255D01*
X80205Y50655D01*
X80201Y50667D01*
X80202Y50683D01*
X80006Y52075D01*
X80003Y52084D01*
X80002Y52096D01*
X79875Y52787D01*
X79873Y52793D01*
X79872Y52801D01*
X79726Y53489D01*
X79722Y53497D01*
X79721Y53509D01*
X79369Y54870D01*
X79365Y54879D01*
X79363Y54891D01*
X79159Y55563D01*
X79154Y55572D01*
X79152Y55583D01*
X78686Y56909D01*
X78681Y56918D01*
X78678Y56929D01*
X78417Y57582D01*
X78412Y57590D01*
X78409Y57601D01*
X77832Y58883D01*
X77824Y58893D01*
X77819Y58908D01*
X77170Y60155D01*
X77162Y60165D01*
X77157Y60180D01*
X76438Y61388D01*
X76432Y61395D01*
X76427Y61406D01*
X76043Y61995D01*
X76036Y62001D01*
X76031Y62012D01*
X75213Y63155D01*
X75204Y63164D01*
X75197Y63178D01*
X74316Y64273D01*
X74306Y64282D01*
X74298Y64295D01*
X73357Y65339D01*
X73347Y65347D01*
X73338Y65360D01*
X72341Y66350D01*
X72330Y66357D01*
X72320Y66369D01*
X71269Y67302D01*
X71258Y67309D01*
X71248Y67320D01*
X70146Y68193D01*
X70137Y68197D01*
X70129Y68206D01*
X69560Y68618D01*
X69551Y68622D01*
X69543Y68630D01*
X68371Y69407D01*
X68359Y69412D01*
X68347Y69422D01*
X67134Y70131D01*
X67122Y70136D01*
X67109Y70145D01*
X65858Y70785D01*
X65848Y70787D01*
X65838Y70794D01*
X65200Y71087D01*
X65190Y71089D01*
X65180Y71096D01*
X63879Y71627D01*
X63866Y71629D01*
X63852Y71637D01*
X62523Y72094D01*
X62510Y72095D01*
X62496Y72102D01*
X61143Y72483D01*
X61133Y72483D01*
X61122Y72488D01*
X60438Y72649D01*
X60431Y72649D01*
X60424Y72652D01*
X59736Y72794D01*
X59726Y72794D01*
X59715Y72798D01*
X58327Y73023D01*
X58315Y73022D01*
X58299Y73027D01*
X56902Y73173D01*
X56889Y73172D01*
X56874Y73175D01*
X55470Y73243D01*
X55457Y73241D01*
X55442Y73244D01*
X54036Y73234D01*
X54024Y73231D01*
X54009Y73233D01*
X52606Y73145D01*
X52594Y73142D01*
X52578Y73143D01*
X51182Y72976D01*
X51173Y72973D01*
X51161Y72973D01*
X50467Y72861D01*
X50458Y72857D01*
X50447Y72857D01*
X49070Y72573D01*
X49058Y72568D01*
X49042Y72567D01*
X47684Y72205D01*
X47675Y72201D01*
X47664Y72199D01*
X46993Y71990D01*
X46984Y71985D01*
X46972Y71983D01*
X45650Y71507D01*
X45639Y71501D01*
X45623Y71497D01*
X44330Y70947D01*
X44322Y70942D01*
X44310Y70939D01*
X43676Y70636D01*
X43668Y70631D01*
X43657Y70627D01*
X42415Y69969D01*
X42405Y69961D01*
X42390Y69955D01*
X41187Y69229D01*
X41178Y69220D01*
X41163Y69213D01*
X40003Y68420D01*
X39994Y68411D01*
X39980Y68404D01*
X38866Y67547D01*
X38858Y67537D01*
X38844Y67529D01*
X37780Y66611D01*
X37774Y66603D01*
X37764Y66597D01*
X37252Y66116D01*
X37246Y66108D01*
X37237Y66101D01*
X36253Y65097D01*
X36248Y65089D01*
X36239Y65081D01*
X35769Y64559D01*
X35764Y64551D01*
X35755Y64543D01*
X34860Y63460D01*
X34854Y63448D01*
X34842Y63438D01*
X34009Y62306D01*
X34004Y62294D01*
X33993Y62283D01*
X33224Y61106D01*
X33220Y61094D01*
X33210Y61082D01*
X32509Y59863D01*
X32505Y59851D01*
X32495Y59839D01*
X31864Y58583D01*
X31862Y58573D01*
X31855Y58563D01*
X31566Y57923D01*
X31564Y57913D01*
X31558Y57903D01*
X31036Y56598D01*
X31034Y56585D01*
X31026Y56571D01*
X30579Y55239D01*
X30578Y55229D01*
X30572Y55218D01*
X30377Y54543D01*
X30377Y54533D01*
X30372Y54523D01*
X30040Y53157D01*
X30039Y53147D01*
X30035Y53136D01*
X29898Y52447D01*
X29898Y52437D01*
X29895Y52426D01*
X29679Y51037D01*
X29680Y51024D01*
X29676Y51009D01*
X29539Y49610D01*
X29541Y49597D01*
X29537Y49582D01*
X29479Y48178D01*
X29481Y48165D01*
X29479Y48150D01*
X29498Y46744D01*
X29501Y46732D01*
X29499Y46717D01*
X29597Y45315D01*
X29600Y45305D01*
X29599Y45294D01*
X29677Y44595D01*
X29680Y44586D01*
X29680Y44574D01*
X29895Y43185D01*
X29900Y43173D01*
X29900Y43157D01*
X30194Y41783D01*
X30199Y41771D01*
X30201Y41755D01*
X30572Y40399D01*
X30578Y40388D01*
X30580Y40372D01*
X31028Y39040D01*
X31032Y39031D01*
X31035Y39020D01*
X31287Y38364D01*
X31292Y38355D01*
X31295Y38344D01*
X31854Y37054D01*
X31861Y37044D01*
X31866Y37029D01*
X32497Y35773D01*
X32503Y35765D01*
X32507Y35754D01*
X32849Y35140D01*
X32855Y35133D01*
X32860Y35122D01*
X33595Y33924D01*
X33601Y33917D01*
X33606Y33906D01*
X33999Y33323D01*
X34006Y33316D01*
X34011Y33306D01*
X34844Y32174D01*
X34854Y32165D01*
X34862Y32152D01*
X35757Y31069D01*
X35767Y31061D01*
X35776Y31048D01*
X36731Y30016D01*
X36741Y30009D01*
X36750Y29996D01*
X37762Y29020D01*
X37772Y29013D01*
X37782Y29001D01*
X38847Y28083D01*
X38858Y28077D01*
X38868Y28065D01*
X39982Y27208D01*
X39991Y27204D01*
X39999Y27196D01*
X40574Y26791D01*
X40583Y26787D01*
X40591Y26779D01*
X41774Y26019D01*
X41785Y26014D01*
X41798Y26004D01*
X43021Y25312D01*
X43030Y25309D01*
X43040Y25302D01*
X43665Y24982D01*
X43675Y24979D01*
X43685Y24972D01*
X44962Y24386D01*
X44975Y24383D01*
X44988Y24375D01*
X46297Y23862D01*
X46309Y23860D01*
X46323Y23853D01*
X47659Y23415D01*
X47669Y23414D01*
X47679Y23408D01*
X48356Y23218D01*
X48366Y23217D01*
X48377Y23213D01*
X49745Y22890D01*
X49754Y22890D01*
X49766Y22886D01*
X50456Y22754D01*
X50466Y22754D01*
X50477Y22750D01*
X51867Y22545D01*
X51880Y22545D01*
X51895Y22541D01*
X53295Y22414D01*
X53308Y22416D01*
X53323Y22413D01*
X54728Y22364D01*
X54740Y22366D01*
X54755Y22364D01*
X56161Y22393D01*
G37*
G36*
X55454Y141024D02*
X55454Y141024D01*
X55470Y141022D01*
X56874Y141090D01*
X56886Y141093D01*
X56901Y141092D01*
X58299Y141239D01*
X58312Y141242D01*
X58327Y141242D01*
X59715Y141467D01*
X59724Y141471D01*
X59736Y141471D01*
X60424Y141613D01*
X60433Y141617D01*
X60445Y141618D01*
X61808Y141960D01*
X61820Y141965D01*
X61836Y141967D01*
X63177Y142386D01*
X63189Y142392D01*
X63204Y142395D01*
X64520Y142890D01*
X64528Y142895D01*
X64540Y142897D01*
X64918Y143058D01*
X65187Y143172D01*
X65192Y143176D01*
X65200Y143178D01*
X65838Y143471D01*
X65846Y143477D01*
X65858Y143480D01*
X67109Y144120D01*
X67119Y144128D01*
X67134Y144134D01*
X68347Y144843D01*
X68357Y144852D01*
X68371Y144858D01*
X69543Y145635D01*
X69551Y145644D01*
X69565Y145651D01*
X70692Y146492D01*
X70700Y146502D01*
X70713Y146510D01*
X71791Y147413D01*
X71798Y147423D01*
X71812Y147432D01*
X72836Y148394D01*
X72842Y148401D01*
X72851Y148408D01*
X73343Y148911D01*
X73348Y148919D01*
X73358Y148926D01*
X74298Y149971D01*
X74304Y149981D01*
X74316Y149992D01*
X75197Y151088D01*
X75202Y151099D01*
X75213Y151110D01*
X76031Y152253D01*
X76035Y152262D01*
X76043Y152271D01*
X76427Y152859D01*
X76431Y152868D01*
X76438Y152877D01*
X77157Y154085D01*
X77161Y154097D01*
X77170Y154110D01*
X77819Y155357D01*
X77823Y155369D01*
X77832Y155382D01*
X78409Y156664D01*
X78411Y156673D01*
X78417Y156684D01*
X78678Y157336D01*
X78680Y157346D01*
X78686Y157356D01*
X79152Y158682D01*
X79153Y158692D01*
X79159Y158702D01*
X79363Y159375D01*
X79364Y159384D01*
X79369Y159395D01*
X79721Y160756D01*
X79721Y160766D01*
X79726Y160777D01*
X79872Y161464D01*
X79873Y161471D01*
X79875Y161478D01*
X80002Y162169D01*
X80002Y162179D01*
X80006Y162190D01*
X80202Y163582D01*
X80201Y163595D01*
X80205Y163610D01*
X80322Y165011D01*
X80320Y165023D01*
X80323Y165039D01*
X80362Y166444D01*
X80360Y166456D01*
X80362Y166471D01*
X80323Y167876D01*
X80320Y167889D01*
X80322Y167904D01*
X80205Y169305D01*
X80202Y169314D01*
X80202Y169326D01*
X80114Y170023D01*
X80111Y170032D01*
X80111Y170044D01*
X79877Y171430D01*
X79872Y171442D01*
X79871Y171458D01*
X79558Y172828D01*
X79554Y172837D01*
X79553Y172849D01*
X79367Y173527D01*
X79363Y173535D01*
X79361Y173547D01*
X78933Y174886D01*
X78927Y174897D01*
X78924Y174913D01*
X78420Y176225D01*
X78413Y176236D01*
X78409Y176251D01*
X77832Y177533D01*
X77826Y177540D01*
X77823Y177552D01*
X77507Y178180D01*
X77501Y178187D01*
X77497Y178198D01*
X76814Y179427D01*
X76805Y179436D01*
X76799Y179451D01*
X76047Y180638D01*
X76039Y180648D01*
X76032Y180662D01*
X75214Y181805D01*
X75205Y181814D01*
X75197Y181828D01*
X74317Y182923D01*
X74310Y182930D01*
X74304Y182940D01*
X73841Y183469D01*
X73833Y183474D01*
X73827Y183484D01*
X72857Y184502D01*
X72847Y184509D01*
X72838Y184522D01*
X71813Y185484D01*
X71802Y185491D01*
X71792Y185503D01*
X70715Y186406D01*
X70704Y186412D01*
X70693Y186423D01*
X69567Y187265D01*
X69558Y187269D01*
X69550Y187277D01*
X68970Y187674D01*
X68961Y187678D01*
X68952Y187685D01*
X67759Y188429D01*
X67747Y188433D01*
X67735Y188443D01*
X66502Y189118D01*
X66490Y189122D01*
X66477Y189131D01*
X65208Y189736D01*
X65199Y189738D01*
X65189Y189745D01*
X64542Y190020D01*
X64536Y190021D01*
X64529Y190025D01*
X63874Y190282D01*
X63865Y190283D01*
X63854Y190289D01*
X62525Y190746D01*
X62513Y190747D01*
X62498Y190754D01*
X61145Y191135D01*
X61132Y191136D01*
X61118Y191142D01*
X59745Y191445D01*
X59732Y191445D01*
X59717Y191450D01*
X58330Y191676D01*
X58320Y191675D01*
X58309Y191679D01*
X57611Y191762D01*
X57601Y191761D01*
X57590Y191764D01*
X56188Y191871D01*
X56176Y191870D01*
X56161Y191872D01*
X54755Y191902D01*
X54743Y191899D01*
X54728Y191901D01*
X53323Y191853D01*
X53311Y191850D01*
X53295Y191851D01*
X51895Y191724D01*
X51883Y191720D01*
X51867Y191721D01*
X50477Y191515D01*
X50468Y191512D01*
X50456Y191512D01*
X49766Y191380D01*
X49760Y191377D01*
X49752Y191377D01*
X49065Y191225D01*
X49057Y191221D01*
X49045Y191220D01*
X47686Y190859D01*
X47675Y190853D01*
X47659Y190851D01*
X46323Y190413D01*
X46315Y190408D01*
X46313Y190408D01*
X46311Y190406D01*
X46297Y190403D01*
X44988Y189890D01*
X44980Y189885D01*
X44968Y189882D01*
X44326Y189598D01*
X44318Y189592D01*
X44306Y189589D01*
X43046Y188967D01*
X43036Y188959D01*
X43021Y188953D01*
X41798Y188261D01*
X41788Y188253D01*
X41774Y188247D01*
X40591Y187486D01*
X40585Y187480D01*
X40574Y187474D01*
X39999Y187070D01*
X39993Y187063D01*
X39982Y187057D01*
X38868Y186200D01*
X38860Y186191D01*
X38847Y186183D01*
X37782Y185264D01*
X37775Y185254D01*
X37762Y185245D01*
X36750Y184269D01*
X36743Y184259D01*
X36731Y184249D01*
X35776Y183218D01*
X35769Y183207D01*
X35757Y183197D01*
X34862Y182113D01*
X34856Y182102D01*
X34844Y182091D01*
X34011Y180960D01*
X34007Y180951D01*
X33999Y180942D01*
X33606Y180359D01*
X33603Y180350D01*
X33595Y180342D01*
X32860Y179144D01*
X32856Y179134D01*
X32849Y179125D01*
X32507Y178511D01*
X32504Y178502D01*
X32497Y178492D01*
X31866Y177237D01*
X31863Y177224D01*
X31854Y177211D01*
X31295Y175921D01*
X31293Y175912D01*
X31287Y175902D01*
X31190Y175649D01*
X31035Y175245D01*
X31033Y175236D01*
X31028Y175225D01*
X30580Y173893D01*
X30579Y173880D01*
X30572Y173866D01*
X30201Y172510D01*
X30200Y172497D01*
X30194Y172483D01*
X29900Y171108D01*
X29900Y171095D01*
X29895Y171080D01*
X29680Y169691D01*
X29680Y169682D01*
X29677Y169670D01*
X29599Y168972D01*
X29600Y168962D01*
X29597Y168951D01*
X29499Y167549D01*
X29501Y167536D01*
X29498Y167521D01*
X29479Y166115D01*
X29481Y166103D01*
X29479Y166088D01*
X29537Y164683D01*
X29540Y164671D01*
X29539Y164655D01*
X29676Y163256D01*
X29680Y163244D01*
X29679Y163229D01*
X29895Y161839D01*
X29898Y161830D01*
X29898Y161819D01*
X30035Y161129D01*
X30039Y161120D01*
X30040Y161108D01*
X30372Y159743D01*
X30376Y159734D01*
X30377Y159722D01*
X30572Y159047D01*
X30577Y159038D01*
X30579Y159027D01*
X31026Y157694D01*
X31033Y157683D01*
X31036Y157667D01*
X31558Y156362D01*
X31563Y156354D01*
X31566Y156343D01*
X31855Y155702D01*
X31861Y155694D01*
X31864Y155683D01*
X32495Y154427D01*
X32503Y154417D01*
X32509Y154402D01*
X33210Y153183D01*
X33218Y153174D01*
X33224Y153160D01*
X33993Y151983D01*
X34002Y151974D01*
X34009Y151960D01*
X34842Y150828D01*
X34852Y150819D01*
X34860Y150806D01*
X35755Y149722D01*
X35763Y149716D01*
X35769Y149706D01*
X36239Y149184D01*
X36247Y149178D01*
X36254Y149169D01*
X37237Y148164D01*
X37247Y148157D01*
X37257Y148145D01*
X38295Y147197D01*
X38303Y147192D01*
X38311Y147183D01*
X38850Y146732D01*
X38858Y146727D01*
X38866Y146719D01*
X39980Y145862D01*
X39991Y145856D01*
X40003Y145845D01*
X41163Y145052D01*
X41175Y145047D01*
X41187Y145037D01*
X42390Y144310D01*
X42402Y144306D01*
X42415Y144296D01*
X43657Y143638D01*
X43666Y143636D01*
X43676Y143629D01*
X44310Y143327D01*
X44320Y143324D01*
X44330Y143318D01*
X45623Y142768D01*
X45636Y142766D01*
X45650Y142758D01*
X46972Y142282D01*
X46982Y142281D01*
X46993Y142275D01*
X47664Y142066D01*
X47673Y142065D01*
X47684Y142060D01*
X49042Y141699D01*
X49055Y141698D01*
X49070Y141692D01*
X50447Y141408D01*
X50456Y141408D01*
X50467Y141405D01*
X51161Y141292D01*
X51171Y141292D01*
X51182Y141289D01*
X52578Y141123D01*
X52591Y141124D01*
X52606Y141120D01*
X54009Y141032D01*
X54021Y141034D01*
X54036Y141031D01*
X55442Y141021D01*
X55454Y141024D01*
G37*
G36*
X81106Y385209D02*
X81106Y385209D01*
X81118Y385212D01*
X81133Y385211D01*
X82535Y385318D01*
X82544Y385321D01*
X82556Y385320D01*
X83254Y385403D01*
X83263Y385406D01*
X83275Y385406D01*
X84662Y385632D01*
X84671Y385635D01*
X84683Y385635D01*
X85371Y385777D01*
X85380Y385781D01*
X85392Y385782D01*
X86755Y386124D01*
X86767Y386130D01*
X86783Y386132D01*
X88125Y386551D01*
X88136Y386557D01*
X88151Y386560D01*
X89467Y387055D01*
X89478Y387061D01*
X89493Y387065D01*
X90779Y387634D01*
X90789Y387641D01*
X90804Y387646D01*
X92056Y388286D01*
X92063Y388292D01*
X92075Y388296D01*
X92686Y388642D01*
X92693Y388648D01*
X92704Y388653D01*
X93897Y389397D01*
X93904Y389403D01*
X93915Y389408D01*
X94495Y389805D01*
X94502Y389812D01*
X94512Y389817D01*
X95638Y390659D01*
X95646Y390668D01*
X95660Y390676D01*
X96737Y391579D01*
X96745Y391589D01*
X96758Y391598D01*
X97783Y392560D01*
X97790Y392570D01*
X97803Y392580D01*
X98772Y393598D01*
X98778Y393609D01*
X98790Y393619D01*
X99701Y394689D01*
X99707Y394700D01*
X99719Y394711D01*
X100568Y395831D01*
X100572Y395840D01*
X100580Y395848D01*
X100981Y396426D01*
X100985Y396434D01*
X100993Y396443D01*
X101744Y397631D01*
X101749Y397643D01*
X101759Y397655D01*
X102443Y398883D01*
X102446Y398895D01*
X102456Y398908D01*
X103069Y400173D01*
X103071Y400182D01*
X103078Y400192D01*
X103357Y400837D01*
X103359Y400847D01*
X103365Y400857D01*
X103411Y400976D01*
X103869Y402169D01*
X103871Y402182D01*
X103878Y402196D01*
X104307Y403535D01*
X104308Y403547D01*
X104315Y403562D01*
X104666Y404923D01*
X104667Y404933D01*
X104671Y404944D01*
X104818Y405631D01*
X104818Y405637D01*
X104821Y405645D01*
X104948Y406336D01*
X104948Y406346D01*
X104951Y406357D01*
X105147Y407749D01*
X105146Y407761D01*
X105150Y407777D01*
X105267Y409178D01*
X105266Y409190D01*
X105269Y409205D01*
X105308Y410610D01*
X105306Y410623D01*
X105308Y410638D01*
X105269Y412043D01*
X105266Y412056D01*
X105267Y412071D01*
X105150Y413472D01*
X105147Y413484D01*
X105147Y413500D01*
X104951Y414891D01*
X104948Y414901D01*
X104948Y414912D01*
X104821Y415604D01*
X104817Y415613D01*
X104816Y415624D01*
X104503Y416995D01*
X104498Y417006D01*
X104496Y417022D01*
X104106Y418373D01*
X104100Y418384D01*
X104097Y418400D01*
X103631Y419726D01*
X103626Y419734D01*
X103624Y419746D01*
X103363Y420398D01*
X103357Y420406D01*
X103354Y420418D01*
X102777Y421699D01*
X102771Y421707D01*
X102768Y421718D01*
X102452Y422346D01*
X102446Y422354D01*
X102442Y422365D01*
X101758Y423593D01*
X101750Y423603D01*
X101744Y423617D01*
X100992Y424805D01*
X100983Y424814D01*
X100976Y424828D01*
X100159Y425972D01*
X100152Y425978D01*
X100146Y425989D01*
X99714Y426543D01*
X99706Y426549D01*
X99700Y426559D01*
X98789Y427629D01*
X98779Y427637D01*
X98771Y427650D01*
X97801Y428668D01*
X97791Y428675D01*
X97781Y428688D01*
X96757Y429650D01*
X96746Y429656D01*
X96736Y429668D01*
X95659Y430571D01*
X95647Y430578D01*
X95637Y430589D01*
X94511Y431430D01*
X94502Y431434D01*
X94493Y431442D01*
X93913Y431839D01*
X93904Y431843D01*
X93895Y431851D01*
X92702Y432594D01*
X92691Y432598D01*
X92678Y432608D01*
X91445Y433283D01*
X91436Y433286D01*
X91426Y433293D01*
X90796Y433604D01*
X90787Y433606D01*
X90777Y433613D01*
X89491Y434181D01*
X89479Y434184D01*
X89465Y434192D01*
X88149Y434686D01*
X88140Y434687D01*
X88129Y434693D01*
X87461Y434912D01*
X87451Y434913D01*
X87441Y434918D01*
X86088Y435299D01*
X86075Y435300D01*
X86060Y435306D01*
X84688Y435609D01*
X84678Y435609D01*
X84667Y435613D01*
X83975Y435735D01*
X83965Y435735D01*
X83954Y435738D01*
X82560Y435924D01*
X82548Y435923D01*
X82533Y435927D01*
X81131Y436034D01*
X81119Y436033D01*
X81103Y436036D01*
X79698Y436065D01*
X79686Y436063D01*
X79670Y436065D01*
X78266Y436016D01*
X78253Y436013D01*
X78238Y436014D01*
X76838Y435887D01*
X76826Y435884D01*
X76810Y435884D01*
X75419Y435679D01*
X75410Y435675D01*
X75399Y435675D01*
X74708Y435543D01*
X74699Y435539D01*
X74687Y435538D01*
X73319Y435216D01*
X73308Y435210D01*
X73292Y435209D01*
X71944Y434809D01*
X71933Y434803D01*
X71917Y434800D01*
X70595Y434324D01*
X70586Y434319D01*
X70575Y434317D01*
X69924Y434051D01*
X69919Y434047D01*
X69911Y434045D01*
X69268Y433761D01*
X69260Y433756D01*
X69249Y433752D01*
X67989Y433130D01*
X67979Y433122D01*
X67964Y433117D01*
X66740Y432424D01*
X66731Y432416D01*
X66716Y432410D01*
X65534Y431649D01*
X65527Y431643D01*
X65517Y431638D01*
X64942Y431233D01*
X64935Y431226D01*
X64925Y431220D01*
X63811Y430363D01*
X63803Y430354D01*
X63789Y430346D01*
X62725Y429427D01*
X62717Y429417D01*
X62704Y429408D01*
X61693Y428432D01*
X61686Y428422D01*
X61674Y428412D01*
X60719Y427381D01*
X60712Y427370D01*
X60700Y427360D01*
X59805Y426276D01*
X59799Y426265D01*
X59787Y426254D01*
X58954Y425122D01*
X58950Y425113D01*
X58942Y425105D01*
X58549Y424522D01*
X58546Y424513D01*
X58538Y424504D01*
X57803Y423306D01*
X57799Y423294D01*
X57789Y423282D01*
X57123Y422044D01*
X57120Y422035D01*
X57113Y422025D01*
X56806Y421393D01*
X56804Y421383D01*
X56797Y421373D01*
X56239Y420084D01*
X56237Y420074D01*
X56231Y420064D01*
X56132Y419808D01*
X55979Y419408D01*
X55977Y419398D01*
X55971Y419388D01*
X55524Y418055D01*
X55523Y418046D01*
X55518Y418035D01*
X55323Y417360D01*
X55322Y417350D01*
X55317Y417339D01*
X54985Y415973D01*
X54985Y415964D01*
X54980Y415953D01*
X54844Y415263D01*
X54844Y415253D01*
X54840Y415242D01*
X54625Y413853D01*
X54625Y413840D01*
X54621Y413825D01*
X54485Y412426D01*
X54486Y412414D01*
X54483Y412398D01*
X54424Y410994D01*
X54426Y410982D01*
X54424Y410966D01*
X54444Y409561D01*
X54446Y409549D01*
X54445Y409533D01*
X54542Y408131D01*
X54546Y408119D01*
X54545Y408103D01*
X54721Y406709D01*
X54724Y406699D01*
X54724Y406688D01*
X54842Y405995D01*
X54845Y405986D01*
X54846Y405974D01*
X55139Y404599D01*
X55145Y404587D01*
X55146Y404572D01*
X55517Y403216D01*
X55523Y403204D01*
X55525Y403189D01*
X55973Y401856D01*
X55978Y401848D01*
X55980Y401836D01*
X56232Y401180D01*
X56236Y401175D01*
X56237Y401167D01*
X56508Y400518D01*
X56513Y400510D01*
X56516Y400499D01*
X57112Y399225D01*
X57119Y399215D01*
X57124Y399200D01*
X57791Y397963D01*
X57799Y397953D01*
X57805Y397938D01*
X58540Y396740D01*
X58547Y396733D01*
X58551Y396722D01*
X58944Y396139D01*
X58951Y396133D01*
X58956Y396122D01*
X59790Y394990D01*
X59799Y394982D01*
X59807Y394968D01*
X60703Y393885D01*
X60712Y393877D01*
X60721Y393864D01*
X61676Y392832D01*
X61686Y392825D01*
X61696Y392812D01*
X62707Y391836D01*
X62717Y391829D01*
X62727Y391817D01*
X63791Y390899D01*
X63803Y390893D01*
X63813Y390881D01*
X64927Y390024D01*
X64936Y390020D01*
X64944Y390012D01*
X65519Y389607D01*
X65528Y389603D01*
X65536Y389595D01*
X66719Y388835D01*
X66731Y388830D01*
X66743Y388820D01*
X67966Y388128D01*
X67978Y388124D01*
X67991Y388115D01*
X69251Y387492D01*
X69261Y387490D01*
X69271Y387483D01*
X69913Y387199D01*
X69923Y387197D01*
X69933Y387191D01*
X71242Y386678D01*
X71251Y386676D01*
X71262Y386671D01*
X71926Y386442D01*
X71936Y386441D01*
X71947Y386436D01*
X73294Y386036D01*
X73307Y386035D01*
X73322Y386029D01*
X74690Y385706D01*
X74699Y385706D01*
X74711Y385702D01*
X75401Y385570D01*
X75411Y385570D01*
X75422Y385566D01*
X76812Y385361D01*
X76825Y385361D01*
X76840Y385357D01*
X78240Y385230D01*
X78253Y385232D01*
X78268Y385229D01*
X79673Y385180D01*
X79685Y385182D01*
X79700Y385180D01*
X81106Y385209D01*
G37*
G36*
X399211Y94812D02*
X399211Y94812D01*
X399223Y94815D01*
X399238Y94814D01*
X400640Y94921D01*
X400652Y94924D01*
X400668Y94924D01*
X402061Y95110D01*
X402070Y95113D01*
X402082Y95113D01*
X402774Y95235D01*
X402783Y95239D01*
X402795Y95239D01*
X404167Y95542D01*
X404179Y95548D01*
X404195Y95549D01*
X405548Y95930D01*
X405559Y95936D01*
X405575Y95938D01*
X406904Y96395D01*
X406913Y96400D01*
X406924Y96402D01*
X407579Y96659D01*
X407584Y96662D01*
X407592Y96664D01*
X407958Y96820D01*
X408239Y96939D01*
X408247Y96945D01*
X408258Y96948D01*
X409527Y97552D01*
X409537Y97560D01*
X409552Y97565D01*
X410785Y98240D01*
X410795Y98248D01*
X410809Y98254D01*
X412002Y98998D01*
X412012Y99006D01*
X412026Y99013D01*
X413175Y99823D01*
X413182Y99830D01*
X413192Y99835D01*
X413749Y100264D01*
X413755Y100271D01*
X413765Y100277D01*
X414842Y101180D01*
X414850Y101190D01*
X414863Y101199D01*
X415888Y102161D01*
X415895Y102171D01*
X415908Y102180D01*
X416877Y103198D01*
X416884Y103209D01*
X416896Y103219D01*
X417807Y104290D01*
X417813Y104301D01*
X417824Y104312D01*
X418674Y105431D01*
X418678Y105440D01*
X418686Y105448D01*
X419087Y106026D01*
X419089Y106032D01*
X419095Y106038D01*
X419479Y106626D01*
X419482Y106635D01*
X419490Y106644D01*
X420208Y107852D01*
X420212Y107864D01*
X420222Y107877D01*
X420871Y109124D01*
X420874Y109136D01*
X420883Y109149D01*
X421460Y110431D01*
X421463Y110443D01*
X421471Y110457D01*
X421518Y110580D01*
X421710Y111079D01*
X421901Y111578D01*
X421902Y111578D01*
X421975Y111769D01*
X421977Y111782D01*
X421984Y111796D01*
X422413Y113135D01*
X422414Y113144D01*
X422419Y113155D01*
X422604Y113833D01*
X422605Y113843D01*
X422609Y113854D01*
X422922Y115224D01*
X422923Y115237D01*
X422928Y115252D01*
X423163Y116637D01*
X423162Y116647D01*
X423166Y116658D01*
X423254Y117356D01*
X423253Y117365D01*
X423256Y117377D01*
X423373Y118777D01*
X423372Y118790D01*
X423375Y118805D01*
X423414Y120210D01*
X423411Y120222D01*
X423414Y120238D01*
X423375Y121643D01*
X423372Y121655D01*
X423373Y121671D01*
X423256Y123071D01*
X423253Y123080D01*
X423254Y123092D01*
X423166Y123790D01*
X423163Y123799D01*
X423163Y123810D01*
X422928Y125196D01*
X422923Y125208D01*
X422922Y125224D01*
X422609Y126594D01*
X422605Y126603D01*
X422604Y126615D01*
X422419Y127293D01*
X422414Y127302D01*
X422413Y127313D01*
X421984Y128652D01*
X421980Y128660D01*
X421977Y128672D01*
X421735Y129332D01*
X421730Y129340D01*
X421727Y129352D01*
X421186Y130649D01*
X421181Y130657D01*
X421178Y130668D01*
X420880Y131305D01*
X420874Y131313D01*
X420871Y131324D01*
X420222Y132571D01*
X420214Y132581D01*
X420208Y132596D01*
X419490Y133804D01*
X419481Y133813D01*
X419475Y133828D01*
X418690Y134994D01*
X418681Y135002D01*
X418674Y135016D01*
X417824Y136136D01*
X417817Y136143D01*
X417811Y136153D01*
X417363Y136695D01*
X417356Y136701D01*
X417350Y136711D01*
X416409Y137755D01*
X416399Y137763D01*
X416390Y137775D01*
X415393Y138766D01*
X415382Y138773D01*
X415372Y138785D01*
X414321Y139718D01*
X414310Y139724D01*
X414299Y139736D01*
X413197Y140608D01*
X413189Y140613D01*
X413181Y140621D01*
X412612Y141034D01*
X412603Y141038D01*
X412594Y141046D01*
X411423Y141823D01*
X411411Y141827D01*
X411399Y141838D01*
X410186Y142547D01*
X410177Y142550D01*
X410167Y142557D01*
X409546Y142886D01*
X409537Y142889D01*
X409527Y142896D01*
X408258Y143500D01*
X408246Y143503D01*
X408232Y143511D01*
X406931Y144043D01*
X406918Y144045D01*
X406904Y144053D01*
X405575Y144510D01*
X405562Y144511D01*
X405548Y144518D01*
X404195Y144899D01*
X404185Y144899D01*
X404174Y144904D01*
X403490Y145065D01*
X403480Y145066D01*
X403469Y145070D01*
X402089Y145334D01*
X402079Y145334D01*
X402068Y145337D01*
X401373Y145440D01*
X401363Y145439D01*
X401352Y145443D01*
X399954Y145589D01*
X399941Y145588D01*
X399926Y145591D01*
X398522Y145659D01*
X398510Y145657D01*
X398494Y145660D01*
X397089Y145650D01*
X397077Y145648D01*
X397061Y145649D01*
X395658Y145561D01*
X395646Y145558D01*
X395630Y145559D01*
X394235Y145393D01*
X394226Y145390D01*
X394214Y145390D01*
X393520Y145277D01*
X393511Y145274D01*
X393499Y145273D01*
X392123Y144990D01*
X392111Y144984D01*
X392095Y144983D01*
X390737Y144622D01*
X390725Y144616D01*
X390709Y144614D01*
X389374Y144176D01*
X389365Y144171D01*
X389354Y144169D01*
X388696Y143922D01*
X388688Y143916D01*
X388676Y143914D01*
X388103Y143670D01*
X387382Y143364D01*
X387374Y143358D01*
X387363Y143355D01*
X386729Y143053D01*
X386721Y143047D01*
X386710Y143044D01*
X385467Y142386D01*
X385457Y142378D01*
X385443Y142372D01*
X384240Y141646D01*
X384232Y141639D01*
X384222Y141634D01*
X383636Y141246D01*
X383629Y141239D01*
X383618Y141234D01*
X382481Y140409D01*
X382472Y140399D01*
X382459Y140391D01*
X381369Y139504D01*
X381361Y139494D01*
X381348Y139485D01*
X380310Y138538D01*
X380302Y138527D01*
X380290Y138518D01*
X379306Y137514D01*
X379299Y137503D01*
X379287Y137494D01*
X378361Y136436D01*
X378355Y136425D01*
X378343Y136414D01*
X377478Y135306D01*
X377474Y135298D01*
X377466Y135289D01*
X377057Y134718D01*
X377053Y134709D01*
X377045Y134700D01*
X376277Y133524D01*
X376273Y133515D01*
X376265Y133506D01*
X375906Y132902D01*
X375903Y132892D01*
X375896Y132883D01*
X375229Y131646D01*
X375226Y131633D01*
X375217Y131620D01*
X374621Y130347D01*
X374618Y130335D01*
X374610Y130321D01*
X374088Y129016D01*
X374086Y129003D01*
X374078Y128989D01*
X373631Y127657D01*
X373630Y127647D01*
X373624Y127637D01*
X373429Y126961D01*
X373428Y126952D01*
X373424Y126941D01*
X373091Y125575D01*
X373091Y125562D01*
X373086Y125548D01*
X372831Y124165D01*
X372831Y124155D01*
X372828Y124144D01*
X372730Y123448D01*
X372731Y123439D01*
X372727Y123427D01*
X372591Y122028D01*
X372592Y122016D01*
X372589Y122001D01*
X372530Y120596D01*
X372532Y120584D01*
X372530Y120569D01*
X372549Y119163D01*
X372552Y119151D01*
X372550Y119135D01*
X372648Y117733D01*
X372651Y117721D01*
X372651Y117705D01*
X372827Y116311D01*
X372830Y116302D01*
X372830Y116290D01*
X372947Y115597D01*
X372951Y115588D01*
X372951Y115576D01*
X373245Y114201D01*
X373250Y114190D01*
X373251Y114174D01*
X373622Y112818D01*
X373628Y112807D01*
X373631Y112791D01*
X374078Y111459D01*
X374083Y111450D01*
X374085Y111438D01*
X374337Y110782D01*
X374341Y110777D01*
X374342Y110769D01*
X374613Y110120D01*
X374618Y110112D01*
X374621Y110101D01*
X375217Y108828D01*
X375224Y108817D01*
X375229Y108802D01*
X375896Y107565D01*
X375904Y107555D01*
X375910Y107540D01*
X376645Y106342D01*
X376654Y106333D01*
X376660Y106319D01*
X377462Y105164D01*
X377471Y105155D01*
X377478Y105142D01*
X378343Y104034D01*
X378351Y104027D01*
X378357Y104017D01*
X378812Y103482D01*
X378820Y103476D01*
X378826Y103466D01*
X379781Y102435D01*
X379791Y102428D01*
X379801Y102415D01*
X380812Y101439D01*
X380823Y101432D01*
X380833Y101420D01*
X381897Y100502D01*
X381905Y100497D01*
X381913Y100488D01*
X382464Y100052D01*
X382473Y100048D01*
X382481Y100039D01*
X383618Y99214D01*
X383630Y99209D01*
X383642Y99198D01*
X384824Y98438D01*
X384836Y98433D01*
X384848Y98423D01*
X386071Y97731D01*
X386084Y97727D01*
X386096Y97718D01*
X387357Y97096D01*
X387366Y97093D01*
X387376Y97087D01*
X388019Y96803D01*
X388028Y96801D01*
X388038Y96795D01*
X389347Y96282D01*
X389360Y96279D01*
X389374Y96272D01*
X390709Y95834D01*
X390719Y95833D01*
X390730Y95828D01*
X391406Y95638D01*
X391416Y95637D01*
X391427Y95632D01*
X392795Y95310D01*
X392808Y95309D01*
X392823Y95304D01*
X394207Y95059D01*
X394216Y95060D01*
X394228Y95056D01*
X394924Y94963D01*
X394934Y94964D01*
X394945Y94961D01*
X396345Y94834D01*
X396358Y94835D01*
X396373Y94832D01*
X397778Y94784D01*
X397790Y94786D01*
X397805Y94783D01*
X399211Y94812D01*
G37*
G36*
X540810Y554618D02*
X540810Y554618D01*
X540822Y554621D01*
X540838Y554619D01*
X542239Y554727D01*
X542248Y554729D01*
X542260Y554729D01*
X542958Y554812D01*
X542967Y554815D01*
X542979Y554815D01*
X544367Y555040D01*
X544379Y555044D01*
X544394Y555045D01*
X545767Y555348D01*
X545779Y555353D01*
X545794Y555355D01*
X547147Y555736D01*
X547156Y555740D01*
X547168Y555742D01*
X547836Y555961D01*
X547844Y555966D01*
X547856Y555968D01*
X549171Y556462D01*
X549180Y556467D01*
X549191Y556470D01*
X549556Y556625D01*
X549838Y556745D01*
X549846Y556750D01*
X549857Y556754D01*
X551126Y557358D01*
X551137Y557366D01*
X551152Y557371D01*
X552385Y558046D01*
X552394Y558054D01*
X552409Y558060D01*
X553602Y558803D01*
X553609Y558810D01*
X553619Y558815D01*
X554200Y559212D01*
X554206Y559218D01*
X554217Y559224D01*
X555343Y560065D01*
X555351Y560075D01*
X555365Y560082D01*
X556442Y560986D01*
X556450Y560995D01*
X556463Y561004D01*
X557487Y561966D01*
X557495Y561977D01*
X557507Y561986D01*
X558477Y563004D01*
X558483Y563015D01*
X558495Y563025D01*
X559406Y564095D01*
X559411Y564103D01*
X559420Y564111D01*
X559852Y564665D01*
X559856Y564674D01*
X559865Y564682D01*
X560682Y565826D01*
X560687Y565837D01*
X560698Y565849D01*
X561450Y567036D01*
X561454Y567048D01*
X561464Y567061D01*
X562148Y568289D01*
X562152Y568301D01*
X562161Y568314D01*
X562774Y569578D01*
X562777Y569588D01*
X562783Y569598D01*
X563063Y570243D01*
X563065Y570252D01*
X563071Y570262D01*
X563310Y570884D01*
X563501Y571383D01*
X563501Y571384D01*
X563575Y571574D01*
X563577Y571587D01*
X563584Y571601D01*
X564012Y572940D01*
X564013Y572950D01*
X564018Y572960D01*
X564204Y573638D01*
X564205Y573648D01*
X564209Y573659D01*
X564522Y575029D01*
X564522Y575039D01*
X564526Y575050D01*
X564654Y575741D01*
X564653Y575751D01*
X564657Y575762D01*
X564853Y577154D01*
X564852Y577167D01*
X564856Y577182D01*
X564973Y578583D01*
X564971Y578595D01*
X564974Y578610D01*
X565013Y580015D01*
X565011Y580028D01*
X565013Y580043D01*
X564974Y581448D01*
X564971Y581460D01*
X564973Y581476D01*
X564856Y582877D01*
X564852Y582889D01*
X564853Y582905D01*
X564657Y584296D01*
X564654Y584306D01*
X564654Y584317D01*
X564526Y585009D01*
X564523Y585018D01*
X564522Y585029D01*
X564209Y586400D01*
X564205Y586408D01*
X564204Y586420D01*
X564018Y587098D01*
X564014Y587107D01*
X564012Y587119D01*
X563584Y588457D01*
X563579Y588466D01*
X563577Y588477D01*
X563334Y589137D01*
X563329Y589145D01*
X563327Y589157D01*
X562786Y590454D01*
X562779Y590465D01*
X562774Y590480D01*
X562161Y591745D01*
X562153Y591755D01*
X562148Y591770D01*
X561464Y592998D01*
X561458Y593005D01*
X561453Y593016D01*
X561086Y593615D01*
X561079Y593622D01*
X561075Y593633D01*
X560289Y594799D01*
X560280Y594808D01*
X560273Y594822D01*
X559424Y595942D01*
X559414Y595950D01*
X559406Y595963D01*
X558495Y597034D01*
X558488Y597040D01*
X558482Y597050D01*
X558004Y597565D01*
X557996Y597571D01*
X557989Y597581D01*
X556992Y598571D01*
X556981Y598578D01*
X556972Y598590D01*
X555920Y599523D01*
X555909Y599529D01*
X555899Y599541D01*
X554797Y600414D01*
X554788Y600418D01*
X554780Y600426D01*
X554211Y600839D01*
X554202Y600843D01*
X554194Y600851D01*
X553022Y601628D01*
X553011Y601633D01*
X552998Y601643D01*
X551785Y602352D01*
X551773Y602356D01*
X551760Y602366D01*
X550509Y603006D01*
X550500Y603008D01*
X550490Y603015D01*
X549851Y603308D01*
X549845Y603309D01*
X549838Y603314D01*
X549191Y603589D01*
X549182Y603590D01*
X549171Y603596D01*
X547856Y604091D01*
X547843Y604093D01*
X547829Y604100D01*
X546487Y604519D01*
X546474Y604520D01*
X546460Y604526D01*
X545096Y604868D01*
X545087Y604869D01*
X545076Y604873D01*
X544387Y605015D01*
X544378Y605015D01*
X544367Y605019D01*
X542979Y605244D01*
X542966Y605243D01*
X542951Y605248D01*
X541553Y605394D01*
X541541Y605393D01*
X541525Y605396D01*
X540121Y605465D01*
X540109Y605463D01*
X540094Y605465D01*
X538688Y605456D01*
X538676Y605453D01*
X538660Y605455D01*
X537258Y605367D01*
X537245Y605364D01*
X537230Y605364D01*
X535834Y605198D01*
X535825Y605195D01*
X535813Y605195D01*
X535119Y605083D01*
X535110Y605079D01*
X535099Y605079D01*
X533722Y604795D01*
X533710Y604790D01*
X533694Y604789D01*
X532336Y604428D01*
X532324Y604422D01*
X532309Y604419D01*
X530973Y603982D01*
X530965Y603977D01*
X530953Y603975D01*
X530295Y603727D01*
X530287Y603722D01*
X530275Y603720D01*
X528982Y603170D01*
X528974Y603164D01*
X528962Y603161D01*
X528328Y602859D01*
X528320Y602853D01*
X528309Y602849D01*
X527066Y602192D01*
X527057Y602184D01*
X527042Y602178D01*
X525839Y601451D01*
X525832Y601445D01*
X525821Y601440D01*
X525235Y601052D01*
X525228Y601045D01*
X525218Y601040D01*
X524080Y600214D01*
X524072Y600205D01*
X524058Y600197D01*
X522968Y599309D01*
X522960Y599299D01*
X522947Y599291D01*
X521909Y598343D01*
X521902Y598333D01*
X521889Y598324D01*
X520905Y597320D01*
X520899Y597309D01*
X520886Y597299D01*
X519961Y596241D01*
X519955Y596230D01*
X519943Y596220D01*
X519078Y595112D01*
X519074Y595103D01*
X519065Y595095D01*
X518657Y594523D01*
X518653Y594514D01*
X518645Y594506D01*
X517876Y593329D01*
X517872Y593317D01*
X517862Y593305D01*
X517160Y592087D01*
X517157Y592077D01*
X517150Y592068D01*
X516826Y591445D01*
X516823Y591435D01*
X516816Y591426D01*
X516221Y590152D01*
X516218Y590140D01*
X516210Y590126D01*
X515688Y588821D01*
X515685Y588809D01*
X515678Y588795D01*
X515230Y587462D01*
X515229Y587450D01*
X515222Y587435D01*
X514851Y586079D01*
X514851Y586070D01*
X514846Y586059D01*
X514690Y585374D01*
X514689Y585364D01*
X514685Y585353D01*
X514431Y583970D01*
X514431Y583961D01*
X514427Y583949D01*
X514330Y583253D01*
X514330Y583244D01*
X514327Y583233D01*
X514190Y581834D01*
X514192Y581821D01*
X514188Y581806D01*
X514130Y580402D01*
X514132Y580389D01*
X514130Y580374D01*
X514149Y578968D01*
X514152Y578956D01*
X514150Y578941D01*
X514248Y577538D01*
X514251Y577526D01*
X514250Y577511D01*
X514426Y576116D01*
X514430Y576107D01*
X514430Y576095D01*
X514547Y575402D01*
X514551Y575393D01*
X514551Y575381D01*
X514845Y574007D01*
X514850Y573995D01*
X514851Y573979D01*
X515222Y572623D01*
X515228Y572612D01*
X515230Y572596D01*
X515678Y571264D01*
X515683Y571255D01*
X515685Y571244D01*
X515937Y570588D01*
X515940Y570582D01*
X515942Y570574D01*
X516212Y569926D01*
X516218Y569918D01*
X516221Y569906D01*
X516816Y568633D01*
X516824Y568623D01*
X516829Y568608D01*
X517496Y567370D01*
X517504Y567360D01*
X517510Y567346D01*
X518245Y566148D01*
X518253Y566138D01*
X518260Y566124D01*
X519061Y564969D01*
X519068Y564963D01*
X519074Y564952D01*
X519498Y564392D01*
X519506Y564386D01*
X519511Y564376D01*
X520407Y563293D01*
X520417Y563285D01*
X520426Y563271D01*
X521381Y562240D01*
X521391Y562233D01*
X521400Y562220D01*
X522411Y561244D01*
X522422Y561237D01*
X522432Y561225D01*
X523496Y560307D01*
X523505Y560302D01*
X523512Y560293D01*
X524063Y559857D01*
X524072Y559853D01*
X524080Y559844D01*
X525218Y559019D01*
X525229Y559014D01*
X525241Y559003D01*
X526423Y558243D01*
X526432Y558239D01*
X526441Y558232D01*
X527048Y557877D01*
X527057Y557874D01*
X527066Y557867D01*
X528309Y557209D01*
X528321Y557206D01*
X528334Y557197D01*
X529612Y556611D01*
X529624Y556608D01*
X529638Y556599D01*
X530946Y556086D01*
X530959Y556084D01*
X530973Y556077D01*
X532309Y555639D01*
X532322Y555638D01*
X532336Y555631D01*
X533694Y555270D01*
X533704Y555269D01*
X533715Y555265D01*
X534401Y555113D01*
X534408Y555113D01*
X534415Y555110D01*
X535105Y554978D01*
X535115Y554978D01*
X535126Y554975D01*
X536517Y554769D01*
X536530Y554770D01*
X536545Y554766D01*
X537945Y554639D01*
X537957Y554641D01*
X537972Y554637D01*
X539377Y554589D01*
X539389Y554591D01*
X539405Y554589D01*
X540810Y554618D01*
G37*
G36*
X415378Y554596D02*
X415378Y554596D01*
X415393Y554594D01*
X416797Y554662D01*
X416809Y554665D01*
X416825Y554664D01*
X418223Y554811D01*
X418235Y554814D01*
X418251Y554814D01*
X419638Y555039D01*
X419647Y555043D01*
X419659Y555043D01*
X420348Y555185D01*
X420356Y555189D01*
X420368Y555190D01*
X421732Y555532D01*
X421740Y555536D01*
X421752Y555537D01*
X422426Y555737D01*
X422432Y555740D01*
X422439Y555741D01*
X423107Y555960D01*
X423116Y555965D01*
X423127Y555967D01*
X424443Y556462D01*
X424454Y556468D01*
X424470Y556472D01*
X425755Y557040D01*
X425763Y557046D01*
X425774Y557049D01*
X426405Y557361D01*
X426412Y557366D01*
X426423Y557370D01*
X427656Y558045D01*
X427666Y558054D01*
X427680Y558060D01*
X428873Y558803D01*
X428883Y558812D01*
X428897Y558819D01*
X430046Y559628D01*
X430053Y559635D01*
X430063Y559640D01*
X430620Y560069D01*
X430626Y560076D01*
X430636Y560082D01*
X431713Y560985D01*
X431721Y560995D01*
X431734Y561004D01*
X432759Y561966D01*
X432767Y561976D01*
X432779Y561986D01*
X433748Y563004D01*
X433753Y563012D01*
X433762Y563019D01*
X434225Y563548D01*
X434230Y563556D01*
X434239Y563564D01*
X435119Y564660D01*
X435125Y564671D01*
X435136Y564682D01*
X435954Y565826D01*
X435958Y565834D01*
X435966Y565843D01*
X436350Y566431D01*
X436353Y566440D01*
X436361Y566449D01*
X437079Y567658D01*
X437083Y567670D01*
X437093Y567682D01*
X437742Y568929D01*
X437745Y568941D01*
X437754Y568955D01*
X438331Y570236D01*
X438333Y570245D01*
X438340Y570256D01*
X438601Y570908D01*
X438603Y570918D01*
X438608Y570928D01*
X439075Y572254D01*
X439076Y572267D01*
X439083Y572281D01*
X439473Y573631D01*
X439474Y573644D01*
X439480Y573659D01*
X439793Y575029D01*
X439794Y575039D01*
X439798Y575050D01*
X439925Y575741D01*
X439925Y575751D01*
X439928Y575762D01*
X440124Y577154D01*
X440123Y577167D01*
X440127Y577182D01*
X440244Y578583D01*
X440243Y578595D01*
X440246Y578610D01*
X440285Y580015D01*
X440282Y580028D01*
X440285Y580043D01*
X440246Y581448D01*
X440243Y581460D01*
X440244Y581476D01*
X440127Y582877D01*
X440124Y582889D01*
X440124Y582905D01*
X439928Y584296D01*
X439925Y584306D01*
X439925Y584317D01*
X439798Y585009D01*
X439794Y585018D01*
X439793Y585029D01*
X439480Y586400D01*
X439475Y586411D01*
X439473Y586427D01*
X439083Y587777D01*
X439077Y587789D01*
X439075Y587804D01*
X438608Y589130D01*
X438603Y589139D01*
X438601Y589150D01*
X438340Y589803D01*
X438334Y589811D01*
X438331Y589822D01*
X437754Y591104D01*
X437749Y591112D01*
X437745Y591123D01*
X437430Y591751D01*
X437423Y591759D01*
X437420Y591770D01*
X436736Y592998D01*
X436727Y593008D01*
X436721Y593022D01*
X435969Y594210D01*
X435961Y594219D01*
X435954Y594233D01*
X435136Y595376D01*
X435127Y595385D01*
X435119Y595399D01*
X434239Y596494D01*
X434232Y596501D01*
X434225Y596511D01*
X433762Y597040D01*
X433755Y597045D01*
X433748Y597055D01*
X432779Y598073D01*
X432769Y598080D01*
X432759Y598093D01*
X431734Y599055D01*
X431723Y599061D01*
X431713Y599073D01*
X430636Y599976D01*
X430628Y599981D01*
X430620Y599990D01*
X430063Y600418D01*
X430054Y600422D01*
X430046Y600431D01*
X428897Y601240D01*
X428885Y601245D01*
X428873Y601255D01*
X427681Y601999D01*
X427669Y602003D01*
X427656Y602013D01*
X426423Y602688D01*
X426411Y602692D01*
X426398Y602701D01*
X425129Y603305D01*
X425120Y603308D01*
X425110Y603314D01*
X424463Y603589D01*
X424454Y603591D01*
X424443Y603597D01*
X423127Y604091D01*
X423118Y604093D01*
X423107Y604098D01*
X422440Y604317D01*
X422430Y604318D01*
X422419Y604323D01*
X421066Y604704D01*
X421053Y604705D01*
X421039Y604711D01*
X419666Y605014D01*
X419656Y605014D01*
X419645Y605018D01*
X418953Y605140D01*
X418944Y605140D01*
X418932Y605144D01*
X417539Y605329D01*
X417526Y605328D01*
X417511Y605332D01*
X416110Y605440D01*
X416097Y605438D01*
X416082Y605441D01*
X414676Y605470D01*
X414664Y605468D01*
X414649Y605470D01*
X413244Y605421D01*
X413232Y605418D01*
X413216Y605419D01*
X411816Y605292D01*
X411807Y605290D01*
X411795Y605290D01*
X411099Y605197D01*
X411090Y605194D01*
X411078Y605194D01*
X409694Y604949D01*
X409682Y604944D01*
X409666Y604943D01*
X408298Y604621D01*
X408286Y604615D01*
X408271Y604614D01*
X406923Y604214D01*
X406915Y604209D01*
X406903Y604207D01*
X406238Y603979D01*
X406230Y603974D01*
X406218Y603972D01*
X404910Y603459D01*
X404899Y603452D01*
X404884Y603448D01*
X403606Y602861D01*
X403598Y602856D01*
X403587Y602852D01*
X402961Y602532D01*
X402954Y602526D01*
X402943Y602522D01*
X401719Y601830D01*
X401710Y601822D01*
X401695Y601815D01*
X400513Y601055D01*
X400504Y601046D01*
X400490Y601039D01*
X399352Y600214D01*
X399345Y600207D01*
X399335Y600201D01*
X398784Y599765D01*
X398778Y599758D01*
X398768Y599751D01*
X397704Y598833D01*
X397696Y598823D01*
X397683Y598814D01*
X396672Y597838D01*
X396665Y597828D01*
X396652Y597818D01*
X395697Y596787D01*
X395691Y596776D01*
X395679Y596766D01*
X394783Y595683D01*
X394779Y595674D01*
X394770Y595666D01*
X394345Y595106D01*
X394341Y595097D01*
X394333Y595089D01*
X393532Y593934D01*
X393527Y593923D01*
X393516Y593911D01*
X392781Y592713D01*
X392778Y592704D01*
X392770Y592695D01*
X392428Y592080D01*
X392426Y592071D01*
X392419Y592062D01*
X391787Y590806D01*
X391784Y590794D01*
X391775Y590780D01*
X391216Y589491D01*
X391214Y589478D01*
X391206Y589464D01*
X390721Y588145D01*
X390719Y588136D01*
X390714Y588125D01*
X390500Y587456D01*
X390498Y587446D01*
X390493Y587435D01*
X390123Y586079D01*
X390122Y586067D01*
X390116Y586052D01*
X389822Y584677D01*
X389822Y584668D01*
X389818Y584656D01*
X389701Y583963D01*
X389701Y583954D01*
X389698Y583943D01*
X389522Y582548D01*
X389523Y582535D01*
X389519Y582520D01*
X389422Y581118D01*
X389423Y581105D01*
X389420Y581090D01*
X389401Y579685D01*
X389403Y579672D01*
X389401Y579657D01*
X389460Y578253D01*
X389463Y578240D01*
X389462Y578225D01*
X389599Y576826D01*
X389602Y576814D01*
X389602Y576798D01*
X389817Y575409D01*
X389821Y575400D01*
X389821Y575388D01*
X389958Y574699D01*
X389960Y574693D01*
X389961Y574685D01*
X390117Y574000D01*
X390121Y573991D01*
X390123Y573979D01*
X390493Y572623D01*
X390499Y572612D01*
X390502Y572596D01*
X390949Y571264D01*
X390956Y571253D01*
X390959Y571237D01*
X391481Y569932D01*
X391488Y569922D01*
X391493Y569906D01*
X392088Y568633D01*
X392096Y568623D01*
X392101Y568608D01*
X392767Y567370D01*
X392773Y567363D01*
X392777Y567352D01*
X393136Y566748D01*
X393143Y566741D01*
X393148Y566730D01*
X393916Y565553D01*
X393925Y565544D01*
X393932Y565530D01*
X394766Y564398D01*
X394775Y564390D01*
X394783Y564376D01*
X395679Y563293D01*
X395686Y563287D01*
X395692Y563277D01*
X396163Y562754D01*
X396170Y562749D01*
X396177Y562739D01*
X397161Y561735D01*
X397171Y561728D01*
X397181Y561716D01*
X398219Y560768D01*
X398230Y560761D01*
X398240Y560750D01*
X399330Y559862D01*
X399341Y559856D01*
X399352Y559845D01*
X400490Y559019D01*
X400498Y559015D01*
X400507Y559007D01*
X401093Y558619D01*
X401102Y558615D01*
X401111Y558608D01*
X402314Y557881D01*
X402326Y557877D01*
X402338Y557867D01*
X403581Y557210D01*
X403593Y557206D01*
X403606Y557197D01*
X404884Y556611D01*
X404893Y556609D01*
X404903Y556602D01*
X405554Y556337D01*
X405563Y556335D01*
X405573Y556329D01*
X406896Y555854D01*
X406909Y555852D01*
X406923Y555845D01*
X408271Y555445D01*
X408280Y555444D01*
X408291Y555439D01*
X408973Y555268D01*
X408983Y555268D01*
X408994Y555264D01*
X410370Y554980D01*
X410383Y554980D01*
X410398Y554975D01*
X411789Y554770D01*
X411798Y554770D01*
X411809Y554767D01*
X412509Y554694D01*
X412518Y554695D01*
X412529Y554692D01*
X413932Y554604D01*
X413945Y554606D01*
X413960Y554603D01*
X415366Y554593D01*
X415378Y554596D01*
G37*
G36*
X55456Y259675D02*
X55456Y259675D01*
X55471Y259673D01*
X56875Y259741D01*
X56887Y259745D01*
X56903Y259744D01*
X58301Y259890D01*
X58313Y259894D01*
X58328Y259894D01*
X59716Y260119D01*
X59725Y260122D01*
X59737Y260123D01*
X60425Y260264D01*
X60431Y260267D01*
X60439Y260268D01*
X61123Y260429D01*
X61132Y260433D01*
X61144Y260434D01*
X62497Y260815D01*
X62508Y260821D01*
X62524Y260823D01*
X63853Y261280D01*
X63864Y261286D01*
X63880Y261290D01*
X65181Y261821D01*
X65192Y261828D01*
X65207Y261833D01*
X66476Y262437D01*
X66484Y262443D01*
X66495Y262446D01*
X67116Y262775D01*
X67123Y262781D01*
X67134Y262786D01*
X68348Y263495D01*
X68357Y263504D01*
X68372Y263510D01*
X69543Y264287D01*
X69550Y264294D01*
X69560Y264299D01*
X70129Y264712D01*
X70136Y264719D01*
X70146Y264724D01*
X71248Y265597D01*
X71256Y265606D01*
X71270Y265615D01*
X72321Y266548D01*
X72328Y266558D01*
X72341Y266567D01*
X73339Y267557D01*
X73346Y267568D01*
X73358Y267578D01*
X74298Y268622D01*
X74305Y268633D01*
X74316Y268644D01*
X75197Y269739D01*
X75203Y269750D01*
X75214Y269762D01*
X76031Y270905D01*
X76035Y270914D01*
X76043Y270922D01*
X76428Y271511D01*
X76431Y271520D01*
X76439Y271529D01*
X77157Y272737D01*
X77161Y272749D01*
X77171Y272762D01*
X77819Y274009D01*
X77822Y274018D01*
X77829Y274028D01*
X78126Y274664D01*
X78129Y274674D01*
X78135Y274684D01*
X78676Y275981D01*
X78678Y275994D01*
X78686Y276007D01*
X79152Y277334D01*
X79154Y277343D01*
X79159Y277354D01*
X79363Y278026D01*
X79364Y278033D01*
X79367Y278040D01*
X79553Y278718D01*
X79554Y278727D01*
X79558Y278738D01*
X79871Y280109D01*
X79871Y280118D01*
X79875Y280129D01*
X80002Y280821D01*
X80002Y280830D01*
X80006Y280842D01*
X80202Y282233D01*
X80201Y282246D01*
X80205Y282261D01*
X80322Y283662D01*
X80320Y283674D01*
X80323Y283690D01*
X80362Y285095D01*
X80360Y285107D01*
X80362Y285123D01*
X80323Y286528D01*
X80320Y286540D01*
X80322Y286555D01*
X80205Y287956D01*
X80202Y287965D01*
X80202Y287977D01*
X80114Y288674D01*
X80111Y288683D01*
X80111Y288695D01*
X79877Y290081D01*
X79872Y290093D01*
X79871Y290109D01*
X79558Y291479D01*
X79553Y291491D01*
X79551Y291507D01*
X79161Y292857D01*
X79155Y292868D01*
X79152Y292884D01*
X78686Y294210D01*
X78681Y294218D01*
X78678Y294230D01*
X78417Y294882D01*
X78412Y294890D01*
X78409Y294902D01*
X77832Y296183D01*
X77826Y296191D01*
X77823Y296203D01*
X77507Y296831D01*
X77501Y296838D01*
X77497Y296849D01*
X76813Y298077D01*
X76805Y298087D01*
X76799Y298102D01*
X76047Y299289D01*
X76038Y299298D01*
X76031Y299312D01*
X75214Y300456D01*
X75204Y300464D01*
X75197Y300478D01*
X74316Y301574D01*
X74309Y301580D01*
X74303Y301590D01*
X73840Y302119D01*
X73833Y302125D01*
X73826Y302134D01*
X72857Y303152D01*
X72846Y303160D01*
X72837Y303172D01*
X71812Y304134D01*
X71801Y304141D01*
X71791Y304153D01*
X70714Y305056D01*
X70706Y305060D01*
X70698Y305069D01*
X70141Y305498D01*
X70132Y305502D01*
X70124Y305510D01*
X68975Y306319D01*
X68963Y306325D01*
X68951Y306335D01*
X67758Y307078D01*
X67746Y307083D01*
X67734Y307093D01*
X66501Y307768D01*
X66489Y307771D01*
X66476Y307780D01*
X65207Y308385D01*
X65197Y308387D01*
X65188Y308393D01*
X64541Y308668D01*
X64531Y308670D01*
X64521Y308676D01*
X63205Y309171D01*
X63192Y309173D01*
X63178Y309180D01*
X61836Y309599D01*
X61824Y309600D01*
X61809Y309606D01*
X60446Y309948D01*
X60436Y309949D01*
X60425Y309953D01*
X59737Y310095D01*
X59730Y310095D01*
X59723Y310097D01*
X59031Y310220D01*
X59021Y310219D01*
X59010Y310223D01*
X57617Y310409D01*
X57604Y310408D01*
X57589Y310412D01*
X56187Y310519D01*
X56175Y310517D01*
X56159Y310520D01*
X54754Y310549D01*
X54742Y310547D01*
X54726Y310549D01*
X53322Y310500D01*
X53310Y310498D01*
X53294Y310499D01*
X51894Y310372D01*
X51882Y310368D01*
X51866Y310368D01*
X50476Y310163D01*
X50467Y310160D01*
X50455Y310159D01*
X49764Y310027D01*
X49756Y310024D01*
X49744Y310023D01*
X48376Y309700D01*
X48364Y309695D01*
X48348Y309693D01*
X47001Y309293D01*
X46992Y309289D01*
X46981Y309287D01*
X46316Y309058D01*
X46307Y309053D01*
X46296Y309051D01*
X44987Y308538D01*
X44979Y308533D01*
X44968Y308530D01*
X44325Y308246D01*
X44317Y308240D01*
X44305Y308237D01*
X43045Y307615D01*
X43035Y307607D01*
X43020Y307602D01*
X41797Y306909D01*
X41787Y306901D01*
X41773Y306895D01*
X40590Y306135D01*
X40584Y306128D01*
X40573Y306123D01*
X39998Y305718D01*
X39992Y305711D01*
X39981Y305706D01*
X38867Y304849D01*
X38859Y304839D01*
X38846Y304831D01*
X37781Y303913D01*
X37774Y303903D01*
X37761Y303894D01*
X36749Y302918D01*
X36744Y302910D01*
X36735Y302903D01*
X36250Y302394D01*
X36245Y302386D01*
X36236Y302378D01*
X35310Y301321D01*
X35304Y301310D01*
X35292Y301299D01*
X34427Y300191D01*
X34422Y300180D01*
X34411Y300168D01*
X33609Y299014D01*
X33604Y299002D01*
X33594Y298990D01*
X32859Y297792D01*
X32854Y297780D01*
X32845Y297768D01*
X32178Y296530D01*
X32175Y296521D01*
X32169Y296511D01*
X31862Y295879D01*
X31859Y295870D01*
X31853Y295860D01*
X31294Y294570D01*
X31291Y294558D01*
X31283Y294544D01*
X30798Y293225D01*
X30796Y293212D01*
X30789Y293198D01*
X30380Y291853D01*
X30379Y291840D01*
X30372Y291826D01*
X30040Y290460D01*
X30040Y290450D01*
X30036Y290439D01*
X29899Y289750D01*
X29899Y289743D01*
X29896Y289736D01*
X29779Y289043D01*
X29779Y289033D01*
X29775Y289022D01*
X29599Y287627D01*
X29600Y287615D01*
X29597Y287600D01*
X29499Y286197D01*
X29501Y286185D01*
X29498Y286170D01*
X29479Y284764D01*
X29481Y284752D01*
X29479Y284736D01*
X29537Y283332D01*
X29540Y283320D01*
X29539Y283304D01*
X29676Y281905D01*
X29679Y281896D01*
X29679Y281884D01*
X29776Y281188D01*
X29780Y281179D01*
X29780Y281168D01*
X30034Y279785D01*
X30039Y279773D01*
X30040Y279758D01*
X30372Y278392D01*
X30378Y278380D01*
X30380Y278364D01*
X30789Y277020D01*
X30795Y277009D01*
X30798Y276993D01*
X31283Y275674D01*
X31289Y275665D01*
X31291Y275654D01*
X31562Y275005D01*
X31567Y274997D01*
X31570Y274986D01*
X32165Y273712D01*
X32171Y273705D01*
X32175Y273693D01*
X32499Y273070D01*
X32505Y273062D01*
X32510Y273051D01*
X33211Y271833D01*
X33219Y271824D01*
X33225Y271809D01*
X33994Y270632D01*
X34001Y270625D01*
X34006Y270615D01*
X34415Y270043D01*
X34422Y270037D01*
X34427Y270026D01*
X35292Y268918D01*
X35302Y268910D01*
X35310Y268897D01*
X36236Y267839D01*
X36246Y267831D01*
X36255Y267819D01*
X37238Y266814D01*
X37249Y266807D01*
X37258Y266795D01*
X38297Y265847D01*
X38307Y265841D01*
X38318Y265829D01*
X39407Y264941D01*
X39416Y264937D01*
X39424Y264928D01*
X39987Y264508D01*
X39996Y264503D01*
X40004Y264495D01*
X41165Y263702D01*
X41176Y263697D01*
X41188Y263687D01*
X42391Y262960D01*
X42403Y262956D01*
X42416Y262947D01*
X43658Y262289D01*
X43671Y262285D01*
X43684Y262277D01*
X44961Y261690D01*
X44971Y261688D01*
X44981Y261682D01*
X45631Y261416D01*
X45638Y261415D01*
X45645Y261411D01*
X46302Y261164D01*
X46312Y261162D01*
X46322Y261157D01*
X47658Y260719D01*
X47671Y260717D01*
X47685Y260711D01*
X49044Y260350D01*
X49056Y260349D01*
X49071Y260343D01*
X50448Y260059D01*
X50458Y260059D01*
X50469Y260056D01*
X51163Y259943D01*
X51172Y259943D01*
X51183Y259940D01*
X52579Y259774D01*
X52592Y259775D01*
X52607Y259771D01*
X54010Y259684D01*
X54022Y259685D01*
X54038Y259683D01*
X55443Y259673D01*
X55456Y259675D01*
G37*
G36*
X159047Y487554D02*
X159047Y487554D01*
X159059Y487557D01*
X159074Y487555D01*
X160476Y487663D01*
X160488Y487666D01*
X160504Y487665D01*
X161897Y487851D01*
X161906Y487854D01*
X161918Y487855D01*
X162610Y487977D01*
X162619Y487980D01*
X162631Y487981D01*
X164003Y488284D01*
X164015Y488289D01*
X164031Y488291D01*
X165384Y488672D01*
X165395Y488677D01*
X165411Y488680D01*
X166740Y489137D01*
X166749Y489142D01*
X166760Y489144D01*
X167415Y489401D01*
X167420Y489404D01*
X167428Y489406D01*
X167792Y489561D01*
X168074Y489681D01*
X168082Y489686D01*
X168094Y489690D01*
X169363Y490294D01*
X169373Y490302D01*
X169388Y490307D01*
X170621Y490982D01*
X170631Y490990D01*
X170645Y490996D01*
X171838Y491739D01*
X171845Y491746D01*
X171856Y491751D01*
X172436Y492147D01*
X172443Y492154D01*
X172453Y492160D01*
X173579Y493001D01*
X173588Y493010D01*
X173601Y493018D01*
X174678Y493921D01*
X174686Y493931D01*
X174699Y493940D01*
X175724Y494902D01*
X175730Y494910D01*
X175739Y494917D01*
X176231Y495419D01*
X176236Y495427D01*
X176245Y495434D01*
X177186Y496479D01*
X177192Y496490D01*
X177204Y496500D01*
X178084Y497596D01*
X178090Y497607D01*
X178101Y497618D01*
X178919Y498762D01*
X178924Y498773D01*
X178934Y498785D01*
X179686Y499972D01*
X179691Y499984D01*
X179701Y499997D01*
X180385Y501225D01*
X180388Y501237D01*
X180398Y501250D01*
X181011Y502514D01*
X181013Y502524D01*
X181020Y502534D01*
X181299Y503179D01*
X181301Y503188D01*
X181307Y503198D01*
X181354Y503321D01*
X181738Y504319D01*
X181811Y504510D01*
X181813Y504523D01*
X181820Y504537D01*
X182249Y505876D01*
X182250Y505886D01*
X182255Y505896D01*
X182440Y506574D01*
X182441Y506584D01*
X182446Y506595D01*
X182758Y507965D01*
X182759Y507975D01*
X182763Y507986D01*
X182890Y508677D01*
X182890Y508687D01*
X182893Y508698D01*
X183089Y510090D01*
X183088Y510103D01*
X183092Y510118D01*
X183209Y511519D01*
X183208Y511531D01*
X183211Y511546D01*
X183250Y512951D01*
X183248Y512964D01*
X183250Y512979D01*
X183211Y514384D01*
X183208Y514396D01*
X183209Y514412D01*
X183092Y515813D01*
X183089Y515825D01*
X183089Y515840D01*
X182893Y517232D01*
X182890Y517242D01*
X182890Y517253D01*
X182763Y517945D01*
X182759Y517954D01*
X182758Y517965D01*
X182446Y519336D01*
X182442Y519344D01*
X182440Y519356D01*
X182255Y520034D01*
X182252Y520040D01*
X182251Y520048D01*
X182046Y520720D01*
X182042Y520729D01*
X182040Y520740D01*
X181573Y522066D01*
X181567Y522078D01*
X181563Y522093D01*
X181023Y523390D01*
X181015Y523401D01*
X181011Y523416D01*
X180398Y524681D01*
X180390Y524691D01*
X180385Y524706D01*
X179701Y525934D01*
X179694Y525941D01*
X179690Y525952D01*
X179322Y526551D01*
X179316Y526558D01*
X179311Y526569D01*
X178526Y527735D01*
X178519Y527742D01*
X178514Y527752D01*
X178097Y528318D01*
X178090Y528324D01*
X178084Y528335D01*
X177204Y529430D01*
X177194Y529438D01*
X177186Y529452D01*
X176245Y530496D01*
X176235Y530504D01*
X176226Y530517D01*
X175228Y531507D01*
X175220Y531512D01*
X175213Y531521D01*
X174694Y531995D01*
X174686Y532000D01*
X174678Y532009D01*
X173601Y532912D01*
X173590Y532918D01*
X173579Y532929D01*
X172453Y533771D01*
X172442Y533776D01*
X172430Y533787D01*
X171259Y534564D01*
X171247Y534568D01*
X171235Y534579D01*
X170022Y535288D01*
X170010Y535292D01*
X169997Y535302D01*
X168745Y535941D01*
X168736Y535944D01*
X168726Y535951D01*
X168087Y536244D01*
X168078Y536246D01*
X168068Y536252D01*
X166767Y536784D01*
X166757Y536786D01*
X166747Y536791D01*
X166085Y537029D01*
X166076Y537031D01*
X166065Y537036D01*
X164724Y537455D01*
X164711Y537456D01*
X164696Y537462D01*
X163333Y537804D01*
X163320Y537805D01*
X163305Y537810D01*
X161925Y538075D01*
X161915Y538075D01*
X161904Y538078D01*
X161208Y538181D01*
X161199Y538180D01*
X161188Y538184D01*
X159790Y538330D01*
X159777Y538329D01*
X159762Y538332D01*
X158358Y538401D01*
X158346Y538399D01*
X158330Y538401D01*
X156925Y538392D01*
X156912Y538389D01*
X156897Y538391D01*
X155494Y538303D01*
X155482Y538300D01*
X155466Y538300D01*
X154070Y538134D01*
X154061Y538131D01*
X154050Y538131D01*
X153356Y538019D01*
X153350Y538016D01*
X153342Y538016D01*
X152652Y537884D01*
X152643Y537881D01*
X152631Y537880D01*
X151263Y537557D01*
X151251Y537552D01*
X151235Y537550D01*
X149888Y537150D01*
X149876Y537144D01*
X149861Y537141D01*
X148538Y536666D01*
X148527Y536659D01*
X148512Y536655D01*
X147937Y536411D01*
X147218Y536106D01*
X147210Y536100D01*
X147199Y536097D01*
X146564Y535795D01*
X146557Y535789D01*
X146545Y535785D01*
X145303Y535128D01*
X145293Y535120D01*
X145278Y535114D01*
X144075Y534387D01*
X144066Y534379D01*
X144052Y534372D01*
X142891Y533579D01*
X142882Y533570D01*
X142868Y533562D01*
X141754Y532705D01*
X141746Y532696D01*
X141733Y532688D01*
X140668Y531769D01*
X140663Y531762D01*
X140653Y531755D01*
X140140Y531274D01*
X140135Y531267D01*
X140125Y531260D01*
X139142Y530256D01*
X139135Y530245D01*
X139123Y530235D01*
X138197Y529177D01*
X138191Y529166D01*
X138179Y529156D01*
X137315Y528048D01*
X137310Y528039D01*
X137302Y528031D01*
X136893Y527459D01*
X136889Y527450D01*
X136881Y527442D01*
X136113Y526265D01*
X136108Y526253D01*
X136098Y526241D01*
X135397Y525023D01*
X135392Y525008D01*
X135380Y524991D01*
X134461Y523095D01*
X134457Y523079D01*
X134446Y523062D01*
X133924Y521757D01*
X133922Y521745D01*
X133914Y521731D01*
X133467Y520398D01*
X133466Y520389D01*
X133461Y520378D01*
X133265Y519703D01*
X133265Y519693D01*
X133260Y519682D01*
X132928Y518316D01*
X132927Y518307D01*
X132923Y518296D01*
X132786Y517606D01*
X132786Y517597D01*
X132782Y517585D01*
X132567Y516196D01*
X132568Y516184D01*
X132564Y516169D01*
X132427Y514770D01*
X132428Y514757D01*
X132425Y514742D01*
X132367Y513337D01*
X132368Y513325D01*
X132366Y513310D01*
X132386Y511904D01*
X132388Y511892D01*
X132387Y511877D01*
X132484Y510474D01*
X132487Y510465D01*
X132486Y510453D01*
X132564Y509755D01*
X132567Y509746D01*
X132567Y509734D01*
X132782Y508345D01*
X132786Y508336D01*
X132786Y508324D01*
X132923Y507635D01*
X132927Y507626D01*
X132928Y507614D01*
X133260Y506248D01*
X133265Y506237D01*
X133267Y506221D01*
X133677Y504876D01*
X133683Y504865D01*
X133686Y504849D01*
X134171Y503530D01*
X134178Y503519D01*
X134181Y503504D01*
X134740Y502214D01*
X134746Y502206D01*
X134749Y502195D01*
X135056Y501563D01*
X135062Y501555D01*
X135066Y501544D01*
X135732Y500306D01*
X135740Y500296D01*
X135746Y500282D01*
X136481Y499084D01*
X136488Y499077D01*
X136493Y499066D01*
X136885Y498483D01*
X136892Y498476D01*
X136897Y498466D01*
X137731Y497334D01*
X137740Y497325D01*
X137748Y497312D01*
X138644Y496229D01*
X138654Y496221D01*
X138662Y496208D01*
X139617Y495176D01*
X139627Y495169D01*
X139637Y495156D01*
X140648Y494180D01*
X140658Y494173D01*
X140668Y494161D01*
X141733Y493243D01*
X141744Y493237D01*
X141754Y493225D01*
X142868Y492368D01*
X142877Y492364D01*
X142885Y492356D01*
X143460Y491951D01*
X143466Y491948D01*
X143472Y491943D01*
X144057Y491555D01*
X144066Y491551D01*
X144075Y491543D01*
X145278Y490817D01*
X145291Y490812D01*
X145303Y490803D01*
X146545Y490145D01*
X146558Y490142D01*
X146571Y490133D01*
X147848Y489546D01*
X147858Y489544D01*
X147868Y489538D01*
X148518Y489272D01*
X148528Y489271D01*
X148538Y489265D01*
X149861Y488789D01*
X149873Y488787D01*
X149888Y488780D01*
X151235Y488381D01*
X151248Y488379D01*
X151263Y488373D01*
X152631Y488051D01*
X152641Y488050D01*
X152652Y488046D01*
X153342Y487914D01*
X153352Y487914D01*
X153363Y487911D01*
X154753Y487705D01*
X154766Y487706D01*
X154781Y487702D01*
X156181Y487575D01*
X156194Y487576D01*
X156209Y487573D01*
X157614Y487525D01*
X157626Y487527D01*
X157641Y487525D01*
X159047Y487554D01*
G37*
G36*
X399211Y220426D02*
X399211Y220426D01*
X399223Y220429D01*
X399238Y220427D01*
X400640Y220535D01*
X400652Y220538D01*
X400668Y220538D01*
X402061Y220723D01*
X402070Y220727D01*
X402082Y220727D01*
X402774Y220849D01*
X402783Y220852D01*
X402795Y220853D01*
X404168Y221156D01*
X404176Y221160D01*
X404188Y221161D01*
X404867Y221342D01*
X404876Y221346D01*
X404888Y221348D01*
X406229Y221767D01*
X406241Y221773D01*
X406256Y221776D01*
X407572Y222270D01*
X407580Y222275D01*
X407592Y222278D01*
X407958Y222433D01*
X408239Y222553D01*
X408247Y222558D01*
X408258Y222562D01*
X409527Y223166D01*
X409537Y223174D01*
X409552Y223179D01*
X410785Y223854D01*
X410795Y223862D01*
X410809Y223868D01*
X412002Y224611D01*
X412012Y224620D01*
X412026Y224627D01*
X413175Y225436D01*
X413182Y225443D01*
X413192Y225449D01*
X413749Y225877D01*
X413755Y225885D01*
X413765Y225891D01*
X414842Y226794D01*
X414850Y226803D01*
X414863Y226812D01*
X415888Y227774D01*
X415895Y227785D01*
X415908Y227794D01*
X416877Y228812D01*
X416884Y228823D01*
X416896Y228833D01*
X417807Y229903D01*
X417813Y229914D01*
X417824Y229925D01*
X418674Y231045D01*
X418678Y231054D01*
X418686Y231062D01*
X419087Y231640D01*
X419089Y231646D01*
X419095Y231651D01*
X419479Y232240D01*
X419482Y232249D01*
X419490Y232258D01*
X420208Y233466D01*
X420212Y233478D01*
X420222Y233491D01*
X420871Y234737D01*
X420874Y234750D01*
X420883Y234763D01*
X421460Y236044D01*
X421463Y236057D01*
X421471Y236071D01*
X421518Y236193D01*
X421710Y236692D01*
X421710Y236693D01*
X421901Y237192D01*
X421902Y237192D01*
X421975Y237383D01*
X421977Y237395D01*
X421984Y237410D01*
X422413Y238748D01*
X422414Y238758D01*
X422419Y238769D01*
X422604Y239447D01*
X422605Y239456D01*
X422609Y239467D01*
X422922Y240838D01*
X422923Y240850D01*
X422928Y240865D01*
X423163Y242251D01*
X423162Y242261D01*
X423166Y242272D01*
X423254Y242969D01*
X423253Y242979D01*
X423256Y242990D01*
X423373Y244391D01*
X423372Y244404D01*
X423375Y244419D01*
X423414Y245824D01*
X423411Y245836D01*
X423414Y245851D01*
X423375Y247256D01*
X423371Y247272D01*
X423372Y247291D01*
X423167Y249389D01*
X423163Y249404D01*
X423163Y249424D01*
X422928Y250810D01*
X422923Y250822D01*
X422922Y250838D01*
X422609Y252208D01*
X422605Y252217D01*
X422604Y252229D01*
X422419Y252907D01*
X422414Y252915D01*
X422413Y252927D01*
X421984Y254266D01*
X421980Y254274D01*
X421977Y254286D01*
X421735Y254945D01*
X421730Y254954D01*
X421727Y254965D01*
X421186Y256263D01*
X421181Y256271D01*
X421178Y256282D01*
X420880Y256919D01*
X420874Y256927D01*
X420871Y256938D01*
X420222Y258185D01*
X420214Y258195D01*
X420208Y258209D01*
X419490Y259418D01*
X419481Y259427D01*
X419475Y259441D01*
X418690Y260607D01*
X418681Y260616D01*
X418674Y260630D01*
X417824Y261750D01*
X417817Y261756D01*
X417811Y261767D01*
X417363Y262308D01*
X417356Y262314D01*
X417350Y262324D01*
X416409Y263369D01*
X416399Y263376D01*
X416390Y263389D01*
X415393Y264379D01*
X415382Y264386D01*
X415372Y264399D01*
X414321Y265332D01*
X414310Y265338D01*
X414299Y265350D01*
X413197Y266222D01*
X413189Y266226D01*
X413181Y266235D01*
X412612Y266648D01*
X412603Y266652D01*
X412594Y266660D01*
X411423Y267436D01*
X411411Y267441D01*
X411399Y267451D01*
X410186Y268161D01*
X410177Y268164D01*
X410167Y268171D01*
X409546Y268500D01*
X409537Y268503D01*
X409527Y268509D01*
X408258Y269114D01*
X408246Y269117D01*
X408232Y269125D01*
X406931Y269657D01*
X406918Y269659D01*
X406904Y269666D01*
X405575Y270123D01*
X405562Y270125D01*
X405548Y270132D01*
X404195Y270512D01*
X404185Y270513D01*
X404174Y270518D01*
X403490Y270679D01*
X403484Y270679D01*
X403476Y270682D01*
X402788Y270824D01*
X402779Y270824D01*
X402767Y270828D01*
X401380Y271053D01*
X401367Y271052D01*
X401352Y271056D01*
X399954Y271203D01*
X399941Y271202D01*
X399926Y271205D01*
X398522Y271273D01*
X398510Y271271D01*
X398494Y271274D01*
X397089Y271264D01*
X397077Y271261D01*
X397061Y271263D01*
X395658Y271175D01*
X395646Y271172D01*
X395630Y271173D01*
X394235Y271006D01*
X394226Y271003D01*
X394214Y271003D01*
X393520Y270891D01*
X393511Y270887D01*
X393499Y270887D01*
X392123Y270603D01*
X392111Y270598D01*
X392095Y270597D01*
X390737Y270235D01*
X390725Y270230D01*
X390709Y270227D01*
X389374Y269790D01*
X389365Y269785D01*
X389354Y269782D01*
X388696Y269535D01*
X388688Y269530D01*
X388676Y269527D01*
X388103Y269284D01*
X388102Y269284D01*
X387382Y268978D01*
X387374Y268972D01*
X387363Y268969D01*
X386728Y268667D01*
X386721Y268661D01*
X386710Y268657D01*
X385467Y268000D01*
X385457Y267992D01*
X385443Y267986D01*
X384239Y267259D01*
X384232Y267253D01*
X384222Y267248D01*
X383636Y266860D01*
X383629Y266853D01*
X383618Y266848D01*
X382481Y266022D01*
X382472Y266013D01*
X382459Y266005D01*
X381369Y265117D01*
X381361Y265107D01*
X381348Y265099D01*
X380310Y264151D01*
X380302Y264141D01*
X380290Y264132D01*
X379306Y263128D01*
X379299Y263117D01*
X379287Y263107D01*
X378361Y262050D01*
X378355Y262038D01*
X378343Y262028D01*
X377478Y260920D01*
X377474Y260911D01*
X377466Y260903D01*
X377057Y260331D01*
X377053Y260323D01*
X377045Y260314D01*
X376277Y259137D01*
X376273Y259128D01*
X376265Y259119D01*
X375906Y258515D01*
X375903Y258506D01*
X375896Y258497D01*
X375229Y257259D01*
X375226Y257247D01*
X375217Y257234D01*
X374621Y255961D01*
X374618Y255948D01*
X374610Y255935D01*
X374088Y254630D01*
X374086Y254617D01*
X374078Y254603D01*
X373631Y253271D01*
X373629Y253258D01*
X373622Y253243D01*
X373251Y251888D01*
X373251Y251878D01*
X373246Y251867D01*
X373090Y251182D01*
X373090Y251172D01*
X373086Y251161D01*
X372831Y249779D01*
X372831Y249769D01*
X372828Y249758D01*
X372730Y249062D01*
X372731Y249052D01*
X372727Y249041D01*
X372591Y247642D01*
X372592Y247630D01*
X372589Y247614D01*
X372530Y246210D01*
X372532Y246197D01*
X372530Y246182D01*
X372549Y244777D01*
X372552Y244764D01*
X372550Y244749D01*
X372648Y243347D01*
X372652Y243332D01*
X372652Y243312D01*
X372945Y241224D01*
X372951Y241209D01*
X372951Y241190D01*
X373245Y239815D01*
X373250Y239803D01*
X373251Y239788D01*
X373622Y238432D01*
X373628Y238420D01*
X373631Y238405D01*
X374078Y237072D01*
X374083Y237064D01*
X374085Y237052D01*
X374337Y236396D01*
X374341Y236390D01*
X374342Y236383D01*
X374613Y235734D01*
X374618Y235726D01*
X374621Y235715D01*
X375217Y234441D01*
X375224Y234431D01*
X375229Y234416D01*
X375896Y233179D01*
X375904Y233169D01*
X375910Y233154D01*
X376645Y231956D01*
X376654Y231947D01*
X376660Y231933D01*
X377462Y230778D01*
X377471Y230769D01*
X377478Y230755D01*
X378343Y229647D01*
X378351Y229641D01*
X378357Y229631D01*
X378812Y229096D01*
X378820Y229090D01*
X378826Y229080D01*
X379781Y228049D01*
X379791Y228041D01*
X379801Y228029D01*
X380812Y227052D01*
X380823Y227046D01*
X380833Y227034D01*
X381897Y226115D01*
X381908Y226109D01*
X381919Y226098D01*
X383033Y225241D01*
X383041Y225236D01*
X383050Y225228D01*
X383624Y224824D01*
X383633Y224820D01*
X383642Y224812D01*
X384824Y224052D01*
X384836Y224047D01*
X384848Y224037D01*
X386071Y223345D01*
X386084Y223341D01*
X386096Y223332D01*
X387357Y222709D01*
X387366Y222707D01*
X387376Y222700D01*
X388019Y222416D01*
X388028Y222414D01*
X388038Y222408D01*
X389347Y221895D01*
X389357Y221894D01*
X389367Y221888D01*
X390032Y221660D01*
X390041Y221658D01*
X390052Y221653D01*
X391400Y221253D01*
X391412Y221252D01*
X391427Y221246D01*
X392795Y220924D01*
X392808Y220923D01*
X392823Y220918D01*
X394207Y220673D01*
X394216Y220673D01*
X394228Y220670D01*
X394924Y220577D01*
X394934Y220578D01*
X394945Y220575D01*
X396345Y220448D01*
X396358Y220449D01*
X396373Y220446D01*
X397778Y220397D01*
X397790Y220399D01*
X397805Y220397D01*
X399211Y220426D01*
G37*
G36*
X1263181Y496477D02*
X1263181Y496477D01*
X1263229Y496491D01*
X1263319Y496508D01*
X1264326Y496860D01*
X1264370Y496885D01*
X1264454Y496922D01*
X1265357Y497490D01*
X1265394Y497524D01*
X1265468Y497578D01*
X1266222Y498332D01*
X1266251Y498374D01*
X1266311Y498443D01*
X1266878Y499346D01*
X1266897Y499393D01*
X1266940Y499474D01*
X1267292Y500481D01*
X1267300Y500531D01*
X1267323Y500619D01*
X1267443Y501679D01*
X1267439Y501729D01*
X1267443Y501821D01*
X1267323Y502881D01*
X1267309Y502929D01*
X1267292Y503019D01*
X1266940Y504026D01*
X1266915Y504070D01*
X1266878Y504154D01*
X1266311Y505057D01*
X1266277Y505094D01*
X1266222Y505168D01*
X1265468Y505922D01*
X1265426Y505951D01*
X1265357Y506011D01*
X1264454Y506578D01*
X1264407Y506597D01*
X1264326Y506640D01*
X1263319Y506992D01*
X1263269Y507000D01*
X1263181Y507023D01*
X1262121Y507143D01*
X1262071Y507139D01*
X1261979Y507143D01*
X1260919Y507023D01*
X1260871Y507009D01*
X1260781Y506992D01*
X1259774Y506640D01*
X1259730Y506615D01*
X1259646Y506578D01*
X1258743Y506011D01*
X1258706Y505977D01*
X1258632Y505922D01*
X1257878Y505168D01*
X1257849Y505126D01*
X1257790Y505057D01*
X1257222Y504154D01*
X1257203Y504107D01*
X1257160Y504026D01*
X1256808Y503019D01*
X1256800Y502969D01*
X1256777Y502881D01*
X1256657Y501821D01*
X1256661Y501771D01*
X1256657Y501679D01*
X1256777Y500619D01*
X1256791Y500571D01*
X1256808Y500481D01*
X1257160Y499474D01*
X1257185Y499430D01*
X1257222Y499346D01*
X1257790Y498443D01*
X1257824Y498406D01*
X1257878Y498332D01*
X1258632Y497578D01*
X1258674Y497549D01*
X1258743Y497490D01*
X1259646Y496922D01*
X1259693Y496903D01*
X1259774Y496860D01*
X1260781Y496508D01*
X1260831Y496500D01*
X1260919Y496477D01*
X1261979Y496357D01*
X1262029Y496361D01*
X1262121Y496357D01*
X1263181Y496477D01*
G37*
G36*
X1263181Y356477D02*
X1263181Y356477D01*
X1263229Y356491D01*
X1263319Y356508D01*
X1264326Y356860D01*
X1264370Y356885D01*
X1264454Y356922D01*
X1265357Y357490D01*
X1265394Y357524D01*
X1265468Y357578D01*
X1266222Y358332D01*
X1266251Y358374D01*
X1266311Y358443D01*
X1266878Y359346D01*
X1266897Y359393D01*
X1266940Y359474D01*
X1267292Y360481D01*
X1267300Y360531D01*
X1267323Y360619D01*
X1267443Y361679D01*
X1267439Y361729D01*
X1267443Y361821D01*
X1267323Y362881D01*
X1267309Y362929D01*
X1267292Y363019D01*
X1266940Y364026D01*
X1266915Y364070D01*
X1266878Y364154D01*
X1266311Y365057D01*
X1266277Y365094D01*
X1266222Y365168D01*
X1265468Y365922D01*
X1265426Y365951D01*
X1265357Y366011D01*
X1264454Y366578D01*
X1264407Y366597D01*
X1264326Y366640D01*
X1263319Y366992D01*
X1263269Y367000D01*
X1263181Y367023D01*
X1262121Y367143D01*
X1262071Y367139D01*
X1261979Y367143D01*
X1260919Y367023D01*
X1260871Y367009D01*
X1260781Y366992D01*
X1259774Y366640D01*
X1259730Y366615D01*
X1259646Y366578D01*
X1258743Y366011D01*
X1258706Y365977D01*
X1258632Y365922D01*
X1257878Y365168D01*
X1257849Y365126D01*
X1257790Y365057D01*
X1257222Y364154D01*
X1257203Y364107D01*
X1257160Y364026D01*
X1256808Y363019D01*
X1256800Y362969D01*
X1256777Y362881D01*
X1256657Y361821D01*
X1256661Y361771D01*
X1256657Y361679D01*
X1256777Y360619D01*
X1256791Y360571D01*
X1256808Y360481D01*
X1257160Y359474D01*
X1257185Y359430D01*
X1257222Y359346D01*
X1257790Y358443D01*
X1257824Y358406D01*
X1257878Y358332D01*
X1258632Y357578D01*
X1258674Y357549D01*
X1258743Y357490D01*
X1259646Y356922D01*
X1259693Y356903D01*
X1259774Y356860D01*
X1260781Y356508D01*
X1260831Y356500D01*
X1260919Y356477D01*
X1261979Y356357D01*
X1262029Y356361D01*
X1262121Y356357D01*
X1263181Y356477D01*
G37*
G36*
X1263181Y206477D02*
X1263181Y206477D01*
X1263229Y206491D01*
X1263319Y206508D01*
X1264326Y206860D01*
X1264370Y206885D01*
X1264454Y206922D01*
X1265357Y207490D01*
X1265394Y207524D01*
X1265468Y207578D01*
X1266222Y208332D01*
X1266251Y208374D01*
X1266311Y208443D01*
X1266878Y209346D01*
X1266897Y209393D01*
X1266940Y209474D01*
X1267292Y210481D01*
X1267300Y210531D01*
X1267323Y210619D01*
X1267443Y211679D01*
X1267439Y211729D01*
X1267443Y211821D01*
X1267323Y212881D01*
X1267309Y212929D01*
X1267292Y213019D01*
X1266940Y214026D01*
X1266915Y214070D01*
X1266878Y214154D01*
X1266311Y215057D01*
X1266277Y215094D01*
X1266222Y215168D01*
X1265468Y215922D01*
X1265426Y215951D01*
X1265357Y216011D01*
X1264454Y216578D01*
X1264407Y216597D01*
X1264326Y216640D01*
X1263319Y216992D01*
X1263269Y217000D01*
X1263181Y217023D01*
X1262121Y217143D01*
X1262071Y217139D01*
X1261979Y217143D01*
X1260919Y217023D01*
X1260871Y217009D01*
X1260781Y216992D01*
X1259774Y216640D01*
X1259730Y216615D01*
X1259646Y216578D01*
X1258743Y216011D01*
X1258706Y215977D01*
X1258632Y215922D01*
X1257878Y215168D01*
X1257849Y215126D01*
X1257790Y215057D01*
X1257222Y214154D01*
X1257203Y214107D01*
X1257160Y214026D01*
X1256808Y213019D01*
X1256800Y212969D01*
X1256777Y212881D01*
X1256657Y211821D01*
X1256661Y211771D01*
X1256657Y211679D01*
X1256777Y210619D01*
X1256791Y210571D01*
X1256808Y210481D01*
X1257160Y209474D01*
X1257185Y209430D01*
X1257222Y209346D01*
X1257790Y208443D01*
X1257824Y208406D01*
X1257878Y208332D01*
X1258632Y207578D01*
X1258674Y207549D01*
X1258743Y207490D01*
X1259646Y206922D01*
X1259693Y206903D01*
X1259774Y206860D01*
X1260781Y206508D01*
X1260831Y206500D01*
X1260919Y206477D01*
X1261979Y206357D01*
X1262029Y206361D01*
X1262121Y206357D01*
X1263181Y206477D01*
G37*
G36*
X269381Y66777D02*
X269381Y66777D01*
X269429Y66791D01*
X269519Y66808D01*
X270526Y67160D01*
X270570Y67185D01*
X270654Y67222D01*
X271557Y67790D01*
X271594Y67824D01*
X271668Y67878D01*
X272422Y68632D01*
X272451Y68674D01*
X272511Y68743D01*
X273078Y69646D01*
X273097Y69693D01*
X273140Y69774D01*
X273492Y70781D01*
X273500Y70831D01*
X273523Y70919D01*
X273643Y71979D01*
X273639Y72029D01*
X273643Y72121D01*
X273523Y73181D01*
X273509Y73229D01*
X273492Y73319D01*
X273140Y74326D01*
X273115Y74370D01*
X273078Y74454D01*
X272511Y75357D01*
X272477Y75394D01*
X272422Y75468D01*
X271668Y76222D01*
X271626Y76251D01*
X271557Y76311D01*
X270654Y76878D01*
X270607Y76897D01*
X270526Y76940D01*
X269519Y77292D01*
X269469Y77300D01*
X269381Y77323D01*
X268321Y77443D01*
X268271Y77439D01*
X268179Y77443D01*
X267119Y77323D01*
X267071Y77309D01*
X266981Y77292D01*
X265974Y76940D01*
X265930Y76915D01*
X265846Y76878D01*
X264943Y76311D01*
X264906Y76277D01*
X264832Y76222D01*
X264078Y75468D01*
X264049Y75426D01*
X263990Y75357D01*
X263422Y74454D01*
X263403Y74407D01*
X263360Y74326D01*
X263008Y73319D01*
X263000Y73269D01*
X262977Y73181D01*
X262857Y72121D01*
X262861Y72071D01*
X262857Y71979D01*
X262977Y70919D01*
X262991Y70871D01*
X263008Y70781D01*
X263360Y69774D01*
X263385Y69730D01*
X263422Y69646D01*
X263990Y68743D01*
X264024Y68706D01*
X264078Y68632D01*
X264832Y67878D01*
X264874Y67849D01*
X264943Y67790D01*
X265846Y67222D01*
X265893Y67203D01*
X265974Y67160D01*
X266981Y66808D01*
X267031Y66800D01*
X267119Y66777D01*
X268179Y66657D01*
X268229Y66661D01*
X268321Y66657D01*
X269381Y66777D01*
G37*
D10*
X309619Y301110D02*
X307573Y302747D01*
X307573Y295381D01*
X309619Y295381D02*
X305527Y295381D01*
X302304Y299064D02*
X302302Y299217D01*
X302296Y299370D01*
X302287Y299522D01*
X302273Y299675D01*
X302256Y299827D01*
X302235Y299978D01*
X302210Y300129D01*
X302181Y300279D01*
X302149Y300429D01*
X302112Y300577D01*
X302072Y300725D01*
X302029Y300872D01*
X301981Y301017D01*
X301930Y301161D01*
X301876Y301304D01*
X301817Y301446D01*
X301756Y301585D01*
X301690Y301724D01*
X301664Y301794D01*
X301634Y301863D01*
X301602Y301931D01*
X301565Y301997D01*
X301526Y302061D01*
X301483Y302123D01*
X301438Y302182D01*
X301389Y302240D01*
X301338Y302294D01*
X301284Y302347D01*
X301227Y302396D01*
X301168Y302443D01*
X301107Y302486D01*
X301044Y302527D01*
X300979Y302564D01*
X300912Y302599D01*
X300843Y302629D01*
X300773Y302657D01*
X300702Y302680D01*
X300630Y302701D01*
X300557Y302717D01*
X300483Y302730D01*
X300408Y302740D01*
X300333Y302745D01*
X300258Y302747D01*
X300183Y302745D01*
X300108Y302740D01*
X300033Y302730D01*
X299959Y302717D01*
X299886Y302701D01*
X299814Y302680D01*
X299743Y302657D01*
X299673Y302629D01*
X299604Y302599D01*
X299537Y302564D01*
X299472Y302527D01*
X299409Y302486D01*
X299348Y302443D01*
X299289Y302396D01*
X299232Y302347D01*
X299178Y302294D01*
X299127Y302240D01*
X299079Y302182D01*
X299033Y302123D01*
X298990Y302061D01*
X298951Y301997D01*
X298915Y301931D01*
X298882Y301864D01*
X298852Y301794D01*
X298826Y301724D01*
X298761Y301586D01*
X298699Y301446D01*
X298641Y301304D01*
X298586Y301161D01*
X298535Y301017D01*
X298487Y300872D01*
X298444Y300725D01*
X298404Y300578D01*
X298367Y300429D01*
X298335Y300279D01*
X298306Y300129D01*
X298281Y299978D01*
X298260Y299827D01*
X298243Y299675D01*
X298229Y299522D01*
X298220Y299370D01*
X298214Y299217D01*
X298212Y299064D01*
X302304Y299064D02*
X302302Y298911D01*
X302296Y298758D01*
X302287Y298605D01*
X302273Y298453D01*
X302256Y298301D01*
X302235Y298150D01*
X302210Y297999D01*
X302181Y297848D01*
X302149Y297699D01*
X302112Y297550D01*
X302072Y297403D01*
X302029Y297256D01*
X301981Y297111D01*
X301930Y296966D01*
X301875Y296824D01*
X301817Y296682D01*
X301755Y296542D01*
X301690Y296404D01*
X301664Y296334D01*
X301634Y296264D01*
X301602Y296197D01*
X301565Y296131D01*
X301526Y296067D01*
X301483Y296005D01*
X301437Y295946D01*
X301389Y295888D01*
X301338Y295834D01*
X301284Y295781D01*
X301227Y295732D01*
X301168Y295685D01*
X301107Y295642D01*
X301044Y295601D01*
X300979Y295564D01*
X300912Y295529D01*
X300843Y295499D01*
X300773Y295471D01*
X300702Y295448D01*
X300630Y295427D01*
X300557Y295411D01*
X300483Y295398D01*
X300408Y295388D01*
X300333Y295383D01*
X300258Y295381D01*
X298826Y296404D02*
X298761Y296542D01*
X298699Y296682D01*
X298641Y296824D01*
X298586Y296967D01*
X298535Y297111D01*
X298487Y297256D01*
X298444Y297403D01*
X298404Y297551D01*
X298367Y297699D01*
X298335Y297849D01*
X298306Y297999D01*
X298281Y298150D01*
X298260Y298301D01*
X298243Y298453D01*
X298229Y298606D01*
X298220Y298758D01*
X298214Y298911D01*
X298212Y299064D01*
X298826Y296404D02*
X298852Y296333D01*
X298882Y296264D01*
X298915Y296197D01*
X298951Y296131D01*
X298990Y296067D01*
X299033Y296005D01*
X299079Y295946D01*
X299127Y295888D01*
X299178Y295834D01*
X299232Y295781D01*
X299289Y295732D01*
X299348Y295685D01*
X299409Y295642D01*
X299472Y295601D01*
X299537Y295564D01*
X299604Y295529D01*
X299673Y295499D01*
X299743Y295471D01*
X299814Y295448D01*
X299886Y295427D01*
X299959Y295411D01*
X300033Y295398D01*
X300108Y295388D01*
X300183Y295383D01*
X300258Y295381D01*
X301895Y297018D02*
X298621Y301110D01*
X294729Y302747D02*
X294729Y295381D01*
X294729Y297836D02*
X291455Y300292D01*
X293297Y298859D02*
X291455Y295381D01*
X309619Y331110D02*
X307573Y332747D01*
X307573Y325381D01*
X309619Y325381D02*
X305527Y325381D01*
X302304Y329064D02*
X302302Y329217D01*
X302296Y329370D01*
X302287Y329522D01*
X302273Y329675D01*
X302256Y329827D01*
X302235Y329978D01*
X302210Y330129D01*
X302181Y330279D01*
X302149Y330429D01*
X302112Y330577D01*
X302072Y330725D01*
X302029Y330872D01*
X301981Y331017D01*
X301930Y331161D01*
X301876Y331304D01*
X301817Y331446D01*
X301756Y331585D01*
X301690Y331724D01*
X301664Y331794D01*
X301634Y331863D01*
X301602Y331931D01*
X301565Y331997D01*
X301526Y332061D01*
X301483Y332123D01*
X301438Y332182D01*
X301389Y332240D01*
X301338Y332294D01*
X301284Y332347D01*
X301227Y332396D01*
X301168Y332443D01*
X301107Y332486D01*
X301044Y332527D01*
X300979Y332564D01*
X300912Y332599D01*
X300843Y332629D01*
X300773Y332657D01*
X300702Y332680D01*
X300630Y332701D01*
X300557Y332717D01*
X300483Y332730D01*
X300408Y332740D01*
X300333Y332745D01*
X300258Y332747D01*
X300183Y332745D01*
X300108Y332740D01*
X300033Y332730D01*
X299959Y332717D01*
X299886Y332701D01*
X299814Y332680D01*
X299743Y332657D01*
X299673Y332629D01*
X299604Y332599D01*
X299537Y332564D01*
X299472Y332527D01*
X299409Y332486D01*
X299348Y332443D01*
X299289Y332396D01*
X299232Y332347D01*
X299178Y332294D01*
X299127Y332240D01*
X299079Y332182D01*
X299033Y332123D01*
X298990Y332061D01*
X298951Y331997D01*
X298915Y331931D01*
X298882Y331864D01*
X298852Y331794D01*
X298826Y331724D01*
X298761Y331586D01*
X298699Y331446D01*
X298641Y331304D01*
X298586Y331161D01*
X298535Y331017D01*
X298487Y330872D01*
X298444Y330725D01*
X298404Y330578D01*
X298367Y330429D01*
X298335Y330279D01*
X298306Y330129D01*
X298281Y329978D01*
X298260Y329827D01*
X298243Y329675D01*
X298229Y329522D01*
X298220Y329370D01*
X298214Y329217D01*
X298212Y329064D01*
X302304Y329064D02*
X302302Y328911D01*
X302296Y328758D01*
X302287Y328605D01*
X302273Y328453D01*
X302256Y328301D01*
X302235Y328150D01*
X302210Y327999D01*
X302181Y327848D01*
X302149Y327699D01*
X302112Y327550D01*
X302072Y327403D01*
X302029Y327256D01*
X301981Y327111D01*
X301930Y326966D01*
X301875Y326824D01*
X301817Y326682D01*
X301755Y326542D01*
X301690Y326404D01*
X301664Y326334D01*
X301634Y326264D01*
X301602Y326197D01*
X301565Y326131D01*
X301526Y326067D01*
X301483Y326005D01*
X301437Y325946D01*
X301389Y325888D01*
X301338Y325834D01*
X301284Y325781D01*
X301227Y325732D01*
X301168Y325685D01*
X301107Y325642D01*
X301044Y325601D01*
X300979Y325564D01*
X300912Y325529D01*
X300843Y325499D01*
X300773Y325471D01*
X300702Y325448D01*
X300630Y325427D01*
X300557Y325411D01*
X300483Y325398D01*
X300408Y325388D01*
X300333Y325383D01*
X300258Y325381D01*
X298826Y326404D02*
X298761Y326542D01*
X298699Y326682D01*
X298641Y326824D01*
X298586Y326967D01*
X298535Y327111D01*
X298487Y327256D01*
X298444Y327403D01*
X298404Y327551D01*
X298367Y327699D01*
X298335Y327849D01*
X298306Y327999D01*
X298281Y328150D01*
X298260Y328301D01*
X298243Y328453D01*
X298229Y328606D01*
X298220Y328758D01*
X298214Y328911D01*
X298212Y329064D01*
X298826Y326404D02*
X298852Y326333D01*
X298882Y326264D01*
X298915Y326197D01*
X298951Y326131D01*
X298990Y326067D01*
X299033Y326005D01*
X299079Y325946D01*
X299127Y325888D01*
X299178Y325834D01*
X299232Y325781D01*
X299289Y325732D01*
X299348Y325685D01*
X299409Y325642D01*
X299472Y325601D01*
X299537Y325564D01*
X299604Y325529D01*
X299673Y325499D01*
X299743Y325471D01*
X299814Y325448D01*
X299886Y325427D01*
X299959Y325411D01*
X300033Y325398D01*
X300108Y325388D01*
X300183Y325383D01*
X300258Y325381D01*
X301895Y327018D02*
X298621Y331110D01*
X294729Y332747D02*
X294729Y325381D01*
X294729Y327836D02*
X291455Y330292D01*
X293297Y328859D02*
X291455Y325381D01*
X304619Y361110D02*
X302573Y362747D01*
X302573Y355381D01*
X304619Y355381D02*
X300527Y355381D01*
X297044Y355381D02*
X297044Y362747D01*
X293771Y360292D02*
X297044Y357836D01*
X295612Y358859D02*
X293771Y355381D01*
X304619Y391110D02*
X302573Y392747D01*
X302573Y385381D01*
X304619Y385381D02*
X300527Y385381D01*
X297044Y385381D02*
X297044Y392747D01*
X293771Y390292D02*
X297044Y387836D01*
X295612Y388859D02*
X293771Y385381D01*
X197368Y117748D02*
X197283Y117746D01*
X197198Y117740D01*
X197114Y117730D01*
X197030Y117717D01*
X196946Y117699D01*
X196864Y117678D01*
X196783Y117653D01*
X196703Y117624D01*
X196624Y117591D01*
X196547Y117555D01*
X196472Y117515D01*
X196398Y117472D01*
X196327Y117426D01*
X196258Y117376D01*
X196191Y117323D01*
X196127Y117267D01*
X196066Y117208D01*
X196007Y117147D01*
X195951Y117083D01*
X195898Y117016D01*
X195848Y116947D01*
X195802Y116876D01*
X195759Y116802D01*
X195719Y116727D01*
X195683Y116650D01*
X195650Y116571D01*
X195621Y116491D01*
X195596Y116410D01*
X195575Y116328D01*
X195557Y116244D01*
X195544Y116160D01*
X195534Y116076D01*
X195528Y115991D01*
X195526Y115906D01*
X197368Y117747D02*
X197464Y117745D01*
X197560Y117739D01*
X197655Y117729D01*
X197750Y117716D01*
X197845Y117698D01*
X197938Y117677D01*
X198031Y117652D01*
X198122Y117623D01*
X198213Y117591D01*
X198302Y117555D01*
X198389Y117515D01*
X198475Y117472D01*
X198559Y117426D01*
X198641Y117376D01*
X198721Y117322D01*
X198798Y117266D01*
X198873Y117206D01*
X198946Y117144D01*
X199016Y117078D01*
X199084Y117010D01*
X199149Y116939D01*
X199210Y116866D01*
X199269Y116790D01*
X199325Y116711D01*
X199377Y116631D01*
X199426Y116548D01*
X199472Y116464D01*
X199514Y116378D01*
X199552Y116290D01*
X199587Y116201D01*
X199619Y116110D01*
X196141Y114474D02*
X196081Y114533D01*
X196024Y114595D01*
X195969Y114659D01*
X195918Y114726D01*
X195869Y114795D01*
X195823Y114865D01*
X195780Y114938D01*
X195740Y115012D01*
X195704Y115088D01*
X195671Y115166D01*
X195641Y115245D01*
X195614Y115325D01*
X195591Y115406D01*
X195572Y115488D01*
X195556Y115570D01*
X195543Y115654D01*
X195534Y115738D01*
X195529Y115822D01*
X195527Y115906D01*
X196141Y114473D02*
X199619Y110381D01*
X195527Y110381D01*
X188211Y115906D02*
X188213Y115991D01*
X188219Y116076D01*
X188229Y116160D01*
X188242Y116244D01*
X188260Y116328D01*
X188281Y116410D01*
X188306Y116491D01*
X188335Y116571D01*
X188368Y116650D01*
X188404Y116727D01*
X188444Y116802D01*
X188487Y116876D01*
X188533Y116947D01*
X188583Y117016D01*
X188636Y117083D01*
X188692Y117147D01*
X188751Y117208D01*
X188812Y117267D01*
X188876Y117323D01*
X188943Y117376D01*
X189012Y117426D01*
X189083Y117472D01*
X189157Y117515D01*
X189232Y117555D01*
X189309Y117591D01*
X189388Y117624D01*
X189468Y117653D01*
X189549Y117678D01*
X189631Y117699D01*
X189715Y117717D01*
X189799Y117730D01*
X189883Y117740D01*
X189968Y117746D01*
X190053Y117748D01*
X190053Y117747D02*
X190149Y117745D01*
X190245Y117739D01*
X190340Y117729D01*
X190435Y117716D01*
X190530Y117698D01*
X190623Y117677D01*
X190716Y117652D01*
X190807Y117623D01*
X190898Y117591D01*
X190987Y117555D01*
X191074Y117515D01*
X191160Y117472D01*
X191244Y117426D01*
X191326Y117376D01*
X191406Y117322D01*
X191483Y117266D01*
X191558Y117206D01*
X191631Y117144D01*
X191701Y117078D01*
X191769Y117010D01*
X191834Y116939D01*
X191895Y116866D01*
X191954Y116790D01*
X192010Y116711D01*
X192062Y116631D01*
X192111Y116548D01*
X192157Y116464D01*
X192199Y116378D01*
X192237Y116290D01*
X192272Y116201D01*
X192304Y116110D01*
X188825Y114474D02*
X188765Y114533D01*
X188708Y114595D01*
X188653Y114659D01*
X188602Y114726D01*
X188553Y114795D01*
X188507Y114865D01*
X188464Y114938D01*
X188424Y115012D01*
X188388Y115088D01*
X188355Y115166D01*
X188325Y115245D01*
X188298Y115325D01*
X188275Y115406D01*
X188256Y115488D01*
X188240Y115570D01*
X188227Y115654D01*
X188218Y115738D01*
X188213Y115822D01*
X188211Y115906D01*
X188825Y114473D02*
X192304Y110381D01*
X188212Y110381D01*
X184988Y114064D02*
X184986Y114217D01*
X184980Y114370D01*
X184971Y114522D01*
X184957Y114675D01*
X184940Y114827D01*
X184919Y114978D01*
X184894Y115129D01*
X184865Y115279D01*
X184833Y115429D01*
X184796Y115577D01*
X184756Y115725D01*
X184713Y115872D01*
X184665Y116017D01*
X184614Y116161D01*
X184560Y116304D01*
X184501Y116446D01*
X184440Y116585D01*
X184374Y116724D01*
X184348Y116794D01*
X184318Y116863D01*
X184286Y116931D01*
X184249Y116997D01*
X184210Y117061D01*
X184167Y117123D01*
X184122Y117182D01*
X184073Y117240D01*
X184022Y117294D01*
X183968Y117347D01*
X183911Y117396D01*
X183852Y117443D01*
X183791Y117486D01*
X183728Y117527D01*
X183663Y117564D01*
X183596Y117599D01*
X183527Y117629D01*
X183457Y117657D01*
X183386Y117680D01*
X183314Y117701D01*
X183241Y117717D01*
X183167Y117730D01*
X183092Y117740D01*
X183017Y117745D01*
X182942Y117747D01*
X182867Y117745D01*
X182792Y117740D01*
X182717Y117730D01*
X182643Y117717D01*
X182570Y117701D01*
X182498Y117680D01*
X182427Y117657D01*
X182357Y117629D01*
X182288Y117599D01*
X182221Y117564D01*
X182156Y117527D01*
X182093Y117486D01*
X182032Y117443D01*
X181973Y117396D01*
X181916Y117347D01*
X181862Y117294D01*
X181811Y117240D01*
X181763Y117182D01*
X181717Y117123D01*
X181674Y117061D01*
X181635Y116997D01*
X181599Y116931D01*
X181566Y116864D01*
X181536Y116794D01*
X181510Y116724D01*
X181445Y116586D01*
X181383Y116446D01*
X181325Y116304D01*
X181270Y116161D01*
X181219Y116017D01*
X181171Y115872D01*
X181128Y115725D01*
X181088Y115578D01*
X181051Y115429D01*
X181019Y115279D01*
X180990Y115129D01*
X180965Y114978D01*
X180944Y114827D01*
X180927Y114675D01*
X180913Y114522D01*
X180904Y114370D01*
X180898Y114217D01*
X180896Y114064D01*
X184989Y114064D02*
X184987Y113911D01*
X184981Y113758D01*
X184972Y113605D01*
X184958Y113453D01*
X184941Y113301D01*
X184920Y113150D01*
X184895Y112999D01*
X184866Y112848D01*
X184834Y112699D01*
X184797Y112550D01*
X184757Y112403D01*
X184714Y112256D01*
X184666Y112111D01*
X184615Y111966D01*
X184560Y111824D01*
X184502Y111682D01*
X184440Y111542D01*
X184375Y111404D01*
X184374Y111404D02*
X184348Y111334D01*
X184318Y111264D01*
X184286Y111197D01*
X184249Y111131D01*
X184210Y111067D01*
X184167Y111005D01*
X184121Y110946D01*
X184073Y110888D01*
X184022Y110834D01*
X183968Y110781D01*
X183911Y110732D01*
X183852Y110685D01*
X183791Y110642D01*
X183728Y110601D01*
X183663Y110564D01*
X183596Y110529D01*
X183527Y110499D01*
X183457Y110471D01*
X183386Y110448D01*
X183314Y110427D01*
X183241Y110411D01*
X183167Y110398D01*
X183092Y110388D01*
X183017Y110383D01*
X182942Y110381D01*
X181511Y111404D02*
X181446Y111542D01*
X181384Y111682D01*
X181326Y111824D01*
X181271Y111967D01*
X181220Y112111D01*
X181172Y112256D01*
X181129Y112403D01*
X181089Y112551D01*
X181052Y112699D01*
X181020Y112849D01*
X180991Y112999D01*
X180966Y113150D01*
X180945Y113301D01*
X180928Y113453D01*
X180914Y113606D01*
X180905Y113758D01*
X180899Y113911D01*
X180897Y114064D01*
X181510Y111404D02*
X181536Y111333D01*
X181566Y111264D01*
X181599Y111197D01*
X181635Y111131D01*
X181674Y111067D01*
X181717Y111005D01*
X181763Y110946D01*
X181811Y110888D01*
X181862Y110834D01*
X181916Y110781D01*
X181973Y110732D01*
X182032Y110685D01*
X182093Y110642D01*
X182156Y110601D01*
X182221Y110564D01*
X182288Y110529D01*
X182357Y110499D01*
X182427Y110471D01*
X182498Y110448D01*
X182570Y110427D01*
X182643Y110411D01*
X182717Y110398D01*
X182792Y110388D01*
X182867Y110383D01*
X182942Y110381D01*
X184579Y112018D02*
X181306Y116110D01*
X547573Y47747D02*
X549619Y46110D01*
X547573Y47747D02*
X547573Y40381D01*
X549619Y40381D02*
X545527Y40381D01*
X542304Y40381D02*
X539848Y40381D01*
X539768Y40383D01*
X539688Y40389D01*
X539608Y40399D01*
X539529Y40412D01*
X539450Y40430D01*
X539373Y40451D01*
X539297Y40477D01*
X539222Y40506D01*
X539148Y40538D01*
X539076Y40574D01*
X539006Y40614D01*
X538939Y40657D01*
X538873Y40703D01*
X538810Y40753D01*
X538749Y40805D01*
X538690Y40860D01*
X538635Y40919D01*
X538583Y40979D01*
X538533Y41043D01*
X538487Y41108D01*
X538444Y41176D01*
X538404Y41246D01*
X538368Y41318D01*
X538336Y41392D01*
X538307Y41466D01*
X538282Y41543D01*
X538260Y41620D01*
X538242Y41699D01*
X538229Y41778D01*
X538219Y41857D01*
X538213Y41938D01*
X538211Y42018D01*
X538212Y42018D02*
X538212Y42836D01*
X538211Y42836D02*
X538213Y42914D01*
X538218Y42992D01*
X538228Y43069D01*
X538241Y43146D01*
X538257Y43222D01*
X538277Y43297D01*
X538301Y43371D01*
X538328Y43444D01*
X538359Y43516D01*
X538393Y43586D01*
X538430Y43655D01*
X538471Y43721D01*
X538515Y43786D01*
X538561Y43848D01*
X538611Y43908D01*
X538663Y43966D01*
X538718Y44021D01*
X538776Y44073D01*
X538836Y44123D01*
X538898Y44169D01*
X538963Y44213D01*
X539030Y44254D01*
X539098Y44291D01*
X539168Y44325D01*
X539240Y44356D01*
X539313Y44383D01*
X539387Y44407D01*
X539462Y44427D01*
X539538Y44443D01*
X539615Y44456D01*
X539692Y44466D01*
X539770Y44471D01*
X539848Y44473D01*
X542304Y44473D01*
X542304Y47747D01*
X538212Y47747D01*
X534374Y46724D02*
X534440Y46585D01*
X534501Y46446D01*
X534560Y46304D01*
X534614Y46161D01*
X534665Y46017D01*
X534713Y45872D01*
X534756Y45725D01*
X534796Y45577D01*
X534833Y45429D01*
X534865Y45279D01*
X534894Y45129D01*
X534919Y44978D01*
X534940Y44827D01*
X534957Y44675D01*
X534971Y44522D01*
X534980Y44370D01*
X534986Y44217D01*
X534988Y44064D01*
X534374Y46724D02*
X534348Y46794D01*
X534318Y46863D01*
X534286Y46931D01*
X534249Y46997D01*
X534210Y47061D01*
X534167Y47123D01*
X534122Y47182D01*
X534073Y47240D01*
X534022Y47294D01*
X533968Y47347D01*
X533911Y47396D01*
X533852Y47443D01*
X533791Y47486D01*
X533728Y47527D01*
X533663Y47564D01*
X533596Y47599D01*
X533527Y47629D01*
X533457Y47657D01*
X533386Y47680D01*
X533314Y47701D01*
X533241Y47717D01*
X533167Y47730D01*
X533092Y47740D01*
X533017Y47745D01*
X532942Y47747D01*
X532867Y47745D01*
X532792Y47740D01*
X532717Y47730D01*
X532643Y47717D01*
X532570Y47701D01*
X532498Y47680D01*
X532427Y47657D01*
X532357Y47629D01*
X532288Y47599D01*
X532221Y47564D01*
X532156Y47527D01*
X532093Y47486D01*
X532032Y47443D01*
X531973Y47396D01*
X531916Y47347D01*
X531862Y47294D01*
X531811Y47240D01*
X531763Y47182D01*
X531717Y47123D01*
X531674Y47061D01*
X531635Y46997D01*
X531599Y46931D01*
X531566Y46864D01*
X531536Y46794D01*
X531510Y46724D01*
X531445Y46586D01*
X531383Y46446D01*
X531325Y46304D01*
X531270Y46161D01*
X531219Y46017D01*
X531171Y45872D01*
X531128Y45725D01*
X531088Y45578D01*
X531051Y45429D01*
X531019Y45279D01*
X530990Y45129D01*
X530965Y44978D01*
X530944Y44827D01*
X530927Y44675D01*
X530913Y44522D01*
X530904Y44370D01*
X530898Y44217D01*
X530896Y44064D01*
X534989Y44064D02*
X534987Y43911D01*
X534981Y43758D01*
X534972Y43605D01*
X534958Y43453D01*
X534941Y43301D01*
X534920Y43150D01*
X534895Y42999D01*
X534866Y42848D01*
X534834Y42699D01*
X534797Y42550D01*
X534757Y42403D01*
X534714Y42256D01*
X534666Y42111D01*
X534615Y41966D01*
X534560Y41824D01*
X534502Y41682D01*
X534440Y41542D01*
X534375Y41404D01*
X534374Y41404D02*
X534348Y41334D01*
X534318Y41264D01*
X534286Y41197D01*
X534249Y41131D01*
X534210Y41067D01*
X534167Y41005D01*
X534121Y40946D01*
X534073Y40888D01*
X534022Y40834D01*
X533968Y40781D01*
X533911Y40732D01*
X533852Y40685D01*
X533791Y40642D01*
X533728Y40601D01*
X533663Y40564D01*
X533596Y40529D01*
X533527Y40499D01*
X533457Y40471D01*
X533386Y40448D01*
X533314Y40427D01*
X533241Y40411D01*
X533167Y40398D01*
X533092Y40388D01*
X533017Y40383D01*
X532942Y40381D01*
X531511Y41404D02*
X531446Y41542D01*
X531384Y41682D01*
X531326Y41824D01*
X531271Y41967D01*
X531220Y42111D01*
X531172Y42256D01*
X531129Y42403D01*
X531089Y42551D01*
X531052Y42699D01*
X531020Y42849D01*
X530991Y42999D01*
X530966Y43150D01*
X530945Y43301D01*
X530928Y43453D01*
X530914Y43606D01*
X530905Y43758D01*
X530899Y43911D01*
X530897Y44064D01*
X531510Y41404D02*
X531536Y41333D01*
X531566Y41264D01*
X531599Y41197D01*
X531635Y41131D01*
X531674Y41067D01*
X531717Y41005D01*
X531763Y40946D01*
X531811Y40888D01*
X531862Y40834D01*
X531916Y40781D01*
X531973Y40732D01*
X532032Y40685D01*
X532093Y40642D01*
X532156Y40601D01*
X532221Y40564D01*
X532288Y40529D01*
X532357Y40499D01*
X532427Y40471D01*
X532498Y40448D01*
X532570Y40427D01*
X532643Y40411D01*
X532717Y40398D01*
X532792Y40388D01*
X532867Y40383D01*
X532942Y40381D01*
X534579Y42018D02*
X531306Y46110D01*
X1492982Y523771D02*
X1494619Y525817D01*
X1487253Y525817D01*
X1487253Y523771D02*
X1487253Y527863D01*
X1487253Y531345D02*
X1494619Y531345D01*
X1492164Y534619D02*
X1489708Y531345D01*
X1490731Y532778D02*
X1487253Y534619D01*
X1522982Y523771D02*
X1524619Y525817D01*
X1517253Y525817D01*
X1517253Y523771D02*
X1517253Y527863D01*
X1517253Y531345D02*
X1524619Y531345D01*
X1522164Y534619D02*
X1519708Y531345D01*
X1520731Y532778D02*
X1517253Y534619D01*
X1552982Y521455D02*
X1554619Y523501D01*
X1547253Y523501D01*
X1547253Y521455D02*
X1547253Y525548D01*
X1550936Y528771D02*
X1551089Y528773D01*
X1551242Y528779D01*
X1551394Y528788D01*
X1551547Y528802D01*
X1551699Y528819D01*
X1551850Y528840D01*
X1552001Y528865D01*
X1552151Y528894D01*
X1552301Y528926D01*
X1552449Y528963D01*
X1552597Y529003D01*
X1552744Y529046D01*
X1552889Y529094D01*
X1553033Y529145D01*
X1553176Y529199D01*
X1553318Y529258D01*
X1553457Y529319D01*
X1553596Y529385D01*
X1553666Y529411D01*
X1553736Y529441D01*
X1553803Y529474D01*
X1553869Y529510D01*
X1553933Y529549D01*
X1553995Y529592D01*
X1554054Y529638D01*
X1554112Y529686D01*
X1554166Y529737D01*
X1554219Y529791D01*
X1554268Y529848D01*
X1554315Y529907D01*
X1554358Y529968D01*
X1554399Y530031D01*
X1554436Y530096D01*
X1554471Y530163D01*
X1554501Y530232D01*
X1554529Y530302D01*
X1554552Y530373D01*
X1554573Y530445D01*
X1554589Y530518D01*
X1554602Y530592D01*
X1554612Y530667D01*
X1554617Y530742D01*
X1554619Y530817D01*
X1554617Y530892D01*
X1554612Y530967D01*
X1554602Y531042D01*
X1554589Y531116D01*
X1554573Y531189D01*
X1554552Y531261D01*
X1554529Y531332D01*
X1554501Y531402D01*
X1554471Y531471D01*
X1554436Y531538D01*
X1554399Y531603D01*
X1554358Y531666D01*
X1554315Y531727D01*
X1554268Y531786D01*
X1554219Y531843D01*
X1554166Y531897D01*
X1554112Y531948D01*
X1554054Y531997D01*
X1553995Y532042D01*
X1553933Y532085D01*
X1553869Y532124D01*
X1553803Y532161D01*
X1553735Y532193D01*
X1553666Y532223D01*
X1553596Y532249D01*
X1553458Y532314D01*
X1553318Y532376D01*
X1553176Y532434D01*
X1553033Y532489D01*
X1552889Y532540D01*
X1552744Y532588D01*
X1552597Y532631D01*
X1552450Y532671D01*
X1552301Y532708D01*
X1552151Y532740D01*
X1552001Y532769D01*
X1551850Y532794D01*
X1551699Y532815D01*
X1551547Y532832D01*
X1551394Y532846D01*
X1551242Y532855D01*
X1551089Y532861D01*
X1550936Y532863D01*
X1550936Y528770D02*
X1550783Y528772D01*
X1550630Y528778D01*
X1550477Y528787D01*
X1550325Y528801D01*
X1550173Y528818D01*
X1550022Y528839D01*
X1549871Y528864D01*
X1549720Y528893D01*
X1549571Y528925D01*
X1549422Y528962D01*
X1549275Y529002D01*
X1549128Y529045D01*
X1548983Y529093D01*
X1548838Y529144D01*
X1548696Y529199D01*
X1548554Y529257D01*
X1548414Y529319D01*
X1548276Y529384D01*
X1548276Y529385D02*
X1548205Y529411D01*
X1548136Y529441D01*
X1548069Y529474D01*
X1548003Y529510D01*
X1547939Y529549D01*
X1547877Y529592D01*
X1547818Y529638D01*
X1547760Y529686D01*
X1547706Y529737D01*
X1547653Y529791D01*
X1547604Y529848D01*
X1547557Y529907D01*
X1547514Y529968D01*
X1547473Y530031D01*
X1547436Y530096D01*
X1547401Y530163D01*
X1547371Y530232D01*
X1547343Y530302D01*
X1547320Y530373D01*
X1547299Y530445D01*
X1547283Y530518D01*
X1547270Y530592D01*
X1547260Y530667D01*
X1547255Y530742D01*
X1547253Y530817D01*
X1548276Y532249D02*
X1548414Y532314D01*
X1548554Y532376D01*
X1548696Y532434D01*
X1548839Y532489D01*
X1548983Y532540D01*
X1549128Y532588D01*
X1549275Y532631D01*
X1549423Y532671D01*
X1549571Y532708D01*
X1549721Y532740D01*
X1549871Y532769D01*
X1550022Y532794D01*
X1550173Y532815D01*
X1550325Y532832D01*
X1550478Y532846D01*
X1550630Y532855D01*
X1550783Y532861D01*
X1550936Y532863D01*
X1548276Y532249D02*
X1548206Y532223D01*
X1548136Y532193D01*
X1548069Y532161D01*
X1548003Y532124D01*
X1547939Y532085D01*
X1547877Y532042D01*
X1547818Y531996D01*
X1547760Y531948D01*
X1547706Y531897D01*
X1547653Y531843D01*
X1547604Y531786D01*
X1547557Y531727D01*
X1547514Y531666D01*
X1547473Y531603D01*
X1547436Y531538D01*
X1547401Y531471D01*
X1547371Y531402D01*
X1547343Y531332D01*
X1547320Y531261D01*
X1547299Y531189D01*
X1547283Y531116D01*
X1547270Y531042D01*
X1547260Y530967D01*
X1547255Y530892D01*
X1547253Y530817D01*
X1548890Y529180D02*
X1552982Y532454D01*
X1554619Y536345D02*
X1547253Y536345D01*
X1549708Y536345D02*
X1552164Y539619D01*
X1550731Y537778D02*
X1547253Y539619D01*
X1582982Y521455D02*
X1584619Y523501D01*
X1577253Y523501D01*
X1577253Y521455D02*
X1577253Y525548D01*
X1580936Y528771D02*
X1581089Y528773D01*
X1581242Y528779D01*
X1581394Y528788D01*
X1581547Y528802D01*
X1581699Y528819D01*
X1581850Y528840D01*
X1582001Y528865D01*
X1582151Y528894D01*
X1582301Y528926D01*
X1582449Y528963D01*
X1582597Y529003D01*
X1582744Y529046D01*
X1582889Y529094D01*
X1583033Y529145D01*
X1583176Y529199D01*
X1583318Y529258D01*
X1583457Y529319D01*
X1583596Y529385D01*
X1583666Y529411D01*
X1583736Y529441D01*
X1583803Y529474D01*
X1583869Y529510D01*
X1583933Y529549D01*
X1583995Y529592D01*
X1584054Y529638D01*
X1584112Y529686D01*
X1584166Y529737D01*
X1584219Y529791D01*
X1584268Y529848D01*
X1584315Y529907D01*
X1584358Y529968D01*
X1584399Y530031D01*
X1584436Y530096D01*
X1584471Y530163D01*
X1584501Y530232D01*
X1584529Y530302D01*
X1584552Y530373D01*
X1584573Y530445D01*
X1584589Y530518D01*
X1584602Y530592D01*
X1584612Y530667D01*
X1584617Y530742D01*
X1584619Y530817D01*
X1584617Y530892D01*
X1584612Y530967D01*
X1584602Y531042D01*
X1584589Y531116D01*
X1584573Y531189D01*
X1584552Y531261D01*
X1584529Y531332D01*
X1584501Y531402D01*
X1584471Y531471D01*
X1584436Y531538D01*
X1584399Y531603D01*
X1584358Y531666D01*
X1584315Y531727D01*
X1584268Y531786D01*
X1584219Y531843D01*
X1584166Y531897D01*
X1584112Y531948D01*
X1584054Y531997D01*
X1583995Y532042D01*
X1583933Y532085D01*
X1583869Y532124D01*
X1583803Y532161D01*
X1583735Y532193D01*
X1583666Y532223D01*
X1583596Y532249D01*
X1583458Y532314D01*
X1583318Y532376D01*
X1583176Y532434D01*
X1583033Y532489D01*
X1582889Y532540D01*
X1582744Y532588D01*
X1582597Y532631D01*
X1582450Y532671D01*
X1582301Y532708D01*
X1582151Y532740D01*
X1582001Y532769D01*
X1581850Y532794D01*
X1581699Y532815D01*
X1581547Y532832D01*
X1581394Y532846D01*
X1581242Y532855D01*
X1581089Y532861D01*
X1580936Y532863D01*
X1580936Y528770D02*
X1580783Y528772D01*
X1580630Y528778D01*
X1580477Y528787D01*
X1580325Y528801D01*
X1580173Y528818D01*
X1580022Y528839D01*
X1579871Y528864D01*
X1579720Y528893D01*
X1579571Y528925D01*
X1579422Y528962D01*
X1579275Y529002D01*
X1579128Y529045D01*
X1578983Y529093D01*
X1578838Y529144D01*
X1578696Y529199D01*
X1578554Y529257D01*
X1578414Y529319D01*
X1578276Y529384D01*
X1578276Y529385D02*
X1578205Y529411D01*
X1578136Y529441D01*
X1578069Y529474D01*
X1578003Y529510D01*
X1577939Y529549D01*
X1577877Y529592D01*
X1577818Y529638D01*
X1577760Y529686D01*
X1577706Y529737D01*
X1577653Y529791D01*
X1577604Y529848D01*
X1577557Y529907D01*
X1577514Y529968D01*
X1577473Y530031D01*
X1577436Y530096D01*
X1577401Y530163D01*
X1577371Y530232D01*
X1577343Y530302D01*
X1577320Y530373D01*
X1577299Y530445D01*
X1577283Y530518D01*
X1577270Y530592D01*
X1577260Y530667D01*
X1577255Y530742D01*
X1577253Y530817D01*
X1578276Y532249D02*
X1578414Y532314D01*
X1578554Y532376D01*
X1578696Y532434D01*
X1578839Y532489D01*
X1578983Y532540D01*
X1579128Y532588D01*
X1579275Y532631D01*
X1579423Y532671D01*
X1579571Y532708D01*
X1579721Y532740D01*
X1579871Y532769D01*
X1580022Y532794D01*
X1580173Y532815D01*
X1580325Y532832D01*
X1580478Y532846D01*
X1580630Y532855D01*
X1580783Y532861D01*
X1580936Y532863D01*
X1578276Y532249D02*
X1578206Y532223D01*
X1578136Y532193D01*
X1578069Y532161D01*
X1578003Y532124D01*
X1577939Y532085D01*
X1577877Y532042D01*
X1577818Y531996D01*
X1577760Y531948D01*
X1577706Y531897D01*
X1577653Y531843D01*
X1577604Y531786D01*
X1577557Y531727D01*
X1577514Y531666D01*
X1577473Y531603D01*
X1577436Y531538D01*
X1577401Y531471D01*
X1577371Y531402D01*
X1577343Y531332D01*
X1577320Y531261D01*
X1577299Y531189D01*
X1577283Y531116D01*
X1577270Y531042D01*
X1577260Y530967D01*
X1577255Y530892D01*
X1577253Y530817D01*
X1578890Y529180D02*
X1582982Y532454D01*
X1584619Y536345D02*
X1577253Y536345D01*
X1579708Y536345D02*
X1582164Y539619D01*
X1580731Y537778D02*
X1577253Y539619D01*
X1597778Y54989D02*
X1597863Y54987D01*
X1597948Y54981D01*
X1598032Y54971D01*
X1598116Y54958D01*
X1598200Y54940D01*
X1598282Y54919D01*
X1598363Y54894D01*
X1598443Y54865D01*
X1598522Y54832D01*
X1598599Y54796D01*
X1598674Y54756D01*
X1598748Y54713D01*
X1598819Y54667D01*
X1598888Y54617D01*
X1598955Y54564D01*
X1599019Y54508D01*
X1599080Y54449D01*
X1599139Y54388D01*
X1599195Y54324D01*
X1599248Y54257D01*
X1599298Y54188D01*
X1599344Y54117D01*
X1599387Y54043D01*
X1599427Y53968D01*
X1599463Y53891D01*
X1599496Y53812D01*
X1599525Y53732D01*
X1599550Y53651D01*
X1599571Y53569D01*
X1599589Y53485D01*
X1599602Y53401D01*
X1599612Y53317D01*
X1599618Y53232D01*
X1599620Y53147D01*
X1599619Y53147D02*
X1599617Y53051D01*
X1599611Y52955D01*
X1599601Y52860D01*
X1599588Y52765D01*
X1599570Y52670D01*
X1599549Y52577D01*
X1599524Y52484D01*
X1599495Y52393D01*
X1599463Y52302D01*
X1599427Y52213D01*
X1599387Y52126D01*
X1599344Y52040D01*
X1599298Y51956D01*
X1599248Y51874D01*
X1599194Y51794D01*
X1599138Y51717D01*
X1599078Y51642D01*
X1599016Y51569D01*
X1598950Y51499D01*
X1598882Y51431D01*
X1598811Y51366D01*
X1598738Y51305D01*
X1598662Y51246D01*
X1598583Y51190D01*
X1598503Y51138D01*
X1598420Y51089D01*
X1598336Y51043D01*
X1598250Y51001D01*
X1598162Y50963D01*
X1598073Y50928D01*
X1597982Y50896D01*
X1596346Y54375D02*
X1596405Y54435D01*
X1596467Y54492D01*
X1596531Y54547D01*
X1596598Y54598D01*
X1596667Y54647D01*
X1596737Y54693D01*
X1596810Y54736D01*
X1596884Y54776D01*
X1596960Y54812D01*
X1597038Y54845D01*
X1597117Y54875D01*
X1597197Y54902D01*
X1597278Y54925D01*
X1597360Y54944D01*
X1597442Y54960D01*
X1597526Y54973D01*
X1597610Y54982D01*
X1597694Y54987D01*
X1597778Y54989D01*
X1596345Y54375D02*
X1592253Y50896D01*
X1592253Y54989D01*
X1597778Y62304D02*
X1597863Y62302D01*
X1597948Y62296D01*
X1598032Y62286D01*
X1598116Y62273D01*
X1598200Y62255D01*
X1598282Y62234D01*
X1598363Y62209D01*
X1598443Y62180D01*
X1598522Y62147D01*
X1598599Y62111D01*
X1598674Y62071D01*
X1598748Y62028D01*
X1598819Y61982D01*
X1598888Y61932D01*
X1598955Y61879D01*
X1599019Y61823D01*
X1599080Y61764D01*
X1599139Y61703D01*
X1599195Y61639D01*
X1599248Y61572D01*
X1599298Y61503D01*
X1599344Y61432D01*
X1599387Y61358D01*
X1599427Y61283D01*
X1599463Y61206D01*
X1599496Y61127D01*
X1599525Y61047D01*
X1599550Y60966D01*
X1599571Y60884D01*
X1599589Y60800D01*
X1599602Y60716D01*
X1599612Y60632D01*
X1599618Y60547D01*
X1599620Y60462D01*
X1599619Y60462D02*
X1599617Y60366D01*
X1599611Y60270D01*
X1599601Y60175D01*
X1599588Y60080D01*
X1599570Y59985D01*
X1599549Y59892D01*
X1599524Y59799D01*
X1599495Y59708D01*
X1599463Y59617D01*
X1599427Y59528D01*
X1599387Y59441D01*
X1599344Y59355D01*
X1599298Y59271D01*
X1599248Y59189D01*
X1599194Y59109D01*
X1599138Y59032D01*
X1599078Y58957D01*
X1599016Y58884D01*
X1598950Y58814D01*
X1598882Y58746D01*
X1598811Y58681D01*
X1598738Y58620D01*
X1598662Y58561D01*
X1598583Y58505D01*
X1598503Y58453D01*
X1598420Y58404D01*
X1598336Y58358D01*
X1598250Y58316D01*
X1598162Y58278D01*
X1598073Y58243D01*
X1597982Y58211D01*
X1596346Y61690D02*
X1596405Y61750D01*
X1596467Y61807D01*
X1596531Y61862D01*
X1596598Y61913D01*
X1596667Y61962D01*
X1596737Y62008D01*
X1596810Y62051D01*
X1596884Y62091D01*
X1596960Y62127D01*
X1597038Y62160D01*
X1597117Y62190D01*
X1597197Y62217D01*
X1597278Y62240D01*
X1597360Y62259D01*
X1597442Y62275D01*
X1597526Y62288D01*
X1597610Y62297D01*
X1597694Y62302D01*
X1597778Y62304D01*
X1596345Y61690D02*
X1592253Y58212D01*
X1592253Y62304D01*
X1595936Y65527D02*
X1596089Y65529D01*
X1596242Y65535D01*
X1596394Y65544D01*
X1596547Y65558D01*
X1596699Y65575D01*
X1596850Y65596D01*
X1597001Y65621D01*
X1597151Y65650D01*
X1597301Y65682D01*
X1597449Y65719D01*
X1597597Y65759D01*
X1597744Y65802D01*
X1597889Y65850D01*
X1598033Y65901D01*
X1598176Y65955D01*
X1598318Y66014D01*
X1598457Y66075D01*
X1598596Y66141D01*
X1598666Y66167D01*
X1598736Y66197D01*
X1598803Y66230D01*
X1598869Y66266D01*
X1598933Y66305D01*
X1598995Y66348D01*
X1599054Y66394D01*
X1599112Y66442D01*
X1599166Y66493D01*
X1599219Y66547D01*
X1599268Y66604D01*
X1599315Y66663D01*
X1599358Y66724D01*
X1599399Y66787D01*
X1599436Y66852D01*
X1599471Y66919D01*
X1599501Y66988D01*
X1599529Y67058D01*
X1599552Y67129D01*
X1599573Y67201D01*
X1599589Y67274D01*
X1599602Y67348D01*
X1599612Y67423D01*
X1599617Y67498D01*
X1599619Y67573D01*
X1599617Y67648D01*
X1599612Y67723D01*
X1599602Y67798D01*
X1599589Y67872D01*
X1599573Y67945D01*
X1599552Y68017D01*
X1599529Y68088D01*
X1599501Y68158D01*
X1599471Y68227D01*
X1599436Y68294D01*
X1599399Y68359D01*
X1599358Y68422D01*
X1599315Y68483D01*
X1599268Y68542D01*
X1599219Y68599D01*
X1599166Y68653D01*
X1599112Y68704D01*
X1599054Y68753D01*
X1598995Y68798D01*
X1598933Y68841D01*
X1598869Y68880D01*
X1598803Y68917D01*
X1598735Y68949D01*
X1598666Y68979D01*
X1598596Y69005D01*
X1598458Y69070D01*
X1598318Y69132D01*
X1598176Y69190D01*
X1598033Y69245D01*
X1597889Y69296D01*
X1597744Y69344D01*
X1597597Y69387D01*
X1597450Y69427D01*
X1597301Y69464D01*
X1597151Y69496D01*
X1597001Y69525D01*
X1596850Y69550D01*
X1596699Y69571D01*
X1596547Y69588D01*
X1596394Y69602D01*
X1596242Y69611D01*
X1596089Y69617D01*
X1595936Y69619D01*
X1595936Y65526D02*
X1595783Y65528D01*
X1595630Y65534D01*
X1595477Y65543D01*
X1595325Y65557D01*
X1595173Y65574D01*
X1595022Y65595D01*
X1594871Y65620D01*
X1594720Y65649D01*
X1594571Y65681D01*
X1594422Y65718D01*
X1594275Y65758D01*
X1594128Y65801D01*
X1593983Y65849D01*
X1593838Y65900D01*
X1593696Y65955D01*
X1593554Y66013D01*
X1593414Y66075D01*
X1593276Y66140D01*
X1593276Y66141D02*
X1593205Y66167D01*
X1593136Y66197D01*
X1593069Y66230D01*
X1593003Y66266D01*
X1592939Y66305D01*
X1592877Y66348D01*
X1592818Y66394D01*
X1592760Y66442D01*
X1592706Y66493D01*
X1592653Y66547D01*
X1592604Y66604D01*
X1592557Y66663D01*
X1592514Y66724D01*
X1592473Y66787D01*
X1592436Y66852D01*
X1592401Y66919D01*
X1592371Y66988D01*
X1592343Y67058D01*
X1592320Y67129D01*
X1592299Y67201D01*
X1592283Y67274D01*
X1592270Y67348D01*
X1592260Y67423D01*
X1592255Y67498D01*
X1592253Y67573D01*
X1593276Y69005D02*
X1593414Y69070D01*
X1593554Y69132D01*
X1593696Y69190D01*
X1593839Y69245D01*
X1593983Y69296D01*
X1594128Y69344D01*
X1594275Y69387D01*
X1594423Y69427D01*
X1594571Y69464D01*
X1594721Y69496D01*
X1594871Y69525D01*
X1595022Y69550D01*
X1595173Y69571D01*
X1595325Y69588D01*
X1595478Y69602D01*
X1595630Y69611D01*
X1595783Y69617D01*
X1595936Y69619D01*
X1593276Y69005D02*
X1593206Y68979D01*
X1593136Y68949D01*
X1593069Y68917D01*
X1593003Y68880D01*
X1592939Y68841D01*
X1592877Y68798D01*
X1592818Y68752D01*
X1592760Y68704D01*
X1592706Y68653D01*
X1592653Y68599D01*
X1592604Y68542D01*
X1592557Y68483D01*
X1592514Y68422D01*
X1592473Y68359D01*
X1592436Y68294D01*
X1592401Y68227D01*
X1592371Y68158D01*
X1592343Y68088D01*
X1592320Y68017D01*
X1592299Y67945D01*
X1592283Y67872D01*
X1592270Y67798D01*
X1592260Y67723D01*
X1592255Y67648D01*
X1592253Y67573D01*
X1593890Y65936D02*
X1597982Y69210D01*
D11*
X1482380Y444600D02*
X1482380Y495400D01*
X1482380Y444600D02*
X1490000Y444600D01*
X1497620Y444600D01*
X1497620Y495400D01*
X1490000Y495400D01*
X1482380Y495400D01*
X1490000Y444600D02*
X1490000Y442060D01*
X1490000Y495400D02*
X1490000Y497940D01*
X1512380Y495400D02*
X1512380Y444600D01*
X1520000Y444600D01*
X1527620Y444600D01*
X1527620Y495400D01*
X1520000Y495400D01*
X1512380Y495400D01*
X1520000Y444600D02*
X1520000Y442060D01*
X1520000Y495400D02*
X1520000Y497940D01*
X1497620Y355400D02*
X1497620Y304600D01*
X1497620Y355400D02*
X1490000Y355400D01*
X1482380Y355400D01*
X1482380Y304600D01*
X1490000Y304600D01*
X1497620Y304600D01*
X1490000Y355400D02*
X1490000Y357940D01*
X1490000Y304600D02*
X1490000Y302060D01*
X1527620Y304600D02*
X1527620Y355400D01*
X1520000Y355400D01*
X1512380Y355400D01*
X1512380Y304600D01*
X1520000Y304600D01*
X1527620Y304600D01*
X1520000Y355400D02*
X1520000Y357940D01*
X1520000Y304600D02*
X1520000Y302060D01*
X1497620Y205400D02*
X1497620Y154600D01*
X1497620Y205400D02*
X1490000Y205400D01*
X1482380Y205400D01*
X1482380Y154600D01*
X1490000Y154600D01*
X1497620Y154600D01*
X1490000Y205400D02*
X1490000Y207940D01*
X1490000Y154600D02*
X1490000Y152060D01*
X325400Y382380D02*
X274600Y382380D01*
X325400Y382380D02*
X325400Y390000D01*
X325400Y397620D01*
X274600Y397620D01*
X274600Y390000D01*
X274600Y382380D01*
X325400Y390000D02*
X327940Y390000D01*
X274600Y390000D02*
X272060Y390000D01*
X274600Y367620D02*
X325400Y367620D01*
X274600Y367620D02*
X274600Y360000D01*
X274600Y352380D01*
X325400Y352380D01*
X325400Y360000D01*
X325400Y367620D01*
X274600Y360000D02*
X272060Y360000D01*
X325400Y360000D02*
X327940Y360000D01*
X1527620Y205400D02*
X1527620Y154600D01*
X1527620Y205400D02*
X1520000Y205400D01*
X1512380Y205400D01*
X1512380Y154600D01*
X1520000Y154600D01*
X1527620Y154600D01*
X1520000Y205400D02*
X1520000Y207940D01*
X1520000Y154600D02*
X1520000Y152060D01*
X1557620Y444600D02*
X1557620Y495400D01*
X1550000Y495400D01*
X1542380Y495400D01*
X1542380Y444600D01*
X1550000Y444600D01*
X1557620Y444600D01*
X1550000Y495400D02*
X1550000Y497940D01*
X1550000Y444600D02*
X1550000Y442060D01*
X1542380Y355400D02*
X1542380Y304600D01*
X1550000Y304600D01*
X1557620Y304600D01*
X1557620Y355400D01*
X1550000Y355400D01*
X1542380Y355400D01*
X1550000Y304600D02*
X1550000Y302060D01*
X1550000Y355400D02*
X1550000Y357940D01*
X1542380Y205400D02*
X1542380Y154600D01*
X1550000Y154600D01*
X1557620Y154600D01*
X1557620Y205400D01*
X1550000Y205400D01*
X1542380Y205400D01*
X1550000Y154600D02*
X1550000Y152060D01*
X1550000Y205400D02*
X1550000Y207940D01*
X325400Y322380D02*
X274600Y322380D01*
X325400Y322380D02*
X325400Y330000D01*
X325400Y337620D01*
X274600Y337620D01*
X274600Y330000D01*
X274600Y322380D01*
X325400Y330000D02*
X327940Y330000D01*
X274600Y330000D02*
X272060Y330000D01*
X1572380Y444600D02*
X1572380Y495400D01*
X1572380Y444600D02*
X1580000Y444600D01*
X1587620Y444600D01*
X1587620Y495400D01*
X1580000Y495400D01*
X1572380Y495400D01*
X1580000Y444600D02*
X1580000Y442060D01*
X1580000Y495400D02*
X1580000Y497940D01*
X1587620Y355400D02*
X1587620Y304600D01*
X1587620Y355400D02*
X1580000Y355400D01*
X1572380Y355400D01*
X1572380Y304600D01*
X1580000Y304600D01*
X1587620Y304600D01*
X1580000Y355400D02*
X1580000Y357940D01*
X1580000Y304600D02*
X1580000Y302060D01*
X1587620Y205400D02*
X1587620Y154600D01*
X1587620Y205400D02*
X1580000Y205400D01*
X1572380Y205400D01*
X1572380Y154600D01*
X1580000Y154600D01*
X1587620Y154600D01*
X1580000Y205400D02*
X1580000Y207940D01*
X1580000Y154600D02*
X1580000Y152060D01*
X325400Y292380D02*
X274600Y292380D01*
X325400Y292380D02*
X325400Y300000D01*
X325400Y307620D01*
X274600Y307620D01*
X274600Y300000D01*
X274600Y292380D01*
X325400Y300000D02*
X327940Y300000D01*
X274600Y300000D02*
X272060Y300000D01*
X514600Y472380D02*
X565400Y472380D01*
X565400Y480000D01*
X565400Y487620D01*
X514600Y487620D01*
X514600Y480000D01*
X514600Y472380D01*
X565400Y480000D02*
X567940Y480000D01*
X514600Y480000D02*
X512060Y480000D01*
X514600Y502380D02*
X565400Y502380D01*
X565400Y510000D01*
X565400Y517620D01*
X514600Y517620D01*
X514600Y510000D01*
X514600Y502380D01*
X565400Y510000D02*
X567940Y510000D01*
X514600Y510000D02*
X512060Y510000D01*
X514600Y292380D02*
X565400Y292380D01*
X565400Y300000D01*
X565400Y307620D01*
X514600Y307620D01*
X514600Y300000D01*
X514600Y292380D01*
X565400Y300000D02*
X567940Y300000D01*
X514600Y300000D02*
X512060Y300000D01*
X514600Y322380D02*
X565400Y322380D01*
X565400Y330000D01*
X565400Y337620D01*
X514600Y337620D01*
X514600Y330000D01*
X514600Y322380D01*
X565400Y330000D02*
X567940Y330000D01*
X514600Y330000D02*
X512060Y330000D01*
X514600Y442380D02*
X565400Y442380D01*
X565400Y450000D01*
X565400Y457620D01*
X514600Y457620D01*
X514600Y450000D01*
X514600Y442380D01*
X565400Y450000D02*
X567940Y450000D01*
X514600Y450000D02*
X512060Y450000D01*
X514600Y382380D02*
X565400Y382380D01*
X565400Y390000D01*
X565400Y397620D01*
X514600Y397620D01*
X514600Y390000D01*
X514600Y382380D01*
X565400Y390000D02*
X567940Y390000D01*
X514600Y390000D02*
X512060Y390000D01*
X514600Y412380D02*
X565400Y412380D01*
X565400Y420000D01*
X565400Y427620D01*
X514600Y427620D01*
X514600Y420000D01*
X514600Y412380D01*
X565400Y420000D02*
X567940Y420000D01*
X514600Y420000D02*
X512060Y420000D01*
X514600Y352380D02*
X565400Y352380D01*
X565400Y360000D01*
X565400Y367620D01*
X514600Y367620D01*
X514600Y360000D01*
X514600Y352380D01*
X565400Y360000D02*
X567940Y360000D01*
X514600Y360000D02*
X512060Y360000D01*
X514600Y187620D02*
X565400Y187620D01*
X514600Y187620D02*
X514600Y180000D01*
X514600Y172380D01*
X565400Y172380D01*
X565400Y180000D01*
X565400Y187620D01*
X514600Y180000D02*
X512060Y180000D01*
X565400Y180000D02*
X567940Y180000D01*
X565400Y157620D02*
X514600Y157620D01*
X514600Y150000D01*
X514600Y142380D01*
X565400Y142380D01*
X565400Y150000D01*
X565400Y157620D01*
X514600Y150000D02*
X512060Y150000D01*
X565400Y150000D02*
X567940Y150000D01*
X565400Y82380D02*
X514600Y82380D01*
X565400Y82380D02*
X565400Y90000D01*
X565400Y97620D01*
X514600Y97620D01*
X514600Y90000D01*
X514600Y82380D01*
X565400Y90000D02*
X567940Y90000D01*
X514600Y90000D02*
X512060Y90000D01*
X514600Y52380D02*
X565400Y52380D01*
X565400Y60000D01*
X565400Y67620D01*
X514600Y67620D01*
X514600Y60000D01*
X514600Y52380D01*
X565400Y60000D02*
X567940Y60000D01*
X514600Y60000D02*
X512060Y60000D01*
X514600Y217620D02*
X565400Y217620D01*
X514600Y217620D02*
X514600Y210000D01*
X514600Y202380D01*
X565400Y202380D01*
X565400Y210000D01*
X565400Y217620D01*
X514600Y210000D02*
X512060Y210000D01*
X565400Y210000D02*
X567940Y210000D01*
X565400Y277620D02*
X514600Y277620D01*
X514600Y270000D01*
X514600Y262380D01*
X565400Y262380D01*
X565400Y270000D01*
X565400Y277620D01*
X514600Y270000D02*
X512060Y270000D01*
X565400Y270000D02*
X567940Y270000D01*
X565400Y247620D02*
X514600Y247620D01*
X514600Y240000D01*
X514600Y232380D01*
X565400Y232380D01*
X565400Y240000D01*
X565400Y247620D01*
X514600Y240000D02*
X512060Y240000D01*
X565400Y240000D02*
X567940Y240000D01*
X565400Y112380D02*
X514600Y112380D01*
X565400Y112380D02*
X565400Y120000D01*
X565400Y127620D01*
X514600Y127620D01*
X514600Y120000D01*
X514600Y112380D01*
X565400Y120000D02*
X567940Y120000D01*
X514600Y120000D02*
X512060Y120000D01*
X215400Y167620D02*
X164600Y167620D01*
X164600Y160000D01*
X164600Y152380D01*
X215400Y152380D01*
X215400Y160000D01*
X215400Y167620D01*
X164600Y160000D02*
X162060Y160000D01*
X215400Y160000D02*
X217940Y160000D01*
X215400Y137620D02*
X164600Y137620D01*
X164600Y130000D01*
X164600Y122380D01*
X215400Y122380D01*
X215400Y130000D01*
X215400Y137620D01*
X164600Y130000D02*
X162060Y130000D01*
X215400Y130000D02*
X217940Y130000D01*
X215400Y287620D02*
X164600Y287620D01*
X164600Y280000D01*
X164600Y272380D01*
X215400Y272380D01*
X215400Y280000D01*
X215400Y287620D01*
X164600Y280000D02*
X162060Y280000D01*
X215400Y280000D02*
X217940Y280000D01*
X215400Y257620D02*
X164600Y257620D01*
X164600Y250000D01*
X164600Y242380D01*
X215400Y242380D01*
X215400Y250000D01*
X215400Y257620D01*
X164600Y250000D02*
X162060Y250000D01*
X215400Y250000D02*
X217940Y250000D01*
X215400Y227620D02*
X164600Y227620D01*
X164600Y220000D01*
X164600Y212380D01*
X215400Y212380D01*
X215400Y220000D01*
X215400Y227620D01*
X164600Y220000D02*
X162060Y220000D01*
X215400Y220000D02*
X217940Y220000D01*
X215400Y347620D02*
X164600Y347620D01*
X164600Y340000D01*
X164600Y332380D01*
X215400Y332380D01*
X215400Y340000D01*
X215400Y347620D01*
X164600Y340000D02*
X162060Y340000D01*
X215400Y340000D02*
X217940Y340000D01*
X215400Y317620D02*
X164600Y317620D01*
X164600Y310000D01*
X164600Y302380D01*
X215400Y302380D01*
X215400Y310000D01*
X215400Y317620D01*
X164600Y310000D02*
X162060Y310000D01*
X215400Y310000D02*
X217940Y310000D01*
X215400Y197620D02*
X164600Y197620D01*
X164600Y190000D01*
X164600Y182380D01*
X215400Y182380D01*
X215400Y190000D01*
X215400Y197620D01*
X164600Y190000D02*
X162060Y190000D01*
X215400Y190000D02*
X217940Y190000D01*
X1497620Y85400D02*
X1497620Y34600D01*
X1497620Y85400D02*
X1490000Y85400D01*
X1482380Y85400D01*
X1482380Y34600D01*
X1490000Y34600D01*
X1497620Y34600D01*
X1490000Y85400D02*
X1490000Y87940D01*
X1490000Y34600D02*
X1490000Y32060D01*
X1512380Y34600D02*
X1512380Y85400D01*
X1512380Y34600D02*
X1520000Y34600D01*
X1527620Y34600D01*
X1527620Y85400D01*
X1520000Y85400D01*
X1512380Y85400D01*
X1520000Y34600D02*
X1520000Y32060D01*
X1520000Y85400D02*
X1520000Y87940D01*
X1542380Y85400D02*
X1542380Y34600D01*
X1550000Y34600D01*
X1557620Y34600D01*
X1557620Y85400D01*
X1550000Y85400D01*
X1542380Y85400D01*
X1550000Y34600D02*
X1550000Y32060D01*
X1550000Y85400D02*
X1550000Y87940D01*
X1467620Y85400D02*
X1467620Y34600D01*
X1467620Y85400D02*
X1460000Y85400D01*
X1452380Y85400D01*
X1452380Y34600D01*
X1460000Y34600D01*
X1467620Y34600D01*
X1460000Y85400D02*
X1460000Y87940D01*
X1460000Y34600D02*
X1460000Y32060D01*
X1437620Y34600D02*
X1437620Y85400D01*
X1430000Y85400D01*
X1422380Y85400D01*
X1422380Y34600D01*
X1430000Y34600D01*
X1437620Y34600D01*
X1430000Y85400D02*
X1430000Y87940D01*
X1430000Y34600D02*
X1430000Y32060D01*
X1572380Y34600D02*
X1572380Y85400D01*
X1572380Y34600D02*
X1580000Y34600D01*
X1587620Y34600D01*
X1587620Y85400D01*
X1580000Y85400D01*
X1572380Y85400D01*
X1580000Y34600D02*
X1580000Y32060D01*
X1580000Y85400D02*
X1580000Y87940D01*
X1471600Y444600D02*
X1268400Y444600D01*
X1268400Y495400D02*
X1471600Y495400D01*
X1471600Y444600D01*
X1268400Y444600D02*
X1268400Y459840D01*
X1268400Y480160D02*
X1268400Y495400D01*
X1268400Y480160D02*
X1268647Y480157D01*
X1268895Y480148D01*
X1269142Y480133D01*
X1269388Y480112D01*
X1269634Y480085D01*
X1269879Y480052D01*
X1270124Y480013D01*
X1270367Y479968D01*
X1270609Y479917D01*
X1270850Y479860D01*
X1271089Y479798D01*
X1271327Y479729D01*
X1271563Y479655D01*
X1271797Y479575D01*
X1272029Y479490D01*
X1272259Y479398D01*
X1272487Y479302D01*
X1272712Y479199D01*
X1272935Y479092D01*
X1273155Y478978D01*
X1273372Y478860D01*
X1273587Y478736D01*
X1273798Y478607D01*
X1274006Y478473D01*
X1274211Y478334D01*
X1274412Y478190D01*
X1274610Y478042D01*
X1274804Y477888D01*
X1274994Y477730D01*
X1275180Y477567D01*
X1275362Y477400D01*
X1275540Y477228D01*
X1275714Y477052D01*
X1275884Y476872D01*
X1276049Y476687D01*
X1276209Y476499D01*
X1276365Y476307D01*
X1276517Y476111D01*
X1276663Y475912D01*
X1276805Y475709D01*
X1276941Y475502D01*
X1277073Y475293D01*
X1277199Y475080D01*
X1277320Y474864D01*
X1277436Y474646D01*
X1277546Y474424D01*
X1277651Y474200D01*
X1277751Y473974D01*
X1277845Y473745D01*
X1277933Y473514D01*
X1278016Y473280D01*
X1278093Y473045D01*
X1278164Y472808D01*
X1278230Y472570D01*
X1278289Y472330D01*
X1278343Y472088D01*
X1278391Y471845D01*
X1278433Y471602D01*
X1278469Y471357D01*
X1278499Y471111D01*
X1278523Y470865D01*
X1278541Y470618D01*
X1278553Y470371D01*
X1278559Y470124D01*
X1278559Y469876D01*
X1278553Y469629D01*
X1278541Y469382D01*
X1278523Y469135D01*
X1278499Y468889D01*
X1278469Y468643D01*
X1278433Y468398D01*
X1278391Y468155D01*
X1278343Y467912D01*
X1278289Y467670D01*
X1278230Y467430D01*
X1278164Y467192D01*
X1278093Y466955D01*
X1278016Y466720D01*
X1277933Y466486D01*
X1277845Y466255D01*
X1277751Y466026D01*
X1277651Y465800D01*
X1277546Y465576D01*
X1277436Y465354D01*
X1277320Y465136D01*
X1277199Y464920D01*
X1277073Y464707D01*
X1276941Y464498D01*
X1276805Y464291D01*
X1276663Y464088D01*
X1276517Y463889D01*
X1276365Y463693D01*
X1276209Y463501D01*
X1276049Y463313D01*
X1275884Y463128D01*
X1275714Y462948D01*
X1275540Y462772D01*
X1275362Y462600D01*
X1275180Y462433D01*
X1274994Y462270D01*
X1274804Y462112D01*
X1274610Y461958D01*
X1274412Y461810D01*
X1274211Y461666D01*
X1274006Y461527D01*
X1273798Y461393D01*
X1273587Y461264D01*
X1273372Y461140D01*
X1273155Y461022D01*
X1272935Y460908D01*
X1272712Y460801D01*
X1272487Y460698D01*
X1272259Y460602D01*
X1272029Y460510D01*
X1271797Y460425D01*
X1271563Y460345D01*
X1271327Y460271D01*
X1271089Y460202D01*
X1270850Y460140D01*
X1270609Y460083D01*
X1270367Y460032D01*
X1270124Y459987D01*
X1269879Y459948D01*
X1269634Y459915D01*
X1269388Y459888D01*
X1269142Y459867D01*
X1268895Y459852D01*
X1268647Y459843D01*
X1268400Y459840D01*
X1268400Y304600D02*
X1471600Y304600D01*
X1471600Y355400D02*
X1268400Y355400D01*
X1471600Y355400D02*
X1471600Y304600D01*
X1268400Y304600D02*
X1268400Y319840D01*
X1268400Y340160D02*
X1268400Y355400D01*
X1268400Y340160D02*
X1268647Y340157D01*
X1268895Y340148D01*
X1269142Y340133D01*
X1269388Y340112D01*
X1269634Y340085D01*
X1269879Y340052D01*
X1270124Y340013D01*
X1270367Y339968D01*
X1270609Y339917D01*
X1270850Y339860D01*
X1271089Y339798D01*
X1271327Y339729D01*
X1271563Y339655D01*
X1271797Y339575D01*
X1272029Y339490D01*
X1272259Y339398D01*
X1272487Y339302D01*
X1272712Y339199D01*
X1272935Y339092D01*
X1273155Y338978D01*
X1273372Y338860D01*
X1273587Y338736D01*
X1273798Y338607D01*
X1274006Y338473D01*
X1274211Y338334D01*
X1274412Y338190D01*
X1274610Y338042D01*
X1274804Y337888D01*
X1274994Y337730D01*
X1275180Y337567D01*
X1275362Y337400D01*
X1275540Y337228D01*
X1275714Y337052D01*
X1275884Y336872D01*
X1276049Y336687D01*
X1276209Y336499D01*
X1276365Y336307D01*
X1276517Y336111D01*
X1276663Y335912D01*
X1276805Y335709D01*
X1276941Y335502D01*
X1277073Y335293D01*
X1277199Y335080D01*
X1277320Y334864D01*
X1277436Y334646D01*
X1277546Y334424D01*
X1277651Y334200D01*
X1277751Y333974D01*
X1277845Y333745D01*
X1277933Y333514D01*
X1278016Y333280D01*
X1278093Y333045D01*
X1278164Y332808D01*
X1278230Y332570D01*
X1278289Y332330D01*
X1278343Y332088D01*
X1278391Y331845D01*
X1278433Y331602D01*
X1278469Y331357D01*
X1278499Y331111D01*
X1278523Y330865D01*
X1278541Y330618D01*
X1278553Y330371D01*
X1278559Y330124D01*
X1278559Y329876D01*
X1278553Y329629D01*
X1278541Y329382D01*
X1278523Y329135D01*
X1278499Y328889D01*
X1278469Y328643D01*
X1278433Y328398D01*
X1278391Y328155D01*
X1278343Y327912D01*
X1278289Y327670D01*
X1278230Y327430D01*
X1278164Y327192D01*
X1278093Y326955D01*
X1278016Y326720D01*
X1277933Y326486D01*
X1277845Y326255D01*
X1277751Y326026D01*
X1277651Y325800D01*
X1277546Y325576D01*
X1277436Y325354D01*
X1277320Y325136D01*
X1277199Y324920D01*
X1277073Y324707D01*
X1276941Y324498D01*
X1276805Y324291D01*
X1276663Y324088D01*
X1276517Y323889D01*
X1276365Y323693D01*
X1276209Y323501D01*
X1276049Y323313D01*
X1275884Y323128D01*
X1275714Y322948D01*
X1275540Y322772D01*
X1275362Y322600D01*
X1275180Y322433D01*
X1274994Y322270D01*
X1274804Y322112D01*
X1274610Y321958D01*
X1274412Y321810D01*
X1274211Y321666D01*
X1274006Y321527D01*
X1273798Y321393D01*
X1273587Y321264D01*
X1273372Y321140D01*
X1273155Y321022D01*
X1272935Y320908D01*
X1272712Y320801D01*
X1272487Y320698D01*
X1272259Y320602D01*
X1272029Y320510D01*
X1271797Y320425D01*
X1271563Y320345D01*
X1271327Y320271D01*
X1271089Y320202D01*
X1270850Y320140D01*
X1270609Y320083D01*
X1270367Y320032D01*
X1270124Y319987D01*
X1269879Y319948D01*
X1269634Y319915D01*
X1269388Y319888D01*
X1269142Y319867D01*
X1268895Y319852D01*
X1268647Y319843D01*
X1268400Y319840D01*
X325400Y281600D02*
X325400Y78400D01*
X274600Y78400D02*
X274600Y281600D01*
X325400Y281600D01*
X325400Y78400D02*
X310160Y78400D01*
X289840Y78400D02*
X274600Y78400D01*
X289840Y78400D02*
X289843Y78647D01*
X289852Y78895D01*
X289867Y79142D01*
X289888Y79388D01*
X289915Y79634D01*
X289948Y79879D01*
X289987Y80124D01*
X290032Y80367D01*
X290083Y80609D01*
X290140Y80850D01*
X290202Y81089D01*
X290271Y81327D01*
X290345Y81563D01*
X290425Y81797D01*
X290510Y82029D01*
X290602Y82259D01*
X290698Y82487D01*
X290801Y82712D01*
X290908Y82935D01*
X291022Y83155D01*
X291140Y83372D01*
X291264Y83587D01*
X291393Y83798D01*
X291527Y84006D01*
X291666Y84211D01*
X291810Y84412D01*
X291958Y84610D01*
X292112Y84804D01*
X292270Y84994D01*
X292433Y85180D01*
X292600Y85362D01*
X292772Y85540D01*
X292948Y85714D01*
X293128Y85884D01*
X293313Y86049D01*
X293501Y86209D01*
X293693Y86365D01*
X293889Y86517D01*
X294088Y86663D01*
X294291Y86805D01*
X294498Y86941D01*
X294707Y87073D01*
X294920Y87199D01*
X295136Y87320D01*
X295354Y87436D01*
X295576Y87546D01*
X295800Y87651D01*
X296026Y87751D01*
X296255Y87845D01*
X296486Y87933D01*
X296720Y88016D01*
X296955Y88093D01*
X297192Y88164D01*
X297430Y88230D01*
X297670Y88289D01*
X297912Y88343D01*
X298155Y88391D01*
X298398Y88433D01*
X298643Y88469D01*
X298889Y88499D01*
X299135Y88523D01*
X299382Y88541D01*
X299629Y88553D01*
X299876Y88559D01*
X300124Y88559D01*
X300371Y88553D01*
X300618Y88541D01*
X300865Y88523D01*
X301111Y88499D01*
X301357Y88469D01*
X301602Y88433D01*
X301845Y88391D01*
X302088Y88343D01*
X302330Y88289D01*
X302570Y88230D01*
X302808Y88164D01*
X303045Y88093D01*
X303280Y88016D01*
X303514Y87933D01*
X303745Y87845D01*
X303974Y87751D01*
X304200Y87651D01*
X304424Y87546D01*
X304646Y87436D01*
X304864Y87320D01*
X305080Y87199D01*
X305293Y87073D01*
X305502Y86941D01*
X305709Y86805D01*
X305912Y86663D01*
X306111Y86517D01*
X306307Y86365D01*
X306499Y86209D01*
X306687Y86049D01*
X306872Y85884D01*
X307052Y85714D01*
X307228Y85540D01*
X307400Y85362D01*
X307567Y85180D01*
X307730Y84994D01*
X307888Y84804D01*
X308042Y84610D01*
X308190Y84412D01*
X308334Y84211D01*
X308473Y84006D01*
X308607Y83798D01*
X308736Y83587D01*
X308860Y83372D01*
X308978Y83155D01*
X309092Y82935D01*
X309199Y82712D01*
X309302Y82487D01*
X309398Y82259D01*
X309490Y82029D01*
X309575Y81797D01*
X309655Y81563D01*
X309729Y81327D01*
X309798Y81089D01*
X309860Y80850D01*
X309917Y80609D01*
X309968Y80367D01*
X310013Y80124D01*
X310052Y79879D01*
X310085Y79634D01*
X310112Y79388D01*
X310133Y79142D01*
X310148Y78895D01*
X310157Y78647D01*
X310160Y78400D01*
X1268400Y154600D02*
X1471600Y154600D01*
X1471600Y205400D02*
X1268400Y205400D01*
X1471600Y205400D02*
X1471600Y154600D01*
X1268400Y154600D02*
X1268400Y169840D01*
X1268400Y190160D02*
X1268400Y205400D01*
X1268400Y190160D02*
X1268647Y190157D01*
X1268895Y190148D01*
X1269142Y190133D01*
X1269388Y190112D01*
X1269634Y190085D01*
X1269879Y190052D01*
X1270124Y190013D01*
X1270367Y189968D01*
X1270609Y189917D01*
X1270850Y189860D01*
X1271089Y189798D01*
X1271327Y189729D01*
X1271563Y189655D01*
X1271797Y189575D01*
X1272029Y189490D01*
X1272259Y189398D01*
X1272487Y189302D01*
X1272712Y189199D01*
X1272935Y189092D01*
X1273155Y188978D01*
X1273372Y188860D01*
X1273587Y188736D01*
X1273798Y188607D01*
X1274006Y188473D01*
X1274211Y188334D01*
X1274412Y188190D01*
X1274610Y188042D01*
X1274804Y187888D01*
X1274994Y187730D01*
X1275180Y187567D01*
X1275362Y187400D01*
X1275540Y187228D01*
X1275714Y187052D01*
X1275884Y186872D01*
X1276049Y186687D01*
X1276209Y186499D01*
X1276365Y186307D01*
X1276517Y186111D01*
X1276663Y185912D01*
X1276805Y185709D01*
X1276941Y185502D01*
X1277073Y185293D01*
X1277199Y185080D01*
X1277320Y184864D01*
X1277436Y184646D01*
X1277546Y184424D01*
X1277651Y184200D01*
X1277751Y183974D01*
X1277845Y183745D01*
X1277933Y183514D01*
X1278016Y183280D01*
X1278093Y183045D01*
X1278164Y182808D01*
X1278230Y182570D01*
X1278289Y182330D01*
X1278343Y182088D01*
X1278391Y181845D01*
X1278433Y181602D01*
X1278469Y181357D01*
X1278499Y181111D01*
X1278523Y180865D01*
X1278541Y180618D01*
X1278553Y180371D01*
X1278559Y180124D01*
X1278559Y179876D01*
X1278553Y179629D01*
X1278541Y179382D01*
X1278523Y179135D01*
X1278499Y178889D01*
X1278469Y178643D01*
X1278433Y178398D01*
X1278391Y178155D01*
X1278343Y177912D01*
X1278289Y177670D01*
X1278230Y177430D01*
X1278164Y177192D01*
X1278093Y176955D01*
X1278016Y176720D01*
X1277933Y176486D01*
X1277845Y176255D01*
X1277751Y176026D01*
X1277651Y175800D01*
X1277546Y175576D01*
X1277436Y175354D01*
X1277320Y175136D01*
X1277199Y174920D01*
X1277073Y174707D01*
X1276941Y174498D01*
X1276805Y174291D01*
X1276663Y174088D01*
X1276517Y173889D01*
X1276365Y173693D01*
X1276209Y173501D01*
X1276049Y173313D01*
X1275884Y173128D01*
X1275714Y172948D01*
X1275540Y172772D01*
X1275362Y172600D01*
X1275180Y172433D01*
X1274994Y172270D01*
X1274804Y172112D01*
X1274610Y171958D01*
X1274412Y171810D01*
X1274211Y171666D01*
X1274006Y171527D01*
X1273798Y171393D01*
X1273587Y171264D01*
X1273372Y171140D01*
X1273155Y171022D01*
X1272935Y170908D01*
X1272712Y170801D01*
X1272487Y170698D01*
X1272259Y170602D01*
X1272029Y170510D01*
X1271797Y170425D01*
X1271563Y170345D01*
X1271327Y170271D01*
X1271089Y170202D01*
X1270850Y170140D01*
X1270609Y170083D01*
X1270367Y170032D01*
X1270124Y169987D01*
X1269879Y169948D01*
X1269634Y169915D01*
X1269388Y169888D01*
X1269142Y169867D01*
X1268895Y169852D01*
X1268647Y169843D01*
X1268400Y169840D01*
X1395000Y393650D02*
X1395000Y406350D01*
X1390000Y263850D02*
X1390000Y251150D01*
X456350Y180000D02*
X443650Y180000D01*
X1392500Y113850D02*
X1392500Y101150D01*
D12*
X1627300Y79050D02*
X1627300Y66350D01*
X1633650Y60000D01*
X1646350Y60000D01*
X1652700Y66350D01*
X1646350Y85400D02*
X1633650Y85400D01*
X1627300Y79050D01*
X1646350Y85400D02*
X1652700Y79050D01*
X1652700Y66350D01*
X1633650Y60000D02*
X1627300Y53650D01*
X1627300Y40950D01*
X1633650Y34600D01*
X1646350Y34600D01*
X1652700Y40950D01*
X1652700Y53650D01*
X1646350Y60000D01*
D13*
X1870000Y16000D02*
X1893000Y16000D01*
X1893000Y103000D01*
X1893000Y424000D01*
X1870000Y424000D01*
X1870000Y16000D01*
D14*
X1702500Y260000D02*
X1702502Y260099D01*
X1702508Y260199D01*
X1702518Y260298D01*
X1702532Y260396D01*
X1702549Y260494D01*
X1702571Y260591D01*
X1702596Y260687D01*
X1702625Y260782D01*
X1702658Y260876D01*
X1702695Y260968D01*
X1702735Y261059D01*
X1702779Y261148D01*
X1702827Y261236D01*
X1702878Y261321D01*
X1702932Y261404D01*
X1702989Y261486D01*
X1703050Y261564D01*
X1703114Y261641D01*
X1703180Y261714D01*
X1703250Y261785D01*
X1703322Y261853D01*
X1703397Y261919D01*
X1703475Y261981D01*
X1703555Y262040D01*
X1703637Y262096D01*
X1703721Y262148D01*
X1703808Y262197D01*
X1703896Y262243D01*
X1703986Y262285D01*
X1704078Y262324D01*
X1704171Y262359D01*
X1704265Y262390D01*
X1704361Y262417D01*
X1704458Y262440D01*
X1704555Y262460D01*
X1704653Y262476D01*
X1704752Y262488D01*
X1704851Y262496D01*
X1704950Y262500D01*
X1705050Y262500D01*
X1705149Y262496D01*
X1705248Y262488D01*
X1705347Y262476D01*
X1705445Y262460D01*
X1705542Y262440D01*
X1705639Y262417D01*
X1705735Y262390D01*
X1705829Y262359D01*
X1705922Y262324D01*
X1706014Y262285D01*
X1706104Y262243D01*
X1706192Y262197D01*
X1706279Y262148D01*
X1706363Y262096D01*
X1706445Y262040D01*
X1706525Y261981D01*
X1706603Y261919D01*
X1706678Y261853D01*
X1706750Y261785D01*
X1706820Y261714D01*
X1706886Y261641D01*
X1706950Y261564D01*
X1707011Y261486D01*
X1707068Y261404D01*
X1707122Y261321D01*
X1707173Y261236D01*
X1707221Y261148D01*
X1707265Y261059D01*
X1707305Y260968D01*
X1707342Y260876D01*
X1707375Y260782D01*
X1707404Y260687D01*
X1707429Y260591D01*
X1707451Y260494D01*
X1707468Y260396D01*
X1707482Y260298D01*
X1707492Y260199D01*
X1707498Y260099D01*
X1707500Y260000D01*
X1707498Y259901D01*
X1707492Y259801D01*
X1707482Y259702D01*
X1707468Y259604D01*
X1707451Y259506D01*
X1707429Y259409D01*
X1707404Y259313D01*
X1707375Y259218D01*
X1707342Y259124D01*
X1707305Y259032D01*
X1707265Y258941D01*
X1707221Y258852D01*
X1707173Y258764D01*
X1707122Y258679D01*
X1707068Y258596D01*
X1707011Y258514D01*
X1706950Y258436D01*
X1706886Y258359D01*
X1706820Y258286D01*
X1706750Y258215D01*
X1706678Y258147D01*
X1706603Y258081D01*
X1706525Y258019D01*
X1706445Y257960D01*
X1706363Y257904D01*
X1706279Y257852D01*
X1706192Y257803D01*
X1706104Y257757D01*
X1706014Y257715D01*
X1705922Y257676D01*
X1705829Y257641D01*
X1705735Y257610D01*
X1705639Y257583D01*
X1705542Y257560D01*
X1705445Y257540D01*
X1705347Y257524D01*
X1705248Y257512D01*
X1705149Y257504D01*
X1705050Y257500D01*
X1704950Y257500D01*
X1704851Y257504D01*
X1704752Y257512D01*
X1704653Y257524D01*
X1704555Y257540D01*
X1704458Y257560D01*
X1704361Y257583D01*
X1704265Y257610D01*
X1704171Y257641D01*
X1704078Y257676D01*
X1703986Y257715D01*
X1703896Y257757D01*
X1703808Y257803D01*
X1703721Y257852D01*
X1703637Y257904D01*
X1703555Y257960D01*
X1703475Y258019D01*
X1703397Y258081D01*
X1703322Y258147D01*
X1703250Y258215D01*
X1703180Y258286D01*
X1703114Y258359D01*
X1703050Y258436D01*
X1702989Y258514D01*
X1702932Y258596D01*
X1702878Y258679D01*
X1702827Y258764D01*
X1702779Y258852D01*
X1702735Y258941D01*
X1702695Y259032D01*
X1702658Y259124D01*
X1702625Y259218D01*
X1702596Y259313D01*
X1702571Y259409D01*
X1702549Y259506D01*
X1702532Y259604D01*
X1702518Y259702D01*
X1702508Y259801D01*
X1702502Y259901D01*
X1702500Y260000D01*
M02*
