G04 EAGLE Gerber RS-274X export*
G75*
%MOMM*%
%FSLAX34Y34*%
%LPD*%
%INSoldermask Top*%
%IPPOS*%
%AMOC8*
5,1,8,0,0,1.08239X$1,22.5*%
G01*
%ADD10C,2.203200*%
%ADD11P,2.034460X8X22.500000*%
%ADD12C,2.082800*%
%ADD13C,1.828800*%
%ADD14C,1.854200*%
%ADD15C,1.727200*%
%ADD16R,2.828200X2.828200*%
%ADD17C,2.828200*%
%ADD18C,3.053200*%
%ADD19C,0.959600*%


D10*
X200000Y100000D03*
X200000Y400000D03*
X1700000Y100000D03*
X1700000Y400000D03*
D11*
X44879Y45900D03*
X70279Y45900D03*
X1203100Y56600D03*
X1228500Y56600D03*
X1054700Y56600D03*
X1080100Y56600D03*
X385500Y120000D03*
X410900Y120000D03*
X386100Y245500D03*
X411500Y245500D03*
X384700Y351000D03*
X410100Y351000D03*
X44879Y165900D03*
X70279Y165900D03*
X44879Y285900D03*
X70279Y285900D03*
X67771Y411000D03*
X93171Y411000D03*
X144876Y514000D03*
X170276Y514000D03*
X267885Y572900D03*
X293285Y572900D03*
X402443Y579900D03*
X427843Y579900D03*
X526000Y579900D03*
X551400Y579900D03*
X1333500Y56600D03*
X1358900Y56600D03*
D12*
X829600Y490700D03*
X804200Y490700D03*
X778800Y490700D03*
X753400Y490700D03*
X728000Y490700D03*
X829600Y135100D03*
X804200Y135100D03*
X778800Y135100D03*
X753400Y135100D03*
X728000Y135100D03*
X1123500Y490700D03*
X1098100Y490700D03*
X1072700Y490700D03*
X1047300Y490700D03*
X1021900Y490700D03*
X1123500Y135100D03*
X1098100Y135100D03*
X1072700Y135100D03*
X1047300Y135100D03*
X1021900Y135100D03*
X1490000Y508100D03*
X1490000Y431900D03*
X1520000Y508100D03*
X1520000Y431900D03*
X1490000Y291900D03*
X1490000Y368100D03*
X1520000Y291900D03*
X1520000Y368100D03*
X1490000Y141900D03*
X1490000Y218100D03*
X261900Y390000D03*
X338100Y390000D03*
X338100Y360000D03*
X261900Y360000D03*
X1520000Y141900D03*
X1520000Y218100D03*
X1550000Y431900D03*
X1550000Y508100D03*
X1550000Y368100D03*
X1550000Y291900D03*
X1550000Y218100D03*
X1550000Y141900D03*
X261900Y330000D03*
X338100Y330000D03*
X1580000Y508100D03*
X1580000Y431900D03*
X1580000Y291900D03*
X1580000Y368100D03*
X1580000Y141900D03*
X1580000Y218100D03*
X261900Y300000D03*
X338100Y300000D03*
X501900Y480000D03*
X578100Y480000D03*
X501900Y510000D03*
X578100Y510000D03*
X501900Y300000D03*
X578100Y300000D03*
X501900Y330000D03*
X578100Y330000D03*
X501900Y450000D03*
X578100Y450000D03*
X501900Y390000D03*
X578100Y390000D03*
X501900Y420000D03*
X578100Y420000D03*
X501900Y360000D03*
X578100Y360000D03*
X578100Y180000D03*
X501900Y180000D03*
X578100Y150000D03*
X501900Y150000D03*
X501900Y90000D03*
X578100Y90000D03*
X501900Y60000D03*
X578100Y60000D03*
X578100Y210000D03*
X501900Y210000D03*
X578100Y270000D03*
X501900Y270000D03*
X578100Y240000D03*
X501900Y240000D03*
X501900Y120000D03*
X578100Y120000D03*
X228100Y160000D03*
X151900Y160000D03*
X228100Y130000D03*
X151900Y130000D03*
X228100Y280000D03*
X151900Y280000D03*
X228100Y250000D03*
X151900Y250000D03*
X228100Y220000D03*
X151900Y220000D03*
X228100Y340000D03*
X151900Y340000D03*
X228100Y310000D03*
X151900Y310000D03*
X228100Y190000D03*
X151900Y190000D03*
X1490000Y21900D03*
X1490000Y98100D03*
X1520000Y98100D03*
X1520000Y21900D03*
X1550000Y98100D03*
X1550000Y21900D03*
X1460000Y21900D03*
X1460000Y98100D03*
X1430000Y21900D03*
X1430000Y98100D03*
X1580000Y98100D03*
X1580000Y21900D03*
D13*
X1281100Y508100D03*
X1306500Y508100D03*
X1331900Y508100D03*
X1357300Y508100D03*
X1382700Y508100D03*
X1408100Y508100D03*
X1433500Y508100D03*
X1458900Y508100D03*
X1458900Y431900D03*
X1433500Y431900D03*
X1408100Y431900D03*
X1382700Y431900D03*
X1357300Y431900D03*
X1331900Y431900D03*
X1306500Y431900D03*
X1281100Y431900D03*
X1281100Y368100D03*
X1306500Y368100D03*
X1331900Y368100D03*
X1357300Y368100D03*
X1382700Y368100D03*
X1408100Y368100D03*
X1433500Y368100D03*
X1458900Y368100D03*
X1458900Y291900D03*
X1433500Y291900D03*
X1408100Y291900D03*
X1382700Y291900D03*
X1357300Y291900D03*
X1331900Y291900D03*
X1306500Y291900D03*
X1281100Y291900D03*
X261900Y91100D03*
X261900Y116500D03*
X261900Y141900D03*
X261900Y167300D03*
X261900Y192700D03*
X261900Y218100D03*
X261900Y243500D03*
X261900Y268900D03*
X338100Y268900D03*
X338100Y243500D03*
X338100Y218100D03*
X338100Y192700D03*
X338100Y167300D03*
X338100Y141900D03*
X338100Y116500D03*
X338100Y91100D03*
X1281100Y218100D03*
X1306500Y218100D03*
X1331900Y218100D03*
X1357300Y218100D03*
X1382700Y218100D03*
X1408100Y218100D03*
X1433500Y218100D03*
X1458900Y218100D03*
X1458900Y141900D03*
X1433500Y141900D03*
X1408100Y141900D03*
X1382700Y141900D03*
X1357300Y141900D03*
X1331900Y141900D03*
X1306500Y141900D03*
X1281100Y141900D03*
D14*
X1382300Y400000D03*
X1407700Y400000D03*
X1377300Y257500D03*
X1402700Y257500D03*
X450000Y192700D03*
X450000Y167300D03*
X1379800Y107500D03*
X1405200Y107500D03*
D15*
X1632380Y72700D02*
X1647620Y72700D01*
X1647620Y47300D02*
X1632380Y47300D01*
D16*
X1735000Y260000D03*
D17*
X1735000Y220000D03*
X1735000Y180000D03*
X1775000Y240000D03*
X1775000Y200000D03*
X1815000Y260000D03*
X1815000Y220000D03*
X1815000Y180000D03*
D18*
X1780000Y325000D03*
X1780000Y115000D03*
D19*
X1445000Y265000D03*
X515000Y540000D03*
X525000Y550000D03*
X535000Y555000D03*
X545000Y560000D03*
X555000Y565000D03*
X485000Y600000D03*
X610000Y265000D03*
X1110000Y290000D03*
X595000Y390000D03*
X560000Y375000D03*
X1295000Y265000D03*
X605000Y235000D03*
X1320000Y230000D03*
X635000Y230000D03*
X635000Y195000D03*
X1345000Y260000D03*
X625000Y245000D03*
X625000Y215000D03*
X855000Y345000D03*
X855000Y65000D03*
X845000Y335000D03*
X845000Y55000D03*
X1360000Y250000D03*
X615000Y235000D03*
X625000Y330000D03*
X625000Y300000D03*
X1480000Y155000D03*
X1505000Y10000D03*
X465000Y15000D03*
X1265000Y35000D03*
X295000Y175000D03*
X1370000Y240000D03*
X680000Y240000D03*
X635000Y410000D03*
X400000Y325000D03*
X660000Y85000D03*
X445000Y25000D03*
X1470000Y65000D03*
X605000Y370000D03*
X1020000Y300000D03*
X660000Y95000D03*
M02*
