%MOIN*%
%OFA0B0*%
%FSLAX44Y44*%
%IPPOS*%
%LPD*%
%ADD10C,0*%
D10*
X00072817Y00009448D02*
X00072817Y00009448D01*
X00072851Y00009448D01*
X00072886Y00009451D01*
X00072901Y00009454D01*
X00072901Y00009454D01*
X00072903Y00009454D01*
X00072919Y00009457D01*
X00072938Y00009462D01*
X00072939Y00009463D01*
X00072940Y00009463D01*
X00072953Y00009466D01*
X00072985Y00009478D01*
X00073016Y00009492D01*
X00073046Y00009510D01*
X00073060Y00009520D01*
X00073061Y00009520D01*
X00073061Y00009520D01*
X00073074Y00009529D01*
X00073100Y00009551D01*
X00073125Y00009576D01*
X00073147Y00009602D01*
X00073156Y00009615D01*
X00073156Y00009615D01*
X00073157Y00009616D01*
X00073167Y00009630D01*
X00073184Y00009660D01*
X00073198Y00009691D01*
X00073210Y00009724D01*
X00073214Y00009737D01*
X00073214Y00009737D01*
X00073214Y00009738D01*
X00073219Y00009757D01*
X00073222Y00009773D01*
X00073222Y00009775D01*
X00073222Y00009776D01*
X00073225Y00009791D01*
X00073228Y00009825D01*
X00073228Y00009859D01*
X00073225Y00009893D01*
X00073222Y00009909D01*
X00073222Y00009909D01*
X00073222Y00009911D01*
X00073219Y00009927D01*
X00073214Y00009946D01*
X00073214Y00009947D01*
X00073214Y00009947D01*
X00073210Y00009961D01*
X00073198Y00009993D01*
X00073184Y00010024D01*
X00073167Y00010054D01*
X00073157Y00010068D01*
X00073156Y00010069D01*
X00073156Y00010069D01*
X00073147Y00010082D01*
X00073125Y00010108D01*
X00073100Y00010133D01*
X00073074Y00010155D01*
X00073061Y00010164D01*
X00073061Y00010164D01*
X00073060Y00010164D01*
X00073046Y00010174D01*
X00073016Y00010192D01*
X00072985Y00010206D01*
X00072953Y00010218D01*
X00072939Y00010221D01*
X00072939Y00010221D01*
X00072938Y00010222D01*
X00072919Y00010227D01*
X00072903Y00010230D01*
X00072901Y00010230D01*
X00072901Y00010230D01*
X00072886Y00010233D01*
X00072851Y00010236D01*
X00072834Y00010236D01*
X00072844Y00010236D01*
X00072853Y00010235D01*
X00072863Y00010235D01*
X00072873Y00010234D01*
X00072882Y00010233D01*
X00072892Y00010231D01*
X00072901Y00010230D01*
X00072903Y00010230D01*
X00072911Y00010228D01*
X00072920Y00010226D01*
X00072930Y00010224D01*
X00072938Y00010222D01*
X00072939Y00010221D01*
X00072948Y00010219D01*
X00072958Y00010216D01*
X00072967Y00010213D01*
X00072976Y00010209D01*
X00072985Y00010206D01*
X00072994Y00010202D01*
X00073002Y00010198D01*
X00073011Y00010194D01*
X00073020Y00010189D01*
X00073028Y00010185D01*
X00073037Y00010180D01*
X00073045Y00010175D01*
X00073053Y00010169D01*
X00073060Y00010164D01*
X00073061Y00010164D01*
X00073069Y00010158D01*
X00073076Y00010152D01*
X00073084Y00010146D01*
X00073091Y00010140D01*
X00073099Y00010134D01*
X00073106Y00010127D01*
X00073113Y00010120D01*
X00073119Y00010113D01*
X00073126Y00010106D01*
X00073132Y00010099D01*
X00073138Y00010092D01*
X00073144Y00010084D01*
X00073150Y00010077D01*
X00073156Y00010069D01*
X00073157Y00010068D01*
X00073162Y00010061D01*
X00073167Y00010053D01*
X00073172Y00010044D01*
X00073177Y00010036D01*
X00073181Y00010028D01*
X00073186Y00010019D01*
X00073190Y00010010D01*
X00073194Y00010002D01*
X00073198Y00009993D01*
X00073201Y00009984D01*
X00073205Y00009975D01*
X00073208Y00009966D01*
X00073211Y00009956D01*
X00073214Y00009947D01*
X00073214Y00009946D01*
X00073216Y00009938D01*
X00073218Y00009928D01*
X00073220Y00009919D01*
X00073222Y00009911D01*
X00073222Y00009909D01*
X00073224Y00009900D01*
X00073225Y00009890D01*
X00073226Y00009881D01*
X00073227Y00009871D01*
X00073227Y00009861D01*
X00073228Y00009852D01*
X00073228Y00009842D01*
X00073228Y00009832D01*
X00073227Y00009823D01*
X00073227Y00009813D01*
X00073226Y00009803D01*
X00073225Y00009794D01*
X00073224Y00009784D01*
X00073222Y00009776D01*
X00073222Y00009773D01*
X00073220Y00009765D01*
X00073218Y00009756D01*
X00073216Y00009746D01*
X00073214Y00009738D01*
X00073214Y00009737D01*
X00073211Y00009728D01*
X00073208Y00009719D01*
X00073205Y00009709D01*
X00073201Y00009700D01*
X00073198Y00009691D01*
X00073194Y00009682D01*
X00073190Y00009674D01*
X00073186Y00009665D01*
X00073181Y00009656D01*
X00073177Y00009648D01*
X00073172Y00009640D01*
X00073167Y00009631D01*
X00073162Y00009623D01*
X00073157Y00009616D01*
X00073156Y00009615D01*
X00073150Y00009607D01*
X00073144Y00009600D01*
X00073138Y00009592D01*
X00073132Y00009585D01*
X00073126Y00009578D01*
X00073119Y00009571D01*
X00073113Y00009564D01*
X00073106Y00009557D01*
X00073099Y00009550D01*
X00073091Y00009544D01*
X00073084Y00009538D01*
X00073076Y00009532D01*
X00073069Y00009526D01*
X00073061Y00009520D01*
X00073060Y00009520D01*
X00073053Y00009515D01*
X00073045Y00009509D01*
X00073037Y00009504D01*
X00073028Y00009499D01*
X00073020Y00009495D01*
X00073011Y00009490D01*
X00073002Y00009486D01*
X00072994Y00009482D01*
X00072985Y00009478D01*
X00072976Y00009475D01*
X00072967Y00009471D01*
X00072958Y00009468D01*
X00072948Y00009465D01*
X00072940Y00009463D01*
X00072938Y00009462D01*
X00072930Y00009460D01*
X00072920Y00009458D01*
X00072911Y00009456D01*
X00072903Y00009454D01*
X00072901Y00009454D01*
X00072892Y00009453D01*
X00072882Y00009451D01*
X00072873Y00009450D01*
X00072863Y00009449D01*
X00072853Y00009449D01*
X00072844Y00009448D01*
X00072834Y00009448D01*
X00072824Y00009448D01*
X00072815Y00009449D01*
X00072805Y00009449D01*
X00072796Y00009450D01*
X00072786Y00009451D01*
X00072776Y00009453D01*
X00072768Y00009454D01*
X00072765Y00009454D01*
X00072757Y00009456D01*
X00072748Y00009458D01*
X00072738Y00009460D01*
X00072731Y00009462D01*
X00072729Y00009463D01*
X00072720Y00009465D01*
X00072711Y00009468D01*
X00072702Y00009471D01*
X00072692Y00009475D01*
X00072683Y00009478D01*
X00072675Y00009482D01*
X00072666Y00009486D01*
X00072657Y00009490D01*
X00072649Y00009495D01*
X00072640Y00009499D01*
X00072632Y00009504D01*
X00072624Y00009509D01*
X00072615Y00009515D01*
X00072608Y00009520D01*
X00072607Y00009520D01*
X00072600Y00009526D01*
X00072592Y00009532D01*
X00072584Y00009538D01*
X00072577Y00009544D01*
X00072570Y00009550D01*
X00072563Y00009557D01*
X00072556Y00009564D01*
X00072549Y00009571D01*
X00072542Y00009578D01*
X00072536Y00009585D01*
X00072530Y00009592D01*
X00072524Y00009600D01*
X00072518Y00009607D01*
X00072513Y00009615D01*
X00072512Y00009616D01*
X00072507Y00009623D01*
X00072502Y00009631D01*
X00072496Y00009640D01*
X00072492Y00009648D01*
X00072487Y00009656D01*
X00072482Y00009665D01*
X00072478Y00009674D01*
X00072474Y00009682D01*
X00072470Y00009691D01*
X00072467Y00009700D01*
X00072463Y00009709D01*
X00072460Y00009719D01*
X00072457Y00009728D01*
X00072455Y00009737D01*
X00072454Y00009738D01*
X00072452Y00009746D01*
X00072450Y00009756D01*
X00072448Y00009765D01*
X00072447Y00009773D01*
X00072446Y00009776D01*
X00072445Y00009784D01*
X00072443Y00009794D01*
X00072442Y00009803D01*
X00072442Y00009813D01*
X00072441Y00009823D01*
X00072441Y00009832D01*
X00072440Y00009842D01*
X00072441Y00009852D01*
X00072441Y00009861D01*
X00072442Y00009871D01*
X00072442Y00009881D01*
X00072443Y00009890D01*
X00072445Y00009900D01*
X00072446Y00009909D01*
X00072446Y00009911D01*
X00072448Y00009919D01*
X00072450Y00009928D01*
X00072452Y00009938D01*
X00072454Y00009946D01*
X00072455Y00009947D01*
X00072457Y00009956D01*
X00072460Y00009966D01*
X00072463Y00009975D01*
X00072467Y00009984D01*
X00072470Y00009993D01*
X00072474Y00010002D01*
X00072478Y00010010D01*
X00072482Y00010019D01*
X00072487Y00010028D01*
X00072492Y00010036D01*
X00072496Y00010044D01*
X00072502Y00010053D01*
X00072507Y00010061D01*
X00072512Y00010068D01*
X00072513Y00010069D01*
X00072518Y00010077D01*
X00072524Y00010084D01*
X00072530Y00010092D01*
X00072536Y00010099D01*
X00072542Y00010106D01*
X00072549Y00010113D01*
X00072556Y00010120D01*
X00072563Y00010127D01*
X00072570Y00010134D01*
X00072577Y00010140D01*
X00072584Y00010146D01*
X00072592Y00010152D01*
X00072600Y00010158D01*
X00072607Y00010164D01*
X00072608Y00010164D01*
X00072615Y00010169D01*
X00072624Y00010175D01*
X00072632Y00010180D01*
X00072640Y00010185D01*
X00072649Y00010189D01*
X00072657Y00010194D01*
X00072666Y00010198D01*
X00072675Y00010202D01*
X00072683Y00010206D01*
X00072692Y00010209D01*
X00072702Y00010213D01*
X00072711Y00010216D01*
X00072720Y00010219D01*
X00072729Y00010221D01*
X00072730Y00010222D01*
X00072738Y00010224D01*
X00072748Y00010226D01*
X00072757Y00010228D01*
X00072765Y00010230D01*
X00072768Y00010230D01*
X00072776Y00010231D01*
X00072786Y00010233D01*
X00072796Y00010234D01*
X00072805Y00010235D01*
X00072815Y00010235D01*
X00072824Y00010236D01*
X00072834Y00010236D01*
X00072817Y00010236D01*
X00072783Y00010233D01*
X00072768Y00010230D01*
X00072767Y00010230D01*
X00072765Y00010230D01*
X00072749Y00010227D01*
X00072730Y00010222D01*
X00072729Y00010221D01*
X00072729Y00010221D01*
X00072716Y00010218D01*
X00072683Y00010206D01*
X00072652Y00010192D01*
X00072622Y00010174D01*
X00072608Y00010164D01*
X00072607Y00010164D01*
X00072607Y00010164D01*
X00072594Y00010155D01*
X00072568Y00010133D01*
X00072544Y00010108D01*
X00072522Y00010082D01*
X00072513Y00010069D01*
X00072512Y00010069D01*
X00072512Y00010068D01*
X00072502Y00010054D01*
X00072485Y00010024D01*
X00072470Y00009993D01*
X00072458Y00009961D01*
X00072455Y00009947D01*
X00072455Y00009947D01*
X00072454Y00009946D01*
X00072449Y00009927D01*
X00072446Y00009911D01*
X00072446Y00009909D01*
X00072446Y00009909D01*
X00072443Y00009893D01*
X00072440Y00009859D01*
X00072440Y00009825D01*
X00072443Y00009791D01*
X00072446Y00009776D01*
X00072446Y00009775D01*
X00072447Y00009773D01*
X00072449Y00009757D01*
X00072454Y00009738D01*
X00072455Y00009737D01*
X00072455Y00009737D01*
X00072458Y00009724D01*
X00072470Y00009691D01*
X00072485Y00009660D01*
X00072502Y00009630D01*
X00072512Y00009616D01*
X00072512Y00009615D01*
X00072513Y00009615D01*
X00072522Y00009602D01*
X00072544Y00009576D01*
X00072568Y00009551D01*
X00072594Y00009529D01*
X00072607Y00009520D01*
X00072607Y00009520D01*
X00072608Y00009520D01*
X00072622Y00009510D01*
X00072652Y00009492D01*
X00072683Y00009478D01*
X00072716Y00009466D01*
X00072729Y00009463D01*
X00072729Y00009463D01*
X00072731Y00009462D01*
X00072749Y00009457D01*
X00072765Y00009454D01*
X00072767Y00009454D01*
X00072768Y00009454D01*
X00072783Y00009451D01*
X00072817Y00009448D01*
X00013762Y00009448D02*
X00013762Y00009448D01*
X00013796Y00009448D01*
X00013830Y00009451D01*
X00013846Y00009454D01*
X00013846Y00009454D01*
X00013848Y00009454D01*
X00013864Y00009457D01*
X00013882Y00009462D01*
X00013884Y00009463D01*
X00013884Y00009463D01*
X00013898Y00009466D01*
X00013930Y00009478D01*
X00013961Y00009492D01*
X00013991Y00009510D01*
X00014005Y00009520D01*
X00014006Y00009520D01*
X00014006Y00009520D01*
X00014019Y00009529D01*
X00014045Y00009551D01*
X00014070Y00009576D01*
X00014092Y00009602D01*
X00014101Y00009615D01*
X00014101Y00009615D01*
X00014101Y00009616D01*
X00014111Y00009630D01*
X00014129Y00009660D01*
X00014143Y00009691D01*
X00014155Y00009724D01*
X00014158Y00009737D01*
X00014158Y00009737D01*
X00014159Y00009738D01*
X00014164Y00009757D01*
X00014167Y00009773D01*
X00014167Y00009775D01*
X00014167Y00009776D01*
X00014170Y00009791D01*
X00014173Y00009825D01*
X00014173Y00009859D01*
X00014170Y00009893D01*
X00014167Y00009909D01*
X00014167Y00009909D01*
X00014167Y00009911D01*
X00014164Y00009927D01*
X00014159Y00009946D01*
X00014158Y00009947D01*
X00014158Y00009947D01*
X00014155Y00009961D01*
X00014143Y00009993D01*
X00014129Y00010024D01*
X00014111Y00010054D01*
X00014101Y00010068D01*
X00014101Y00010069D01*
X00014101Y00010069D01*
X00014092Y00010082D01*
X00014070Y00010108D01*
X00014045Y00010133D01*
X00014019Y00010155D01*
X00014006Y00010164D01*
X00014006Y00010164D01*
X00014005Y00010164D01*
X00013991Y00010174D01*
X00013961Y00010192D01*
X00013930Y00010206D01*
X00013898Y00010218D01*
X00013884Y00010221D01*
X00013884Y00010221D01*
X00013883Y00010222D01*
X00013864Y00010227D01*
X00013848Y00010230D01*
X00013846Y00010230D01*
X00013846Y00010230D01*
X00013830Y00010233D01*
X00013796Y00010236D01*
X00013779Y00010236D01*
X00013789Y00010236D01*
X00013798Y00010235D01*
X00013808Y00010235D01*
X00013818Y00010234D01*
X00013827Y00010233D01*
X00013837Y00010231D01*
X00013846Y00010230D01*
X00013848Y00010230D01*
X00013856Y00010228D01*
X00013865Y00010226D01*
X00013875Y00010224D01*
X00013883Y00010222D01*
X00013884Y00010221D01*
X00013893Y00010219D01*
X00013903Y00010216D01*
X00013912Y00010213D01*
X00013921Y00010209D01*
X00013930Y00010206D01*
X00013939Y00010202D01*
X00013947Y00010198D01*
X00013956Y00010194D01*
X00013965Y00010189D01*
X00013973Y00010185D01*
X00013981Y00010180D01*
X00013990Y00010175D01*
X00013998Y00010169D01*
X00014005Y00010164D01*
X00014006Y00010164D01*
X00014014Y00010158D01*
X00014021Y00010152D01*
X00014029Y00010146D01*
X00014036Y00010140D01*
X00014043Y00010134D01*
X00014050Y00010127D01*
X00014057Y00010120D01*
X00014064Y00010113D01*
X00014071Y00010106D01*
X00014077Y00010099D01*
X00014083Y00010092D01*
X00014089Y00010084D01*
X00014095Y00010077D01*
X00014101Y00010069D01*
X00014101Y00010068D01*
X00014106Y00010061D01*
X00014112Y00010053D01*
X00014117Y00010044D01*
X00014122Y00010036D01*
X00014126Y00010028D01*
X00014131Y00010019D01*
X00014135Y00010010D01*
X00014139Y00010002D01*
X00014143Y00009993D01*
X00014146Y00009984D01*
X00014150Y00009975D01*
X00014153Y00009966D01*
X00014156Y00009956D01*
X00014158Y00009947D01*
X00014159Y00009946D01*
X00014161Y00009938D01*
X00014163Y00009928D01*
X00014165Y00009919D01*
X00014167Y00009911D01*
X00014167Y00009909D01*
X00014168Y00009900D01*
X00014170Y00009890D01*
X00014171Y00009881D01*
X00014172Y00009871D01*
X00014172Y00009861D01*
X00014173Y00009852D01*
X00014173Y00009842D01*
X00014173Y00009832D01*
X00014172Y00009823D01*
X00014172Y00009813D01*
X00014171Y00009803D01*
X00014170Y00009794D01*
X00014168Y00009784D01*
X00014167Y00009776D01*
X00014167Y00009773D01*
X00014165Y00009765D01*
X00014163Y00009756D01*
X00014161Y00009746D01*
X00014159Y00009738D01*
X00014158Y00009737D01*
X00014156Y00009728D01*
X00014153Y00009719D01*
X00014150Y00009709D01*
X00014146Y00009700D01*
X00014143Y00009691D01*
X00014139Y00009682D01*
X00014135Y00009674D01*
X00014131Y00009665D01*
X00014126Y00009656D01*
X00014122Y00009648D01*
X00014117Y00009640D01*
X00014112Y00009631D01*
X00014106Y00009623D01*
X00014101Y00009616D01*
X00014101Y00009615D01*
X00014095Y00009607D01*
X00014089Y00009600D01*
X00014083Y00009592D01*
X00014077Y00009585D01*
X00014071Y00009578D01*
X00014064Y00009571D01*
X00014057Y00009564D01*
X00014050Y00009557D01*
X00014043Y00009550D01*
X00014036Y00009544D01*
X00014029Y00009538D01*
X00014021Y00009532D01*
X00014014Y00009526D01*
X00014006Y00009520D01*
X00014005Y00009520D01*
X00013998Y00009515D01*
X00013990Y00009509D01*
X00013981Y00009504D01*
X00013973Y00009499D01*
X00013965Y00009495D01*
X00013956Y00009490D01*
X00013947Y00009486D01*
X00013939Y00009482D01*
X00013930Y00009478D01*
X00013921Y00009475D01*
X00013912Y00009471D01*
X00013903Y00009468D01*
X00013893Y00009465D01*
X00013884Y00009463D01*
X00013882Y00009462D01*
X00013875Y00009460D01*
X00013865Y00009458D01*
X00013856Y00009456D01*
X00013848Y00009454D01*
X00013846Y00009454D01*
X00013837Y00009453D01*
X00013827Y00009451D01*
X00013818Y00009450D01*
X00013808Y00009449D01*
X00013798Y00009449D01*
X00013789Y00009448D01*
X00013779Y00009448D01*
X00013769Y00009448D01*
X00013760Y00009449D01*
X00013750Y00009449D01*
X00013740Y00009450D01*
X00013731Y00009451D01*
X00013721Y00009453D01*
X00013713Y00009454D01*
X00013710Y00009454D01*
X00013702Y00009456D01*
X00013693Y00009458D01*
X00013683Y00009460D01*
X00013676Y00009462D01*
X00013674Y00009463D01*
X00013665Y00009465D01*
X00013656Y00009468D01*
X00013646Y00009471D01*
X00013637Y00009475D01*
X00013628Y00009478D01*
X00013620Y00009482D01*
X00013611Y00009486D01*
X00013602Y00009490D01*
X00013593Y00009495D01*
X00013585Y00009499D01*
X00013577Y00009504D01*
X00013568Y00009509D01*
X00013560Y00009515D01*
X00013553Y00009520D01*
X00013552Y00009520D01*
X00013545Y00009526D01*
X00013537Y00009532D01*
X00013529Y00009538D01*
X00013522Y00009544D01*
X00013515Y00009550D01*
X00013508Y00009557D01*
X00013501Y00009564D01*
X00013494Y00009571D01*
X00013487Y00009578D01*
X00013481Y00009585D01*
X00013475Y00009592D01*
X00013469Y00009600D01*
X00013463Y00009607D01*
X00013457Y00009615D01*
X00013457Y00009616D01*
X00013452Y00009623D01*
X00013446Y00009631D01*
X00013441Y00009640D01*
X00013436Y00009648D01*
X00013432Y00009656D01*
X00013427Y00009665D01*
X00013423Y00009674D01*
X00013419Y00009682D01*
X00013415Y00009691D01*
X00013412Y00009700D01*
X00013408Y00009709D01*
X00013405Y00009719D01*
X00013402Y00009728D01*
X00013400Y00009737D01*
X00013399Y00009738D01*
X00013397Y00009746D01*
X00013395Y00009756D01*
X00013393Y00009765D01*
X00013391Y00009773D01*
X00013391Y00009776D01*
X00013390Y00009784D01*
X00013388Y00009794D01*
X00013387Y00009803D01*
X00013386Y00009813D01*
X00013386Y00009823D01*
X00013385Y00009832D01*
X00013385Y00009842D01*
X00013385Y00009852D01*
X00013386Y00009861D01*
X00013386Y00009871D01*
X00013387Y00009881D01*
X00013388Y00009890D01*
X00013390Y00009900D01*
X00013391Y00009909D01*
X00013391Y00009911D01*
X00013393Y00009919D01*
X00013395Y00009928D01*
X00013397Y00009938D01*
X00013399Y00009946D01*
X00013400Y00009947D01*
X00013402Y00009956D01*
X00013405Y00009966D01*
X00013408Y00009975D01*
X00013412Y00009984D01*
X00013415Y00009993D01*
X00013419Y00010002D01*
X00013423Y00010010D01*
X00013427Y00010019D01*
X00013432Y00010028D01*
X00013436Y00010036D01*
X00013441Y00010044D01*
X00013446Y00010053D01*
X00013452Y00010061D01*
X00013457Y00010068D01*
X00013457Y00010069D01*
X00013463Y00010077D01*
X00013469Y00010084D01*
X00013475Y00010092D01*
X00013481Y00010099D01*
X00013487Y00010106D01*
X00013494Y00010113D01*
X00013501Y00010120D01*
X00013508Y00010127D01*
X00013515Y00010134D01*
X00013522Y00010140D01*
X00013529Y00010146D01*
X00013537Y00010152D01*
X00013545Y00010158D01*
X00013552Y00010164D01*
X00013553Y00010164D01*
X00013560Y00010169D01*
X00013568Y00010175D01*
X00013577Y00010180D01*
X00013585Y00010185D01*
X00013593Y00010189D01*
X00013602Y00010194D01*
X00013611Y00010198D01*
X00013620Y00010202D01*
X00013628Y00010206D01*
X00013637Y00010209D01*
X00013646Y00010213D01*
X00013656Y00010216D01*
X00013665Y00010219D01*
X00013674Y00010221D01*
X00013675Y00010222D01*
X00013683Y00010224D01*
X00013693Y00010226D01*
X00013702Y00010228D01*
X00013710Y00010230D01*
X00013713Y00010230D01*
X00013721Y00010231D01*
X00013731Y00010233D01*
X00013740Y00010234D01*
X00013750Y00010235D01*
X00013760Y00010235D01*
X00013769Y00010236D01*
X00013779Y00010236D01*
X00013762Y00010236D01*
X00013728Y00010233D01*
X00013713Y00010230D01*
X00013712Y00010230D01*
X00013710Y00010230D01*
X00013694Y00010227D01*
X00013675Y00010222D01*
X00013674Y00010221D01*
X00013674Y00010221D01*
X00013661Y00010218D01*
X00013628Y00010206D01*
X00013597Y00010192D01*
X00013567Y00010174D01*
X00013553Y00010164D01*
X00013552Y00010164D01*
X00013552Y00010164D01*
X00013539Y00010155D01*
X00013513Y00010133D01*
X00013488Y00010108D01*
X00013466Y00010082D01*
X00013457Y00010069D01*
X00013457Y00010069D01*
X00013457Y00010068D01*
X00013447Y00010054D01*
X00013429Y00010024D01*
X00013415Y00009993D01*
X00013403Y00009961D01*
X00013400Y00009947D01*
X00013400Y00009947D01*
X00013399Y00009946D01*
X00013394Y00009927D01*
X00013391Y00009911D01*
X00013391Y00009909D01*
X00013391Y00009909D01*
X00013388Y00009893D01*
X00013385Y00009859D01*
X00013385Y00009825D01*
X00013388Y00009791D01*
X00013391Y00009776D01*
X00013391Y00009775D01*
X00013391Y00009773D01*
X00013394Y00009757D01*
X00013399Y00009738D01*
X00013400Y00009737D01*
X00013400Y00009737D01*
X00013403Y00009724D01*
X00013415Y00009691D01*
X00013429Y00009660D01*
X00013447Y00009630D01*
X00013457Y00009616D01*
X00013457Y00009615D01*
X00013457Y00009615D01*
X00013466Y00009602D01*
X00013488Y00009576D01*
X00013513Y00009551D01*
X00013539Y00009529D01*
X00013552Y00009520D01*
X00013552Y00009520D01*
X00013553Y00009520D01*
X00013567Y00009510D01*
X00013597Y00009492D01*
X00013628Y00009478D01*
X00013661Y00009466D01*
X00013674Y00009463D01*
X00013674Y00009463D01*
X00013676Y00009462D01*
X00013694Y00009457D01*
X00013710Y00009454D01*
X00013712Y00009454D01*
X00013713Y00009454D01*
X00013728Y00009451D01*
X00013762Y00009448D01*
X00076004Y00009872D02*
X00076004Y00009872D01*
X00076044Y00009874D01*
X00076083Y00009880D01*
X00076123Y00009889D01*
X00076161Y00009900D01*
X00076199Y00009914D01*
X00076235Y00009931D01*
X00076270Y00009950D01*
X00076304Y00009971D01*
X00076318Y00009982D01*
X00076318Y00009982D01*
X00076319Y00009982D01*
X00076336Y00009995D01*
X00076350Y00010008D01*
X00076350Y00010008D01*
X00076351Y00010008D01*
X00076366Y00010022D01*
X00076395Y00010050D01*
X00076408Y00010066D01*
X00076409Y00010066D01*
X00076409Y00010066D01*
X00076421Y00010080D01*
X00076434Y00010098D01*
X00076434Y00010098D01*
X00076435Y00010099D01*
X00076445Y00010112D01*
X00076467Y00010146D01*
X00076486Y00010181D01*
X00076502Y00010218D01*
X00076516Y00010255D01*
X00076528Y00010294D01*
X00076536Y00010333D01*
X00076542Y00010373D01*
X00076545Y00010413D01*
X00076545Y00010453D01*
X00076542Y00010493D01*
X00076536Y00010532D01*
X00076528Y00010571D01*
X00076516Y00010610D01*
X00076502Y00010647D01*
X00076486Y00010684D01*
X00076467Y00010719D01*
X00076445Y00010753D01*
X00076435Y00010766D01*
X00076434Y00010767D01*
X00076434Y00010767D01*
X00076421Y00010785D01*
X00076409Y00010799D01*
X00076409Y00010799D01*
X00076408Y00010799D01*
X00076395Y00010815D01*
X00076366Y00010843D01*
X00076351Y00010857D01*
X00076350Y00010857D01*
X00076350Y00010858D01*
X00076336Y00010870D01*
X00076319Y00010883D01*
X00076318Y00010883D01*
X00076318Y00010883D01*
X00076304Y00010894D01*
X00076270Y00010915D01*
X00076235Y00010935D01*
X00076199Y00010951D01*
X00076161Y00010965D01*
X00076123Y00010977D01*
X00076083Y00010985D01*
X00076044Y00010991D01*
X00076004Y00010994D01*
X00075984Y00010994D01*
X00075998Y00010993D01*
X00076011Y00010993D01*
X00076025Y00010992D01*
X00076039Y00010991D01*
X00076052Y00010989D01*
X00076066Y00010988D01*
X00076080Y00010985D01*
X00076093Y00010983D01*
X00076107Y00010980D01*
X00076120Y00010977D01*
X00076133Y00010973D01*
X00076147Y00010969D01*
X00076160Y00010965D01*
X00076173Y00010961D01*
X00076186Y00010956D01*
X00076198Y00010951D01*
X00076211Y00010945D01*
X00076224Y00010940D01*
X00076236Y00010934D01*
X00076248Y00010927D01*
X00076260Y00010921D01*
X00076272Y00010914D01*
X00076284Y00010907D01*
X00076295Y00010899D01*
X00076307Y00010891D01*
X00076318Y00010883D01*
X00076319Y00010883D01*
X00076329Y00010875D01*
X00076340Y00010866D01*
X00076350Y00010858D01*
X00076351Y00010857D01*
X00076361Y00010848D01*
X00076371Y00010839D01*
X00076380Y00010829D01*
X00076390Y00010819D01*
X00076399Y00010809D01*
X00076408Y00010799D01*
X00076409Y00010799D01*
X00076417Y00010788D01*
X00076426Y00010778D01*
X00076434Y00010767D01*
X00076435Y00010766D01*
X00076442Y00010756D01*
X00076450Y00010744D01*
X00076458Y00010733D01*
X00076465Y00010721D01*
X00076472Y00010709D01*
X00076479Y00010697D01*
X00076485Y00010685D01*
X00076491Y00010672D01*
X00076497Y00010660D01*
X00076502Y00010647D01*
X00076507Y00010635D01*
X00076512Y00010622D01*
X00076516Y00010609D01*
X00076521Y00010595D01*
X00076524Y00010582D01*
X00076528Y00010569D01*
X00076531Y00010555D01*
X00076534Y00010542D01*
X00076537Y00010528D01*
X00076539Y00010515D01*
X00076541Y00010501D01*
X00076542Y00010488D01*
X00076543Y00010474D01*
X00076544Y00010460D01*
X00076545Y00010446D01*
X00076545Y00010433D01*
X00076545Y00010419D01*
X00076544Y00010405D01*
X00076543Y00010391D01*
X00076542Y00010378D01*
X00076541Y00010364D01*
X00076539Y00010350D01*
X00076537Y00010337D01*
X00076534Y00010323D01*
X00076531Y00010310D01*
X00076528Y00010296D01*
X00076524Y00010283D01*
X00076521Y00010270D01*
X00076516Y00010257D01*
X00076512Y00010244D01*
X00076507Y00010231D01*
X00076502Y00010218D01*
X00076497Y00010205D01*
X00076491Y00010193D01*
X00076485Y00010180D01*
X00076479Y00010168D01*
X00076472Y00010156D01*
X00076465Y00010144D01*
X00076458Y00010132D01*
X00076450Y00010121D01*
X00076442Y00010110D01*
X00076435Y00010099D01*
X00076434Y00010098D01*
X00076426Y00010087D01*
X00076417Y00010077D01*
X00076409Y00010066D01*
X00076408Y00010066D01*
X00076399Y00010056D01*
X00076390Y00010046D01*
X00076380Y00010036D01*
X00076371Y00010026D01*
X00076361Y00010017D01*
X00076351Y00010008D01*
X00076350Y00010008D01*
X00076340Y00009999D01*
X00076329Y00009990D01*
X00076319Y00009982D01*
X00076318Y00009982D01*
X00076307Y00009974D01*
X00076295Y00009966D01*
X00076284Y00009959D01*
X00076272Y00009951D01*
X00076260Y00009944D01*
X00076248Y00009938D01*
X00076236Y00009931D01*
X00076224Y00009925D01*
X00076211Y00009920D01*
X00076198Y00009914D01*
X00076186Y00009909D01*
X00076173Y00009904D01*
X00076160Y00009900D01*
X00076147Y00009896D01*
X00076133Y00009892D01*
X00076120Y00009888D01*
X00076107Y00009885D01*
X00076093Y00009882D01*
X00076080Y00009880D01*
X00076066Y00009878D01*
X00076052Y00009876D01*
X00076039Y00009874D01*
X00076025Y00009873D01*
X00076011Y00009872D01*
X00075998Y00009872D01*
X00075984Y00009872D01*
X00075970Y00009872D01*
X00075956Y00009872D01*
X00075942Y00009873D01*
X00075929Y00009874D01*
X00075915Y00009876D01*
X00075901Y00009878D01*
X00075888Y00009880D01*
X00075874Y00009882D01*
X00075861Y00009885D01*
X00075847Y00009888D01*
X00075834Y00009892D01*
X00075821Y00009896D01*
X00075808Y00009900D01*
X00075795Y00009904D01*
X00075782Y00009909D01*
X00075769Y00009914D01*
X00075756Y00009920D01*
X00075744Y00009925D01*
X00075732Y00009931D01*
X00075719Y00009938D01*
X00075707Y00009944D01*
X00075695Y00009951D01*
X00075684Y00009959D01*
X00075672Y00009966D01*
X00075661Y00009974D01*
X00075650Y00009982D01*
X00075649Y00009982D01*
X00075639Y00009990D01*
X00075628Y00009999D01*
X00075618Y00010008D01*
X00075617Y00010008D01*
X00075607Y00010017D01*
X00075597Y00010026D01*
X00075587Y00010036D01*
X00075577Y00010046D01*
X00075568Y00010056D01*
X00075559Y00010066D01*
X00075559Y00010066D01*
X00075550Y00010077D01*
X00075541Y00010087D01*
X00075534Y00010098D01*
X00075533Y00010099D01*
X00075525Y00010110D01*
X00075517Y00010121D01*
X00075510Y00010132D01*
X00075503Y00010144D01*
X00075496Y00010156D01*
X00075489Y00010168D01*
X00075483Y00010180D01*
X00075477Y00010193D01*
X00075471Y00010205D01*
X00075465Y00010218D01*
X00075460Y00010231D01*
X00075456Y00010244D01*
X00075451Y00010257D01*
X00075447Y00010270D01*
X00075443Y00010283D01*
X00075440Y00010296D01*
X00075436Y00010310D01*
X00075434Y00010323D01*
X00075431Y00010337D01*
X00075429Y00010350D01*
X00075427Y00010364D01*
X00075425Y00010378D01*
X00075424Y00010391D01*
X00075423Y00010405D01*
X00075423Y00010419D01*
X00075423Y00010433D01*
X00075423Y00010446D01*
X00075423Y00010460D01*
X00075424Y00010474D01*
X00075425Y00010488D01*
X00075427Y00010501D01*
X00075429Y00010515D01*
X00075431Y00010528D01*
X00075434Y00010542D01*
X00075436Y00010555D01*
X00075440Y00010569D01*
X00075443Y00010582D01*
X00075447Y00010595D01*
X00075451Y00010609D01*
X00075456Y00010622D01*
X00075460Y00010635D01*
X00075465Y00010647D01*
X00075471Y00010660D01*
X00075477Y00010672D01*
X00075483Y00010685D01*
X00075489Y00010697D01*
X00075496Y00010709D01*
X00075503Y00010721D01*
X00075510Y00010733D01*
X00075517Y00010744D01*
X00075525Y00010756D01*
X00075533Y00010766D01*
X00075534Y00010767D01*
X00075541Y00010778D01*
X00075550Y00010788D01*
X00075559Y00010799D01*
X00075559Y00010799D01*
X00075568Y00010809D01*
X00075577Y00010819D01*
X00075587Y00010829D01*
X00075597Y00010839D01*
X00075607Y00010848D01*
X00075617Y00010857D01*
X00075617Y00010858D01*
X00075628Y00010866D01*
X00075639Y00010875D01*
X00075649Y00010883D01*
X00075650Y00010883D01*
X00075661Y00010891D01*
X00075672Y00010899D01*
X00075684Y00010907D01*
X00075695Y00010914D01*
X00075707Y00010921D01*
X00075719Y00010927D01*
X00075732Y00010934D01*
X00075744Y00010940D01*
X00075756Y00010945D01*
X00075769Y00010951D01*
X00075782Y00010956D01*
X00075795Y00010961D01*
X00075808Y00010965D01*
X00075821Y00010969D01*
X00075834Y00010973D01*
X00075847Y00010977D01*
X00075861Y00010980D01*
X00075874Y00010983D01*
X00075888Y00010985D01*
X00075901Y00010988D01*
X00075915Y00010989D01*
X00075929Y00010991D01*
X00075942Y00010992D01*
X00075956Y00010993D01*
X00075970Y00010993D01*
X00075984Y00010994D01*
X00075964Y00010994D01*
X00075924Y00010991D01*
X00075884Y00010985D01*
X00075845Y00010977D01*
X00075806Y00010965D01*
X00075769Y00010951D01*
X00075732Y00010935D01*
X00075697Y00010915D01*
X00075664Y00010894D01*
X00075650Y00010883D01*
X00075650Y00010883D01*
X00075649Y00010883D01*
X00075632Y00010870D01*
X00075617Y00010858D01*
X00075617Y00010857D01*
X00075617Y00010857D01*
X00075601Y00010843D01*
X00075573Y00010815D01*
X00075559Y00010799D01*
X00075559Y00010799D01*
X00075559Y00010799D01*
X00075547Y00010785D01*
X00075534Y00010767D01*
X00075533Y00010767D01*
X00075533Y00010766D01*
X00075523Y00010753D01*
X00075501Y00010719D01*
X00075482Y00010684D01*
X00075465Y00010647D01*
X00075451Y00010610D01*
X00075440Y00010571D01*
X00075431Y00010532D01*
X00075426Y00010493D01*
X00075423Y00010453D01*
X00075423Y00010413D01*
X00075426Y00010373D01*
X00075431Y00010333D01*
X00075440Y00010294D01*
X00075451Y00010255D01*
X00075465Y00010218D01*
X00075482Y00010181D01*
X00075501Y00010146D01*
X00075523Y00010112D01*
X00075533Y00010099D01*
X00075533Y00010098D01*
X00075534Y00010098D01*
X00075547Y00010080D01*
X00075559Y00010066D01*
X00075559Y00010066D01*
X00075559Y00010066D01*
X00075573Y00010050D01*
X00075601Y00010022D01*
X00075617Y00010008D01*
X00075617Y00010008D01*
X00075618Y00010008D01*
X00075632Y00009995D01*
X00075649Y00009982D01*
X00075650Y00009982D01*
X00075650Y00009982D01*
X00075664Y00009971D01*
X00075697Y00009950D01*
X00075732Y00009931D01*
X00075769Y00009914D01*
X00075806Y00009900D01*
X00075845Y00009889D01*
X00075884Y00009880D01*
X00075924Y00009874D01*
X00075964Y00009872D01*
X00076004Y00009872D01*
X00076004Y00018139D02*
X00076004Y00018139D01*
X00076044Y00018142D01*
X00076083Y00018148D01*
X00076123Y00018156D01*
X00076161Y00018168D01*
X00076199Y00018182D01*
X00076235Y00018198D01*
X00076270Y00018217D01*
X00076304Y00018239D01*
X00076318Y00018249D01*
X00076318Y00018250D01*
X00076319Y00018250D01*
X00076336Y00018263D01*
X00076350Y00018275D01*
X00076350Y00018275D01*
X00076351Y00018276D01*
X00076366Y00018289D01*
X00076395Y00018318D01*
X00076408Y00018334D01*
X00076409Y00018334D01*
X00076409Y00018334D01*
X00076421Y00018348D01*
X00076434Y00018366D01*
X00076434Y00018366D01*
X00076435Y00018366D01*
X00076445Y00018380D01*
X00076467Y00018414D01*
X00076486Y00018449D01*
X00076502Y00018485D01*
X00076516Y00018523D01*
X00076528Y00018561D01*
X00076536Y00018601D01*
X00076542Y00018640D01*
X00076545Y00018680D01*
X00076545Y00018720D01*
X00076542Y00018760D01*
X00076536Y00018800D01*
X00076528Y00018839D01*
X00076516Y00018878D01*
X00076502Y00018915D01*
X00076486Y00018952D01*
X00076467Y00018987D01*
X00076445Y00019020D01*
X00076435Y00019034D01*
X00076434Y00019034D01*
X00076434Y00019035D01*
X00076421Y00019053D01*
X00076409Y00019067D01*
X00076409Y00019067D01*
X00076408Y00019067D01*
X00076395Y00019083D01*
X00076366Y00019111D01*
X00076351Y00019125D01*
X00076350Y00019125D01*
X00076350Y00019125D01*
X00076336Y00019137D01*
X00076318Y00019151D01*
X00076318Y00019151D01*
X00076318Y00019151D01*
X00076304Y00019161D01*
X00076270Y00019183D01*
X00076235Y00019202D01*
X00076199Y00019219D01*
X00076161Y00019233D01*
X00076123Y00019244D01*
X00076083Y00019253D01*
X00076044Y00019258D01*
X00076004Y00019261D01*
X00075984Y00019261D01*
X00075998Y00019261D01*
X00076011Y00019261D01*
X00076025Y00019260D01*
X00076039Y00019259D01*
X00076052Y00019257D01*
X00076066Y00019255D01*
X00076080Y00019253D01*
X00076093Y00019251D01*
X00076107Y00019248D01*
X00076120Y00019245D01*
X00076133Y00019241D01*
X00076147Y00019237D01*
X00076160Y00019233D01*
X00076173Y00019229D01*
X00076186Y00019224D01*
X00076198Y00019219D01*
X00076211Y00019213D01*
X00076224Y00019207D01*
X00076236Y00019201D01*
X00076248Y00019195D01*
X00076260Y00019188D01*
X00076272Y00019182D01*
X00076284Y00019174D01*
X00076295Y00019167D01*
X00076307Y00019159D01*
X00076318Y00019151D01*
X00076318Y00019151D01*
X00076329Y00019143D01*
X00076340Y00019134D01*
X00076350Y00019125D01*
X00076351Y00019125D01*
X00076361Y00019116D01*
X00076371Y00019107D01*
X00076380Y00019097D01*
X00076390Y00019087D01*
X00076399Y00019077D01*
X00076408Y00019067D01*
X00076409Y00019067D01*
X00076417Y00019056D01*
X00076426Y00019045D01*
X00076434Y00019035D01*
X00076435Y00019034D01*
X00076442Y00019023D01*
X00076450Y00019012D01*
X00076458Y00019000D01*
X00076465Y00018989D01*
X00076472Y00018977D01*
X00076479Y00018965D01*
X00076485Y00018953D01*
X00076491Y00018940D01*
X00076497Y00018928D01*
X00076502Y00018915D01*
X00076507Y00018902D01*
X00076512Y00018889D01*
X00076516Y00018876D01*
X00076521Y00018863D01*
X00076524Y00018850D01*
X00076528Y00018837D01*
X00076531Y00018823D01*
X00076534Y00018810D01*
X00076537Y00018796D01*
X00076539Y00018783D01*
X00076541Y00018769D01*
X00076542Y00018755D01*
X00076543Y00018742D01*
X00076544Y00018728D01*
X00076545Y00018714D01*
X00076545Y00018700D01*
X00076545Y00018687D01*
X00076544Y00018673D01*
X00076543Y00018659D01*
X00076542Y00018645D01*
X00076541Y00018632D01*
X00076539Y00018618D01*
X00076537Y00018604D01*
X00076534Y00018591D01*
X00076531Y00018577D01*
X00076528Y00018564D01*
X00076524Y00018551D01*
X00076521Y00018537D01*
X00076516Y00018524D01*
X00076512Y00018511D01*
X00076507Y00018498D01*
X00076502Y00018486D01*
X00076497Y00018473D01*
X00076491Y00018460D01*
X00076485Y00018448D01*
X00076479Y00018436D01*
X00076472Y00018424D01*
X00076465Y00018412D01*
X00076458Y00018400D01*
X00076450Y00018389D01*
X00076442Y00018377D01*
X00076435Y00018366D01*
X00076434Y00018366D01*
X00076426Y00018355D01*
X00076417Y00018344D01*
X00076409Y00018334D01*
X00076408Y00018334D01*
X00076399Y00018324D01*
X00076390Y00018313D01*
X00076380Y00018304D01*
X00076371Y00018294D01*
X00076361Y00018285D01*
X00076351Y00018276D01*
X00076350Y00018275D01*
X00076340Y00018267D01*
X00076329Y00018258D01*
X00076319Y00018250D01*
X00076318Y00018249D01*
X00076307Y00018242D01*
X00076295Y00018234D01*
X00076284Y00018226D01*
X00076272Y00018219D01*
X00076260Y00018212D01*
X00076248Y00018206D01*
X00076236Y00018199D01*
X00076224Y00018193D01*
X00076211Y00018187D01*
X00076198Y00018182D01*
X00076186Y00018177D01*
X00076173Y00018172D01*
X00076160Y00018168D01*
X00076147Y00018163D01*
X00076133Y00018160D01*
X00076120Y00018156D01*
X00076107Y00018153D01*
X00076093Y00018150D01*
X00076080Y00018148D01*
X00076066Y00018145D01*
X00076052Y00018143D01*
X00076039Y00018142D01*
X00076025Y00018141D01*
X00076011Y00018140D01*
X00075998Y00018139D01*
X00075984Y00018139D01*
X00075970Y00018139D01*
X00075956Y00018140D01*
X00075942Y00018141D01*
X00075929Y00018142D01*
X00075915Y00018143D01*
X00075901Y00018145D01*
X00075888Y00018148D01*
X00075874Y00018150D01*
X00075861Y00018153D01*
X00075847Y00018156D01*
X00075834Y00018160D01*
X00075821Y00018163D01*
X00075808Y00018168D01*
X00075795Y00018172D01*
X00075782Y00018177D01*
X00075769Y00018182D01*
X00075756Y00018187D01*
X00075744Y00018193D01*
X00075732Y00018199D01*
X00075719Y00018206D01*
X00075707Y00018212D01*
X00075695Y00018219D01*
X00075684Y00018226D01*
X00075672Y00018234D01*
X00075661Y00018242D01*
X00075650Y00018249D01*
X00075649Y00018250D01*
X00075639Y00018258D01*
X00075628Y00018267D01*
X00075617Y00018275D01*
X00075617Y00018276D01*
X00075607Y00018285D01*
X00075597Y00018294D01*
X00075587Y00018304D01*
X00075577Y00018313D01*
X00075568Y00018324D01*
X00075559Y00018334D01*
X00075559Y00018334D01*
X00075550Y00018344D01*
X00075541Y00018355D01*
X00075534Y00018366D01*
X00075533Y00018366D01*
X00075525Y00018377D01*
X00075517Y00018389D01*
X00075510Y00018400D01*
X00075503Y00018412D01*
X00075496Y00018424D01*
X00075489Y00018436D01*
X00075483Y00018448D01*
X00075477Y00018460D01*
X00075471Y00018473D01*
X00075465Y00018486D01*
X00075460Y00018498D01*
X00075456Y00018511D01*
X00075451Y00018524D01*
X00075447Y00018537D01*
X00075443Y00018551D01*
X00075440Y00018564D01*
X00075436Y00018577D01*
X00075434Y00018591D01*
X00075431Y00018604D01*
X00075429Y00018618D01*
X00075427Y00018632D01*
X00075425Y00018645D01*
X00075424Y00018659D01*
X00075423Y00018673D01*
X00075423Y00018687D01*
X00075423Y00018700D01*
X00075423Y00018714D01*
X00075423Y00018728D01*
X00075424Y00018742D01*
X00075425Y00018755D01*
X00075427Y00018769D01*
X00075429Y00018783D01*
X00075431Y00018796D01*
X00075434Y00018810D01*
X00075436Y00018823D01*
X00075440Y00018837D01*
X00075443Y00018850D01*
X00075447Y00018863D01*
X00075451Y00018876D01*
X00075456Y00018889D01*
X00075460Y00018902D01*
X00075465Y00018915D01*
X00075471Y00018928D01*
X00075477Y00018940D01*
X00075483Y00018953D01*
X00075489Y00018965D01*
X00075496Y00018977D01*
X00075503Y00018989D01*
X00075510Y00019000D01*
X00075517Y00019012D01*
X00075525Y00019023D01*
X00075533Y00019034D01*
X00075534Y00019035D01*
X00075541Y00019045D01*
X00075550Y00019056D01*
X00075559Y00019067D01*
X00075559Y00019067D01*
X00075568Y00019077D01*
X00075577Y00019087D01*
X00075587Y00019097D01*
X00075597Y00019107D01*
X00075607Y00019116D01*
X00075617Y00019125D01*
X00075617Y00019125D01*
X00075628Y00019134D01*
X00075639Y00019143D01*
X00075649Y00019151D01*
X00075650Y00019151D01*
X00075661Y00019159D01*
X00075672Y00019167D01*
X00075684Y00019174D01*
X00075695Y00019182D01*
X00075707Y00019188D01*
X00075719Y00019195D01*
X00075732Y00019201D01*
X00075744Y00019207D01*
X00075756Y00019213D01*
X00075769Y00019219D01*
X00075782Y00019224D01*
X00075795Y00019229D01*
X00075808Y00019233D01*
X00075821Y00019237D01*
X00075834Y00019241D01*
X00075847Y00019245D01*
X00075861Y00019248D01*
X00075874Y00019251D01*
X00075888Y00019253D01*
X00075901Y00019255D01*
X00075915Y00019257D01*
X00075929Y00019259D01*
X00075942Y00019260D01*
X00075956Y00019261D01*
X00075970Y00019261D01*
X00075984Y00019261D01*
X00075964Y00019261D01*
X00075924Y00019258D01*
X00075884Y00019253D01*
X00075845Y00019244D01*
X00075806Y00019233D01*
X00075769Y00019219D01*
X00075732Y00019202D01*
X00075697Y00019183D01*
X00075664Y00019161D01*
X00075650Y00019151D01*
X00075650Y00019151D01*
X00075649Y00019151D01*
X00075632Y00019137D01*
X00075617Y00019125D01*
X00075617Y00019125D01*
X00075617Y00019125D01*
X00075601Y00019111D01*
X00075573Y00019083D01*
X00075559Y00019067D01*
X00075559Y00019067D01*
X00075559Y00019067D01*
X00075547Y00019053D01*
X00075534Y00019035D01*
X00075533Y00019034D01*
X00075533Y00019034D01*
X00075523Y00019020D01*
X00075501Y00018987D01*
X00075482Y00018952D01*
X00075465Y00018915D01*
X00075451Y00018878D01*
X00075440Y00018839D01*
X00075431Y00018800D01*
X00075426Y00018760D01*
X00075423Y00018720D01*
X00075423Y00018680D01*
X00075426Y00018640D01*
X00075431Y00018601D01*
X00075440Y00018561D01*
X00075451Y00018523D01*
X00075465Y00018485D01*
X00075482Y00018449D01*
X00075501Y00018414D01*
X00075523Y00018380D01*
X00075533Y00018366D01*
X00075533Y00018366D01*
X00075534Y00018366D01*
X00075547Y00018348D01*
X00075559Y00018334D01*
X00075559Y00018334D01*
X00075559Y00018334D01*
X00075573Y00018318D01*
X00075601Y00018289D01*
X00075617Y00018276D01*
X00075617Y00018275D01*
X00075617Y00018275D01*
X00075632Y00018263D01*
X00075649Y00018250D01*
X00075650Y00018250D01*
X00075650Y00018249D01*
X00075664Y00018239D01*
X00075697Y00018217D01*
X00075732Y00018198D01*
X00075769Y00018182D01*
X00075806Y00018168D01*
X00075845Y00018156D01*
X00075884Y00018148D01*
X00075924Y00018142D01*
X00075964Y00018139D01*
X00076004Y00018139D01*
X00072817Y00021259D02*
X00072817Y00021259D01*
X00072851Y00021259D01*
X00072886Y00021262D01*
X00072901Y00021265D01*
X00072901Y00021265D01*
X00072902Y00021265D01*
X00072919Y00021268D01*
X00072938Y00021273D01*
X00072939Y00021274D01*
X00072939Y00021274D01*
X00072953Y00021277D01*
X00072985Y00021289D01*
X00073016Y00021303D01*
X00073046Y00021321D01*
X00073060Y00021331D01*
X00073061Y00021331D01*
X00073061Y00021331D01*
X00073074Y00021340D01*
X00073100Y00021362D01*
X00073125Y00021387D01*
X00073147Y00021413D01*
X00073156Y00021426D01*
X00073156Y00021426D01*
X00073157Y00021427D01*
X00073167Y00021441D01*
X00073184Y00021471D01*
X00073198Y00021502D01*
X00073210Y00021535D01*
X00073214Y00021548D01*
X00073214Y00021548D01*
X00073214Y00021549D01*
X00073219Y00021568D01*
X00073222Y00021584D01*
X00073222Y00021586D01*
X00073222Y00021587D01*
X00073225Y00021602D01*
X00073228Y00021636D01*
X00073228Y00021670D01*
X00073225Y00021704D01*
X00073222Y00021720D01*
X00073222Y00021720D01*
X00073222Y00021722D01*
X00073219Y00021738D01*
X00073214Y00021757D01*
X00073214Y00021758D01*
X00073214Y00021758D01*
X00073210Y00021772D01*
X00073198Y00021804D01*
X00073184Y00021835D01*
X00073167Y00021865D01*
X00073157Y00021879D01*
X00073156Y00021880D01*
X00073156Y00021880D01*
X00073147Y00021893D01*
X00073125Y00021919D01*
X00073100Y00021944D01*
X00073074Y00021966D01*
X00073061Y00021975D01*
X00073061Y00021975D01*
X00073060Y00021976D01*
X00073046Y00021985D01*
X00073016Y00022003D01*
X00072985Y00022017D01*
X00072953Y00022029D01*
X00072939Y00022032D01*
X00072939Y00022032D01*
X00072938Y00022033D01*
X00072919Y00022038D01*
X00072903Y00022041D01*
X00072901Y00022041D01*
X00072901Y00022041D01*
X00072886Y00022044D01*
X00072851Y00022047D01*
X00072834Y00022047D01*
X00072844Y00022047D01*
X00072853Y00022046D01*
X00072863Y00022046D01*
X00072873Y00022045D01*
X00072882Y00022044D01*
X00072892Y00022042D01*
X00072901Y00022041D01*
X00072903Y00022041D01*
X00072911Y00022039D01*
X00072920Y00022037D01*
X00072930Y00022035D01*
X00072938Y00022033D01*
X00072939Y00022032D01*
X00072948Y00022030D01*
X00072958Y00022027D01*
X00072967Y00022024D01*
X00072976Y00022020D01*
X00072985Y00022017D01*
X00072994Y00022013D01*
X00073002Y00022009D01*
X00073011Y00022005D01*
X00073020Y00022000D01*
X00073028Y00021996D01*
X00073037Y00021991D01*
X00073045Y00021986D01*
X00073053Y00021980D01*
X00073060Y00021976D01*
X00073061Y00021975D01*
X00073069Y00021969D01*
X00073076Y00021963D01*
X00073084Y00021957D01*
X00073091Y00021951D01*
X00073099Y00021945D01*
X00073106Y00021938D01*
X00073113Y00021931D01*
X00073119Y00021924D01*
X00073126Y00021917D01*
X00073132Y00021910D01*
X00073138Y00021903D01*
X00073144Y00021895D01*
X00073150Y00021888D01*
X00073156Y00021880D01*
X00073157Y00021879D01*
X00073162Y00021872D01*
X00073167Y00021864D01*
X00073172Y00021855D01*
X00073177Y00021847D01*
X00073181Y00021839D01*
X00073186Y00021830D01*
X00073190Y00021821D01*
X00073194Y00021813D01*
X00073198Y00021804D01*
X00073201Y00021795D01*
X00073205Y00021786D01*
X00073208Y00021777D01*
X00073211Y00021767D01*
X00073214Y00021758D01*
X00073214Y00021757D01*
X00073216Y00021749D01*
X00073218Y00021739D01*
X00073220Y00021730D01*
X00073222Y00021722D01*
X00073222Y00021720D01*
X00073224Y00021711D01*
X00073225Y00021701D01*
X00073226Y00021692D01*
X00073227Y00021682D01*
X00073227Y00021672D01*
X00073228Y00021663D01*
X00073228Y00021653D01*
X00073228Y00021643D01*
X00073227Y00021634D01*
X00073227Y00021624D01*
X00073226Y00021614D01*
X00073225Y00021605D01*
X00073224Y00021595D01*
X00073222Y00021587D01*
X00073222Y00021584D01*
X00073220Y00021576D01*
X00073218Y00021567D01*
X00073216Y00021557D01*
X00073214Y00021549D01*
X00073214Y00021548D01*
X00073211Y00021539D01*
X00073208Y00021530D01*
X00073205Y00021520D01*
X00073201Y00021511D01*
X00073198Y00021502D01*
X00073194Y00021494D01*
X00073190Y00021485D01*
X00073186Y00021476D01*
X00073181Y00021467D01*
X00073177Y00021459D01*
X00073172Y00021451D01*
X00073167Y00021442D01*
X00073162Y00021434D01*
X00073157Y00021427D01*
X00073156Y00021426D01*
X00073150Y00021419D01*
X00073144Y00021411D01*
X00073138Y00021403D01*
X00073132Y00021396D01*
X00073126Y00021389D01*
X00073119Y00021382D01*
X00073113Y00021375D01*
X00073106Y00021368D01*
X00073099Y00021361D01*
X00073091Y00021355D01*
X00073084Y00021349D01*
X00073076Y00021343D01*
X00073069Y00021337D01*
X00073061Y00021331D01*
X00073060Y00021331D01*
X00073053Y00021326D01*
X00073045Y00021320D01*
X00073037Y00021315D01*
X00073028Y00021310D01*
X00073020Y00021306D01*
X00073011Y00021301D01*
X00073002Y00021297D01*
X00072994Y00021293D01*
X00072985Y00021289D01*
X00072976Y00021286D01*
X00072967Y00021282D01*
X00072958Y00021279D01*
X00072948Y00021276D01*
X00072939Y00021274D01*
X00072938Y00021273D01*
X00072930Y00021271D01*
X00072920Y00021269D01*
X00072911Y00021267D01*
X00072902Y00021265D01*
X00072901Y00021265D01*
X00072892Y00021264D01*
X00072882Y00021262D01*
X00072873Y00021261D01*
X00072863Y00021260D01*
X00072853Y00021260D01*
X00072844Y00021259D01*
X00072834Y00021259D01*
X00072824Y00021259D01*
X00072815Y00021260D01*
X00072805Y00021260D01*
X00072796Y00021261D01*
X00072786Y00021262D01*
X00072776Y00021264D01*
X00072768Y00021265D01*
X00072766Y00021265D01*
X00072757Y00021267D01*
X00072748Y00021269D01*
X00072738Y00021271D01*
X00072730Y00021273D01*
X00072729Y00021274D01*
X00072720Y00021276D01*
X00072711Y00021279D01*
X00072702Y00021282D01*
X00072692Y00021286D01*
X00072683Y00021289D01*
X00072675Y00021293D01*
X00072666Y00021297D01*
X00072657Y00021301D01*
X00072649Y00021306D01*
X00072640Y00021310D01*
X00072632Y00021315D01*
X00072624Y00021320D01*
X00072615Y00021326D01*
X00072608Y00021331D01*
X00072607Y00021331D01*
X00072600Y00021337D01*
X00072592Y00021343D01*
X00072584Y00021349D01*
X00072577Y00021355D01*
X00072570Y00021361D01*
X00072563Y00021368D01*
X00072556Y00021375D01*
X00072549Y00021382D01*
X00072542Y00021389D01*
X00072536Y00021396D01*
X00072530Y00021403D01*
X00072524Y00021411D01*
X00072518Y00021419D01*
X00072513Y00021426D01*
X00072512Y00021427D01*
X00072507Y00021434D01*
X00072502Y00021442D01*
X00072496Y00021451D01*
X00072492Y00021459D01*
X00072487Y00021467D01*
X00072482Y00021476D01*
X00072478Y00021485D01*
X00072474Y00021494D01*
X00072470Y00021502D01*
X00072467Y00021511D01*
X00072463Y00021520D01*
X00072460Y00021530D01*
X00072457Y00021539D01*
X00072455Y00021548D01*
X00072454Y00021549D01*
X00072452Y00021557D01*
X00072450Y00021567D01*
X00072448Y00021576D01*
X00072447Y00021584D01*
X00072446Y00021587D01*
X00072445Y00021595D01*
X00072443Y00021605D01*
X00072442Y00021614D01*
X00072442Y00021624D01*
X00072441Y00021634D01*
X00072441Y00021643D01*
X00072440Y00021653D01*
X00072441Y00021663D01*
X00072441Y00021672D01*
X00072442Y00021682D01*
X00072442Y00021692D01*
X00072443Y00021701D01*
X00072445Y00021711D01*
X00072446Y00021720D01*
X00072446Y00021722D01*
X00072448Y00021730D01*
X00072450Y00021739D01*
X00072452Y00021749D01*
X00072454Y00021757D01*
X00072455Y00021758D01*
X00072457Y00021767D01*
X00072460Y00021777D01*
X00072463Y00021786D01*
X00072467Y00021795D01*
X00072470Y00021804D01*
X00072474Y00021813D01*
X00072478Y00021821D01*
X00072482Y00021830D01*
X00072487Y00021839D01*
X00072492Y00021847D01*
X00072496Y00021855D01*
X00072502Y00021864D01*
X00072507Y00021872D01*
X00072512Y00021879D01*
X00072513Y00021880D01*
X00072518Y00021888D01*
X00072524Y00021895D01*
X00072530Y00021903D01*
X00072536Y00021910D01*
X00072542Y00021917D01*
X00072549Y00021924D01*
X00072556Y00021931D01*
X00072563Y00021938D01*
X00072570Y00021945D01*
X00072577Y00021951D01*
X00072584Y00021957D01*
X00072592Y00021963D01*
X00072600Y00021969D01*
X00072607Y00021975D01*
X00072608Y00021976D01*
X00072615Y00021980D01*
X00072624Y00021986D01*
X00072632Y00021991D01*
X00072640Y00021996D01*
X00072649Y00022000D01*
X00072657Y00022005D01*
X00072666Y00022009D01*
X00072675Y00022013D01*
X00072683Y00022017D01*
X00072692Y00022020D01*
X00072702Y00022024D01*
X00072711Y00022027D01*
X00072720Y00022030D01*
X00072729Y00022032D01*
X00072730Y00022033D01*
X00072738Y00022035D01*
X00072748Y00022037D01*
X00072757Y00022039D01*
X00072765Y00022041D01*
X00072768Y00022041D01*
X00072776Y00022042D01*
X00072786Y00022044D01*
X00072796Y00022045D01*
X00072805Y00022046D01*
X00072815Y00022046D01*
X00072824Y00022047D01*
X00072834Y00022047D01*
X00072817Y00022047D01*
X00072783Y00022044D01*
X00072768Y00022041D01*
X00072767Y00022041D01*
X00072765Y00022041D01*
X00072749Y00022038D01*
X00072730Y00022033D01*
X00072729Y00022032D01*
X00072729Y00022032D01*
X00072716Y00022029D01*
X00072683Y00022017D01*
X00072652Y00022003D01*
X00072622Y00021985D01*
X00072608Y00021976D01*
X00072607Y00021975D01*
X00072607Y00021975D01*
X00072594Y00021966D01*
X00072568Y00021944D01*
X00072544Y00021919D01*
X00072522Y00021893D01*
X00072513Y00021880D01*
X00072512Y00021880D01*
X00072512Y00021879D01*
X00072502Y00021865D01*
X00072485Y00021835D01*
X00072470Y00021804D01*
X00072458Y00021772D01*
X00072455Y00021758D01*
X00072455Y00021758D01*
X00072454Y00021757D01*
X00072449Y00021738D01*
X00072446Y00021722D01*
X00072446Y00021720D01*
X00072446Y00021720D01*
X00072443Y00021704D01*
X00072440Y00021670D01*
X00072440Y00021636D01*
X00072443Y00021602D01*
X00072446Y00021587D01*
X00072446Y00021586D01*
X00072447Y00021584D01*
X00072449Y00021568D01*
X00072454Y00021549D01*
X00072455Y00021548D01*
X00072455Y00021548D01*
X00072458Y00021535D01*
X00072470Y00021502D01*
X00072485Y00021471D01*
X00072502Y00021441D01*
X00072512Y00021427D01*
X00072512Y00021426D01*
X00072513Y00021426D01*
X00072522Y00021413D01*
X00072544Y00021387D01*
X00072568Y00021362D01*
X00072594Y00021340D01*
X00072607Y00021331D01*
X00072607Y00021331D01*
X00072608Y00021331D01*
X00072622Y00021321D01*
X00072652Y00021303D01*
X00072683Y00021289D01*
X00072716Y00021277D01*
X00072729Y00021274D01*
X00072729Y00021274D01*
X00072730Y00021273D01*
X00072749Y00021268D01*
X00072766Y00021265D01*
X00072767Y00021265D01*
X00072768Y00021265D01*
X00072783Y00021262D01*
X00072817Y00021259D01*
X00013762Y00021259D02*
X00013762Y00021259D01*
X00013796Y00021259D01*
X00013830Y00021262D01*
X00013846Y00021265D01*
X00013846Y00021265D01*
X00013847Y00021265D01*
X00013864Y00021268D01*
X00013883Y00021273D01*
X00013884Y00021274D01*
X00013884Y00021274D01*
X00013898Y00021277D01*
X00013930Y00021289D01*
X00013961Y00021303D01*
X00013991Y00021321D01*
X00014005Y00021331D01*
X00014006Y00021331D01*
X00014006Y00021331D01*
X00014019Y00021340D01*
X00014045Y00021362D01*
X00014070Y00021387D01*
X00014092Y00021413D01*
X00014101Y00021426D01*
X00014101Y00021426D01*
X00014101Y00021427D01*
X00014111Y00021441D01*
X00014129Y00021471D01*
X00014143Y00021502D01*
X00014155Y00021535D01*
X00014158Y00021548D01*
X00014158Y00021548D01*
X00014159Y00021549D01*
X00014164Y00021568D01*
X00014167Y00021584D01*
X00014167Y00021586D01*
X00014167Y00021587D01*
X00014170Y00021602D01*
X00014173Y00021636D01*
X00014173Y00021670D01*
X00014170Y00021704D01*
X00014167Y00021720D01*
X00014167Y00021720D01*
X00014167Y00021722D01*
X00014164Y00021738D01*
X00014159Y00021757D01*
X00014158Y00021758D01*
X00014158Y00021758D01*
X00014155Y00021772D01*
X00014143Y00021804D01*
X00014129Y00021835D01*
X00014111Y00021865D01*
X00014101Y00021879D01*
X00014101Y00021880D01*
X00014101Y00021880D01*
X00014092Y00021893D01*
X00014070Y00021919D01*
X00014045Y00021944D01*
X00014019Y00021966D01*
X00014006Y00021975D01*
X00014006Y00021975D01*
X00014005Y00021975D01*
X00013991Y00021985D01*
X00013961Y00022003D01*
X00013930Y00022017D01*
X00013898Y00022029D01*
X00013884Y00022032D01*
X00013884Y00022032D01*
X00013883Y00022033D01*
X00013864Y00022038D01*
X00013848Y00022041D01*
X00013846Y00022041D01*
X00013846Y00022041D01*
X00013830Y00022044D01*
X00013796Y00022047D01*
X00013779Y00022047D01*
X00013789Y00022047D01*
X00013798Y00022046D01*
X00013808Y00022046D01*
X00013818Y00022045D01*
X00013827Y00022044D01*
X00013837Y00022042D01*
X00013846Y00022041D01*
X00013848Y00022041D01*
X00013856Y00022039D01*
X00013865Y00022037D01*
X00013875Y00022035D01*
X00013883Y00022033D01*
X00013884Y00022032D01*
X00013893Y00022030D01*
X00013903Y00022027D01*
X00013912Y00022024D01*
X00013921Y00022020D01*
X00013930Y00022017D01*
X00013939Y00022013D01*
X00013947Y00022009D01*
X00013956Y00022005D01*
X00013965Y00022000D01*
X00013973Y00021996D01*
X00013981Y00021991D01*
X00013990Y00021986D01*
X00013998Y00021980D01*
X00014005Y00021975D01*
X00014006Y00021975D01*
X00014014Y00021969D01*
X00014021Y00021963D01*
X00014029Y00021957D01*
X00014036Y00021951D01*
X00014043Y00021945D01*
X00014050Y00021938D01*
X00014057Y00021931D01*
X00014064Y00021924D01*
X00014071Y00021917D01*
X00014077Y00021910D01*
X00014083Y00021903D01*
X00014089Y00021895D01*
X00014095Y00021888D01*
X00014101Y00021880D01*
X00014101Y00021879D01*
X00014106Y00021872D01*
X00014112Y00021864D01*
X00014117Y00021855D01*
X00014122Y00021847D01*
X00014126Y00021839D01*
X00014131Y00021830D01*
X00014135Y00021821D01*
X00014139Y00021813D01*
X00014143Y00021804D01*
X00014146Y00021795D01*
X00014150Y00021786D01*
X00014153Y00021777D01*
X00014156Y00021767D01*
X00014158Y00021758D01*
X00014159Y00021757D01*
X00014161Y00021749D01*
X00014163Y00021739D01*
X00014165Y00021730D01*
X00014167Y00021722D01*
X00014167Y00021720D01*
X00014168Y00021711D01*
X00014170Y00021701D01*
X00014171Y00021692D01*
X00014172Y00021682D01*
X00014172Y00021672D01*
X00014173Y00021663D01*
X00014173Y00021653D01*
X00014173Y00021643D01*
X00014172Y00021634D01*
X00014172Y00021624D01*
X00014171Y00021614D01*
X00014170Y00021605D01*
X00014168Y00021595D01*
X00014167Y00021587D01*
X00014167Y00021584D01*
X00014165Y00021576D01*
X00014163Y00021567D01*
X00014161Y00021557D01*
X00014159Y00021549D01*
X00014158Y00021548D01*
X00014156Y00021539D01*
X00014153Y00021530D01*
X00014150Y00021520D01*
X00014146Y00021511D01*
X00014143Y00021502D01*
X00014139Y00021494D01*
X00014135Y00021485D01*
X00014131Y00021476D01*
X00014126Y00021467D01*
X00014122Y00021459D01*
X00014117Y00021451D01*
X00014112Y00021442D01*
X00014106Y00021434D01*
X00014101Y00021427D01*
X00014101Y00021426D01*
X00014095Y00021419D01*
X00014089Y00021411D01*
X00014083Y00021403D01*
X00014077Y00021396D01*
X00014071Y00021389D01*
X00014064Y00021382D01*
X00014057Y00021375D01*
X00014050Y00021368D01*
X00014043Y00021361D01*
X00014036Y00021355D01*
X00014029Y00021349D01*
X00014021Y00021343D01*
X00014014Y00021337D01*
X00014006Y00021331D01*
X00014005Y00021331D01*
X00013998Y00021326D01*
X00013990Y00021320D01*
X00013981Y00021315D01*
X00013973Y00021310D01*
X00013965Y00021306D01*
X00013956Y00021301D01*
X00013947Y00021297D01*
X00013939Y00021293D01*
X00013930Y00021289D01*
X00013921Y00021286D01*
X00013912Y00021282D01*
X00013903Y00021279D01*
X00013893Y00021276D01*
X00013884Y00021274D01*
X00013883Y00021273D01*
X00013875Y00021271D01*
X00013865Y00021269D01*
X00013856Y00021267D01*
X00013847Y00021265D01*
X00013846Y00021265D01*
X00013837Y00021264D01*
X00013827Y00021262D01*
X00013818Y00021261D01*
X00013808Y00021260D01*
X00013798Y00021260D01*
X00013789Y00021259D01*
X00013779Y00021259D01*
X00013769Y00021259D01*
X00013760Y00021260D01*
X00013750Y00021260D01*
X00013740Y00021261D01*
X00013731Y00021262D01*
X00013721Y00021264D01*
X00013712Y00021265D01*
X00013711Y00021265D01*
X00013702Y00021267D01*
X00013693Y00021269D01*
X00013683Y00021271D01*
X00013675Y00021273D01*
X00013674Y00021274D01*
X00013665Y00021276D01*
X00013656Y00021279D01*
X00013646Y00021282D01*
X00013637Y00021286D01*
X00013628Y00021289D01*
X00013620Y00021293D01*
X00013611Y00021297D01*
X00013602Y00021301D01*
X00013593Y00021306D01*
X00013585Y00021310D01*
X00013577Y00021315D01*
X00013568Y00021320D01*
X00013560Y00021326D01*
X00013553Y00021331D01*
X00013552Y00021331D01*
X00013545Y00021337D01*
X00013537Y00021343D01*
X00013529Y00021349D01*
X00013522Y00021355D01*
X00013515Y00021361D01*
X00013508Y00021368D01*
X00013501Y00021375D01*
X00013494Y00021382D01*
X00013487Y00021389D01*
X00013481Y00021396D01*
X00013475Y00021403D01*
X00013469Y00021411D01*
X00013463Y00021419D01*
X00013457Y00021426D01*
X00013457Y00021427D01*
X00013452Y00021434D01*
X00013446Y00021442D01*
X00013441Y00021451D01*
X00013436Y00021459D01*
X00013432Y00021467D01*
X00013427Y00021476D01*
X00013423Y00021485D01*
X00013419Y00021494D01*
X00013415Y00021502D01*
X00013412Y00021511D01*
X00013408Y00021520D01*
X00013405Y00021530D01*
X00013402Y00021539D01*
X00013400Y00021548D01*
X00013399Y00021549D01*
X00013397Y00021557D01*
X00013395Y00021567D01*
X00013393Y00021576D01*
X00013391Y00021584D01*
X00013391Y00021587D01*
X00013390Y00021595D01*
X00013388Y00021605D01*
X00013387Y00021614D01*
X00013386Y00021624D01*
X00013386Y00021634D01*
X00013385Y00021643D01*
X00013385Y00021653D01*
X00013385Y00021663D01*
X00013386Y00021672D01*
X00013386Y00021682D01*
X00013387Y00021692D01*
X00013388Y00021701D01*
X00013390Y00021711D01*
X00013391Y00021720D01*
X00013391Y00021722D01*
X00013393Y00021730D01*
X00013395Y00021739D01*
X00013397Y00021749D01*
X00013399Y00021757D01*
X00013400Y00021758D01*
X00013402Y00021767D01*
X00013405Y00021777D01*
X00013408Y00021786D01*
X00013412Y00021795D01*
X00013415Y00021804D01*
X00013419Y00021813D01*
X00013423Y00021821D01*
X00013427Y00021830D01*
X00013432Y00021839D01*
X00013436Y00021847D01*
X00013441Y00021855D01*
X00013446Y00021864D01*
X00013452Y00021872D01*
X00013456Y00021879D01*
X00013458Y00021880D01*
X00013463Y00021888D01*
X00013469Y00021895D01*
X00013475Y00021903D01*
X00013481Y00021910D01*
X00013487Y00021917D01*
X00013494Y00021924D01*
X00013501Y00021931D01*
X00013508Y00021938D01*
X00013515Y00021945D01*
X00013522Y00021951D01*
X00013529Y00021957D01*
X00013537Y00021963D01*
X00013545Y00021969D01*
X00013552Y00021975D01*
X00013553Y00021976D01*
X00013560Y00021980D01*
X00013568Y00021986D01*
X00013577Y00021991D01*
X00013585Y00021996D01*
X00013593Y00022000D01*
X00013602Y00022005D01*
X00013611Y00022009D01*
X00013620Y00022013D01*
X00013628Y00022017D01*
X00013637Y00022020D01*
X00013646Y00022024D01*
X00013656Y00022027D01*
X00013665Y00022030D01*
X00013674Y00022032D01*
X00013675Y00022033D01*
X00013683Y00022035D01*
X00013693Y00022037D01*
X00013702Y00022039D01*
X00013710Y00022041D01*
X00013713Y00022041D01*
X00013721Y00022042D01*
X00013731Y00022044D01*
X00013740Y00022045D01*
X00013750Y00022046D01*
X00013760Y00022046D01*
X00013769Y00022047D01*
X00013779Y00022047D01*
X00013762Y00022047D01*
X00013728Y00022044D01*
X00013713Y00022041D01*
X00013712Y00022041D01*
X00013710Y00022041D01*
X00013694Y00022038D01*
X00013675Y00022033D01*
X00013674Y00022032D01*
X00013674Y00022032D01*
X00013661Y00022029D01*
X00013628Y00022017D01*
X00013597Y00022003D01*
X00013567Y00021985D01*
X00013553Y00021976D01*
X00013552Y00021975D01*
X00013552Y00021975D01*
X00013539Y00021966D01*
X00013513Y00021944D01*
X00013488Y00021919D01*
X00013466Y00021893D01*
X00013458Y00021880D01*
X00013457Y00021880D01*
X00013456Y00021879D01*
X00013447Y00021865D01*
X00013429Y00021835D01*
X00013415Y00021804D01*
X00013403Y00021772D01*
X00013400Y00021758D01*
X00013400Y00021758D01*
X00013399Y00021757D01*
X00013394Y00021738D01*
X00013391Y00021722D01*
X00013391Y00021720D01*
X00013391Y00021720D01*
X00013388Y00021704D01*
X00013385Y00021670D01*
X00013385Y00021636D01*
X00013388Y00021602D01*
X00013391Y00021587D01*
X00013391Y00021586D01*
X00013391Y00021584D01*
X00013394Y00021568D01*
X00013399Y00021549D01*
X00013400Y00021548D01*
X00013400Y00021548D01*
X00013403Y00021535D01*
X00013415Y00021502D01*
X00013429Y00021471D01*
X00013447Y00021441D01*
X00013457Y00021427D01*
X00013457Y00021426D01*
X00013457Y00021426D01*
X00013466Y00021413D01*
X00013488Y00021387D01*
X00013513Y00021362D01*
X00013539Y00021340D01*
X00013552Y00021331D01*
X00013552Y00021331D01*
X00013553Y00021331D01*
X00013567Y00021321D01*
X00013597Y00021303D01*
X00013628Y00021289D01*
X00013661Y00021277D01*
X00013674Y00021274D01*
X00013674Y00021274D01*
X00013675Y00021273D01*
X00013694Y00021268D01*
X00013711Y00021265D01*
X00013712Y00021265D01*
X00013712Y00021265D01*
X00013728Y00021262D01*
X00013762Y00021259D01*
X00018583Y00030704D02*
X00018583Y00030704D01*
X00018269Y00030693D01*
X00017956Y00030674D01*
X00017787Y00030660D01*
X00017765Y00030659D01*
X00017745Y00030656D01*
X00017643Y00030647D01*
X00017331Y00030613D01*
X00017020Y00030572D01*
X00016710Y00030523D01*
X00016654Y00030513D01*
X00016641Y00030511D01*
X00016624Y00030507D01*
X00016401Y00030466D01*
X00016094Y00030402D01*
X00015788Y00030331D01*
X00015549Y00030269D01*
X00015535Y00030265D01*
X00015525Y00030262D01*
X00015484Y00030252D01*
X00015182Y00030166D01*
X00014882Y00030072D01*
X00014585Y00029972D01*
X00014474Y00029931D01*
X00014454Y00029925D01*
X00014433Y00029916D01*
X00014290Y00029864D01*
X00013998Y00029749D01*
X00013709Y00029627D01*
X00013422Y00029498D01*
X00013410Y00029492D01*
X00013406Y00029491D01*
X00013401Y00029488D01*
X00013139Y00029363D01*
X00012859Y00029220D01*
X00012583Y00029071D01*
X00012420Y00028977D01*
X00012401Y00028968D01*
X00012386Y00028958D01*
X00012311Y00028915D01*
X00012042Y00028752D01*
X00011777Y00028584D01*
X00011517Y00028408D01*
X00011458Y00028367D01*
X00011445Y00028359D01*
X00011430Y00028347D01*
X00011261Y00028227D01*
X00011009Y00028039D01*
X00010762Y00027846D01*
X00010555Y00027676D01*
X00010546Y00027669D01*
X00010541Y00027664D01*
X00010519Y00027646D01*
X00010282Y00027441D01*
X00010049Y00027230D01*
X00009822Y00027013D01*
X00009726Y00026917D01*
X00009710Y00026903D01*
X00009696Y00026887D01*
X00009600Y00026791D01*
X00009383Y00026564D01*
X00009172Y00026331D01*
X00008967Y00026094D01*
X00008950Y00026073D01*
X00008945Y00026067D01*
X00008938Y00026058D01*
X00008767Y00025852D01*
X00008574Y00025604D01*
X00008386Y00025353D01*
X00008266Y00025183D01*
X00008255Y00025168D01*
X00008246Y00025155D01*
X00008205Y00025096D01*
X00008030Y00024836D01*
X00007861Y00024571D01*
X00007698Y00024303D01*
X00007655Y00024227D01*
X00007646Y00024212D01*
X00007636Y00024194D01*
X00007542Y00024030D01*
X00007393Y00023754D01*
X00007251Y00023474D01*
X00007125Y00023212D01*
X00007122Y00023207D01*
X00007121Y00023203D01*
X00007115Y00023191D01*
X00006986Y00022905D01*
X00006864Y00022615D01*
X00006749Y00022323D01*
X00006697Y00022180D01*
X00006689Y00022160D01*
X00006682Y00022139D01*
X00006642Y00022028D01*
X00006541Y00021731D01*
X00006447Y00021431D01*
X00006361Y00021129D01*
X00006351Y00021089D01*
X00006348Y00021079D01*
X00006344Y00021064D01*
X00006283Y00020825D01*
X00006211Y00020520D01*
X00006147Y00020212D01*
X00006106Y00019990D01*
X00006102Y00019972D01*
X00006101Y00019959D01*
X00006090Y00019903D01*
X00006041Y00019593D01*
X00006000Y00019282D01*
X00005966Y00018970D01*
X00005957Y00018868D01*
X00005954Y00018848D01*
X00005953Y00018826D01*
X00005939Y00018657D01*
X00005920Y00018344D01*
X00005909Y00018030D01*
X00005905Y00017716D01*
X00005905Y00005905D01*
X00078740Y00005905D01*
X00078740Y00017716D01*
X00078736Y00018030D01*
X00078725Y00018344D01*
X00078706Y00018657D01*
X00078691Y00018826D01*
X00078690Y00018848D01*
X00078688Y00018868D01*
X00078679Y00018970D01*
X00078645Y00019282D01*
X00078603Y00019593D01*
X00078554Y00019903D01*
X00078544Y00019959D01*
X00078542Y00019972D01*
X00078538Y00019990D01*
X00078498Y00020212D01*
X00078434Y00020520D01*
X00078362Y00020825D01*
X00078300Y00021064D01*
X00078297Y00021079D01*
X00078294Y00021089D01*
X00078283Y00021129D01*
X00078197Y00021431D01*
X00078104Y00021731D01*
X00078003Y00022028D01*
X00077963Y00022139D01*
X00077956Y00022160D01*
X00077947Y00022181D01*
X00077895Y00022323D01*
X00077781Y00022615D01*
X00077659Y00022905D01*
X00077530Y00023191D01*
X00077524Y00023203D01*
X00077522Y00023207D01*
X00077520Y00023212D01*
X00077394Y00023474D01*
X00077251Y00023754D01*
X00077102Y00024030D01*
X00077009Y00024194D01*
X00076999Y00024212D01*
X00076990Y00024227D01*
X00076946Y00024303D01*
X00076784Y00024571D01*
X00076615Y00024836D01*
X00076440Y00025096D01*
X00076398Y00025155D01*
X00076390Y00025168D01*
X00076378Y00025183D01*
X00076258Y00025353D01*
X00076071Y00025604D01*
X00075877Y00025852D01*
X00075707Y00026058D01*
X00075700Y00026067D01*
X00075695Y00026073D01*
X00075678Y00026094D01*
X00075472Y00026331D01*
X00075261Y00026564D01*
X00075045Y00026791D01*
X00074949Y00026887D01*
X00074934Y00026903D01*
X00074919Y00026917D01*
X00074823Y00027013D01*
X00074595Y00027230D01*
X00074363Y00027441D01*
X00074125Y00027646D01*
X00074104Y00027664D01*
X00074099Y00027669D01*
X00074090Y00027676D01*
X00073883Y00027846D01*
X00073636Y00028039D01*
X00073384Y00028227D01*
X00073215Y00028347D01*
X00073199Y00028359D01*
X00073187Y00028367D01*
X00073128Y00028408D01*
X00072867Y00028584D01*
X00072603Y00028752D01*
X00072334Y00028915D01*
X00072258Y00028958D01*
X00072244Y00028968D01*
X00072225Y00028977D01*
X00072062Y00029071D01*
X00071785Y00029220D01*
X00071506Y00029363D01*
X00071244Y00029488D01*
X00071238Y00029491D01*
X00071235Y00029492D01*
X00071222Y00029498D01*
X00070936Y00029627D01*
X00070647Y00029749D01*
X00070355Y00029864D01*
X00070212Y00029916D01*
X00070191Y00029925D01*
X00070171Y00029931D01*
X00070060Y00029972D01*
X00069762Y00030072D01*
X00069463Y00030166D01*
X00069161Y00030252D01*
X00069120Y00030262D01*
X00069110Y00030265D01*
X00069095Y00030269D01*
X00068857Y00030331D01*
X00068551Y00030402D01*
X00068244Y00030466D01*
X00068021Y00030507D01*
X00068004Y00030511D01*
X00067991Y00030513D01*
X00067935Y00030523D01*
X00067625Y00030572D01*
X00067314Y00030613D01*
X00067001Y00030647D01*
X00066899Y00030656D01*
X00066880Y00030659D01*
X00066858Y00030660D01*
X00066689Y00030674D01*
X00066375Y00030693D01*
X00066061Y00030704D01*
X00065748Y00030708D01*
X00066858Y00030660D01*
X00066899Y00030656D01*
X00067991Y00030513D01*
X00068021Y00030507D01*
X00069095Y00030269D01*
X00069120Y00030262D01*
X00070171Y00029931D01*
X00070212Y00029916D01*
X00071235Y00029492D01*
X00071244Y00029488D01*
X00072225Y00028977D01*
X00072258Y00028958D01*
X00073187Y00028367D01*
X00073215Y00028347D01*
X00074090Y00027676D01*
X00074104Y00027664D01*
X00074919Y00026917D01*
X00074949Y00026887D01*
X00075695Y00026073D01*
X00075707Y00026058D01*
X00076378Y00025183D01*
X00076398Y00025155D01*
X00076990Y00024227D01*
X00077009Y00024194D01*
X00077520Y00023212D01*
X00077524Y00023203D01*
X00077947Y00022181D01*
X00077963Y00022139D01*
X00078294Y00021089D01*
X00078300Y00021064D01*
X00078538Y00019990D01*
X00078544Y00019959D01*
X00078688Y00018868D01*
X00078691Y00018826D01*
X00078740Y00017716D01*
X00078740Y00005905D01*
X00005905Y00005905D01*
X00005905Y00017716D01*
X00005953Y00018826D01*
X00005957Y00018868D01*
X00006101Y00019959D01*
X00006106Y00019990D01*
X00006344Y00021064D01*
X00006351Y00021089D01*
X00006682Y00022139D01*
X00006697Y00022180D01*
X00007121Y00023203D01*
X00007125Y00023212D01*
X00007636Y00024194D01*
X00007655Y00024227D01*
X00008246Y00025155D01*
X00008266Y00025183D01*
X00008938Y00026058D01*
X00008950Y00026073D01*
X00009696Y00026887D01*
X00009726Y00026917D01*
X00010541Y00027664D01*
X00010555Y00027676D01*
X00011430Y00028347D01*
X00011458Y00028367D01*
X00012386Y00028958D01*
X00012420Y00028977D01*
X00013401Y00029488D01*
X00013410Y00029492D01*
X00014433Y00029916D01*
X00014474Y00029931D01*
X00015525Y00030262D01*
X00015549Y00030269D01*
X00016624Y00030507D01*
X00016654Y00030513D01*
X00017745Y00030656D01*
X00017787Y00030660D01*
X00018897Y00030708D01*
X00018583Y00030704D01*
X00116911Y00006692D02*
X00116911Y00006692D01*
X00116946Y00006692D01*
X00116980Y00006695D01*
X00116995Y00006698D01*
X00116996Y00006698D01*
X00116997Y00006698D01*
X00117014Y00006701D01*
X00117033Y00006706D01*
X00117034Y00006707D01*
X00117034Y00006707D01*
X00117047Y00006710D01*
X00117079Y00006722D01*
X00117111Y00006737D01*
X00117140Y00006754D01*
X00117154Y00006764D01*
X00117155Y00006764D01*
X00117156Y00006765D01*
X00117169Y00006773D01*
X00117195Y00006796D01*
X00117207Y00006808D01*
X00117207Y00006808D01*
X00117207Y00006808D01*
X00117219Y00006820D01*
X00117241Y00006846D01*
X00117250Y00006859D01*
X00117251Y00006859D01*
X00117251Y00006860D01*
X00117261Y00006874D01*
X00117278Y00006904D01*
X00117293Y00006935D01*
X00117304Y00006968D01*
X00117308Y00006981D01*
X00117308Y00006981D01*
X00117308Y00006982D01*
X00117313Y00007001D01*
X00117316Y00007018D01*
X00117317Y00007019D01*
X00117317Y00007020D01*
X00117319Y00007035D01*
X00117322Y00007069D01*
X00117322Y00007103D01*
X00117319Y00007138D01*
X00117317Y00007153D01*
X00117317Y00007153D01*
X00117316Y00007154D01*
X00117313Y00007171D01*
X00117308Y00007190D01*
X00117308Y00007191D01*
X00117308Y00007191D01*
X00117304Y00007205D01*
X00117293Y00007237D01*
X00117278Y00007268D01*
X00117261Y00007298D01*
X00117251Y00007312D01*
X00117251Y00007313D01*
X00117250Y00007313D01*
X00117241Y00007326D01*
X00117219Y00007352D01*
X00117195Y00007377D01*
X00117169Y00007399D01*
X00117156Y00007408D01*
X00117155Y00007408D01*
X00117154Y00007409D01*
X00117140Y00007418D01*
X00117111Y00007436D01*
X00117079Y00007450D01*
X00117047Y00007462D01*
X00117034Y00007465D01*
X00117034Y00007466D01*
X00117033Y00007466D01*
X00117014Y00007471D01*
X00116997Y00007474D01*
X00116996Y00007474D01*
X00116995Y00007474D01*
X00116980Y00007477D01*
X00116946Y00007480D01*
X00116929Y00007480D01*
X00116938Y00007480D01*
X00116948Y00007479D01*
X00116958Y00007479D01*
X00116967Y00007478D01*
X00116977Y00007477D01*
X00116986Y00007476D01*
X00116995Y00007474D01*
X00116997Y00007474D01*
X00117005Y00007472D01*
X00117015Y00007470D01*
X00117024Y00007468D01*
X00117033Y00007466D01*
X00117034Y00007465D01*
X00117043Y00007463D01*
X00117052Y00007460D01*
X00117061Y00007457D01*
X00117070Y00007453D01*
X00117079Y00007450D01*
X00117088Y00007446D01*
X00117097Y00007442D01*
X00117106Y00007438D01*
X00117114Y00007433D01*
X00117123Y00007429D01*
X00117131Y00007424D01*
X00117139Y00007419D01*
X00117147Y00007413D01*
X00117154Y00007409D01*
X00117156Y00007408D01*
X00117163Y00007402D01*
X00117171Y00007396D01*
X00117178Y00007390D01*
X00117186Y00007384D01*
X00117193Y00007378D01*
X00117200Y00007371D01*
X00117207Y00007364D01*
X00117214Y00007358D01*
X00117220Y00007351D01*
X00117227Y00007343D01*
X00117233Y00007336D01*
X00117239Y00007328D01*
X00117245Y00007321D01*
X00117250Y00007313D01*
X00117251Y00007312D01*
X00117256Y00007305D01*
X00117261Y00007297D01*
X00117266Y00007289D01*
X00117271Y00007280D01*
X00117276Y00007272D01*
X00117280Y00007263D01*
X00117285Y00007254D01*
X00117289Y00007246D01*
X00117292Y00007237D01*
X00117296Y00007228D01*
X00117299Y00007219D01*
X00117302Y00007210D01*
X00117305Y00007200D01*
X00117308Y00007191D01*
X00117308Y00007190D01*
X00117311Y00007182D01*
X00117313Y00007172D01*
X00117315Y00007163D01*
X00117316Y00007154D01*
X00117317Y00007153D01*
X00117318Y00007144D01*
X00117319Y00007134D01*
X00117320Y00007125D01*
X00117321Y00007115D01*
X00117322Y00007105D01*
X00117322Y00007096D01*
X00117322Y00007086D01*
X00117322Y00007076D01*
X00117322Y00007067D01*
X00117321Y00007057D01*
X00117320Y00007048D01*
X00117319Y00007038D01*
X00117318Y00007028D01*
X00117317Y00007020D01*
X00117316Y00007018D01*
X00117315Y00007009D01*
X00117313Y00007000D01*
X00117311Y00006990D01*
X00117308Y00006982D01*
X00117308Y00006981D01*
X00117305Y00006972D01*
X00117302Y00006963D01*
X00117299Y00006953D01*
X00117296Y00006944D01*
X00117292Y00006935D01*
X00117289Y00006927D01*
X00117285Y00006918D01*
X00117280Y00006909D01*
X00117276Y00006901D01*
X00117271Y00006892D01*
X00117266Y00006884D01*
X00117261Y00006875D01*
X00117256Y00006867D01*
X00117251Y00006860D01*
X00117250Y00006859D01*
X00117245Y00006852D01*
X00117239Y00006844D01*
X00117233Y00006836D01*
X00117227Y00006829D01*
X00117220Y00006822D01*
X00117214Y00006815D01*
X00117207Y00006808D01*
X00117207Y00006808D01*
X00117200Y00006801D01*
X00117193Y00006794D01*
X00117186Y00006788D01*
X00117178Y00006782D01*
X00117171Y00006776D01*
X00117163Y00006770D01*
X00117156Y00006765D01*
X00117154Y00006764D01*
X00117147Y00006759D01*
X00117139Y00006753D01*
X00117131Y00006748D01*
X00117123Y00006744D01*
X00117114Y00006739D01*
X00117106Y00006734D01*
X00117097Y00006730D01*
X00117088Y00006726D01*
X00117079Y00006722D01*
X00117070Y00006719D01*
X00117061Y00006715D01*
X00117052Y00006712D01*
X00117043Y00006709D01*
X00117034Y00006707D01*
X00117033Y00006706D01*
X00117024Y00006704D01*
X00117015Y00006702D01*
X00117005Y00006700D01*
X00116997Y00006698D01*
X00116995Y00006698D01*
X00116986Y00006697D01*
X00116977Y00006695D01*
X00116967Y00006694D01*
X00116958Y00006693D01*
X00116948Y00006693D01*
X00116938Y00006693D01*
X00116929Y00006692D01*
X00116919Y00006693D01*
X00116909Y00006693D01*
X00116900Y00006693D01*
X00116890Y00006694D01*
X00116880Y00006695D01*
X00116871Y00006697D01*
X00116862Y00006698D01*
X00116860Y00006699D01*
X00116852Y00006700D01*
X00116842Y00006702D01*
X00116833Y00006704D01*
X00116825Y00006706D01*
X00116823Y00006707D01*
X00116814Y00006709D01*
X00116805Y00006712D01*
X00116796Y00006715D01*
X00116787Y00006719D01*
X00116778Y00006722D01*
X00116769Y00006726D01*
X00116760Y00006730D01*
X00116752Y00006734D01*
X00116743Y00006739D01*
X00116735Y00006744D01*
X00116726Y00006748D01*
X00116718Y00006753D01*
X00116710Y00006759D01*
X00116703Y00006764D01*
X00116701Y00006765D01*
X00116694Y00006770D01*
X00116686Y00006776D01*
X00116679Y00006782D01*
X00116671Y00006788D01*
X00116664Y00006794D01*
X00116657Y00006801D01*
X00116650Y00006808D01*
X00116644Y00006815D01*
X00116637Y00006822D01*
X00116631Y00006829D01*
X00116624Y00006836D01*
X00116618Y00006844D01*
X00116612Y00006852D01*
X00116607Y00006859D01*
X00116606Y00006860D01*
X00116601Y00006867D01*
X00116596Y00006875D01*
X00116591Y00006884D01*
X00116586Y00006892D01*
X00116581Y00006901D01*
X00116577Y00006909D01*
X00116573Y00006918D01*
X00116569Y00006927D01*
X00116565Y00006935D01*
X00116561Y00006944D01*
X00116558Y00006953D01*
X00116555Y00006963D01*
X00116552Y00006972D01*
X00116549Y00006981D01*
X00116549Y00006983D01*
X00116547Y00006990D01*
X00116544Y00007000D01*
X00116542Y00007009D01*
X00116541Y00007017D01*
X00116541Y00007020D01*
X00116539Y00007028D01*
X00116538Y00007038D01*
X00116537Y00007048D01*
X00116536Y00007057D01*
X00116535Y00007067D01*
X00116535Y00007076D01*
X00116535Y00007086D01*
X00116535Y00007096D01*
X00116535Y00007105D01*
X00116536Y00007115D01*
X00116537Y00007125D01*
X00116538Y00007134D01*
X00116539Y00007144D01*
X00116541Y00007153D01*
X00116541Y00007155D01*
X00116542Y00007163D01*
X00116544Y00007172D01*
X00116547Y00007182D01*
X00116549Y00007190D01*
X00116549Y00007192D01*
X00116552Y00007200D01*
X00116555Y00007210D01*
X00116558Y00007219D01*
X00116561Y00007228D01*
X00116565Y00007237D01*
X00116569Y00007246D01*
X00116573Y00007254D01*
X00116577Y00007263D01*
X00116581Y00007272D01*
X00116586Y00007280D01*
X00116591Y00007289D01*
X00116596Y00007297D01*
X00116601Y00007305D01*
X00116606Y00007312D01*
X00116607Y00007313D01*
X00116612Y00007321D01*
X00116618Y00007328D01*
X00116624Y00007336D01*
X00116631Y00007343D01*
X00116637Y00007351D01*
X00116644Y00007358D01*
X00116650Y00007364D01*
X00116657Y00007371D01*
X00116664Y00007378D01*
X00116671Y00007384D01*
X00116679Y00007390D01*
X00116686Y00007396D01*
X00116694Y00007402D01*
X00116701Y00007408D01*
X00116703Y00007409D01*
X00116710Y00007413D01*
X00116718Y00007419D01*
X00116726Y00007424D01*
X00116735Y00007429D01*
X00116743Y00007433D01*
X00116752Y00007438D01*
X00116760Y00007442D01*
X00116769Y00007446D01*
X00116778Y00007450D01*
X00116787Y00007453D01*
X00116796Y00007457D01*
X00116805Y00007460D01*
X00116814Y00007463D01*
X00116823Y00007465D01*
X00116825Y00007466D01*
X00116833Y00007468D01*
X00116842Y00007470D01*
X00116852Y00007472D01*
X00116860Y00007474D01*
X00116862Y00007474D01*
X00116871Y00007476D01*
X00116880Y00007477D01*
X00116890Y00007478D01*
X00116900Y00007479D01*
X00116909Y00007479D01*
X00116919Y00007480D01*
X00116929Y00007480D01*
X00116911Y00007480D01*
X00116877Y00007477D01*
X00116862Y00007474D01*
X00116861Y00007474D01*
X00116860Y00007474D01*
X00116843Y00007471D01*
X00116825Y00007466D01*
X00116824Y00007466D01*
X00116823Y00007465D01*
X00116810Y00007462D01*
X00116778Y00007450D01*
X00116747Y00007436D01*
X00116717Y00007418D01*
X00116703Y00007409D01*
X00116702Y00007408D01*
X00116701Y00007408D01*
X00116689Y00007399D01*
X00116662Y00007377D01*
X00116638Y00007352D01*
X00116616Y00007326D01*
X00116607Y00007313D01*
X00116607Y00007313D01*
X00116606Y00007312D01*
X00116596Y00007298D01*
X00116579Y00007268D01*
X00116565Y00007237D01*
X00116553Y00007205D01*
X00116549Y00007192D01*
X00116549Y00007191D01*
X00116549Y00007190D01*
X00116544Y00007171D01*
X00116541Y00007155D01*
X00116541Y00007153D01*
X00116541Y00007153D01*
X00116538Y00007138D01*
X00116535Y00007103D01*
X00116535Y00007069D01*
X00116538Y00007035D01*
X00116541Y00007020D01*
X00116541Y00007019D01*
X00116541Y00007017D01*
X00116544Y00007001D01*
X00116549Y00006983D01*
X00116549Y00006981D01*
X00116549Y00006981D01*
X00116553Y00006968D01*
X00116565Y00006935D01*
X00116579Y00006904D01*
X00116596Y00006874D01*
X00116606Y00006860D01*
X00116607Y00006859D01*
X00116607Y00006859D01*
X00116616Y00006846D01*
X00116638Y00006820D01*
X00116662Y00006796D01*
X00116689Y00006773D01*
X00116701Y00006765D01*
X00116702Y00006764D01*
X00116703Y00006764D01*
X00116717Y00006754D01*
X00116747Y00006737D01*
X00116778Y00006722D01*
X00116810Y00006710D01*
X00116823Y00006707D01*
X00116824Y00006707D01*
X00116825Y00006706D01*
X00116843Y00006701D01*
X00116860Y00006699D01*
X00116861Y00006698D01*
X00116862Y00006698D01*
X00116877Y00006695D01*
X00116911Y00006692D01*
X00093483Y00009478D02*
X00093483Y00009478D01*
X00093523Y00009478D01*
X00093563Y00009481D01*
X00093603Y00009486D01*
X00093642Y00009495D01*
X00093681Y00009506D01*
X00093718Y00009520D01*
X00093755Y00009537D01*
X00093790Y00009556D01*
X00093824Y00009578D01*
X00093837Y00009588D01*
X00093838Y00009588D01*
X00093838Y00009589D01*
X00093856Y00009602D01*
X00093870Y00009614D01*
X00093870Y00009614D01*
X00093870Y00009615D01*
X00093886Y00009628D01*
X00093914Y00009656D01*
X00093928Y00009672D01*
X00093928Y00009672D01*
X00093928Y00009673D01*
X00093941Y00009687D01*
X00093954Y00009704D01*
X00093954Y00009705D01*
X00093954Y00009705D01*
X00093965Y00009719D01*
X00093986Y00009752D01*
X00094005Y00009788D01*
X00094022Y00009824D01*
X00094036Y00009862D01*
X00094047Y00009900D01*
X00094056Y00009939D01*
X00094062Y00009979D01*
X00094064Y00010019D01*
X00094064Y00010059D01*
X00094062Y00010099D01*
X00094056Y00010139D01*
X00094047Y00010178D01*
X00094036Y00010216D01*
X00094022Y00010254D01*
X00094005Y00010290D01*
X00093986Y00010325D01*
X00093965Y00010359D01*
X00093954Y00010373D01*
X00093954Y00010373D01*
X00093954Y00010374D01*
X00093941Y00010391D01*
X00093928Y00010405D01*
X00093928Y00010405D01*
X00093928Y00010406D01*
X00093914Y00010421D01*
X00093886Y00010450D01*
X00093870Y00010463D01*
X00093870Y00010464D01*
X00093870Y00010464D01*
X00093856Y00010476D01*
X00093838Y00010489D01*
X00093838Y00010489D01*
X00093837Y00010490D01*
X00093824Y00010500D01*
X00093790Y00010522D01*
X00093755Y00010541D01*
X00093718Y00010558D01*
X00093681Y00010572D01*
X00093642Y00010583D01*
X00093603Y00010591D01*
X00093563Y00010597D01*
X00093523Y00010600D01*
X00093503Y00010600D01*
X00093517Y00010600D01*
X00093531Y00010599D01*
X00093545Y00010598D01*
X00093558Y00010597D01*
X00093572Y00010596D01*
X00093586Y00010594D01*
X00093599Y00010592D01*
X00093613Y00010589D01*
X00093626Y00010586D01*
X00093640Y00010583D01*
X00093653Y00010580D01*
X00093666Y00010576D01*
X00093679Y00010572D01*
X00093692Y00010567D01*
X00093705Y00010562D01*
X00093718Y00010557D01*
X00093731Y00010552D01*
X00093743Y00010546D01*
X00093756Y00010540D01*
X00093768Y00010534D01*
X00093780Y00010527D01*
X00093792Y00010520D01*
X00093804Y00010513D01*
X00093815Y00010505D01*
X00093826Y00010498D01*
X00093837Y00010490D01*
X00093838Y00010489D01*
X00093849Y00010481D01*
X00093859Y00010473D01*
X00093870Y00010464D01*
X00093870Y00010463D01*
X00093880Y00010455D01*
X00093890Y00010445D01*
X00093900Y00010436D01*
X00093910Y00010426D01*
X00093919Y00010416D01*
X00093928Y00010406D01*
X00093928Y00010405D01*
X00093937Y00010395D01*
X00093946Y00010384D01*
X00093954Y00010374D01*
X00093954Y00010373D01*
X00093962Y00010362D01*
X00093970Y00010351D01*
X00093977Y00010339D01*
X00093985Y00010327D01*
X00093992Y00010315D01*
X00093998Y00010303D01*
X00094005Y00010291D01*
X00094011Y00010279D01*
X00094016Y00010266D01*
X00094022Y00010254D01*
X00094027Y00010241D01*
X00094032Y00010228D01*
X00094036Y00010215D01*
X00094040Y00010202D01*
X00094044Y00010189D01*
X00094048Y00010175D01*
X00094051Y00010162D01*
X00094054Y00010148D01*
X00094056Y00010135D01*
X00094058Y00010121D01*
X00094060Y00010108D01*
X00094062Y00010094D01*
X00094063Y00010080D01*
X00094064Y00010066D01*
X00094064Y00010053D01*
X00094064Y00010039D01*
X00094064Y00010025D01*
X00094064Y00010011D01*
X00094063Y00009998D01*
X00094062Y00009984D01*
X00094060Y00009970D01*
X00094058Y00009957D01*
X00094056Y00009943D01*
X00094054Y00009929D01*
X00094051Y00009916D01*
X00094048Y00009903D01*
X00094044Y00009889D01*
X00094040Y00009876D01*
X00094036Y00009863D01*
X00094032Y00009850D01*
X00094027Y00009837D01*
X00094022Y00009824D01*
X00094016Y00009812D01*
X00094011Y00009799D01*
X00094005Y00009787D01*
X00093998Y00009774D01*
X00093992Y00009762D01*
X00093985Y00009750D01*
X00093977Y00009739D01*
X00093970Y00009727D01*
X00093962Y00009716D01*
X00093954Y00009705D01*
X00093954Y00009704D01*
X00093946Y00009694D01*
X00093937Y00009683D01*
X00093928Y00009673D01*
X00093928Y00009672D01*
X00093919Y00009662D01*
X00093910Y00009652D01*
X00093900Y00009642D01*
X00093890Y00009633D01*
X00093880Y00009623D01*
X00093870Y00009615D01*
X00093870Y00009614D01*
X00093859Y00009605D01*
X00093849Y00009597D01*
X00093838Y00009589D01*
X00093837Y00009588D01*
X00093826Y00009580D01*
X00093815Y00009572D01*
X00093804Y00009565D01*
X00093792Y00009558D01*
X00093780Y00009551D01*
X00093768Y00009544D01*
X00093756Y00009538D01*
X00093743Y00009532D01*
X00093731Y00009526D01*
X00093718Y00009521D01*
X00093705Y00009515D01*
X00093692Y00009511D01*
X00093679Y00009506D01*
X00093666Y00009502D01*
X00093653Y00009498D01*
X00093640Y00009495D01*
X00093626Y00009491D01*
X00093613Y00009489D01*
X00093599Y00009486D01*
X00093586Y00009484D01*
X00093572Y00009482D01*
X00093558Y00009481D01*
X00093545Y00009479D01*
X00093531Y00009479D01*
X00093517Y00009478D01*
X00093503Y00009478D01*
X00093490Y00009478D01*
X00093476Y00009479D01*
X00093462Y00009479D01*
X00093448Y00009481D01*
X00093435Y00009482D01*
X00093421Y00009484D01*
X00093408Y00009486D01*
X00093394Y00009489D01*
X00093381Y00009491D01*
X00093367Y00009495D01*
X00093354Y00009498D01*
X00093341Y00009502D01*
X00093327Y00009506D01*
X00093314Y00009511D01*
X00093302Y00009515D01*
X00093289Y00009521D01*
X00093276Y00009526D01*
X00093264Y00009532D01*
X00093251Y00009538D01*
X00093239Y00009544D01*
X00093227Y00009551D01*
X00093215Y00009558D01*
X00093203Y00009565D01*
X00093192Y00009572D01*
X00093180Y00009580D01*
X00093170Y00009588D01*
X00093169Y00009589D01*
X00093158Y00009597D01*
X00093148Y00009605D01*
X00093137Y00009614D01*
X00093136Y00009615D01*
X00093127Y00009623D01*
X00093117Y00009633D01*
X00093107Y00009642D01*
X00093097Y00009652D01*
X00093088Y00009662D01*
X00093079Y00009672D01*
X00093078Y00009673D01*
X00093070Y00009683D01*
X00093061Y00009694D01*
X00093053Y00009704D01*
X00093053Y00009705D01*
X00093045Y00009716D01*
X00093037Y00009727D01*
X00093029Y00009739D01*
X00093022Y00009750D01*
X00093015Y00009762D01*
X00093009Y00009774D01*
X00093002Y00009787D01*
X00092996Y00009799D01*
X00092991Y00009812D01*
X00092985Y00009824D01*
X00092980Y00009837D01*
X00092975Y00009850D01*
X00092971Y00009863D01*
X00092967Y00009876D01*
X00092963Y00009889D01*
X00092959Y00009903D01*
X00092956Y00009916D01*
X00092953Y00009929D01*
X00092951Y00009943D01*
X00092948Y00009957D01*
X00092947Y00009970D01*
X00092945Y00009984D01*
X00092944Y00009998D01*
X00092943Y00010011D01*
X00092943Y00010025D01*
X00092942Y00010039D01*
X00092943Y00010053D01*
X00092943Y00010066D01*
X00092944Y00010080D01*
X00092945Y00010094D01*
X00092947Y00010108D01*
X00092948Y00010121D01*
X00092951Y00010135D01*
X00092953Y00010148D01*
X00092956Y00010162D01*
X00092959Y00010175D01*
X00092963Y00010189D01*
X00092967Y00010202D01*
X00092971Y00010215D01*
X00092975Y00010228D01*
X00092980Y00010241D01*
X00092985Y00010254D01*
X00092991Y00010266D01*
X00092996Y00010279D01*
X00093002Y00010291D01*
X00093009Y00010303D01*
X00093015Y00010315D01*
X00093022Y00010327D01*
X00093029Y00010339D01*
X00093037Y00010351D01*
X00093045Y00010362D01*
X00093053Y00010373D01*
X00093053Y00010374D01*
X00093061Y00010384D01*
X00093070Y00010395D01*
X00093078Y00010405D01*
X00093079Y00010406D01*
X00093088Y00010416D01*
X00093097Y00010426D01*
X00093107Y00010436D01*
X00093117Y00010445D01*
X00093127Y00010455D01*
X00093137Y00010463D01*
X00093137Y00010464D01*
X00093148Y00010473D01*
X00093158Y00010481D01*
X00093169Y00010489D01*
X00093170Y00010490D01*
X00093180Y00010498D01*
X00093192Y00010505D01*
X00093203Y00010513D01*
X00093215Y00010520D01*
X00093227Y00010527D01*
X00093239Y00010534D01*
X00093251Y00010540D01*
X00093264Y00010546D01*
X00093276Y00010552D01*
X00093289Y00010557D01*
X00093302Y00010562D01*
X00093314Y00010567D01*
X00093327Y00010572D01*
X00093341Y00010576D01*
X00093354Y00010580D01*
X00093367Y00010583D01*
X00093381Y00010586D01*
X00093394Y00010589D01*
X00093408Y00010592D01*
X00093421Y00010594D01*
X00093435Y00010596D01*
X00093448Y00010597D01*
X00093462Y00010598D01*
X00093476Y00010599D01*
X00093490Y00010600D01*
X00093503Y00010600D01*
X00093483Y00010600D01*
X00093443Y00010597D01*
X00093404Y00010591D01*
X00093365Y00010583D01*
X00093326Y00010572D01*
X00093289Y00010558D01*
X00093252Y00010541D01*
X00093217Y00010522D01*
X00093183Y00010500D01*
X00093170Y00010490D01*
X00093169Y00010489D01*
X00093169Y00010489D01*
X00093151Y00010476D01*
X00093137Y00010464D01*
X00093137Y00010464D01*
X00093137Y00010463D01*
X00093121Y00010450D01*
X00093093Y00010421D01*
X00093079Y00010406D01*
X00093079Y00010405D01*
X00093078Y00010405D01*
X00093066Y00010391D01*
X00093053Y00010374D01*
X00093053Y00010373D01*
X00093053Y00010373D01*
X00093042Y00010359D01*
X00093021Y00010325D01*
X00093001Y00010290D01*
X00092985Y00010254D01*
X00092971Y00010216D01*
X00092960Y00010178D01*
X00092951Y00010139D01*
X00092945Y00010099D01*
X00092942Y00010059D01*
X00092942Y00010019D01*
X00092945Y00009979D01*
X00092951Y00009939D01*
X00092960Y00009900D01*
X00092971Y00009862D01*
X00092985Y00009824D01*
X00093001Y00009788D01*
X00093021Y00009752D01*
X00093042Y00009719D01*
X00093053Y00009705D01*
X00093053Y00009705D01*
X00093053Y00009704D01*
X00093066Y00009687D01*
X00093078Y00009673D01*
X00093079Y00009672D01*
X00093079Y00009672D01*
X00093093Y00009656D01*
X00093121Y00009628D01*
X00093136Y00009615D01*
X00093137Y00009614D01*
X00093137Y00009614D01*
X00093151Y00009602D01*
X00093169Y00009589D01*
X00093169Y00009588D01*
X00093170Y00009588D01*
X00093183Y00009578D01*
X00093217Y00009556D01*
X00093252Y00009537D01*
X00093289Y00009520D01*
X00093326Y00009506D01*
X00093365Y00009495D01*
X00093404Y00009486D01*
X00093443Y00009481D01*
X00093483Y00009478D01*
X00114940Y00011053D02*
X00114940Y00011053D01*
X00114980Y00011053D01*
X00115020Y00011056D01*
X00115060Y00011061D01*
X00115099Y00011070D01*
X00115137Y00011081D01*
X00115175Y00011095D01*
X00115211Y00011112D01*
X00115247Y00011131D01*
X00115280Y00011153D01*
X00115294Y00011163D01*
X00115294Y00011163D01*
X00115295Y00011163D01*
X00115312Y00011177D01*
X00115326Y00011189D01*
X00115327Y00011189D01*
X00115327Y00011189D01*
X00115343Y00011203D01*
X00115371Y00011231D01*
X00115385Y00011247D01*
X00115385Y00011247D01*
X00115385Y00011247D01*
X00115397Y00011261D01*
X00115410Y00011279D01*
X00115411Y00011279D01*
X00115411Y00011280D01*
X00115421Y00011294D01*
X00115443Y00011327D01*
X00115462Y00011362D01*
X00115479Y00011399D01*
X00115493Y00011436D01*
X00115504Y00011475D01*
X00115513Y00011514D01*
X00115518Y00011554D01*
X00115521Y00011594D01*
X00115521Y00011634D01*
X00115518Y00011674D01*
X00115513Y00011713D01*
X00115504Y00011752D01*
X00115493Y00011791D01*
X00115479Y00011829D01*
X00115462Y00011865D01*
X00115443Y00011900D01*
X00115421Y00011934D01*
X00115411Y00011948D01*
X00115411Y00011948D01*
X00115410Y00011948D01*
X00115397Y00011966D01*
X00115385Y00011980D01*
X00115385Y00011980D01*
X00115385Y00011980D01*
X00115371Y00011996D01*
X00115343Y00012025D01*
X00115327Y00012038D01*
X00115327Y00012038D01*
X00115326Y00012039D01*
X00115312Y00012051D01*
X00115295Y00012064D01*
X00115294Y00012064D01*
X00115294Y00012065D01*
X00115280Y00012075D01*
X00115247Y00012096D01*
X00115211Y00012116D01*
X00115175Y00012132D01*
X00115137Y00012146D01*
X00115099Y00012158D01*
X00115060Y00012166D01*
X00115020Y00012172D01*
X00114980Y00012175D01*
X00114960Y00012175D01*
X00114974Y00012175D01*
X00114988Y00012174D01*
X00115001Y00012173D01*
X00115015Y00012172D01*
X00115029Y00012170D01*
X00115042Y00012169D01*
X00115056Y00012166D01*
X00115070Y00012164D01*
X00115083Y00012161D01*
X00115096Y00012158D01*
X00115110Y00012154D01*
X00115123Y00012151D01*
X00115136Y00012146D01*
X00115149Y00012142D01*
X00115162Y00012137D01*
X00115175Y00012132D01*
X00115187Y00012127D01*
X00115200Y00012121D01*
X00115212Y00012115D01*
X00115225Y00012108D01*
X00115237Y00012102D01*
X00115249Y00012095D01*
X00115260Y00012088D01*
X00115272Y00012080D01*
X00115283Y00012072D01*
X00115294Y00012065D01*
X00115295Y00012064D01*
X00115305Y00012056D01*
X00115316Y00012047D01*
X00115326Y00012039D01*
X00115327Y00012038D01*
X00115337Y00012029D01*
X00115347Y00012020D01*
X00115357Y00012010D01*
X00115366Y00012001D01*
X00115376Y00011990D01*
X00115385Y00011980D01*
X00115385Y00011980D01*
X00115394Y00011970D01*
X00115402Y00011959D01*
X00115410Y00011948D01*
X00115411Y00011948D01*
X00115419Y00011937D01*
X00115427Y00011925D01*
X00115434Y00011914D01*
X00115441Y00011902D01*
X00115448Y00011890D01*
X00115455Y00011878D01*
X00115461Y00011866D01*
X00115467Y00011854D01*
X00115473Y00011841D01*
X00115478Y00011828D01*
X00115484Y00011816D01*
X00115488Y00011803D01*
X00115493Y00011790D01*
X00115497Y00011777D01*
X00115501Y00011763D01*
X00115504Y00011750D01*
X00115508Y00011737D01*
X00115510Y00011723D01*
X00115513Y00011710D01*
X00115515Y00011696D01*
X00115517Y00011682D01*
X00115518Y00011669D01*
X00115520Y00011655D01*
X00115520Y00011641D01*
X00115521Y00011627D01*
X00115521Y00011614D01*
X00115521Y00011600D01*
X00115520Y00011586D01*
X00115520Y00011572D01*
X00115518Y00011559D01*
X00115517Y00011545D01*
X00115515Y00011531D01*
X00115513Y00011518D01*
X00115510Y00011504D01*
X00115508Y00011491D01*
X00115504Y00011477D01*
X00115501Y00011464D01*
X00115497Y00011451D01*
X00115493Y00011438D01*
X00115488Y00011425D01*
X00115484Y00011412D01*
X00115478Y00011399D01*
X00115473Y00011386D01*
X00115467Y00011374D01*
X00115461Y00011361D01*
X00115455Y00011349D01*
X00115448Y00011337D01*
X00115441Y00011325D01*
X00115434Y00011314D01*
X00115427Y00011302D01*
X00115419Y00011291D01*
X00115411Y00011280D01*
X00115410Y00011279D01*
X00115402Y00011269D01*
X00115394Y00011258D01*
X00115385Y00011247D01*
X00115385Y00011247D01*
X00115376Y00011237D01*
X00115366Y00011227D01*
X00115357Y00011217D01*
X00115347Y00011207D01*
X00115337Y00011198D01*
X00115327Y00011189D01*
X00115326Y00011189D01*
X00115316Y00011180D01*
X00115305Y00011171D01*
X00115295Y00011163D01*
X00115294Y00011163D01*
X00115283Y00011155D01*
X00115272Y00011147D01*
X00115260Y00011140D01*
X00115249Y00011132D01*
X00115237Y00011126D01*
X00115225Y00011119D01*
X00115212Y00011113D01*
X00115200Y00011107D01*
X00115187Y00011101D01*
X00115175Y00011095D01*
X00115162Y00011090D01*
X00115149Y00011085D01*
X00115136Y00011081D01*
X00115123Y00011077D01*
X00115110Y00011073D01*
X00115096Y00011069D01*
X00115083Y00011066D01*
X00115070Y00011063D01*
X00115056Y00011061D01*
X00115042Y00011059D01*
X00115029Y00011057D01*
X00115015Y00011055D01*
X00115001Y00011054D01*
X00114988Y00011053D01*
X00114974Y00011053D01*
X00114960Y00011053D01*
X00114946Y00011053D01*
X00114933Y00011053D01*
X00114919Y00011054D01*
X00114905Y00011055D01*
X00114891Y00011057D01*
X00114878Y00011059D01*
X00114864Y00011061D01*
X00114851Y00011063D01*
X00114837Y00011066D01*
X00114824Y00011069D01*
X00114810Y00011073D01*
X00114797Y00011077D01*
X00114784Y00011081D01*
X00114771Y00011085D01*
X00114758Y00011090D01*
X00114745Y00011095D01*
X00114733Y00011101D01*
X00114720Y00011107D01*
X00114708Y00011113D01*
X00114696Y00011119D01*
X00114684Y00011126D01*
X00114672Y00011132D01*
X00114660Y00011140D01*
X00114648Y00011147D01*
X00114637Y00011155D01*
X00114626Y00011163D01*
X00114625Y00011163D01*
X00114615Y00011171D01*
X00114604Y00011180D01*
X00114594Y00011189D01*
X00114593Y00011189D01*
X00114583Y00011198D01*
X00114573Y00011207D01*
X00114563Y00011217D01*
X00114554Y00011227D01*
X00114544Y00011237D01*
X00114536Y00011247D01*
X00114535Y00011247D01*
X00114526Y00011258D01*
X00114518Y00011269D01*
X00114510Y00011279D01*
X00114509Y00011280D01*
X00114501Y00011291D01*
X00114494Y00011302D01*
X00114486Y00011314D01*
X00114479Y00011325D01*
X00114472Y00011337D01*
X00114465Y00011349D01*
X00114459Y00011361D01*
X00114453Y00011374D01*
X00114447Y00011386D01*
X00114442Y00011399D01*
X00114437Y00011412D01*
X00114432Y00011425D01*
X00114427Y00011438D01*
X00114423Y00011451D01*
X00114419Y00011464D01*
X00114416Y00011477D01*
X00114413Y00011491D01*
X00114410Y00011504D01*
X00114407Y00011518D01*
X00114405Y00011531D01*
X00114403Y00011545D01*
X00114402Y00011559D01*
X00114401Y00011572D01*
X00114400Y00011586D01*
X00114399Y00011600D01*
X00114399Y00011614D01*
X00114399Y00011627D01*
X00114400Y00011641D01*
X00114401Y00011655D01*
X00114402Y00011669D01*
X00114403Y00011682D01*
X00114405Y00011696D01*
X00114407Y00011710D01*
X00114410Y00011723D01*
X00114413Y00011737D01*
X00114416Y00011750D01*
X00114419Y00011763D01*
X00114423Y00011777D01*
X00114427Y00011790D01*
X00114432Y00011803D01*
X00114437Y00011816D01*
X00114442Y00011828D01*
X00114447Y00011841D01*
X00114453Y00011854D01*
X00114459Y00011866D01*
X00114465Y00011878D01*
X00114472Y00011890D01*
X00114479Y00011902D01*
X00114486Y00011914D01*
X00114494Y00011925D01*
X00114501Y00011937D01*
X00114509Y00011948D01*
X00114510Y00011948D01*
X00114518Y00011959D01*
X00114526Y00011970D01*
X00114535Y00011980D01*
X00114536Y00011980D01*
X00114544Y00011990D01*
X00114554Y00012001D01*
X00114563Y00012010D01*
X00114573Y00012020D01*
X00114583Y00012029D01*
X00114593Y00012038D01*
X00114594Y00012039D01*
X00114604Y00012047D01*
X00114615Y00012056D01*
X00114625Y00012064D01*
X00114626Y00012065D01*
X00114637Y00012072D01*
X00114648Y00012080D01*
X00114660Y00012088D01*
X00114672Y00012095D01*
X00114684Y00012102D01*
X00114696Y00012108D01*
X00114708Y00012115D01*
X00114720Y00012121D01*
X00114733Y00012127D01*
X00114745Y00012132D01*
X00114758Y00012137D01*
X00114771Y00012142D01*
X00114784Y00012146D01*
X00114797Y00012151D01*
X00114810Y00012154D01*
X00114824Y00012158D01*
X00114837Y00012161D01*
X00114851Y00012164D01*
X00114864Y00012166D01*
X00114878Y00012169D01*
X00114891Y00012170D01*
X00114905Y00012172D01*
X00114919Y00012173D01*
X00114933Y00012174D01*
X00114946Y00012175D01*
X00114960Y00012175D01*
X00114940Y00012175D01*
X00114900Y00012172D01*
X00114860Y00012166D01*
X00114821Y00012158D01*
X00114783Y00012146D01*
X00114745Y00012132D01*
X00114709Y00012116D01*
X00114674Y00012096D01*
X00114640Y00012075D01*
X00114626Y00012065D01*
X00114626Y00012064D01*
X00114625Y00012064D01*
X00114608Y00012051D01*
X00114594Y00012039D01*
X00114594Y00012038D01*
X00114593Y00012038D01*
X00114578Y00012025D01*
X00114549Y00011996D01*
X00114536Y00011980D01*
X00114535Y00011980D01*
X00114535Y00011980D01*
X00114523Y00011966D01*
X00114510Y00011948D01*
X00114510Y00011948D01*
X00114509Y00011948D01*
X00114499Y00011934D01*
X00114477Y00011900D01*
X00114458Y00011865D01*
X00114441Y00011829D01*
X00114427Y00011791D01*
X00114416Y00011752D01*
X00114408Y00011713D01*
X00114402Y00011674D01*
X00114399Y00011634D01*
X00114399Y00011594D01*
X00114402Y00011554D01*
X00114408Y00011514D01*
X00114416Y00011475D01*
X00114427Y00011436D01*
X00114441Y00011399D01*
X00114458Y00011362D01*
X00114477Y00011327D01*
X00114499Y00011294D01*
X00114509Y00011280D01*
X00114510Y00011279D01*
X00114510Y00011279D01*
X00114523Y00011261D01*
X00114535Y00011247D01*
X00114535Y00011247D01*
X00114536Y00011247D01*
X00114549Y00011231D01*
X00114578Y00011203D01*
X00114593Y00011189D01*
X00114594Y00011189D01*
X00114594Y00011189D01*
X00114608Y00011177D01*
X00114625Y00011163D01*
X00114626Y00011163D01*
X00114626Y00011163D01*
X00114640Y00011153D01*
X00114674Y00011131D01*
X00114709Y00011112D01*
X00114745Y00011095D01*
X00114783Y00011081D01*
X00114821Y00011070D01*
X00114860Y00011061D01*
X00114900Y00011056D01*
X00114940Y00011053D01*
X00104313Y00015354D02*
X00104313Y00015354D01*
X00104347Y00015354D01*
X00104382Y00015357D01*
X00104397Y00015359D01*
X00104398Y00015360D01*
X00104399Y00015360D01*
X00104415Y00015363D01*
X00104434Y00015368D01*
X00104435Y00015368D01*
X00104435Y00015368D01*
X00104449Y00015372D01*
X00104481Y00015383D01*
X00104512Y00015398D01*
X00104542Y00015415D01*
X00104556Y00015425D01*
X00104557Y00015426D01*
X00104557Y00015426D01*
X00104570Y00015435D01*
X00104596Y00015457D01*
X00104621Y00015481D01*
X00104643Y00015508D01*
X00104652Y00015520D01*
X00104652Y00015521D01*
X00104653Y00015522D01*
X00104663Y00015536D01*
X00104680Y00015566D01*
X00104694Y00015597D01*
X00104706Y00015629D01*
X00104710Y00015642D01*
X00104710Y00015643D01*
X00104710Y00015644D01*
X00104715Y00015662D01*
X00104718Y00015679D01*
X00104718Y00015680D01*
X00104718Y00015681D01*
X00104721Y00015696D01*
X00104724Y00015730D01*
X00104724Y00015765D01*
X00104721Y00015799D01*
X00104718Y00015814D01*
X00104718Y00015815D01*
X00104718Y00015816D01*
X00104715Y00015833D01*
X00104710Y00015852D01*
X00104710Y00015853D01*
X00104710Y00015853D01*
X00104706Y00015866D01*
X00104694Y00015898D01*
X00104680Y00015930D01*
X00104663Y00015959D01*
X00104653Y00015973D01*
X00104652Y00015974D01*
X00104652Y00015975D01*
X00104643Y00015987D01*
X00104621Y00016014D01*
X00104596Y00016038D01*
X00104570Y00016060D01*
X00104557Y00016069D01*
X00104557Y00016069D01*
X00104556Y00016070D01*
X00104542Y00016080D01*
X00104512Y00016097D01*
X00104481Y00016112D01*
X00104449Y00016123D01*
X00104435Y00016127D01*
X00104435Y00016127D01*
X00104434Y00016127D01*
X00104415Y00016132D01*
X00104399Y00016135D01*
X00104398Y00016135D01*
X00104397Y00016136D01*
X00104382Y00016138D01*
X00104347Y00016141D01*
X00104330Y00016141D01*
X00104340Y00016141D01*
X00104350Y00016141D01*
X00104359Y00016140D01*
X00104369Y00016139D01*
X00104378Y00016138D01*
X00104388Y00016137D01*
X00104397Y00016136D01*
X00104399Y00016135D01*
X00104407Y00016134D01*
X00104416Y00016132D01*
X00104426Y00016129D01*
X00104434Y00016127D01*
X00104435Y00016127D01*
X00104444Y00016124D01*
X00104454Y00016121D01*
X00104463Y00016118D01*
X00104472Y00016115D01*
X00104481Y00016111D01*
X00104490Y00016107D01*
X00104499Y00016103D01*
X00104507Y00016099D01*
X00104516Y00016095D01*
X00104524Y00016090D01*
X00104533Y00016085D01*
X00104541Y00016080D01*
X00104549Y00016075D01*
X00104556Y00016070D01*
X00104557Y00016069D01*
X00104565Y00016064D01*
X00104572Y00016058D01*
X00104580Y00016052D01*
X00104587Y00016046D01*
X00104595Y00016039D01*
X00104602Y00016033D01*
X00104609Y00016026D01*
X00104615Y00016019D01*
X00104622Y00016012D01*
X00104628Y00016005D01*
X00104635Y00015997D01*
X00104641Y00015990D01*
X00104646Y00015982D01*
X00104652Y00015975D01*
X00104653Y00015973D01*
X00104658Y00015966D01*
X00104663Y00015958D01*
X00104668Y00015950D01*
X00104673Y00015942D01*
X00104677Y00015933D01*
X00104682Y00015925D01*
X00104686Y00015916D01*
X00104690Y00015907D01*
X00104694Y00015898D01*
X00104698Y00015889D01*
X00104701Y00015880D01*
X00104704Y00015871D01*
X00104707Y00015862D01*
X00104710Y00015853D01*
X00104710Y00015852D01*
X00104712Y00015843D01*
X00104714Y00015834D01*
X00104716Y00015824D01*
X00104718Y00015816D01*
X00104718Y00015814D01*
X00104720Y00015805D01*
X00104721Y00015796D01*
X00104722Y00015786D01*
X00104723Y00015777D01*
X00104723Y00015767D01*
X00104724Y00015757D01*
X00104724Y00015748D01*
X00104724Y00015738D01*
X00104723Y00015728D01*
X00104723Y00015719D01*
X00104722Y00015709D01*
X00104721Y00015699D01*
X00104720Y00015690D01*
X00104718Y00015681D01*
X00104718Y00015679D01*
X00104716Y00015671D01*
X00104714Y00015661D01*
X00104712Y00015652D01*
X00104710Y00015644D01*
X00104710Y00015642D01*
X00104707Y00015633D01*
X00104704Y00015624D01*
X00104701Y00015615D01*
X00104698Y00015606D01*
X00104694Y00015597D01*
X00104690Y00015588D01*
X00104686Y00015579D01*
X00104682Y00015571D01*
X00104677Y00015562D01*
X00104673Y00015553D01*
X00104668Y00015545D01*
X00104663Y00015537D01*
X00104658Y00015529D01*
X00104653Y00015522D01*
X00104652Y00015520D01*
X00104646Y00015513D01*
X00104641Y00015505D01*
X00104635Y00015498D01*
X00104628Y00015490D01*
X00104622Y00015483D01*
X00104615Y00015476D01*
X00104609Y00015469D01*
X00104602Y00015462D01*
X00104595Y00015456D01*
X00104587Y00015449D01*
X00104580Y00015443D01*
X00104572Y00015437D01*
X00104565Y00015431D01*
X00104557Y00015426D01*
X00104556Y00015425D01*
X00104549Y00015420D01*
X00104541Y00015415D01*
X00104533Y00015410D01*
X00104524Y00015405D01*
X00104516Y00015400D01*
X00104507Y00015396D01*
X00104499Y00015392D01*
X00104490Y00015388D01*
X00104481Y00015384D01*
X00104472Y00015380D01*
X00104463Y00015377D01*
X00104454Y00015374D01*
X00104444Y00015371D01*
X00104435Y00015368D01*
X00104434Y00015368D01*
X00104426Y00015366D01*
X00104416Y00015363D01*
X00104407Y00015361D01*
X00104399Y00015360D01*
X00104397Y00015359D01*
X00104388Y00015358D01*
X00104378Y00015357D01*
X00104369Y00015356D01*
X00104359Y00015355D01*
X00104350Y00015354D01*
X00104340Y00015354D01*
X00104330Y00015354D01*
X00104321Y00015354D01*
X00104311Y00015354D01*
X00104301Y00015355D01*
X00104292Y00015356D01*
X00104282Y00015357D01*
X00104272Y00015358D01*
X00104264Y00015359D01*
X00104261Y00015360D01*
X00104253Y00015361D01*
X00104244Y00015363D01*
X00104235Y00015366D01*
X00104226Y00015368D01*
X00104225Y00015368D01*
X00104216Y00015371D01*
X00104207Y00015374D01*
X00104198Y00015377D01*
X00104189Y00015380D01*
X00104180Y00015384D01*
X00104171Y00015388D01*
X00104162Y00015392D01*
X00104153Y00015396D01*
X00104145Y00015400D01*
X00104136Y00015405D01*
X00104128Y00015410D01*
X00104120Y00015415D01*
X00104111Y00015420D01*
X00104104Y00015425D01*
X00104103Y00015426D01*
X00104096Y00015431D01*
X00104088Y00015437D01*
X00104080Y00015443D01*
X00104073Y00015449D01*
X00104066Y00015456D01*
X00104059Y00015462D01*
X00104052Y00015469D01*
X00104045Y00015476D01*
X00104038Y00015483D01*
X00104032Y00015490D01*
X00104026Y00015498D01*
X00104020Y00015505D01*
X00104014Y00015513D01*
X00104009Y00015520D01*
X00104008Y00015522D01*
X00104003Y00015529D01*
X00103998Y00015537D01*
X00103993Y00015545D01*
X00103988Y00015553D01*
X00103983Y00015562D01*
X00103979Y00015571D01*
X00103974Y00015579D01*
X00103970Y00015588D01*
X00103966Y00015597D01*
X00103963Y00015606D01*
X00103960Y00015615D01*
X00103956Y00015624D01*
X00103953Y00015633D01*
X00103951Y00015642D01*
X00103951Y00015643D01*
X00103948Y00015652D01*
X00103946Y00015661D01*
X00103944Y00015671D01*
X00103943Y00015679D01*
X00103942Y00015681D01*
X00103941Y00015690D01*
X00103939Y00015699D01*
X00103938Y00015709D01*
X00103938Y00015719D01*
X00103937Y00015728D01*
X00103937Y00015738D01*
X00103937Y00015748D01*
X00103937Y00015757D01*
X00103937Y00015767D01*
X00103938Y00015777D01*
X00103938Y00015786D01*
X00103939Y00015796D01*
X00103941Y00015805D01*
X00103942Y00015814D01*
X00103942Y00015816D01*
X00103944Y00015824D01*
X00103946Y00015834D01*
X00103948Y00015843D01*
X00103951Y00015852D01*
X00103951Y00015853D01*
X00103953Y00015862D01*
X00103956Y00015871D01*
X00103960Y00015880D01*
X00103963Y00015889D01*
X00103966Y00015898D01*
X00103970Y00015907D01*
X00103974Y00015916D01*
X00103979Y00015925D01*
X00103983Y00015933D01*
X00103988Y00015942D01*
X00103993Y00015950D01*
X00103998Y00015958D01*
X00104003Y00015966D01*
X00104008Y00015973D01*
X00104009Y00015975D01*
X00104014Y00015982D01*
X00104020Y00015990D01*
X00104026Y00015997D01*
X00104032Y00016005D01*
X00104038Y00016012D01*
X00104045Y00016019D01*
X00104052Y00016026D01*
X00104059Y00016033D01*
X00104066Y00016039D01*
X00104073Y00016046D01*
X00104080Y00016052D01*
X00104088Y00016058D01*
X00104096Y00016064D01*
X00104103Y00016069D01*
X00104104Y00016070D01*
X00104111Y00016075D01*
X00104120Y00016080D01*
X00104128Y00016085D01*
X00104136Y00016090D01*
X00104145Y00016095D01*
X00104153Y00016099D01*
X00104162Y00016103D01*
X00104171Y00016107D01*
X00104180Y00016111D01*
X00104189Y00016115D01*
X00104198Y00016118D01*
X00104207Y00016121D01*
X00104216Y00016124D01*
X00104225Y00016127D01*
X00104226Y00016127D01*
X00104235Y00016129D01*
X00104244Y00016132D01*
X00104253Y00016134D01*
X00104261Y00016135D01*
X00104264Y00016136D01*
X00104272Y00016137D01*
X00104282Y00016138D01*
X00104292Y00016139D01*
X00104301Y00016140D01*
X00104311Y00016141D01*
X00104321Y00016141D01*
X00104330Y00016141D01*
X00104313Y00016141D01*
X00104279Y00016138D01*
X00104264Y00016136D01*
X00104263Y00016135D01*
X00104261Y00016135D01*
X00104245Y00016132D01*
X00104226Y00016127D01*
X00104225Y00016127D01*
X00104225Y00016127D01*
X00104212Y00016123D01*
X00104179Y00016112D01*
X00104148Y00016097D01*
X00104118Y00016080D01*
X00104104Y00016070D01*
X00104104Y00016069D01*
X00104103Y00016069D01*
X00104090Y00016060D01*
X00104064Y00016038D01*
X00104040Y00016014D01*
X00104018Y00015987D01*
X00104009Y00015975D01*
X00104008Y00015974D01*
X00104008Y00015973D01*
X00103998Y00015959D01*
X00103981Y00015930D01*
X00103966Y00015898D01*
X00103954Y00015866D01*
X00103951Y00015853D01*
X00103951Y00015853D01*
X00103951Y00015852D01*
X00103945Y00015833D01*
X00103942Y00015816D01*
X00103942Y00015815D01*
X00103942Y00015814D01*
X00103939Y00015799D01*
X00103937Y00015765D01*
X00103937Y00015730D01*
X00103939Y00015696D01*
X00103942Y00015681D01*
X00103942Y00015680D01*
X00103943Y00015679D01*
X00103945Y00015662D01*
X00103951Y00015643D01*
X00103951Y00015643D01*
X00103951Y00015642D01*
X00103954Y00015629D01*
X00103966Y00015597D01*
X00103981Y00015566D01*
X00103998Y00015536D01*
X00104008Y00015522D01*
X00104008Y00015521D01*
X00104009Y00015520D01*
X00104018Y00015508D01*
X00104040Y00015481D01*
X00104064Y00015457D01*
X00104090Y00015435D01*
X00104103Y00015426D01*
X00104104Y00015426D01*
X00104104Y00015425D01*
X00104118Y00015415D01*
X00104148Y00015398D01*
X00104179Y00015383D01*
X00104212Y00015372D01*
X00104225Y00015368D01*
X00104225Y00015368D01*
X00104226Y00015368D01*
X00104245Y00015363D01*
X00104261Y00015360D01*
X00104263Y00015360D01*
X00104264Y00015359D01*
X00104279Y00015357D01*
X00104313Y00015354D01*
X00099392Y00015354D02*
X00099392Y00015354D01*
X00099426Y00015354D01*
X00099460Y00015357D01*
X00099476Y00015360D01*
X00099476Y00015360D01*
X00099478Y00015360D01*
X00099494Y00015363D01*
X00099513Y00015368D01*
X00099514Y00015368D01*
X00099514Y00015368D01*
X00099527Y00015372D01*
X00099560Y00015383D01*
X00099591Y00015398D01*
X00099621Y00015415D01*
X00099635Y00015425D01*
X00099636Y00015426D01*
X00099636Y00015426D01*
X00099649Y00015435D01*
X00099675Y00015457D01*
X00099700Y00015481D01*
X00099722Y00015508D01*
X00099731Y00015520D01*
X00099731Y00015521D01*
X00099731Y00015522D01*
X00099741Y00015536D01*
X00099759Y00015566D01*
X00099773Y00015597D01*
X00099785Y00015629D01*
X00099788Y00015642D01*
X00099788Y00015643D01*
X00099789Y00015644D01*
X00099794Y00015662D01*
X00099797Y00015679D01*
X00099797Y00015680D01*
X00099797Y00015681D01*
X00099800Y00015696D01*
X00099803Y00015730D01*
X00099803Y00015765D01*
X00099800Y00015799D01*
X00099797Y00015814D01*
X00099797Y00015815D01*
X00099797Y00015816D01*
X00099794Y00015833D01*
X00099789Y00015852D01*
X00099788Y00015853D01*
X00099788Y00015853D01*
X00099785Y00015866D01*
X00099773Y00015898D01*
X00099759Y00015930D01*
X00099741Y00015959D01*
X00099731Y00015973D01*
X00099731Y00015974D01*
X00099731Y00015975D01*
X00099722Y00015987D01*
X00099700Y00016014D01*
X00099675Y00016038D01*
X00099649Y00016060D01*
X00099636Y00016069D01*
X00099636Y00016069D01*
X00099635Y00016070D01*
X00099621Y00016080D01*
X00099591Y00016097D01*
X00099560Y00016112D01*
X00099527Y00016123D01*
X00099514Y00016127D01*
X00099514Y00016127D01*
X00099513Y00016127D01*
X00099494Y00016132D01*
X00099478Y00016135D01*
X00099476Y00016135D01*
X00099476Y00016136D01*
X00099460Y00016138D01*
X00099426Y00016141D01*
X00099409Y00016141D01*
X00099419Y00016141D01*
X00099428Y00016141D01*
X00099438Y00016140D01*
X00099448Y00016139D01*
X00099457Y00016138D01*
X00099467Y00016137D01*
X00099476Y00016136D01*
X00099478Y00016135D01*
X00099486Y00016134D01*
X00099495Y00016132D01*
X00099505Y00016129D01*
X00099513Y00016127D01*
X00099514Y00016127D01*
X00099523Y00016124D01*
X00099532Y00016121D01*
X00099542Y00016118D01*
X00099551Y00016115D01*
X00099560Y00016111D01*
X00099568Y00016107D01*
X00099577Y00016103D01*
X00099586Y00016099D01*
X00099595Y00016095D01*
X00099603Y00016090D01*
X00099611Y00016085D01*
X00099620Y00016080D01*
X00099628Y00016075D01*
X00099635Y00016070D01*
X00099636Y00016069D01*
X00099643Y00016064D01*
X00099651Y00016058D01*
X00099659Y00016052D01*
X00099666Y00016046D01*
X00099673Y00016039D01*
X00099680Y00016033D01*
X00099687Y00016026D01*
X00099694Y00016019D01*
X00099701Y00016012D01*
X00099707Y00016005D01*
X00099713Y00015997D01*
X00099719Y00015990D01*
X00099725Y00015982D01*
X00099731Y00015975D01*
X00099731Y00015973D01*
X00099736Y00015966D01*
X00099742Y00015958D01*
X00099747Y00015950D01*
X00099752Y00015942D01*
X00099756Y00015933D01*
X00099761Y00015925D01*
X00099765Y00015916D01*
X00099769Y00015907D01*
X00099773Y00015898D01*
X00099776Y00015889D01*
X00099780Y00015880D01*
X00099783Y00015871D01*
X00099786Y00015862D01*
X00099788Y00015853D01*
X00099789Y00015852D01*
X00099791Y00015843D01*
X00099793Y00015834D01*
X00099795Y00015824D01*
X00099797Y00015816D01*
X00099797Y00015814D01*
X00099798Y00015805D01*
X00099800Y00015796D01*
X00099801Y00015786D01*
X00099802Y00015777D01*
X00099802Y00015767D01*
X00099803Y00015757D01*
X00099803Y00015748D01*
X00099803Y00015738D01*
X00099802Y00015728D01*
X00099802Y00015719D01*
X00099801Y00015709D01*
X00099800Y00015699D01*
X00099798Y00015690D01*
X00099797Y00015681D01*
X00099797Y00015679D01*
X00099795Y00015671D01*
X00099793Y00015661D01*
X00099791Y00015652D01*
X00099789Y00015644D01*
X00099788Y00015642D01*
X00099786Y00015633D01*
X00099783Y00015624D01*
X00099780Y00015615D01*
X00099776Y00015606D01*
X00099773Y00015597D01*
X00099769Y00015588D01*
X00099765Y00015579D01*
X00099761Y00015571D01*
X00099756Y00015562D01*
X00099752Y00015553D01*
X00099747Y00015545D01*
X00099742Y00015537D01*
X00099736Y00015529D01*
X00099731Y00015522D01*
X00099731Y00015520D01*
X00099725Y00015513D01*
X00099719Y00015505D01*
X00099713Y00015498D01*
X00099707Y00015490D01*
X00099701Y00015483D01*
X00099694Y00015476D01*
X00099687Y00015469D01*
X00099680Y00015462D01*
X00099673Y00015456D01*
X00099666Y00015449D01*
X00099659Y00015443D01*
X00099651Y00015437D01*
X00099643Y00015431D01*
X00099636Y00015426D01*
X00099635Y00015425D01*
X00099628Y00015420D01*
X00099620Y00015415D01*
X00099611Y00015410D01*
X00099603Y00015405D01*
X00099595Y00015400D01*
X00099586Y00015396D01*
X00099577Y00015392D01*
X00099568Y00015388D01*
X00099560Y00015384D01*
X00099551Y00015380D01*
X00099542Y00015377D01*
X00099532Y00015374D01*
X00099523Y00015371D01*
X00099514Y00015368D01*
X00099513Y00015368D01*
X00099505Y00015366D01*
X00099495Y00015363D01*
X00099486Y00015361D01*
X00099478Y00015360D01*
X00099476Y00015360D01*
X00099467Y00015358D01*
X00099457Y00015357D01*
X00099448Y00015356D01*
X00099438Y00015355D01*
X00099428Y00015354D01*
X00099419Y00015354D01*
X00099409Y00015354D01*
X00099399Y00015354D01*
X00099390Y00015354D01*
X00099380Y00015355D01*
X00099370Y00015356D01*
X00099361Y00015357D01*
X00099351Y00015358D01*
X00099343Y00015359D01*
X00099340Y00015360D01*
X00099332Y00015361D01*
X00099323Y00015363D01*
X00099313Y00015366D01*
X00099305Y00015368D01*
X00099304Y00015368D01*
X00099295Y00015371D01*
X00099285Y00015374D01*
X00099276Y00015377D01*
X00099267Y00015380D01*
X00099258Y00015384D01*
X00099249Y00015388D01*
X00099241Y00015392D01*
X00099232Y00015396D01*
X00099223Y00015400D01*
X00099215Y00015405D01*
X00099207Y00015410D01*
X00099198Y00015415D01*
X00099190Y00015420D01*
X00099183Y00015425D01*
X00099182Y00015426D01*
X00099174Y00015431D01*
X00099167Y00015437D01*
X00099159Y00015443D01*
X00099152Y00015449D01*
X00099145Y00015456D01*
X00099137Y00015462D01*
X00099131Y00015469D01*
X00099124Y00015476D01*
X00099117Y00015483D01*
X00099111Y00015490D01*
X00099105Y00015498D01*
X00099099Y00015505D01*
X00099093Y00015513D01*
X00099087Y00015520D01*
X00099086Y00015522D01*
X00099082Y00015529D01*
X00099076Y00015537D01*
X00099071Y00015545D01*
X00099066Y00015553D01*
X00099062Y00015562D01*
X00099057Y00015571D01*
X00099053Y00015579D01*
X00099049Y00015588D01*
X00099045Y00015597D01*
X00099042Y00015606D01*
X00099038Y00015615D01*
X00099035Y00015624D01*
X00099032Y00015633D01*
X00099030Y00015642D01*
X00099029Y00015644D01*
X00099027Y00015652D01*
X00099025Y00015661D01*
X00099023Y00015671D01*
X00099021Y00015679D01*
X00099021Y00015681D01*
X00099019Y00015690D01*
X00099018Y00015699D01*
X00099017Y00015709D01*
X00099016Y00015719D01*
X00099016Y00015728D01*
X00099015Y00015738D01*
X00099015Y00015748D01*
X00099015Y00015757D01*
X00099016Y00015767D01*
X00099016Y00015777D01*
X00099017Y00015786D01*
X00099018Y00015796D01*
X00099019Y00015805D01*
X00099021Y00015814D01*
X00099021Y00015816D01*
X00099023Y00015824D01*
X00099025Y00015834D01*
X00099027Y00015843D01*
X00099029Y00015852D01*
X00099030Y00015853D01*
X00099032Y00015862D01*
X00099035Y00015871D01*
X00099038Y00015880D01*
X00099042Y00015889D01*
X00099045Y00015898D01*
X00099049Y00015907D01*
X00099053Y00015916D01*
X00099057Y00015925D01*
X00099062Y00015933D01*
X00099066Y00015942D01*
X00099071Y00015950D01*
X00099076Y00015958D01*
X00099082Y00015966D01*
X00099086Y00015973D01*
X00099087Y00015975D01*
X00099093Y00015982D01*
X00099099Y00015990D01*
X00099105Y00015997D01*
X00099111Y00016005D01*
X00099117Y00016012D01*
X00099124Y00016019D01*
X00099131Y00016026D01*
X00099137Y00016033D01*
X00099145Y00016039D01*
X00099152Y00016046D01*
X00099159Y00016052D01*
X00099167Y00016058D01*
X00099174Y00016064D01*
X00099182Y00016069D01*
X00099183Y00016070D01*
X00099190Y00016075D01*
X00099198Y00016080D01*
X00099207Y00016085D01*
X00099215Y00016090D01*
X00099223Y00016095D01*
X00099232Y00016099D01*
X00099241Y00016103D01*
X00099249Y00016107D01*
X00099258Y00016111D01*
X00099267Y00016115D01*
X00099276Y00016118D01*
X00099285Y00016121D01*
X00099295Y00016124D01*
X00099304Y00016127D01*
X00099305Y00016127D01*
X00099313Y00016129D01*
X00099323Y00016132D01*
X00099332Y00016134D01*
X00099340Y00016135D01*
X00099343Y00016136D01*
X00099351Y00016137D01*
X00099361Y00016138D01*
X00099370Y00016139D01*
X00099380Y00016140D01*
X00099390Y00016141D01*
X00099399Y00016141D01*
X00099409Y00016141D01*
X00099392Y00016141D01*
X00099358Y00016138D01*
X00099343Y00016136D01*
X00099342Y00016135D01*
X00099340Y00016135D01*
X00099324Y00016132D01*
X00099305Y00016127D01*
X00099304Y00016127D01*
X00099304Y00016127D01*
X00099290Y00016123D01*
X00099258Y00016112D01*
X00099227Y00016097D01*
X00099197Y00016080D01*
X00099183Y00016070D01*
X00099182Y00016069D01*
X00099182Y00016069D01*
X00099169Y00016060D01*
X00099143Y00016038D01*
X00099118Y00016014D01*
X00099096Y00015987D01*
X00099087Y00015975D01*
X00099087Y00015974D01*
X00099086Y00015973D01*
X00099077Y00015959D01*
X00099059Y00015930D01*
X00099045Y00015898D01*
X00099033Y00015866D01*
X00099030Y00015853D01*
X00099029Y00015853D01*
X00099029Y00015852D01*
X00099024Y00015833D01*
X00099021Y00015816D01*
X00099021Y00015815D01*
X00099021Y00015814D01*
X00099018Y00015799D01*
X00099015Y00015765D01*
X00099015Y00015730D01*
X00099018Y00015696D01*
X00099021Y00015681D01*
X00099021Y00015680D01*
X00099021Y00015679D01*
X00099024Y00015662D01*
X00099029Y00015644D01*
X00099029Y00015643D01*
X00099030Y00015642D01*
X00099033Y00015629D01*
X00099045Y00015597D01*
X00099059Y00015566D01*
X00099077Y00015536D01*
X00099086Y00015522D01*
X00099087Y00015521D01*
X00099087Y00015520D01*
X00099096Y00015508D01*
X00099118Y00015481D01*
X00099143Y00015457D01*
X00099169Y00015435D01*
X00099182Y00015426D01*
X00099182Y00015426D01*
X00099183Y00015425D01*
X00099197Y00015415D01*
X00099227Y00015398D01*
X00099258Y00015383D01*
X00099290Y00015372D01*
X00099304Y00015368D01*
X00099304Y00015368D01*
X00099305Y00015368D01*
X00099324Y00015363D01*
X00099340Y00015360D01*
X00099342Y00015360D01*
X00099343Y00015359D01*
X00099358Y00015357D01*
X00099392Y00015354D01*
X00114940Y00019320D02*
X00114940Y00019320D01*
X00114980Y00019320D01*
X00115020Y00019323D01*
X00115060Y00019329D01*
X00115099Y00019337D01*
X00115137Y00019349D01*
X00115175Y00019363D01*
X00115211Y00019379D01*
X00115247Y00019399D01*
X00115280Y00019420D01*
X00115294Y00019431D01*
X00115294Y00019431D01*
X00115295Y00019431D01*
X00115312Y00019444D01*
X00115326Y00019456D01*
X00115327Y00019457D01*
X00115327Y00019457D01*
X00115343Y00019471D01*
X00115371Y00019499D01*
X00115385Y00019515D01*
X00115385Y00019515D01*
X00115385Y00019515D01*
X00115397Y00019529D01*
X00115410Y00019547D01*
X00115411Y00019547D01*
X00115411Y00019547D01*
X00115421Y00019561D01*
X00115443Y00019595D01*
X00115462Y00019630D01*
X00115479Y00019667D01*
X00115493Y00019704D01*
X00115504Y00019743D01*
X00115513Y00019782D01*
X00115518Y00019821D01*
X00115521Y00019861D01*
X00115521Y00019901D01*
X00115518Y00019941D01*
X00115513Y00019981D01*
X00115504Y00020020D01*
X00115493Y00020059D01*
X00115479Y00020096D01*
X00115462Y00020133D01*
X00115443Y00020168D01*
X00115421Y00020202D01*
X00115411Y00020215D01*
X00115411Y00020216D01*
X00115410Y00020216D01*
X00115397Y00020234D01*
X00115385Y00020248D01*
X00115385Y00020248D01*
X00115385Y00020248D01*
X00115371Y00020264D01*
X00115343Y00020292D01*
X00115327Y00020306D01*
X00115327Y00020306D01*
X00115326Y00020306D01*
X00115312Y00020319D01*
X00115295Y00020332D01*
X00115294Y00020332D01*
X00115294Y00020332D01*
X00115280Y00020343D01*
X00115247Y00020364D01*
X00115211Y00020383D01*
X00115175Y00020400D01*
X00115137Y00020414D01*
X00115099Y00020425D01*
X00115060Y00020434D01*
X00115020Y00020440D01*
X00114980Y00020442D01*
X00114960Y00020442D01*
X00114974Y00020442D01*
X00114988Y00020442D01*
X00115001Y00020441D01*
X00115015Y00020440D01*
X00115029Y00020438D01*
X00115042Y00020436D01*
X00115056Y00020434D01*
X00115070Y00020432D01*
X00115083Y00020429D01*
X00115096Y00020426D01*
X00115110Y00020422D01*
X00115123Y00020418D01*
X00115136Y00020414D01*
X00115149Y00020410D01*
X00115162Y00020405D01*
X00115175Y00020400D01*
X00115187Y00020394D01*
X00115200Y00020389D01*
X00115212Y00020382D01*
X00115225Y00020376D01*
X00115237Y00020370D01*
X00115249Y00020363D01*
X00115260Y00020355D01*
X00115272Y00020348D01*
X00115283Y00020340D01*
X00115294Y00020332D01*
X00115295Y00020332D01*
X00115305Y00020324D01*
X00115316Y00020315D01*
X00115326Y00020306D01*
X00115327Y00020306D01*
X00115337Y00020297D01*
X00115347Y00020288D01*
X00115357Y00020278D01*
X00115366Y00020268D01*
X00115376Y00020258D01*
X00115385Y00020248D01*
X00115385Y00020248D01*
X00115394Y00020237D01*
X00115402Y00020227D01*
X00115410Y00020216D01*
X00115411Y00020215D01*
X00115419Y00020204D01*
X00115427Y00020193D01*
X00115434Y00020182D01*
X00115441Y00020170D01*
X00115448Y00020158D01*
X00115455Y00020146D01*
X00115461Y00020134D01*
X00115467Y00020121D01*
X00115473Y00020109D01*
X00115478Y00020096D01*
X00115484Y00020083D01*
X00115488Y00020070D01*
X00115493Y00020057D01*
X00115497Y00020044D01*
X00115501Y00020031D01*
X00115504Y00020018D01*
X00115508Y00020004D01*
X00115510Y00019991D01*
X00115513Y00019977D01*
X00115515Y00019964D01*
X00115517Y00019950D01*
X00115518Y00019936D01*
X00115520Y00019923D01*
X00115520Y00019909D01*
X00115521Y00019895D01*
X00115521Y00019881D01*
X00115521Y00019868D01*
X00115520Y00019854D01*
X00115520Y00019840D01*
X00115518Y00019826D01*
X00115517Y00019813D01*
X00115515Y00019799D01*
X00115513Y00019785D01*
X00115510Y00019772D01*
X00115508Y00019758D01*
X00115504Y00019745D01*
X00115501Y00019732D01*
X00115497Y00019719D01*
X00115493Y00019705D01*
X00115488Y00019692D01*
X00115484Y00019679D01*
X00115478Y00019667D01*
X00115473Y00019654D01*
X00115467Y00019642D01*
X00115461Y00019629D01*
X00115455Y00019617D01*
X00115448Y00019605D01*
X00115441Y00019593D01*
X00115434Y00019581D01*
X00115427Y00019570D01*
X00115419Y00019558D01*
X00115411Y00019547D01*
X00115410Y00019547D01*
X00115402Y00019536D01*
X00115394Y00019525D01*
X00115385Y00019515D01*
X00115385Y00019515D01*
X00115376Y00019505D01*
X00115366Y00019495D01*
X00115357Y00019485D01*
X00115347Y00019475D01*
X00115337Y00019466D01*
X00115327Y00019457D01*
X00115326Y00019456D01*
X00115316Y00019448D01*
X00115305Y00019439D01*
X00115295Y00019431D01*
X00115294Y00019431D01*
X00115283Y00019423D01*
X00115272Y00019415D01*
X00115260Y00019407D01*
X00115249Y00019400D01*
X00115237Y00019393D01*
X00115225Y00019387D01*
X00115212Y00019380D01*
X00115200Y00019374D01*
X00115187Y00019369D01*
X00115175Y00019363D01*
X00115162Y00019358D01*
X00115149Y00019353D01*
X00115136Y00019349D01*
X00115123Y00019345D01*
X00115110Y00019341D01*
X00115096Y00019337D01*
X00115083Y00019334D01*
X00115070Y00019331D01*
X00115056Y00019329D01*
X00115042Y00019326D01*
X00115029Y00019325D01*
X00115015Y00019323D01*
X00115001Y00019322D01*
X00114988Y00019321D01*
X00114974Y00019321D01*
X00114960Y00019320D01*
X00114946Y00019321D01*
X00114933Y00019321D01*
X00114919Y00019322D01*
X00114905Y00019323D01*
X00114891Y00019325D01*
X00114878Y00019326D01*
X00114864Y00019329D01*
X00114851Y00019331D01*
X00114837Y00019334D01*
X00114824Y00019337D01*
X00114810Y00019341D01*
X00114797Y00019345D01*
X00114784Y00019349D01*
X00114771Y00019353D01*
X00114758Y00019358D01*
X00114745Y00019363D01*
X00114733Y00019369D01*
X00114720Y00019374D01*
X00114708Y00019380D01*
X00114696Y00019387D01*
X00114684Y00019393D01*
X00114672Y00019400D01*
X00114660Y00019407D01*
X00114648Y00019415D01*
X00114637Y00019423D01*
X00114626Y00019431D01*
X00114625Y00019431D01*
X00114615Y00019439D01*
X00114604Y00019448D01*
X00114594Y00019456D01*
X00114593Y00019457D01*
X00114583Y00019466D01*
X00114573Y00019475D01*
X00114563Y00019485D01*
X00114554Y00019495D01*
X00114544Y00019505D01*
X00114536Y00019515D01*
X00114535Y00019515D01*
X00114526Y00019525D01*
X00114518Y00019536D01*
X00114510Y00019547D01*
X00114509Y00019547D01*
X00114501Y00019558D01*
X00114494Y00019570D01*
X00114486Y00019581D01*
X00114479Y00019593D01*
X00114472Y00019605D01*
X00114465Y00019617D01*
X00114459Y00019629D01*
X00114453Y00019642D01*
X00114447Y00019654D01*
X00114442Y00019667D01*
X00114437Y00019679D01*
X00114432Y00019692D01*
X00114427Y00019705D01*
X00114423Y00019719D01*
X00114419Y00019732D01*
X00114416Y00019745D01*
X00114413Y00019758D01*
X00114410Y00019772D01*
X00114407Y00019785D01*
X00114405Y00019799D01*
X00114403Y00019813D01*
X00114402Y00019826D01*
X00114401Y00019840D01*
X00114400Y00019854D01*
X00114399Y00019868D01*
X00114399Y00019881D01*
X00114399Y00019895D01*
X00114400Y00019909D01*
X00114401Y00019923D01*
X00114402Y00019936D01*
X00114403Y00019950D01*
X00114405Y00019964D01*
X00114407Y00019977D01*
X00114410Y00019991D01*
X00114413Y00020004D01*
X00114416Y00020018D01*
X00114419Y00020031D01*
X00114423Y00020044D01*
X00114427Y00020057D01*
X00114432Y00020070D01*
X00114437Y00020083D01*
X00114442Y00020096D01*
X00114447Y00020109D01*
X00114453Y00020121D01*
X00114459Y00020134D01*
X00114465Y00020146D01*
X00114472Y00020158D01*
X00114479Y00020170D01*
X00114486Y00020182D01*
X00114494Y00020193D01*
X00114501Y00020204D01*
X00114509Y00020215D01*
X00114510Y00020216D01*
X00114518Y00020227D01*
X00114526Y00020237D01*
X00114535Y00020248D01*
X00114536Y00020248D01*
X00114544Y00020258D01*
X00114554Y00020268D01*
X00114563Y00020278D01*
X00114573Y00020288D01*
X00114583Y00020297D01*
X00114593Y00020306D01*
X00114594Y00020306D01*
X00114604Y00020315D01*
X00114615Y00020324D01*
X00114626Y00020332D01*
X00114626Y00020332D01*
X00114637Y00020340D01*
X00114648Y00020348D01*
X00114660Y00020355D01*
X00114672Y00020363D01*
X00114684Y00020370D01*
X00114696Y00020376D01*
X00114708Y00020382D01*
X00114720Y00020389D01*
X00114733Y00020394D01*
X00114745Y00020400D01*
X00114758Y00020405D01*
X00114771Y00020410D01*
X00114784Y00020414D01*
X00114797Y00020418D01*
X00114810Y00020422D01*
X00114824Y00020426D01*
X00114837Y00020429D01*
X00114851Y00020432D01*
X00114864Y00020434D01*
X00114878Y00020436D01*
X00114891Y00020438D01*
X00114905Y00020440D01*
X00114919Y00020441D01*
X00114933Y00020442D01*
X00114946Y00020442D01*
X00114960Y00020442D01*
X00114940Y00020442D01*
X00114900Y00020440D01*
X00114860Y00020434D01*
X00114821Y00020425D01*
X00114783Y00020414D01*
X00114745Y00020400D01*
X00114709Y00020383D01*
X00114674Y00020364D01*
X00114640Y00020343D01*
X00114626Y00020332D01*
X00114626Y00020332D01*
X00114626Y00020332D01*
X00114608Y00020319D01*
X00114594Y00020306D01*
X00114594Y00020306D01*
X00114593Y00020306D01*
X00114578Y00020292D01*
X00114549Y00020264D01*
X00114536Y00020248D01*
X00114535Y00020248D01*
X00114535Y00020248D01*
X00114523Y00020234D01*
X00114510Y00020216D01*
X00114510Y00020216D01*
X00114509Y00020215D01*
X00114499Y00020202D01*
X00114477Y00020168D01*
X00114458Y00020133D01*
X00114441Y00020096D01*
X00114427Y00020059D01*
X00114416Y00020020D01*
X00114408Y00019981D01*
X00114402Y00019941D01*
X00114399Y00019901D01*
X00114399Y00019861D01*
X00114402Y00019821D01*
X00114408Y00019782D01*
X00114416Y00019743D01*
X00114427Y00019704D01*
X00114441Y00019667D01*
X00114458Y00019630D01*
X00114477Y00019595D01*
X00114499Y00019561D01*
X00114509Y00019547D01*
X00114510Y00019547D01*
X00114510Y00019547D01*
X00114523Y00019529D01*
X00114535Y00019515D01*
X00114535Y00019515D01*
X00114536Y00019515D01*
X00114549Y00019499D01*
X00114578Y00019471D01*
X00114593Y00019457D01*
X00114594Y00019457D01*
X00114594Y00019456D01*
X00114608Y00019444D01*
X00114625Y00019431D01*
X00114626Y00019431D01*
X00114626Y00019431D01*
X00114640Y00019420D01*
X00114674Y00019399D01*
X00114709Y00019379D01*
X00114745Y00019363D01*
X00114783Y00019349D01*
X00114821Y00019337D01*
X00114860Y00019329D01*
X00114900Y00019323D01*
X00114940Y00019320D01*
X00093483Y00020895D02*
X00093483Y00020895D01*
X00093523Y00020895D01*
X00093563Y00020898D01*
X00093603Y00020904D01*
X00093642Y00020912D01*
X00093681Y00020924D01*
X00093718Y00020938D01*
X00093755Y00020954D01*
X00093790Y00020973D01*
X00093824Y00020995D01*
X00093837Y00021005D01*
X00093838Y00021006D01*
X00093838Y00021006D01*
X00093856Y00021019D01*
X00093870Y00021031D01*
X00093870Y00021031D01*
X00093870Y00021032D01*
X00093886Y00021045D01*
X00093914Y00021074D01*
X00093928Y00021089D01*
X00093928Y00021090D01*
X00093928Y00021090D01*
X00093941Y00021104D01*
X00093954Y00021121D01*
X00093954Y00021122D01*
X00093954Y00021122D01*
X00093965Y00021136D01*
X00093986Y00021170D01*
X00094005Y00021205D01*
X00094022Y00021241D01*
X00094036Y00021279D01*
X00094047Y00021317D01*
X00094056Y00021357D01*
X00094062Y00021396D01*
X00094064Y00021436D01*
X00094064Y00021476D01*
X00094062Y00021516D01*
X00094056Y00021556D01*
X00094047Y00021595D01*
X00094036Y00021633D01*
X00094022Y00021671D01*
X00094005Y00021707D01*
X00093986Y00021743D01*
X00093965Y00021776D01*
X00093954Y00021790D01*
X00093954Y00021790D01*
X00093954Y00021791D01*
X00093941Y00021808D01*
X00093928Y00021822D01*
X00093928Y00021823D01*
X00093928Y00021823D01*
X00093914Y00021839D01*
X00093886Y00021867D01*
X00093870Y00021881D01*
X00093870Y00021881D01*
X00093870Y00021881D01*
X00093856Y00021893D01*
X00093838Y00021907D01*
X00093838Y00021907D01*
X00093837Y00021907D01*
X00093824Y00021917D01*
X00093790Y00021939D01*
X00093755Y00021958D01*
X00093718Y00021975D01*
X00093681Y00021989D01*
X00093642Y00022000D01*
X00093603Y00022009D01*
X00093563Y00022014D01*
X00093523Y00022017D01*
X00093503Y00022017D01*
X00093517Y00022017D01*
X00093531Y00022017D01*
X00093545Y00022016D01*
X00093558Y00022014D01*
X00093572Y00022013D01*
X00093586Y00022011D01*
X00093599Y00022009D01*
X00093613Y00022006D01*
X00093626Y00022004D01*
X00093640Y00022000D01*
X00093653Y00021997D01*
X00093666Y00021993D01*
X00093679Y00021989D01*
X00093692Y00021984D01*
X00093705Y00021980D01*
X00093718Y00021975D01*
X00093731Y00021969D01*
X00093743Y00021963D01*
X00093756Y00021957D01*
X00093768Y00021951D01*
X00093780Y00021944D01*
X00093792Y00021937D01*
X00093804Y00021930D01*
X00093815Y00021923D01*
X00093826Y00021915D01*
X00093837Y00021907D01*
X00093838Y00021907D01*
X00093849Y00021898D01*
X00093859Y00021890D01*
X00093870Y00021881D01*
X00093870Y00021881D01*
X00093880Y00021872D01*
X00093890Y00021863D01*
X00093900Y00021853D01*
X00093910Y00021843D01*
X00093919Y00021833D01*
X00093928Y00021823D01*
X00093928Y00021822D01*
X00093937Y00021812D01*
X00093946Y00021801D01*
X00093954Y00021791D01*
X00093954Y00021790D01*
X00093962Y00021779D01*
X00093970Y00021768D01*
X00093977Y00021756D01*
X00093985Y00021745D01*
X00093992Y00021733D01*
X00093998Y00021721D01*
X00094005Y00021708D01*
X00094011Y00021696D01*
X00094016Y00021684D01*
X00094022Y00021671D01*
X00094027Y00021658D01*
X00094032Y00021645D01*
X00094036Y00021632D01*
X00094040Y00021619D01*
X00094044Y00021606D01*
X00094048Y00021592D01*
X00094051Y00021579D01*
X00094054Y00021566D01*
X00094056Y00021552D01*
X00094058Y00021539D01*
X00094060Y00021525D01*
X00094062Y00021511D01*
X00094063Y00021497D01*
X00094064Y00021484D01*
X00094064Y00021470D01*
X00094064Y00021456D01*
X00094064Y00021442D01*
X00094064Y00021429D01*
X00094063Y00021415D01*
X00094062Y00021401D01*
X00094060Y00021388D01*
X00094058Y00021374D01*
X00094056Y00021360D01*
X00094054Y00021347D01*
X00094051Y00021333D01*
X00094048Y00021320D01*
X00094044Y00021307D01*
X00094040Y00021293D01*
X00094036Y00021280D01*
X00094032Y00021267D01*
X00094027Y00021254D01*
X00094022Y00021242D01*
X00094016Y00021229D01*
X00094011Y00021216D01*
X00094005Y00021204D01*
X00093998Y00021192D01*
X00093992Y00021180D01*
X00093985Y00021168D01*
X00093977Y00021156D01*
X00093970Y00021145D01*
X00093962Y00021133D01*
X00093954Y00021122D01*
X00093954Y00021121D01*
X00093946Y00021111D01*
X00093937Y00021100D01*
X00093928Y00021090D01*
X00093928Y00021089D01*
X00093919Y00021079D01*
X00093910Y00021069D01*
X00093900Y00021060D01*
X00093890Y00021050D01*
X00093880Y00021040D01*
X00093870Y00021032D01*
X00093870Y00021031D01*
X00093859Y00021023D01*
X00093849Y00021014D01*
X00093838Y00021006D01*
X00093837Y00021005D01*
X00093826Y00020997D01*
X00093815Y00020990D01*
X00093804Y00020982D01*
X00093792Y00020975D01*
X00093780Y00020968D01*
X00093768Y00020961D01*
X00093756Y00020955D01*
X00093743Y00020949D01*
X00093731Y00020943D01*
X00093718Y00020938D01*
X00093705Y00020933D01*
X00093692Y00020928D01*
X00093679Y00020923D01*
X00093666Y00020919D01*
X00093653Y00020915D01*
X00093640Y00020912D01*
X00093626Y00020909D01*
X00093613Y00020906D01*
X00093599Y00020903D01*
X00093586Y00020901D01*
X00093572Y00020899D01*
X00093558Y00020898D01*
X00093545Y00020897D01*
X00093531Y00020896D01*
X00093517Y00020895D01*
X00093503Y00020895D01*
X00093490Y00020895D01*
X00093476Y00020896D01*
X00093462Y00020897D01*
X00093448Y00020898D01*
X00093435Y00020899D01*
X00093421Y00020901D01*
X00093408Y00020903D01*
X00093394Y00020906D01*
X00093381Y00020909D01*
X00093367Y00020912D01*
X00093354Y00020915D01*
X00093341Y00020919D01*
X00093327Y00020923D01*
X00093314Y00020928D01*
X00093302Y00020933D01*
X00093289Y00020938D01*
X00093276Y00020943D01*
X00093264Y00020949D01*
X00093251Y00020955D01*
X00093239Y00020961D01*
X00093227Y00020968D01*
X00093215Y00020975D01*
X00093203Y00020982D01*
X00093192Y00020990D01*
X00093180Y00020997D01*
X00093170Y00021005D01*
X00093169Y00021006D01*
X00093158Y00021014D01*
X00093148Y00021023D01*
X00093137Y00021031D01*
X00093137Y00021032D01*
X00093127Y00021040D01*
X00093117Y00021050D01*
X00093107Y00021060D01*
X00093097Y00021069D01*
X00093088Y00021079D01*
X00093079Y00021089D01*
X00093078Y00021090D01*
X00093070Y00021100D01*
X00093061Y00021111D01*
X00093053Y00021121D01*
X00093053Y00021122D01*
X00093045Y00021133D01*
X00093037Y00021145D01*
X00093029Y00021156D01*
X00093022Y00021168D01*
X00093015Y00021180D01*
X00093009Y00021192D01*
X00093002Y00021204D01*
X00092996Y00021216D01*
X00092991Y00021229D01*
X00092985Y00021242D01*
X00092980Y00021254D01*
X00092975Y00021267D01*
X00092971Y00021280D01*
X00092967Y00021293D01*
X00092963Y00021307D01*
X00092959Y00021320D01*
X00092956Y00021333D01*
X00092953Y00021347D01*
X00092951Y00021360D01*
X00092948Y00021374D01*
X00092947Y00021388D01*
X00092945Y00021401D01*
X00092944Y00021415D01*
X00092943Y00021429D01*
X00092943Y00021442D01*
X00092942Y00021456D01*
X00092943Y00021470D01*
X00092943Y00021484D01*
X00092944Y00021497D01*
X00092945Y00021511D01*
X00092947Y00021525D01*
X00092948Y00021539D01*
X00092951Y00021552D01*
X00092953Y00021566D01*
X00092956Y00021579D01*
X00092959Y00021592D01*
X00092963Y00021606D01*
X00092967Y00021619D01*
X00092971Y00021632D01*
X00092975Y00021645D01*
X00092980Y00021658D01*
X00092985Y00021671D01*
X00092991Y00021684D01*
X00092996Y00021696D01*
X00093002Y00021708D01*
X00093009Y00021721D01*
X00093015Y00021733D01*
X00093022Y00021745D01*
X00093029Y00021756D01*
X00093037Y00021768D01*
X00093045Y00021779D01*
X00093053Y00021790D01*
X00093053Y00021791D01*
X00093061Y00021801D01*
X00093070Y00021812D01*
X00093078Y00021822D01*
X00093079Y00021823D01*
X00093088Y00021833D01*
X00093097Y00021843D01*
X00093107Y00021853D01*
X00093117Y00021863D01*
X00093127Y00021872D01*
X00093137Y00021881D01*
X00093137Y00021881D01*
X00093148Y00021890D01*
X00093158Y00021898D01*
X00093169Y00021907D01*
X00093169Y00021907D01*
X00093180Y00021915D01*
X00093192Y00021923D01*
X00093203Y00021930D01*
X00093215Y00021937D01*
X00093227Y00021944D01*
X00093239Y00021951D01*
X00093251Y00021957D01*
X00093264Y00021963D01*
X00093276Y00021969D01*
X00093289Y00021975D01*
X00093302Y00021980D01*
X00093314Y00021984D01*
X00093327Y00021989D01*
X00093341Y00021993D01*
X00093354Y00021997D01*
X00093367Y00022000D01*
X00093381Y00022004D01*
X00093394Y00022006D01*
X00093408Y00022009D01*
X00093421Y00022011D01*
X00093435Y00022013D01*
X00093448Y00022014D01*
X00093462Y00022016D01*
X00093476Y00022017D01*
X00093490Y00022017D01*
X00093503Y00022017D01*
X00093483Y00022017D01*
X00093443Y00022014D01*
X00093404Y00022009D01*
X00093365Y00022000D01*
X00093326Y00021989D01*
X00093289Y00021975D01*
X00093252Y00021958D01*
X00093217Y00021939D01*
X00093183Y00021917D01*
X00093169Y00021907D01*
X00093169Y00021907D01*
X00093169Y00021907D01*
X00093151Y00021893D01*
X00093137Y00021881D01*
X00093137Y00021881D01*
X00093137Y00021881D01*
X00093121Y00021867D01*
X00093093Y00021839D01*
X00093079Y00021823D01*
X00093079Y00021823D01*
X00093078Y00021822D01*
X00093066Y00021808D01*
X00093053Y00021791D01*
X00093053Y00021790D01*
X00093053Y00021790D01*
X00093042Y00021776D01*
X00093021Y00021743D01*
X00093001Y00021707D01*
X00092985Y00021671D01*
X00092971Y00021633D01*
X00092960Y00021595D01*
X00092951Y00021556D01*
X00092945Y00021516D01*
X00092942Y00021476D01*
X00092942Y00021436D01*
X00092945Y00021396D01*
X00092951Y00021357D01*
X00092960Y00021317D01*
X00092971Y00021279D01*
X00092985Y00021241D01*
X00093001Y00021205D01*
X00093021Y00021170D01*
X00093042Y00021136D01*
X00093053Y00021122D01*
X00093053Y00021122D01*
X00093053Y00021121D01*
X00093066Y00021104D01*
X00093078Y00021090D01*
X00093079Y00021090D01*
X00093079Y00021089D01*
X00093093Y00021074D01*
X00093121Y00021045D01*
X00093137Y00021032D01*
X00093137Y00021031D01*
X00093137Y00021031D01*
X00093151Y00021019D01*
X00093169Y00021006D01*
X00093169Y00021006D01*
X00093170Y00021005D01*
X00093183Y00020995D01*
X00093217Y00020973D01*
X00093252Y00020954D01*
X00093289Y00020938D01*
X00093326Y00020924D01*
X00093365Y00020912D01*
X00093404Y00020904D01*
X00093443Y00020898D01*
X00093483Y00020895D01*
X00116911Y00024015D02*
X00116911Y00024015D01*
X00116946Y00024015D01*
X00116980Y00024018D01*
X00116995Y00024021D01*
X00116996Y00024021D01*
X00116997Y00024021D01*
X00117014Y00024024D01*
X00117033Y00024029D01*
X00117034Y00024030D01*
X00117034Y00024030D01*
X00117047Y00024033D01*
X00117079Y00024045D01*
X00117111Y00024059D01*
X00117140Y00024077D01*
X00117154Y00024086D01*
X00117155Y00024087D01*
X00117156Y00024087D01*
X00117169Y00024096D01*
X00117195Y00024118D01*
X00117207Y00024130D01*
X00117207Y00024131D01*
X00117207Y00024131D01*
X00117219Y00024143D01*
X00117241Y00024169D01*
X00117250Y00024182D01*
X00117251Y00024182D01*
X00117251Y00024183D01*
X00117261Y00024197D01*
X00117278Y00024227D01*
X00117293Y00024258D01*
X00117304Y00024290D01*
X00117308Y00024304D01*
X00117308Y00024304D01*
X00117308Y00024305D01*
X00117313Y00024324D01*
X00117316Y00024340D01*
X00117317Y00024342D01*
X00117317Y00024342D01*
X00117319Y00024358D01*
X00117322Y00024392D01*
X00117322Y00024426D01*
X00117319Y00024460D01*
X00117317Y00024476D01*
X00117317Y00024476D01*
X00117316Y00024477D01*
X00117313Y00024494D01*
X00117308Y00024513D01*
X00117308Y00024514D01*
X00117308Y00024514D01*
X00117304Y00024527D01*
X00117293Y00024560D01*
X00117278Y00024591D01*
X00117261Y00024621D01*
X00117251Y00024635D01*
X00117251Y00024636D01*
X00117250Y00024636D01*
X00117241Y00024649D01*
X00117219Y00024675D01*
X00117195Y00024699D01*
X00117169Y00024722D01*
X00117156Y00024731D01*
X00117155Y00024731D01*
X00117154Y00024731D01*
X00117140Y00024741D01*
X00117111Y00024759D01*
X00117079Y00024773D01*
X00117047Y00024785D01*
X00117034Y00024788D01*
X00117034Y00024788D01*
X00117033Y00024789D01*
X00117014Y00024794D01*
X00116997Y00024797D01*
X00116996Y00024797D01*
X00116995Y00024797D01*
X00116980Y00024800D01*
X00116946Y00024803D01*
X00116929Y00024803D01*
X00116938Y00024803D01*
X00116948Y00024802D01*
X00116958Y00024802D01*
X00116967Y00024801D01*
X00116977Y00024800D01*
X00116986Y00024798D01*
X00116995Y00024797D01*
X00116997Y00024797D01*
X00117005Y00024795D01*
X00117015Y00024793D01*
X00117024Y00024791D01*
X00117033Y00024789D01*
X00117034Y00024788D01*
X00117043Y00024786D01*
X00117052Y00024783D01*
X00117061Y00024780D01*
X00117070Y00024776D01*
X00117079Y00024773D01*
X00117088Y00024769D01*
X00117097Y00024765D01*
X00117106Y00024761D01*
X00117114Y00024756D01*
X00117123Y00024752D01*
X00117131Y00024747D01*
X00117139Y00024742D01*
X00117147Y00024736D01*
X00117154Y00024731D01*
X00117156Y00024731D01*
X00117163Y00024725D01*
X00117171Y00024719D01*
X00117178Y00024713D01*
X00117186Y00024707D01*
X00117193Y00024701D01*
X00117200Y00024694D01*
X00117207Y00024687D01*
X00117214Y00024680D01*
X00117220Y00024673D01*
X00117227Y00024666D01*
X00117233Y00024659D01*
X00117239Y00024651D01*
X00117245Y00024643D01*
X00117250Y00024636D01*
X00117251Y00024635D01*
X00117256Y00024628D01*
X00117261Y00024620D01*
X00117266Y00024611D01*
X00117271Y00024603D01*
X00117276Y00024595D01*
X00117280Y00024586D01*
X00117285Y00024577D01*
X00117289Y00024568D01*
X00117292Y00024560D01*
X00117296Y00024551D01*
X00117299Y00024542D01*
X00117302Y00024532D01*
X00117305Y00024523D01*
X00117308Y00024514D01*
X00117308Y00024513D01*
X00117311Y00024505D01*
X00117313Y00024495D01*
X00117315Y00024486D01*
X00117316Y00024477D01*
X00117317Y00024476D01*
X00117318Y00024467D01*
X00117319Y00024457D01*
X00117320Y00024448D01*
X00117321Y00024438D01*
X00117322Y00024428D01*
X00117322Y00024419D01*
X00117322Y00024409D01*
X00117322Y00024399D01*
X00117322Y00024390D01*
X00117321Y00024380D01*
X00117320Y00024370D01*
X00117319Y00024361D01*
X00117318Y00024351D01*
X00117317Y00024342D01*
X00117316Y00024340D01*
X00117315Y00024332D01*
X00117313Y00024323D01*
X00117311Y00024313D01*
X00117308Y00024305D01*
X00117308Y00024304D01*
X00117305Y00024295D01*
X00117302Y00024285D01*
X00117299Y00024276D01*
X00117296Y00024267D01*
X00117292Y00024258D01*
X00117289Y00024249D01*
X00117285Y00024241D01*
X00117280Y00024232D01*
X00117276Y00024223D01*
X00117271Y00024215D01*
X00117266Y00024207D01*
X00117261Y00024198D01*
X00117256Y00024190D01*
X00117251Y00024183D01*
X00117250Y00024182D01*
X00117245Y00024174D01*
X00117239Y00024167D01*
X00117233Y00024159D01*
X00117227Y00024152D01*
X00117220Y00024145D01*
X00117214Y00024137D01*
X00117207Y00024131D01*
X00117207Y00024130D01*
X00117200Y00024124D01*
X00117193Y00024117D01*
X00117186Y00024111D01*
X00117178Y00024105D01*
X00117171Y00024099D01*
X00117163Y00024093D01*
X00117156Y00024087D01*
X00117154Y00024086D01*
X00117147Y00024082D01*
X00117139Y00024076D01*
X00117131Y00024071D01*
X00117123Y00024066D01*
X00117114Y00024062D01*
X00117106Y00024057D01*
X00117097Y00024053D01*
X00117088Y00024049D01*
X00117079Y00024045D01*
X00117070Y00024042D01*
X00117061Y00024038D01*
X00117052Y00024035D01*
X00117043Y00024032D01*
X00117034Y00024030D01*
X00117033Y00024029D01*
X00117024Y00024027D01*
X00117015Y00024025D01*
X00117005Y00024023D01*
X00116997Y00024021D01*
X00116995Y00024021D01*
X00116986Y00024019D01*
X00116977Y00024018D01*
X00116967Y00024017D01*
X00116958Y00024016D01*
X00116948Y00024016D01*
X00116938Y00024015D01*
X00116929Y00024015D01*
X00116919Y00024015D01*
X00116909Y00024016D01*
X00116900Y00024016D01*
X00116890Y00024017D01*
X00116880Y00024018D01*
X00116871Y00024019D01*
X00116862Y00024021D01*
X00116860Y00024021D01*
X00116852Y00024023D01*
X00116842Y00024025D01*
X00116833Y00024027D01*
X00116825Y00024029D01*
X00116823Y00024030D01*
X00116814Y00024032D01*
X00116805Y00024035D01*
X00116796Y00024038D01*
X00116787Y00024042D01*
X00116778Y00024045D01*
X00116769Y00024049D01*
X00116760Y00024053D01*
X00116752Y00024057D01*
X00116743Y00024062D01*
X00116735Y00024066D01*
X00116726Y00024071D01*
X00116718Y00024076D01*
X00116710Y00024082D01*
X00116703Y00024086D01*
X00116701Y00024087D01*
X00116694Y00024093D01*
X00116686Y00024099D01*
X00116679Y00024105D01*
X00116671Y00024111D01*
X00116664Y00024117D01*
X00116657Y00024124D01*
X00116650Y00024131D01*
X00116644Y00024137D01*
X00116637Y00024145D01*
X00116631Y00024152D01*
X00116624Y00024159D01*
X00116618Y00024167D01*
X00116612Y00024174D01*
X00116607Y00024182D01*
X00116606Y00024183D01*
X00116601Y00024190D01*
X00116596Y00024198D01*
X00116591Y00024207D01*
X00116586Y00024215D01*
X00116581Y00024223D01*
X00116577Y00024232D01*
X00116573Y00024241D01*
X00116569Y00024249D01*
X00116565Y00024258D01*
X00116561Y00024267D01*
X00116558Y00024276D01*
X00116555Y00024285D01*
X00116552Y00024295D01*
X00116549Y00024304D01*
X00116549Y00024305D01*
X00116547Y00024313D01*
X00116544Y00024323D01*
X00116542Y00024332D01*
X00116541Y00024340D01*
X00116541Y00024343D01*
X00116539Y00024351D01*
X00116538Y00024361D01*
X00116537Y00024370D01*
X00116536Y00024380D01*
X00116535Y00024390D01*
X00116535Y00024399D01*
X00116535Y00024409D01*
X00116535Y00024419D01*
X00116535Y00024428D01*
X00116536Y00024438D01*
X00116537Y00024448D01*
X00116538Y00024457D01*
X00116539Y00024467D01*
X00116541Y00024476D01*
X00116541Y00024478D01*
X00116542Y00024486D01*
X00116544Y00024495D01*
X00116547Y00024505D01*
X00116549Y00024512D01*
X00116549Y00024514D01*
X00116552Y00024523D01*
X00116555Y00024532D01*
X00116558Y00024542D01*
X00116561Y00024551D01*
X00116565Y00024560D01*
X00116569Y00024568D01*
X00116573Y00024577D01*
X00116577Y00024586D01*
X00116581Y00024595D01*
X00116586Y00024603D01*
X00116591Y00024611D01*
X00116596Y00024620D01*
X00116601Y00024628D01*
X00116606Y00024635D01*
X00116607Y00024636D01*
X00116612Y00024643D01*
X00116618Y00024651D01*
X00116624Y00024659D01*
X00116631Y00024666D01*
X00116637Y00024673D01*
X00116644Y00024680D01*
X00116650Y00024687D01*
X00116657Y00024694D01*
X00116664Y00024701D01*
X00116671Y00024707D01*
X00116679Y00024713D01*
X00116686Y00024719D01*
X00116694Y00024725D01*
X00116701Y00024731D01*
X00116703Y00024731D01*
X00116710Y00024736D01*
X00116718Y00024742D01*
X00116726Y00024747D01*
X00116735Y00024752D01*
X00116743Y00024756D01*
X00116752Y00024761D01*
X00116760Y00024765D01*
X00116769Y00024769D01*
X00116778Y00024773D01*
X00116787Y00024776D01*
X00116796Y00024780D01*
X00116805Y00024783D01*
X00116814Y00024786D01*
X00116823Y00024788D01*
X00116825Y00024789D01*
X00116833Y00024791D01*
X00116842Y00024793D01*
X00116852Y00024795D01*
X00116860Y00024797D01*
X00116862Y00024797D01*
X00116871Y00024798D01*
X00116880Y00024800D01*
X00116890Y00024801D01*
X00116900Y00024802D01*
X00116909Y00024802D01*
X00116919Y00024803D01*
X00116929Y00024803D01*
X00116911Y00024803D01*
X00116877Y00024800D01*
X00116862Y00024797D01*
X00116861Y00024797D01*
X00116860Y00024797D01*
X00116843Y00024794D01*
X00116825Y00024789D01*
X00116824Y00024788D01*
X00116823Y00024788D01*
X00116810Y00024785D01*
X00116778Y00024773D01*
X00116747Y00024759D01*
X00116717Y00024741D01*
X00116703Y00024731D01*
X00116702Y00024731D01*
X00116701Y00024731D01*
X00116689Y00024722D01*
X00116662Y00024699D01*
X00116638Y00024675D01*
X00116616Y00024649D01*
X00116607Y00024636D01*
X00116607Y00024636D01*
X00116606Y00024635D01*
X00116596Y00024621D01*
X00116579Y00024591D01*
X00116565Y00024560D01*
X00116553Y00024527D01*
X00116549Y00024514D01*
X00116549Y00024514D01*
X00116549Y00024512D01*
X00116544Y00024494D01*
X00116541Y00024478D01*
X00116541Y00024476D01*
X00116541Y00024476D01*
X00116538Y00024460D01*
X00116535Y00024426D01*
X00116535Y00024392D01*
X00116538Y00024358D01*
X00116541Y00024343D01*
X00116541Y00024342D01*
X00116541Y00024340D01*
X00116544Y00024324D01*
X00116549Y00024305D01*
X00116549Y00024304D01*
X00116549Y00024304D01*
X00116553Y00024290D01*
X00116565Y00024258D01*
X00116579Y00024227D01*
X00116596Y00024197D01*
X00116606Y00024183D01*
X00116607Y00024182D01*
X00116607Y00024182D01*
X00116616Y00024169D01*
X00116638Y00024143D01*
X00116662Y00024118D01*
X00116689Y00024096D01*
X00116701Y00024087D01*
X00116702Y00024087D01*
X00116703Y00024086D01*
X00116717Y00024077D01*
X00116747Y00024059D01*
X00116778Y00024045D01*
X00116810Y00024033D01*
X00116823Y00024030D01*
X00116824Y00024030D01*
X00116825Y00024029D01*
X00116843Y00024024D01*
X00116860Y00024021D01*
X00116861Y00024021D01*
X00116862Y00024021D01*
X00116877Y00024018D01*
X00116911Y00024015D01*
X00092472Y00025589D02*
X00092472Y00025589D01*
X00092424Y00025588D01*
X00092377Y00025585D01*
X00092351Y00025583D01*
X00092348Y00025583D01*
X00092345Y00025582D01*
X00092329Y00025581D01*
X00092282Y00025576D01*
X00092235Y00025569D01*
X00092188Y00025562D01*
X00092179Y00025560D01*
X00092177Y00025560D01*
X00092175Y00025560D01*
X00092141Y00025553D01*
X00092094Y00025544D01*
X00092048Y00025533D01*
X00092011Y00025523D01*
X00092010Y00025523D01*
X00092008Y00025523D01*
X00092002Y00025521D01*
X00091956Y00025508D01*
X00091911Y00025494D01*
X00091866Y00025478D01*
X00091849Y00025472D01*
X00091846Y00025471D01*
X00091843Y00025470D01*
X00091821Y00025462D01*
X00091777Y00025445D01*
X00091733Y00025426D01*
X00091690Y00025407D01*
X00091687Y00025406D01*
X00091687Y00025406D01*
X00091687Y00025405D01*
X00091647Y00025386D01*
X00091604Y00025365D01*
X00091563Y00025342D01*
X00091538Y00025328D01*
X00091535Y00025326D01*
X00091533Y00025325D01*
X00091521Y00025318D01*
X00091481Y00025294D01*
X00091440Y00025268D01*
X00091401Y00025242D01*
X00091393Y00025236D01*
X00091390Y00025234D01*
X00091387Y00025232D01*
X00091362Y00025214D01*
X00091324Y00025186D01*
X00091287Y00025156D01*
X00091255Y00025130D01*
X00091254Y00025130D01*
X00091253Y00025129D01*
X00091250Y00025126D01*
X00091214Y00025095D01*
X00091179Y00025063D01*
X00091144Y00025030D01*
X00091129Y00025015D01*
X00091127Y00025013D01*
X00091126Y00025012D01*
X00091111Y00024997D01*
X00091078Y00024962D01*
X00091046Y00024927D01*
X00091015Y00024891D01*
X00091012Y00024887D01*
X00091011Y00024887D01*
X00091011Y00024886D01*
X00090984Y00024854D01*
X00090955Y00024817D01*
X00090927Y00024779D01*
X00090909Y00024754D01*
X00090907Y00024751D01*
X00090905Y00024748D01*
X00090899Y00024740D01*
X00090873Y00024700D01*
X00090847Y00024660D01*
X00090822Y00024620D01*
X00090816Y00024608D01*
X00090814Y00024606D01*
X00090813Y00024603D01*
X00090799Y00024578D01*
X00090776Y00024536D01*
X00090755Y00024494D01*
X00090735Y00024454D01*
X00090735Y00024453D01*
X00090735Y00024453D01*
X00090734Y00024451D01*
X00090714Y00024408D01*
X00090696Y00024364D01*
X00090679Y00024320D01*
X00090671Y00024298D01*
X00090669Y00024295D01*
X00090668Y00024292D01*
X00090662Y00024275D01*
X00090647Y00024230D01*
X00090633Y00024184D01*
X00090620Y00024139D01*
X00090618Y00024132D01*
X00090618Y00024131D01*
X00090617Y00024129D01*
X00090608Y00024093D01*
X00090597Y00024046D01*
X00090587Y00024000D01*
X00090581Y00023966D01*
X00090581Y00023963D01*
X00090580Y00023962D01*
X00090579Y00023953D01*
X00090571Y00023906D01*
X00090565Y00023859D01*
X00090560Y00023812D01*
X00090559Y00023796D01*
X00090558Y00023793D01*
X00090558Y00023790D01*
X00090556Y00023764D01*
X00090553Y00023717D01*
X00090551Y00023669D01*
X00090551Y00023622D01*
X00090551Y00007874D01*
X00090551Y00007826D01*
X00090553Y00007778D01*
X00090556Y00007731D01*
X00090558Y00007705D01*
X00090558Y00007702D01*
X00090559Y00007699D01*
X00090560Y00007684D01*
X00090565Y00007636D01*
X00090571Y00007589D01*
X00090579Y00007542D01*
X00090580Y00007533D01*
X00090581Y00007532D01*
X00090581Y00007529D01*
X00090587Y00007495D01*
X00090597Y00007449D01*
X00090608Y00007402D01*
X00090617Y00007366D01*
X00090618Y00007364D01*
X00090618Y00007363D01*
X00090620Y00007356D01*
X00090633Y00007311D01*
X00090647Y00007265D01*
X00090662Y00007220D01*
X00090668Y00007203D01*
X00090669Y00007200D01*
X00090671Y00007197D01*
X00090679Y00007175D01*
X00090696Y00007131D01*
X00090714Y00007087D01*
X00090734Y00007044D01*
X00090735Y00007042D01*
X00090735Y00007042D01*
X00090735Y00007041D01*
X00090755Y00007001D01*
X00090776Y00006959D01*
X00090799Y00006917D01*
X00090813Y00006892D01*
X00090814Y00006889D01*
X00090816Y00006887D01*
X00090822Y00006876D01*
X00090847Y00006835D01*
X00090873Y00006795D01*
X00090899Y00006755D01*
X00090905Y00006747D01*
X00090907Y00006744D01*
X00090909Y00006742D01*
X00090927Y00006716D01*
X00090955Y00006678D01*
X00090984Y00006641D01*
X00091011Y00006609D01*
X00091011Y00006608D01*
X00091012Y00006608D01*
X00091015Y00006604D01*
X00091046Y00006568D01*
X00091078Y00006533D01*
X00091111Y00006498D01*
X00091126Y00006483D01*
X00091127Y00006482D01*
X00091129Y00006480D01*
X00091144Y00006465D01*
X00091179Y00006432D01*
X00091214Y00006400D01*
X00091250Y00006369D01*
X00091253Y00006366D01*
X00091254Y00006366D01*
X00091255Y00006365D01*
X00091287Y00006339D01*
X00091324Y00006309D01*
X00091362Y00006281D01*
X00091387Y00006263D01*
X00091390Y00006261D01*
X00091393Y00006259D01*
X00091401Y00006253D01*
X00091440Y00006227D01*
X00091481Y00006201D01*
X00091521Y00006177D01*
X00091533Y00006170D01*
X00091535Y00006169D01*
X00091538Y00006167D01*
X00091563Y00006153D01*
X00091604Y00006130D01*
X00091647Y00006109D01*
X00091687Y00006090D01*
X00091687Y00006089D01*
X00091687Y00006089D01*
X00091690Y00006088D01*
X00091733Y00006069D01*
X00091777Y00006050D01*
X00091821Y00006033D01*
X00091843Y00006025D01*
X00091846Y00006024D01*
X00091849Y00006023D01*
X00091866Y00006017D01*
X00091911Y00006001D01*
X00091956Y00005987D01*
X00092002Y00005974D01*
X00092008Y00005972D01*
X00092010Y00005972D01*
X00092011Y00005972D01*
X00092048Y00005962D01*
X00092094Y00005951D01*
X00092141Y00005942D01*
X00092175Y00005935D01*
X00092177Y00005935D01*
X00092179Y00005935D01*
X00092188Y00005933D01*
X00092235Y00005926D01*
X00092282Y00005919D01*
X00092329Y00005914D01*
X00092345Y00005913D01*
X00092348Y00005912D01*
X00092351Y00005912D01*
X00092377Y00005910D01*
X00092424Y00005907D01*
X00092472Y00005906D01*
X00092519Y00005905D01*
X00116141Y00005905D01*
X00116189Y00005906D01*
X00116236Y00005907D01*
X00116284Y00005910D01*
X00116310Y00005912D01*
X00116313Y00005912D01*
X00116316Y00005913D01*
X00116331Y00005914D01*
X00116379Y00005919D01*
X00116426Y00005926D01*
X00116473Y00005933D01*
X00116481Y00005935D01*
X00116483Y00005935D01*
X00116485Y00005935D01*
X00116519Y00005942D01*
X00116566Y00005951D01*
X00116612Y00005962D01*
X00116649Y00005972D01*
X00116651Y00005972D01*
X00116652Y00005972D01*
X00116658Y00005974D01*
X00116704Y00005987D01*
X00116750Y00006001D01*
X00116795Y00006017D01*
X00116811Y00006023D01*
X00116814Y00006024D01*
X00116818Y00006025D01*
X00116839Y00006033D01*
X00116884Y00006050D01*
X00116927Y00006069D01*
X00116971Y00006088D01*
X00116973Y00006089D01*
X00116973Y00006089D01*
X00116973Y00006090D01*
X00117014Y00006109D01*
X00117056Y00006130D01*
X00117098Y00006153D01*
X00117122Y00006167D01*
X00117125Y00006169D01*
X00117128Y00006170D01*
X00117139Y00006177D01*
X00117180Y00006201D01*
X00117220Y00006227D01*
X00117259Y00006253D01*
X00117268Y00006259D01*
X00117270Y00006261D01*
X00117273Y00006263D01*
X00117298Y00006281D01*
X00117336Y00006309D01*
X00117374Y00006339D01*
X00117406Y00006365D01*
X00117407Y00006366D01*
X00117407Y00006366D01*
X00117411Y00006369D01*
X00117447Y00006400D01*
X00117482Y00006432D01*
X00117516Y00006465D01*
X00117531Y00006480D01*
X00117533Y00006482D01*
X00117535Y00006483D01*
X00117550Y00006498D01*
X00117583Y00006533D01*
X00117615Y00006568D01*
X00117646Y00006604D01*
X00117649Y00006608D01*
X00117649Y00006608D01*
X00117650Y00006609D01*
X00117676Y00006641D01*
X00117705Y00006678D01*
X00117734Y00006716D01*
X00117752Y00006742D01*
X00117754Y00006744D01*
X00117755Y00006747D01*
X00117761Y00006755D01*
X00117788Y00006795D01*
X00117813Y00006835D01*
X00117838Y00006876D01*
X00117844Y00006887D01*
X00117846Y00006889D01*
X00117848Y00006892D01*
X00117862Y00006917D01*
X00117884Y00006959D01*
X00117906Y00007001D01*
X00117925Y00007041D01*
X00117925Y00007042D01*
X00117925Y00007042D01*
X00117926Y00007044D01*
X00117946Y00007087D01*
X00117964Y00007131D01*
X00117982Y00007175D01*
X00117990Y00007197D01*
X00117991Y00007200D01*
X00117992Y00007203D01*
X00117998Y00007220D01*
X00118013Y00007265D01*
X00118028Y00007311D01*
X00118041Y00007356D01*
X00118042Y00007363D01*
X00118043Y00007364D01*
X00118043Y00007366D01*
X00118053Y00007402D01*
X00118063Y00007449D01*
X00118073Y00007495D01*
X00118079Y00007529D01*
X00118080Y00007532D01*
X00118080Y00007533D01*
X00118082Y00007542D01*
X00118089Y00007589D01*
X00118095Y00007636D01*
X00118101Y00007684D01*
X00118102Y00007699D01*
X00118102Y00007702D01*
X00118102Y00007705D01*
X00118105Y00007731D01*
X00118107Y00007778D01*
X00118109Y00007826D01*
X00118110Y00007874D01*
X00118110Y00023622D01*
X00118109Y00023669D01*
X00118107Y00023717D01*
X00118105Y00023764D01*
X00118102Y00023790D01*
X00118102Y00023793D01*
X00118102Y00023796D01*
X00118101Y00023812D01*
X00118095Y00023859D01*
X00118089Y00023906D01*
X00118082Y00023953D01*
X00118080Y00023962D01*
X00118080Y00023963D01*
X00118079Y00023966D01*
X00118073Y00024000D01*
X00118063Y00024046D01*
X00118053Y00024093D01*
X00118043Y00024129D01*
X00118043Y00024131D01*
X00118042Y00024132D01*
X00118041Y00024139D01*
X00118028Y00024184D01*
X00118013Y00024230D01*
X00117998Y00024275D01*
X00117992Y00024292D01*
X00117991Y00024295D01*
X00117990Y00024298D01*
X00117982Y00024320D01*
X00117964Y00024364D01*
X00117946Y00024408D01*
X00117926Y00024451D01*
X00117925Y00024453D01*
X00117925Y00024453D01*
X00117925Y00024454D01*
X00117906Y00024494D01*
X00117884Y00024536D01*
X00117862Y00024578D01*
X00117848Y00024603D01*
X00117846Y00024606D01*
X00117844Y00024608D01*
X00117838Y00024620D01*
X00117813Y00024660D01*
X00117788Y00024700D01*
X00117761Y00024740D01*
X00117755Y00024748D01*
X00117754Y00024751D01*
X00117752Y00024754D01*
X00117734Y00024779D01*
X00117705Y00024817D01*
X00117676Y00024854D01*
X00117650Y00024886D01*
X00117649Y00024887D01*
X00117649Y00024887D01*
X00117646Y00024891D01*
X00117615Y00024927D01*
X00117583Y00024962D01*
X00117550Y00024997D01*
X00117535Y00025012D01*
X00117533Y00025013D01*
X00117531Y00025015D01*
X00117516Y00025030D01*
X00117482Y00025063D01*
X00117447Y00025095D01*
X00117411Y00025126D01*
X00117407Y00025129D01*
X00117407Y00025130D01*
X00117406Y00025130D01*
X00117374Y00025156D01*
X00117336Y00025186D01*
X00117298Y00025214D01*
X00117273Y00025232D01*
X00117270Y00025234D01*
X00117268Y00025236D01*
X00117259Y00025242D01*
X00117220Y00025268D01*
X00117180Y00025294D01*
X00117139Y00025318D01*
X00117128Y00025325D01*
X00117125Y00025326D01*
X00117122Y00025328D01*
X00117098Y00025342D01*
X00117056Y00025365D01*
X00117014Y00025386D01*
X00116973Y00025405D01*
X00116973Y00025406D01*
X00116973Y00025406D01*
X00116971Y00025407D01*
X00116927Y00025426D01*
X00116884Y00025445D01*
X00116839Y00025462D01*
X00116818Y00025470D01*
X00116814Y00025471D01*
X00116811Y00025472D01*
X00116795Y00025478D01*
X00116750Y00025494D01*
X00116704Y00025508D01*
X00116658Y00025521D01*
X00116652Y00025523D01*
X00116651Y00025523D01*
X00116649Y00025523D01*
X00116612Y00025533D01*
X00116566Y00025544D01*
X00116519Y00025553D01*
X00116485Y00025560D01*
X00116483Y00025560D01*
X00116481Y00025560D01*
X00116473Y00025562D01*
X00116426Y00025569D01*
X00116379Y00025576D01*
X00116331Y00025581D01*
X00116316Y00025582D01*
X00116313Y00025583D01*
X00116310Y00025583D01*
X00116284Y00025585D01*
X00116236Y00025588D01*
X00116189Y00025589D01*
X00116141Y00025590D01*
X00116310Y00025583D01*
X00116316Y00025582D01*
X00116481Y00025560D01*
X00116485Y00025560D01*
X00116649Y00025523D01*
X00116652Y00025523D01*
X00116811Y00025472D01*
X00116818Y00025470D01*
X00116973Y00025406D01*
X00116973Y00025405D01*
X00117122Y00025328D01*
X00117128Y00025325D01*
X00117268Y00025236D01*
X00117273Y00025232D01*
X00117406Y00025130D01*
X00117407Y00025129D01*
X00117531Y00025015D01*
X00117535Y00025012D01*
X00117649Y00024887D01*
X00117650Y00024886D01*
X00117752Y00024754D01*
X00117755Y00024748D01*
X00117844Y00024608D01*
X00117848Y00024603D01*
X00117925Y00024454D01*
X00117925Y00024453D01*
X00117990Y00024298D01*
X00117992Y00024292D01*
X00118042Y00024132D01*
X00118043Y00024129D01*
X00118079Y00023966D01*
X00118080Y00023962D01*
X00118102Y00023796D01*
X00118102Y00023790D01*
X00118110Y00023622D01*
X00118110Y00007874D01*
X00118102Y00007705D01*
X00118102Y00007699D01*
X00118080Y00007533D01*
X00118079Y00007529D01*
X00118043Y00007366D01*
X00118042Y00007363D01*
X00117992Y00007203D01*
X00117990Y00007197D01*
X00117925Y00007042D01*
X00117925Y00007041D01*
X00117848Y00006892D01*
X00117844Y00006887D01*
X00117755Y00006747D01*
X00117752Y00006742D01*
X00117650Y00006609D01*
X00117649Y00006608D01*
X00117535Y00006483D01*
X00117531Y00006480D01*
X00117407Y00006366D01*
X00117406Y00006365D01*
X00117273Y00006263D01*
X00117268Y00006259D01*
X00117128Y00006170D01*
X00117122Y00006167D01*
X00116973Y00006090D01*
X00116973Y00006089D01*
X00116818Y00006025D01*
X00116811Y00006023D01*
X00116652Y00005972D01*
X00116649Y00005972D01*
X00116485Y00005935D01*
X00116481Y00005935D01*
X00116316Y00005913D01*
X00116310Y00005912D01*
X00116141Y00005905D01*
X00092519Y00005905D01*
X00092351Y00005912D01*
X00092345Y00005913D01*
X00092179Y00005935D01*
X00092175Y00005935D01*
X00092011Y00005972D01*
X00092008Y00005972D01*
X00091849Y00006023D01*
X00091843Y00006025D01*
X00091687Y00006089D01*
X00091687Y00006090D01*
X00091538Y00006167D01*
X00091533Y00006170D01*
X00091393Y00006259D01*
X00091387Y00006263D01*
X00091255Y00006365D01*
X00091253Y00006366D01*
X00091129Y00006480D01*
X00091126Y00006483D01*
X00091012Y00006608D01*
X00091011Y00006609D01*
X00090909Y00006742D01*
X00090905Y00006747D01*
X00090816Y00006887D01*
X00090813Y00006892D01*
X00090735Y00007041D01*
X00090735Y00007042D01*
X00090671Y00007197D01*
X00090668Y00007203D01*
X00090618Y00007363D01*
X00090617Y00007366D01*
X00090581Y00007529D01*
X00090580Y00007533D01*
X00090559Y00007699D01*
X00090558Y00007705D01*
X00090551Y00007874D01*
X00090551Y00023622D01*
X00090558Y00023790D01*
X00090559Y00023796D01*
X00090580Y00023962D01*
X00090581Y00023966D01*
X00090617Y00024129D01*
X00090618Y00024132D01*
X00090668Y00024292D01*
X00090671Y00024298D01*
X00090735Y00024453D01*
X00090735Y00024454D01*
X00090813Y00024603D01*
X00090816Y00024608D01*
X00090905Y00024748D01*
X00090909Y00024754D01*
X00091011Y00024886D01*
X00091012Y00024887D01*
X00091126Y00025012D01*
X00091129Y00025015D01*
X00091253Y00025129D01*
X00091255Y00025130D01*
X00091387Y00025232D01*
X00091393Y00025236D01*
X00091533Y00025325D01*
X00091538Y00025328D01*
X00091687Y00025405D01*
X00091687Y00025406D01*
X00091843Y00025470D01*
X00091849Y00025472D01*
X00092008Y00025523D01*
X00092011Y00025523D01*
X00092175Y00025560D01*
X00092179Y00025560D01*
X00092345Y00025582D01*
X00092351Y00025583D01*
X00092519Y00025590D01*
X00092472Y00025589D01*
M02*