%MOIN*%
%OFA0B0*%
%FSLAX34Y34*%
%IPPOS*%
%LPD*%
%AMOC8*
5,1,8,0,0,$1,22.5*%
%AMOC80*
5,1,8,0,0,$1,22.5*%
%ADD10C,0*%
%ADD11C,0.01*%
%ADD22C,0*%
%ADD23C,0.01*%
G75*
%LPD*%
G01*
D10*
X0090551Y0007874D02*
X0090551Y0007826D01*
X0090553Y0007778D01*
X0090556Y0007731D01*
X0090560Y0007684D01*
X0090565Y0007636D01*
X0090571Y0007589D01*
X0090579Y0007542D01*
X0090587Y0007495D01*
X0090597Y0007449D01*
X0090608Y0007402D01*
X0090620Y0007356D01*
X0090633Y0007311D01*
X0090647Y0007265D01*
X0090662Y0007220D01*
X0090679Y0007175D01*
X0090696Y0007131D01*
X0090714Y0007087D01*
X0090734Y0007044D01*
X0090755Y0007001D01*
X0090776Y0006959D01*
X0090799Y0006917D01*
X0090822Y0006876D01*
X0090847Y0006835D01*
X0090873Y0006795D01*
X0090899Y0006755D01*
X0090927Y0006716D01*
X0090955Y0006678D01*
X0090984Y0006641D01*
X0091015Y0006604D01*
X0091046Y0006568D01*
X0091078Y0006533D01*
X0091111Y0006498D01*
X0091144Y0006465D01*
X0091179Y0006432D01*
X0091214Y0006400D01*
X0091250Y0006369D01*
X0091287Y0006339D01*
X0091324Y0006309D01*
X0091362Y0006281D01*
X0091401Y0006253D01*
X0091440Y0006227D01*
X0091481Y0006201D01*
X0091521Y0006177D01*
X0091563Y0006153D01*
X0091604Y0006130D01*
X0091647Y0006109D01*
X0091690Y0006088D01*
X0091733Y0006069D01*
X0091777Y0006050D01*
X0091821Y0006033D01*
X0091866Y0006017D01*
X0091911Y0006001D01*
X0091956Y0005987D01*
X0092002Y0005974D01*
X0092048Y0005962D01*
X0092094Y0005951D01*
X0092141Y0005942D01*
X0092188Y0005933D01*
X0092235Y0005926D01*
X0092282Y0005919D01*
X0092329Y0005914D01*
X0092377Y0005910D01*
X0092424Y0005907D01*
X0092472Y0005906D01*
X0092519Y0005905D01*
X0116535Y0024409D02*
X0116535Y0024419D01*
X0116535Y0024428D01*
X0116536Y0024438D01*
X0116537Y0024448D01*
X0116538Y0024457D01*
X0116539Y0024467D01*
X0116541Y0024476D01*
X0116542Y0024486D01*
X0116545Y0024495D01*
X0116547Y0024505D01*
X0116549Y0024514D01*
X0116552Y0024523D01*
X0116555Y0024532D01*
X0116558Y0024542D01*
X0116561Y0024551D01*
X0116565Y0024560D01*
X0116569Y0024568D01*
X0116573Y0024577D01*
X0116577Y0024586D01*
X0116581Y0024595D01*
X0116586Y0024603D01*
X0116591Y0024611D01*
X0116596Y0024620D01*
X0116601Y0024628D01*
X0116607Y0024636D01*
X0116612Y0024643D01*
X0116618Y0024651D01*
X0116624Y0024659D01*
X0116631Y0024666D01*
X0116637Y0024673D01*
X0116644Y0024680D01*
X0116650Y0024687D01*
X0116657Y0024694D01*
X0116664Y0024701D01*
X0116671Y0024707D01*
X0116679Y0024713D01*
X0116686Y0024719D01*
X0116694Y0024725D01*
X0116702Y0024731D01*
X0116710Y0024736D01*
X0116718Y0024742D01*
X0116726Y0024747D01*
X0116735Y0024752D01*
X0116743Y0024756D01*
X0116752Y0024761D01*
X0116760Y0024765D01*
X0116769Y0024769D01*
X0116778Y0024773D01*
X0116787Y0024776D01*
X0116796Y0024780D01*
X0116805Y0024783D01*
X0116814Y0024786D01*
X0116824Y0024788D01*
X0116833Y0024791D01*
X0116842Y0024793D01*
X0116852Y0024795D01*
X0116861Y0024797D01*
X0116871Y0024798D01*
X0116880Y0024800D01*
X0116890Y0024801D01*
X0116900Y0024802D01*
X0116909Y0024802D01*
X0116919Y0024803D01*
X0116929Y0024803D01*
X0116938Y0024803D01*
X0116948Y0024802D01*
X0116958Y0024802D01*
X0116967Y0024801D01*
X0116977Y0024800D01*
X0116986Y0024798D01*
X0116996Y0024797D01*
X0117005Y0024795D01*
X0117015Y0024793D01*
X0117024Y0024791D01*
X0117034Y0024788D01*
X0117043Y0024786D01*
X0117052Y0024783D01*
X0117061Y0024780D01*
X0117070Y0024776D01*
X0117079Y0024773D01*
X0117088Y0024769D01*
X0117097Y0024765D01*
X0117106Y0024761D01*
X0117114Y0024756D01*
X0117123Y0024752D01*
X0117131Y0024747D01*
X0117139Y0024742D01*
X0117147Y0024736D01*
X0117155Y0024731D01*
X0117163Y0024725D01*
X0117171Y0024719D01*
X0117178Y0024713D01*
X0117186Y0024707D01*
X0117193Y0024701D01*
X0117200Y0024694D01*
X0117207Y0024687D01*
X0117214Y0024680D01*
X0117220Y0024673D01*
X0117227Y0024666D01*
X0117233Y0024659D01*
X0117239Y0024651D01*
X0117245Y0024643D01*
X0117250Y0024636D01*
X0117256Y0024628D01*
X0117261Y0024620D01*
X0117266Y0024611D01*
X0117271Y0024603D01*
X0117276Y0024595D01*
X0117280Y0024586D01*
X0117285Y0024577D01*
X0117289Y0024568D01*
X0117292Y0024560D01*
X0117296Y0024551D01*
X0117299Y0024542D01*
X0117302Y0024532D01*
X0117305Y0024523D01*
X0117308Y0024514D01*
X0117311Y0024505D01*
X0117313Y0024495D01*
X0117315Y0024486D01*
X0117317Y0024476D01*
X0117318Y0024467D01*
X0117319Y0024457D01*
X0117320Y0024448D01*
X0117321Y0024438D01*
X0117322Y0024428D01*
X0117322Y0024419D01*
X0117322Y0024409D01*
X0117322Y0024399D01*
X0117322Y0024390D01*
X0117321Y0024380D01*
X0117320Y0024370D01*
X0117319Y0024361D01*
X0117318Y0024351D01*
X0117317Y0024342D01*
X0117315Y0024332D01*
X0117313Y0024323D01*
X0117311Y0024313D01*
X0117308Y0024304D01*
X0117305Y0024295D01*
X0117302Y0024285D01*
X0117299Y0024276D01*
X0117296Y0024267D01*
X0117292Y0024258D01*
X0117289Y0024249D01*
X0117285Y0024241D01*
X0117280Y0024232D01*
X0117276Y0024223D01*
X0117271Y0024215D01*
X0117266Y0024207D01*
X0117261Y0024198D01*
X0117256Y0024190D01*
X0117250Y0024182D01*
X0117245Y0024174D01*
X0117239Y0024167D01*
X0117233Y0024159D01*
X0117227Y0024152D01*
X0117220Y0024145D01*
X0117214Y0024137D01*
X0117207Y0024131D01*
X0117200Y0024124D01*
X0117193Y0024117D01*
X0117186Y0024111D01*
X0117178Y0024105D01*
X0117171Y0024099D01*
X0117163Y0024093D01*
X0117155Y0024087D01*
X0117147Y0024082D01*
X0117139Y0024076D01*
X0117131Y0024071D01*
X0117123Y0024066D01*
X0117114Y0024062D01*
X0117106Y0024057D01*
X0117097Y0024053D01*
X0117088Y0024049D01*
X0117079Y0024045D01*
X0117070Y0024042D01*
X0117061Y0024038D01*
X0117052Y0024035D01*
X0117043Y0024032D01*
X0117034Y0024030D01*
X0117024Y0024027D01*
X0117015Y0024025D01*
X0117005Y0024023D01*
X0116996Y0024021D01*
X0116986Y0024020D01*
X0116977Y0024018D01*
X0116967Y0024017D01*
X0116958Y0024016D01*
X0116948Y0024016D01*
X0116938Y0024015D01*
X0116929Y0024015D01*
X0116919Y0024015D01*
X0116909Y0024016D01*
X0116900Y0024016D01*
X0116890Y0024017D01*
X0116880Y0024018D01*
X0116871Y0024020D01*
X0116861Y0024021D01*
X0116852Y0024023D01*
X0116842Y0024025D01*
X0116833Y0024027D01*
X0116824Y0024030D01*
X0116814Y0024032D01*
X0116805Y0024035D01*
X0116796Y0024038D01*
X0116787Y0024042D01*
X0116778Y0024045D01*
X0116769Y0024049D01*
X0116760Y0024053D01*
X0116752Y0024057D01*
X0116743Y0024062D01*
X0116735Y0024066D01*
X0116726Y0024071D01*
X0116718Y0024076D01*
X0116710Y0024082D01*
X0116702Y0024087D01*
X0116694Y0024093D01*
X0116686Y0024099D01*
X0116679Y0024105D01*
X0116671Y0024111D01*
X0116664Y0024117D01*
X0116657Y0024124D01*
X0116650Y0024131D01*
X0116644Y0024137D01*
X0116637Y0024145D01*
X0116631Y0024152D01*
X0116624Y0024159D01*
X0116618Y0024167D01*
X0116612Y0024174D01*
X0116607Y0024182D01*
X0116601Y0024190D01*
X0116596Y0024198D01*
X0116591Y0024207D01*
X0116586Y0024215D01*
X0116581Y0024223D01*
X0116577Y0024232D01*
X0116573Y0024241D01*
X0116569Y0024249D01*
X0116565Y0024258D01*
X0116561Y0024267D01*
X0116558Y0024276D01*
X0116555Y0024285D01*
X0116552Y0024295D01*
X0116549Y0024304D01*
X0116547Y0024313D01*
X0116545Y0024323D01*
X0116542Y0024332D01*
X0116541Y0024342D01*
X0116539Y0024351D01*
X0116538Y0024361D01*
X0116537Y0024370D01*
X0116536Y0024380D01*
X0116535Y0024390D01*
X0116535Y0024399D01*
X0116535Y0024409D01*
X0099015Y0015748D02*
X0099015Y0015757D01*
X0099016Y0015767D01*
X0099016Y0015777D01*
X0099017Y0015786D01*
X0099018Y0015796D01*
X0099019Y0015805D01*
X0099021Y0015815D01*
X0099023Y0015824D01*
X0099025Y0015834D01*
X0099027Y0015843D01*
X0099030Y0015853D01*
X0099032Y0015862D01*
X0099035Y0015871D01*
X0099038Y0015880D01*
X0099042Y0015889D01*
X0099045Y0015898D01*
X0099049Y0015907D01*
X0099053Y0015916D01*
X0099057Y0015925D01*
X0099062Y0015933D01*
X0099066Y0015942D01*
X0099071Y0015950D01*
X0099076Y0015958D01*
X0099082Y0015966D01*
X0099087Y0015974D01*
X0099093Y0015982D01*
X0099099Y0015990D01*
X0099105Y0015997D01*
X0099111Y0016005D01*
X0099117Y0016012D01*
X0099124Y0016019D01*
X0099131Y0016026D01*
X0099137Y0016033D01*
X0099145Y0016039D01*
X0099152Y0016046D01*
X0099159Y0016052D01*
X0099167Y0016058D01*
X0099174Y0016064D01*
X0099182Y0016069D01*
X0099190Y0016075D01*
X0099198Y0016080D01*
X0099207Y0016085D01*
X0099215Y0016090D01*
X0099223Y0016095D01*
X0099232Y0016099D01*
X0099241Y0016103D01*
X0099249Y0016107D01*
X0099258Y0016111D01*
X0099267Y0016115D01*
X0099276Y0016118D01*
X0099285Y0016121D01*
X0099295Y0016124D01*
X0099304Y0016127D01*
X0099313Y0016129D01*
X0099323Y0016132D01*
X0099332Y0016134D01*
X0099342Y0016135D01*
X0099351Y0016137D01*
X0099361Y0016138D01*
X0099370Y0016139D01*
X0099380Y0016140D01*
X0099390Y0016141D01*
X0099399Y0016141D01*
X0099409Y0016141D01*
X0099419Y0016141D01*
X0099428Y0016141D01*
X0099438Y0016140D01*
X0099448Y0016139D01*
X0099457Y0016138D01*
X0099467Y0016137D01*
X0099476Y0016135D01*
X0099486Y0016134D01*
X0099495Y0016132D01*
X0099505Y0016129D01*
X0099514Y0016127D01*
X0099523Y0016124D01*
X0099532Y0016121D01*
X0099542Y0016118D01*
X0099551Y0016115D01*
X0099560Y0016111D01*
X0099568Y0016107D01*
X0099577Y0016103D01*
X0099586Y0016099D01*
X0099595Y0016095D01*
X0099603Y0016090D01*
X0099611Y0016085D01*
X0099620Y0016080D01*
X0099628Y0016075D01*
X0099636Y0016069D01*
X0099643Y0016064D01*
X0099651Y0016058D01*
X0099659Y0016052D01*
X0099666Y0016046D01*
X0099673Y0016039D01*
X0099680Y0016033D01*
X0099687Y0016026D01*
X0099694Y0016019D01*
X0099701Y0016012D01*
X0099707Y0016005D01*
X0099713Y0015997D01*
X0099719Y0015990D01*
X0099725Y0015982D01*
X0099731Y0015974D01*
X0099736Y0015966D01*
X0099742Y0015958D01*
X0099747Y0015950D01*
X0099752Y0015942D01*
X0099756Y0015933D01*
X0099761Y0015925D01*
X0099765Y0015916D01*
X0099769Y0015907D01*
X0099773Y0015898D01*
X0099776Y0015889D01*
X0099780Y0015880D01*
X0099783Y0015871D01*
X0099786Y0015862D01*
X0099788Y0015853D01*
X0099791Y0015843D01*
X0099793Y0015834D01*
X0099795Y0015824D01*
X0099797Y0015815D01*
X0099798Y0015805D01*
X0099800Y0015796D01*
X0099801Y0015786D01*
X0099802Y0015777D01*
X0099802Y0015767D01*
X0099803Y0015757D01*
X0099803Y0015748D01*
X0099803Y0015738D01*
X0099802Y0015728D01*
X0099802Y0015719D01*
X0099801Y0015709D01*
X0099800Y0015699D01*
X0099798Y0015690D01*
X0099797Y0015680D01*
X0099795Y0015671D01*
X0099793Y0015661D01*
X0099791Y0015652D01*
X0099788Y0015643D01*
X0099786Y0015633D01*
X0099783Y0015624D01*
X0099780Y0015615D01*
X0099776Y0015606D01*
X0099773Y0015597D01*
X0099769Y0015588D01*
X0099765Y0015579D01*
X0099761Y0015570D01*
X0099756Y0015562D01*
X0099752Y0015553D01*
X0099747Y0015545D01*
X0099742Y0015537D01*
X0099736Y0015529D01*
X0099731Y0015521D01*
X0099725Y0015513D01*
X0099719Y0015505D01*
X0099713Y0015498D01*
X0099707Y0015490D01*
X0099701Y0015483D01*
X0099694Y0015476D01*
X0099687Y0015469D01*
X0099680Y0015462D01*
X0099673Y0015456D01*
X0099666Y0015449D01*
X0099659Y0015443D01*
X0099651Y0015437D01*
X0099643Y0015431D01*
X0099636Y0015426D01*
X0099628Y0015420D01*
X0099620Y0015415D01*
X0099611Y0015410D01*
X0099603Y0015405D01*
X0099595Y0015400D01*
X0099586Y0015396D01*
X0099577Y0015392D01*
X0099568Y0015388D01*
X0099560Y0015384D01*
X0099551Y0015380D01*
X0099542Y0015377D01*
X0099532Y0015374D01*
X0099523Y0015371D01*
X0099514Y0015368D01*
X0099505Y0015366D01*
X0099495Y0015363D01*
X0099486Y0015361D01*
X0099476Y0015360D01*
X0099467Y0015358D01*
X0099457Y0015357D01*
X0099448Y0015356D01*
X0099438Y0015355D01*
X0099428Y0015354D01*
X0099419Y0015354D01*
X0099409Y0015354D01*
X0099399Y0015354D01*
X0099390Y0015354D01*
X0099380Y0015355D01*
X0099370Y0015356D01*
X0099361Y0015357D01*
X0099351Y0015358D01*
X0099342Y0015360D01*
X0099332Y0015361D01*
X0099323Y0015363D01*
X0099313Y0015366D01*
X0099304Y0015368D01*
X0099295Y0015371D01*
X0099285Y0015374D01*
X0099276Y0015377D01*
X0099267Y0015380D01*
X0099258Y0015384D01*
X0099249Y0015388D01*
X0099241Y0015392D01*
X0099232Y0015396D01*
X0099223Y0015400D01*
X0099215Y0015405D01*
X0099207Y0015410D01*
X0099198Y0015415D01*
X0099190Y0015420D01*
X0099182Y0015426D01*
X0099174Y0015431D01*
X0099167Y0015437D01*
X0099159Y0015443D01*
X0099152Y0015449D01*
X0099145Y0015456D01*
X0099137Y0015462D01*
X0099131Y0015469D01*
X0099124Y0015476D01*
X0099117Y0015483D01*
X0099111Y0015490D01*
X0099105Y0015498D01*
X0099099Y0015505D01*
X0099093Y0015513D01*
X0099087Y0015521D01*
X0099082Y0015529D01*
X0099076Y0015537D01*
X0099071Y0015545D01*
X0099066Y0015553D01*
X0099062Y0015562D01*
X0099057Y0015570D01*
X0099053Y0015579D01*
X0099049Y0015588D01*
X0099045Y0015597D01*
X0099042Y0015606D01*
X0099038Y0015615D01*
X0099035Y0015624D01*
X0099032Y0015633D01*
X0099030Y0015643D01*
X0099027Y0015652D01*
X0099025Y0015661D01*
X0099023Y0015671D01*
X0099021Y0015680D01*
X0099019Y0015690D01*
X0099018Y0015699D01*
X0099017Y0015709D01*
X0099016Y0015719D01*
X0099016Y0015728D01*
X0099015Y0015738D01*
X0099015Y0015748D01*
X0116535Y0007086D02*
X0116535Y0007096D01*
X0116535Y0007105D01*
X0116536Y0007115D01*
X0116537Y0007125D01*
X0116538Y0007134D01*
X0116539Y0007144D01*
X0116541Y0007153D01*
X0116542Y0007163D01*
X0116545Y0007172D01*
X0116547Y0007182D01*
X0116549Y0007191D01*
X0116552Y0007200D01*
X0116555Y0007210D01*
X0116558Y0007219D01*
X0116561Y0007228D01*
X0116565Y0007237D01*
X0116569Y0007246D01*
X0116573Y0007254D01*
X0116577Y0007263D01*
X0116581Y0007272D01*
X0116586Y0007280D01*
X0116591Y0007289D01*
X0116596Y0007297D01*
X0116601Y0007305D01*
X0116607Y0007313D01*
X0116612Y0007321D01*
X0116618Y0007328D01*
X0116624Y0007336D01*
X0116631Y0007343D01*
X0116637Y0007351D01*
X0116644Y0007358D01*
X0116650Y0007365D01*
X0116657Y0007371D01*
X0116664Y0007378D01*
X0116671Y0007384D01*
X0116679Y0007390D01*
X0116686Y0007396D01*
X0116694Y0007402D01*
X0116702Y0007408D01*
X0116710Y0007413D01*
X0116718Y0007419D01*
X0116726Y0007424D01*
X0116735Y0007429D01*
X0116743Y0007433D01*
X0116752Y0007438D01*
X0116760Y0007442D01*
X0116769Y0007446D01*
X0116778Y0007450D01*
X0116787Y0007453D01*
X0116796Y0007457D01*
X0116805Y0007460D01*
X0116814Y0007463D01*
X0116824Y0007466D01*
X0116833Y0007468D01*
X0116842Y0007470D01*
X0116852Y0007472D01*
X0116861Y0007474D01*
X0116871Y0007476D01*
X0116880Y0007477D01*
X0116890Y0007478D01*
X0116900Y0007479D01*
X0116909Y0007479D01*
X0116919Y0007480D01*
X0116929Y0007480D01*
X0116938Y0007480D01*
X0116948Y0007479D01*
X0116958Y0007479D01*
X0116967Y0007478D01*
X0116977Y0007477D01*
X0116986Y0007476D01*
X0116996Y0007474D01*
X0117005Y0007472D01*
X0117015Y0007470D01*
X0117024Y0007468D01*
X0117034Y0007466D01*
X0117043Y0007463D01*
X0117052Y0007460D01*
X0117061Y0007457D01*
X0117070Y0007453D01*
X0117079Y0007450D01*
X0117088Y0007446D01*
X0117097Y0007442D01*
X0117106Y0007438D01*
X0117114Y0007433D01*
X0117123Y0007429D01*
X0117131Y0007424D01*
X0117139Y0007419D01*
X0117147Y0007413D01*
X0117155Y0007408D01*
X0117163Y0007402D01*
X0117171Y0007396D01*
X0117178Y0007390D01*
X0117186Y0007384D01*
X0117193Y0007378D01*
X0117200Y0007371D01*
X0117207Y0007365D01*
X0117214Y0007358D01*
X0117220Y0007351D01*
X0117227Y0007343D01*
X0117233Y0007336D01*
X0117239Y0007328D01*
X0117245Y0007321D01*
X0117250Y0007313D01*
X0117256Y0007305D01*
X0117261Y0007297D01*
X0117266Y0007289D01*
X0117271Y0007280D01*
X0117276Y0007272D01*
X0117280Y0007263D01*
X0117285Y0007254D01*
X0117289Y0007246D01*
X0117292Y0007237D01*
X0117296Y0007228D01*
X0117299Y0007219D01*
X0117302Y0007210D01*
X0117305Y0007200D01*
X0117308Y0007191D01*
X0117311Y0007182D01*
X0117313Y0007172D01*
X0117315Y0007163D01*
X0117317Y0007153D01*
X0117318Y0007144D01*
X0117319Y0007134D01*
X0117320Y0007125D01*
X0117321Y0007115D01*
X0117322Y0007105D01*
X0117322Y0007096D01*
X0117322Y0007086D01*
X0117322Y0007076D01*
X0117322Y0007067D01*
X0117321Y0007057D01*
X0117320Y0007048D01*
X0117319Y0007038D01*
X0117318Y0007028D01*
X0117317Y0007019D01*
X0117315Y0007009D01*
X0117313Y0007000D01*
X0117311Y0006990D01*
X0117308Y0006981D01*
X0117305Y0006972D01*
X0117302Y0006963D01*
X0117299Y0006953D01*
X0117296Y0006944D01*
X0117292Y0006935D01*
X0117289Y0006927D01*
X0117285Y0006918D01*
X0117280Y0006909D01*
X0117276Y0006901D01*
X0117271Y0006892D01*
X0117266Y0006884D01*
X0117261Y0006875D01*
X0117256Y0006867D01*
X0117250Y0006859D01*
X0117245Y0006852D01*
X0117239Y0006844D01*
X0117233Y0006836D01*
X0117227Y0006829D01*
X0117220Y0006822D01*
X0117214Y0006815D01*
X0117207Y0006808D01*
X0117200Y0006801D01*
X0117193Y0006794D01*
X0117186Y0006788D01*
X0117178Y0006782D01*
X0117171Y0006776D01*
X0117163Y0006770D01*
X0117155Y0006764D01*
X0117147Y0006759D01*
X0117139Y0006753D01*
X0117131Y0006748D01*
X0117123Y0006744D01*
X0117114Y0006739D01*
X0117106Y0006734D01*
X0117097Y0006730D01*
X0117088Y0006726D01*
X0117079Y0006722D01*
X0117070Y0006719D01*
X0117061Y0006715D01*
X0117052Y0006712D01*
X0117043Y0006709D01*
X0117034Y0006707D01*
X0117024Y0006704D01*
X0117015Y0006702D01*
X0117005Y0006700D01*
X0116996Y0006698D01*
X0116986Y0006697D01*
X0116977Y0006695D01*
X0116967Y0006694D01*
X0116958Y0006693D01*
X0116948Y0006693D01*
X0116938Y0006693D01*
X0116929Y0006692D01*
X0116919Y0006693D01*
X0116909Y0006693D01*
X0116900Y0006693D01*
X0116890Y0006694D01*
X0116880Y0006695D01*
X0116871Y0006697D01*
X0116861Y0006698D01*
X0116852Y0006700D01*
X0116842Y0006702D01*
X0116833Y0006704D01*
X0116824Y0006707D01*
X0116814Y0006709D01*
X0116805Y0006712D01*
X0116796Y0006715D01*
X0116787Y0006719D01*
X0116778Y0006722D01*
X0116769Y0006726D01*
X0116760Y0006730D01*
X0116752Y0006734D01*
X0116743Y0006739D01*
X0116735Y0006744D01*
X0116726Y0006748D01*
X0116718Y0006753D01*
X0116710Y0006759D01*
X0116702Y0006764D01*
X0116694Y0006770D01*
X0116686Y0006776D01*
X0116679Y0006782D01*
X0116671Y0006788D01*
X0116664Y0006794D01*
X0116657Y0006801D01*
X0116650Y0006808D01*
X0116644Y0006815D01*
X0116637Y0006822D01*
X0116631Y0006829D01*
X0116624Y0006836D01*
X0116618Y0006844D01*
X0116612Y0006852D01*
X0116607Y0006859D01*
X0116601Y0006867D01*
X0116596Y0006875D01*
X0116591Y0006884D01*
X0116586Y0006892D01*
X0116581Y0006901D01*
X0116577Y0006909D01*
X0116573Y0006918D01*
X0116569Y0006927D01*
X0116565Y0006935D01*
X0116561Y0006944D01*
X0116558Y0006953D01*
X0116555Y0006963D01*
X0116552Y0006972D01*
X0116549Y0006981D01*
X0116547Y0006990D01*
X0116545Y0007000D01*
X0116542Y0007009D01*
X0116541Y0007019D01*
X0116539Y0007028D01*
X0116538Y0007038D01*
X0116537Y0007048D01*
X0116536Y0007057D01*
X0116535Y0007067D01*
X0116535Y0007076D01*
X0116535Y0007086D01*
X0118110Y0007874D02*
X0118110Y0023622D01*
X0090551Y0023622D02*
X0090551Y0007874D01*
X0090551Y0023622D02*
X0090551Y0023669D01*
X0090553Y0023717D01*
X0090556Y0023764D01*
X0090560Y0023812D01*
X0090565Y0023859D01*
X0090571Y0023906D01*
X0090579Y0023953D01*
X0090587Y0024000D01*
X0090597Y0024046D01*
X0090608Y0024093D01*
X0090620Y0024139D01*
X0090633Y0024184D01*
X0090647Y0024230D01*
X0090662Y0024275D01*
X0090679Y0024320D01*
X0090696Y0024364D01*
X0090714Y0024408D01*
X0090734Y0024451D01*
X0090755Y0024494D01*
X0090776Y0024536D01*
X0090799Y0024578D01*
X0090822Y0024620D01*
X0090847Y0024660D01*
X0090873Y0024700D01*
X0090899Y0024740D01*
X0090927Y0024779D01*
X0090955Y0024817D01*
X0090984Y0024854D01*
X0091015Y0024891D01*
X0091046Y0024927D01*
X0091078Y0024962D01*
X0091111Y0024997D01*
X0091144Y0025030D01*
X0091179Y0025063D01*
X0091214Y0025095D01*
X0091250Y0025126D01*
X0091287Y0025156D01*
X0091324Y0025186D01*
X0091362Y0025214D01*
X0091401Y0025242D01*
X0091440Y0025268D01*
X0091481Y0025294D01*
X0091521Y0025318D01*
X0091563Y0025342D01*
X0091604Y0025365D01*
X0091647Y0025386D01*
X0091690Y0025407D01*
X0091733Y0025426D01*
X0091777Y0025445D01*
X0091821Y0025462D01*
X0091866Y0025478D01*
X0091911Y0025494D01*
X0091956Y0025508D01*
X0092002Y0025521D01*
X0092048Y0025533D01*
X0092094Y0025544D01*
X0092141Y0025553D01*
X0092188Y0025562D01*
X0092235Y0025569D01*
X0092282Y0025576D01*
X0092329Y0025581D01*
X0092377Y0025585D01*
X0092424Y0025588D01*
X0092472Y0025589D01*
X0092519Y0025590D01*
X0092519Y0005905D02*
X0116141Y0005905D01*
X0116141Y0025590D02*
X0092519Y0025590D01*
X0116141Y0005905D02*
X0116189Y0005906D01*
X0116236Y0005907D01*
X0116284Y0005910D01*
X0116331Y0005914D01*
X0116379Y0005919D01*
X0116426Y0005926D01*
X0116473Y0005933D01*
X0116519Y0005942D01*
X0116566Y0005951D01*
X0116612Y0005962D01*
X0116658Y0005974D01*
X0116704Y0005987D01*
X0116750Y0006001D01*
X0116795Y0006017D01*
X0116839Y0006033D01*
X0116884Y0006050D01*
X0116927Y0006069D01*
X0116971Y0006088D01*
X0117014Y0006109D01*
X0117056Y0006130D01*
X0117098Y0006153D01*
X0117139Y0006177D01*
X0117180Y0006201D01*
X0117220Y0006227D01*
X0117259Y0006253D01*
X0117298Y0006281D01*
X0117336Y0006309D01*
X0117374Y0006339D01*
X0117411Y0006369D01*
X0117447Y0006400D01*
X0117482Y0006432D01*
X0117516Y0006465D01*
X0117550Y0006498D01*
X0117583Y0006533D01*
X0117615Y0006568D01*
X0117646Y0006604D01*
X0117676Y0006641D01*
X0117705Y0006678D01*
X0117734Y0006716D01*
X0117761Y0006755D01*
X0117788Y0006795D01*
X0117813Y0006835D01*
X0117838Y0006876D01*
X0117862Y0006917D01*
X0117884Y0006959D01*
X0117906Y0007001D01*
X0117926Y0007044D01*
X0117946Y0007087D01*
X0117964Y0007131D01*
X0117982Y0007175D01*
X0117998Y0007220D01*
X0118013Y0007265D01*
X0118028Y0007311D01*
X0118041Y0007356D01*
X0118053Y0007402D01*
X0118063Y0007449D01*
X0118073Y0007495D01*
X0118082Y0007542D01*
X0118089Y0007589D01*
X0118095Y0007636D01*
X0118101Y0007684D01*
X0118105Y0007731D01*
X0118107Y0007778D01*
X0118109Y0007826D01*
X0118110Y0007874D01*
X0118110Y0023622D02*
X0118109Y0023669D01*
X0118107Y0023717D01*
X0118105Y0023764D01*
X0118101Y0023812D01*
X0118095Y0023859D01*
X0118089Y0023906D01*
X0118082Y0023953D01*
X0118073Y0024000D01*
X0118063Y0024046D01*
X0118053Y0024093D01*
X0118041Y0024139D01*
X0118028Y0024184D01*
X0118013Y0024230D01*
X0117998Y0024275D01*
X0117982Y0024320D01*
X0117964Y0024364D01*
X0117946Y0024408D01*
X0117926Y0024451D01*
X0117906Y0024494D01*
X0117884Y0024536D01*
X0117862Y0024578D01*
X0117838Y0024620D01*
X0117813Y0024660D01*
X0117788Y0024700D01*
X0117761Y0024740D01*
X0117734Y0024779D01*
X0117705Y0024817D01*
X0117676Y0024854D01*
X0117646Y0024891D01*
X0117615Y0024927D01*
X0117583Y0024962D01*
X0117550Y0024997D01*
X0117516Y0025030D01*
X0117482Y0025063D01*
X0117447Y0025095D01*
X0117411Y0025126D01*
X0117374Y0025156D01*
X0117336Y0025186D01*
X0117298Y0025214D01*
X0117259Y0025242D01*
X0117220Y0025268D01*
X0117180Y0025294D01*
X0117139Y0025318D01*
X0117098Y0025342D01*
X0117056Y0025365D01*
X0117014Y0025386D01*
X0116971Y0025407D01*
X0116927Y0025426D01*
X0116884Y0025445D01*
X0116839Y0025462D01*
X0116795Y0025478D01*
X0116750Y0025494D01*
X0116704Y0025508D01*
X0116658Y0025521D01*
X0116612Y0025533D01*
X0116566Y0025544D01*
X0116519Y0025553D01*
X0116473Y0025562D01*
X0116426Y0025569D01*
X0116379Y0025576D01*
X0116331Y0025581D01*
X0116284Y0025585D01*
X0116236Y0025588D01*
X0116189Y0025589D01*
X0116141Y0025590D01*
X0103937Y0015748D02*
X0103937Y0015757D01*
X0103937Y0015767D01*
X0103938Y0015777D01*
X0103938Y0015786D01*
X0103939Y0015796D01*
X0103941Y0015805D01*
X0103942Y0015815D01*
X0103944Y0015824D01*
X0103946Y0015834D01*
X0103948Y0015843D01*
X0103951Y0015853D01*
X0103953Y0015862D01*
X0103956Y0015871D01*
X0103960Y0015880D01*
X0103963Y0015889D01*
X0103966Y0015898D01*
X0103970Y0015907D01*
X0103974Y0015916D01*
X0103979Y0015925D01*
X0103983Y0015933D01*
X0103988Y0015942D01*
X0103993Y0015950D01*
X0103998Y0015958D01*
X0104003Y0015966D01*
X0104008Y0015974D01*
X0104014Y0015982D01*
X0104020Y0015990D01*
X0104026Y0015997D01*
X0104032Y0016005D01*
X0104038Y0016012D01*
X0104045Y0016019D01*
X0104052Y0016026D01*
X0104059Y0016033D01*
X0104066Y0016039D01*
X0104073Y0016046D01*
X0104080Y0016052D01*
X0104088Y0016058D01*
X0104096Y0016064D01*
X0104104Y0016069D01*
X0104111Y0016075D01*
X0104120Y0016080D01*
X0104128Y0016085D01*
X0104136Y0016090D01*
X0104145Y0016095D01*
X0104153Y0016099D01*
X0104162Y0016103D01*
X0104171Y0016107D01*
X0104180Y0016111D01*
X0104189Y0016115D01*
X0104198Y0016118D01*
X0104207Y0016121D01*
X0104216Y0016124D01*
X0104225Y0016127D01*
X0104235Y0016129D01*
X0104244Y0016132D01*
X0104253Y0016134D01*
X0104263Y0016135D01*
X0104272Y0016137D01*
X0104282Y0016138D01*
X0104292Y0016139D01*
X0104301Y0016140D01*
X0104311Y0016141D01*
X0104321Y0016141D01*
X0104330Y0016141D01*
X0104340Y0016141D01*
X0104350Y0016141D01*
X0104359Y0016140D01*
X0104369Y0016139D01*
X0104378Y0016138D01*
X0104388Y0016137D01*
X0104398Y0016135D01*
X0104407Y0016134D01*
X0104416Y0016132D01*
X0104426Y0016129D01*
X0104435Y0016127D01*
X0104445Y0016124D01*
X0104454Y0016121D01*
X0104463Y0016118D01*
X0104472Y0016115D01*
X0104481Y0016111D01*
X0104490Y0016107D01*
X0104499Y0016103D01*
X0104507Y0016099D01*
X0104516Y0016095D01*
X0104524Y0016090D01*
X0104533Y0016085D01*
X0104541Y0016080D01*
X0104549Y0016075D01*
X0104557Y0016069D01*
X0104565Y0016064D01*
X0104572Y0016058D01*
X0104580Y0016052D01*
X0104587Y0016046D01*
X0104595Y0016039D01*
X0104602Y0016033D01*
X0104609Y0016026D01*
X0104615Y0016019D01*
X0104622Y0016012D01*
X0104628Y0016005D01*
X0104635Y0015997D01*
X0104641Y0015990D01*
X0104646Y0015982D01*
X0104652Y0015974D01*
X0104658Y0015966D01*
X0104663Y0015958D01*
X0104668Y0015950D01*
X0104673Y0015942D01*
X0104677Y0015933D01*
X0104682Y0015925D01*
X0104686Y0015916D01*
X0104690Y0015907D01*
X0104694Y0015898D01*
X0104698Y0015889D01*
X0104701Y0015880D01*
X0104704Y0015871D01*
X0104707Y0015862D01*
X0104710Y0015853D01*
X0104712Y0015843D01*
X0104714Y0015834D01*
X0104716Y0015824D01*
X0104718Y0015815D01*
X0104720Y0015805D01*
X0104721Y0015796D01*
X0104722Y0015786D01*
X0104723Y0015777D01*
X0104723Y0015767D01*
X0104724Y0015757D01*
X0104724Y0015748D01*
X0104724Y0015738D01*
X0104723Y0015728D01*
X0104723Y0015719D01*
X0104722Y0015709D01*
X0104721Y0015699D01*
X0104720Y0015690D01*
X0104718Y0015680D01*
X0104716Y0015671D01*
X0104714Y0015661D01*
X0104712Y0015652D01*
X0104710Y0015643D01*
X0104707Y0015633D01*
X0104704Y0015624D01*
X0104701Y0015615D01*
X0104698Y0015606D01*
X0104694Y0015597D01*
X0104690Y0015588D01*
X0104686Y0015579D01*
X0104682Y0015570D01*
X0104677Y0015562D01*
X0104673Y0015553D01*
X0104668Y0015545D01*
X0104663Y0015537D01*
X0104658Y0015529D01*
X0104652Y0015521D01*
X0104646Y0015513D01*
X0104641Y0015505D01*
X0104635Y0015498D01*
X0104628Y0015490D01*
X0104622Y0015483D01*
X0104615Y0015476D01*
X0104609Y0015469D01*
X0104602Y0015462D01*
X0104595Y0015456D01*
X0104587Y0015449D01*
X0104580Y0015443D01*
X0104572Y0015437D01*
X0104565Y0015431D01*
X0104557Y0015426D01*
X0104549Y0015420D01*
X0104541Y0015415D01*
X0104533Y0015410D01*
X0104524Y0015405D01*
X0104516Y0015400D01*
X0104507Y0015396D01*
X0104499Y0015392D01*
X0104490Y0015388D01*
X0104481Y0015384D01*
X0104472Y0015380D01*
X0104463Y0015377D01*
X0104454Y0015374D01*
X0104445Y0015371D01*
X0104435Y0015368D01*
X0104426Y0015366D01*
X0104416Y0015363D01*
X0104407Y0015361D01*
X0104398Y0015360D01*
X0104388Y0015358D01*
X0104378Y0015357D01*
X0104369Y0015356D01*
X0104359Y0015355D01*
X0104350Y0015354D01*
X0104340Y0015354D01*
X0104330Y0015354D01*
X0104321Y0015354D01*
X0104311Y0015354D01*
X0104301Y0015355D01*
X0104292Y0015356D01*
X0104282Y0015357D01*
X0104272Y0015358D01*
X0104263Y0015360D01*
X0104253Y0015361D01*
X0104244Y0015363D01*
X0104235Y0015366D01*
X0104225Y0015368D01*
X0104216Y0015371D01*
X0104207Y0015374D01*
X0104198Y0015377D01*
X0104189Y0015380D01*
X0104180Y0015384D01*
X0104171Y0015388D01*
X0104162Y0015392D01*
X0104153Y0015396D01*
X0104145Y0015400D01*
X0104136Y0015405D01*
X0104128Y0015410D01*
X0104120Y0015415D01*
X0104111Y0015420D01*
X0104104Y0015426D01*
X0104096Y0015431D01*
X0104088Y0015437D01*
X0104080Y0015443D01*
X0104073Y0015449D01*
X0104066Y0015456D01*
X0104059Y0015462D01*
X0104052Y0015469D01*
X0104045Y0015476D01*
X0104038Y0015483D01*
X0104032Y0015490D01*
X0104026Y0015498D01*
X0104020Y0015505D01*
X0104014Y0015513D01*
X0104008Y0015521D01*
X0104003Y0015529D01*
X0103998Y0015537D01*
X0103993Y0015545D01*
X0103988Y0015553D01*
X0103983Y0015562D01*
X0103979Y0015570D01*
X0103974Y0015579D01*
X0103970Y0015588D01*
X0103966Y0015597D01*
X0103963Y0015606D01*
X0103960Y0015615D01*
X0103956Y0015624D01*
X0103953Y0015633D01*
X0103951Y0015643D01*
X0103948Y0015652D01*
X0103946Y0015661D01*
X0103944Y0015671D01*
X0103942Y0015680D01*
X0103941Y0015690D01*
X0103939Y0015699D01*
X0103938Y0015709D01*
X0103938Y0015719D01*
X0103937Y0015728D01*
X0103937Y0015738D01*
X0103937Y0015748D01*
X0092942Y0021456D02*
X0092943Y0021470D01*
X0092943Y0021484D01*
X0092944Y0021497D01*
X0092945Y0021511D01*
X0092947Y0021525D01*
X0092948Y0021539D01*
X0092951Y0021552D01*
X0092953Y0021566D01*
X0092956Y0021579D01*
X0092959Y0021592D01*
X0092963Y0021606D01*
X0092967Y0021619D01*
X0092971Y0021632D01*
X0092975Y0021645D01*
X0092980Y0021658D01*
X0092985Y0021671D01*
X0092991Y0021684D01*
X0092996Y0021696D01*
X0093002Y0021708D01*
X0093009Y0021721D01*
X0093015Y0021733D01*
X0093022Y0021745D01*
X0093029Y0021756D01*
X0093037Y0021768D01*
X0093045Y0021779D01*
X0093053Y0021790D01*
X0093061Y0021801D01*
X0093070Y0021812D01*
X0093079Y0021823D01*
X0093088Y0021833D01*
X0093097Y0021843D01*
X0093107Y0021853D01*
X0093117Y0021863D01*
X0093127Y0021872D01*
X0093137Y0021881D01*
X0093148Y0021890D01*
X0093158Y0021898D01*
X0093169Y0021907D01*
X0093180Y0021915D01*
X0093192Y0021923D01*
X0093203Y0021930D01*
X0093215Y0021937D01*
X0093227Y0021944D01*
X0093239Y0021951D01*
X0093251Y0021957D01*
X0093264Y0021963D01*
X0093276Y0021969D01*
X0093289Y0021975D01*
X0093302Y0021980D01*
X0093314Y0021984D01*
X0093327Y0021989D01*
X0093341Y0021993D01*
X0093354Y0021997D01*
X0093367Y0022000D01*
X0093381Y0022004D01*
X0093394Y0022006D01*
X0093408Y0022009D01*
X0093421Y0022011D01*
X0093435Y0022013D01*
X0093448Y0022015D01*
X0093462Y0022016D01*
X0093476Y0022017D01*
X0093490Y0022017D01*
X0093503Y0022017D01*
X0093517Y0022017D01*
X0093531Y0022017D01*
X0093545Y0022016D01*
X0093558Y0022015D01*
X0093572Y0022013D01*
X0093586Y0022011D01*
X0093599Y0022009D01*
X0093613Y0022006D01*
X0093626Y0022004D01*
X0093640Y0022000D01*
X0093653Y0021997D01*
X0093666Y0021993D01*
X0093679Y0021989D01*
X0093692Y0021984D01*
X0093705Y0021980D01*
X0093718Y0021975D01*
X0093731Y0021969D01*
X0093743Y0021963D01*
X0093756Y0021957D01*
X0093768Y0021951D01*
X0093780Y0021944D01*
X0093792Y0021937D01*
X0093804Y0021930D01*
X0093815Y0021923D01*
X0093826Y0021915D01*
X0093838Y0021907D01*
X0093849Y0021898D01*
X0093859Y0021890D01*
X0093870Y0021881D01*
X0093880Y0021872D01*
X0093890Y0021863D01*
X0093900Y0021853D01*
X0093910Y0021843D01*
X0093919Y0021833D01*
X0093928Y0021823D01*
X0093937Y0021812D01*
X0093946Y0021801D01*
X0093954Y0021790D01*
X0093962Y0021779D01*
X0093970Y0021768D01*
X0093977Y0021756D01*
X0093985Y0021745D01*
X0093992Y0021733D01*
X0093998Y0021721D01*
X0094005Y0021708D01*
X0094011Y0021696D01*
X0094016Y0021684D01*
X0094022Y0021671D01*
X0094027Y0021658D01*
X0094032Y0021645D01*
X0094036Y0021632D01*
X0094040Y0021619D01*
X0094044Y0021606D01*
X0094048Y0021592D01*
X0094051Y0021579D01*
X0094054Y0021566D01*
X0094056Y0021552D01*
X0094058Y0021539D01*
X0094060Y0021525D01*
X0094062Y0021511D01*
X0094063Y0021497D01*
X0094064Y0021484D01*
X0094064Y0021470D01*
X0094064Y0021456D01*
X0094064Y0021442D01*
X0094064Y0021429D01*
X0094063Y0021415D01*
X0094062Y0021401D01*
X0094060Y0021388D01*
X0094058Y0021374D01*
X0094056Y0021360D01*
X0094054Y0021347D01*
X0094051Y0021333D01*
X0094048Y0021320D01*
X0094044Y0021307D01*
X0094040Y0021293D01*
X0094036Y0021280D01*
X0094032Y0021267D01*
X0094027Y0021254D01*
X0094022Y0021242D01*
X0094016Y0021229D01*
X0094011Y0021216D01*
X0094005Y0021204D01*
X0093998Y0021192D01*
X0093992Y0021180D01*
X0093985Y0021168D01*
X0093977Y0021156D01*
X0093970Y0021145D01*
X0093962Y0021133D01*
X0093954Y0021122D01*
X0093946Y0021111D01*
X0093937Y0021100D01*
X0093928Y0021090D01*
X0093919Y0021079D01*
X0093910Y0021069D01*
X0093900Y0021060D01*
X0093890Y0021050D01*
X0093880Y0021040D01*
X0093870Y0021031D01*
X0093859Y0021023D01*
X0093849Y0021014D01*
X0093838Y0021006D01*
X0093826Y0020997D01*
X0093815Y0020990D01*
X0093804Y0020982D01*
X0093792Y0020975D01*
X0093780Y0020968D01*
X0093768Y0020961D01*
X0093756Y0020955D01*
X0093743Y0020949D01*
X0093731Y0020943D01*
X0093718Y0020938D01*
X0093705Y0020933D01*
X0093692Y0020928D01*
X0093679Y0020923D01*
X0093666Y0020919D01*
X0093653Y0020915D01*
X0093640Y0020912D01*
X0093626Y0020909D01*
X0093613Y0020906D01*
X0093599Y0020903D01*
X0093586Y0020901D01*
X0093572Y0020899D01*
X0093558Y0020898D01*
X0093545Y0020897D01*
X0093531Y0020896D01*
X0093517Y0020895D01*
X0093503Y0020895D01*
X0093490Y0020895D01*
X0093476Y0020896D01*
X0093462Y0020897D01*
X0093448Y0020898D01*
X0093435Y0020899D01*
X0093421Y0020901D01*
X0093408Y0020903D01*
X0093394Y0020906D01*
X0093381Y0020909D01*
X0093367Y0020912D01*
X0093354Y0020915D01*
X0093341Y0020919D01*
X0093327Y0020923D01*
X0093314Y0020928D01*
X0093302Y0020933D01*
X0093289Y0020938D01*
X0093276Y0020943D01*
X0093264Y0020949D01*
X0093251Y0020955D01*
X0093239Y0020961D01*
X0093227Y0020968D01*
X0093215Y0020975D01*
X0093203Y0020982D01*
X0093192Y0020990D01*
X0093180Y0020997D01*
X0093169Y0021006D01*
X0093158Y0021014D01*
X0093148Y0021023D01*
X0093137Y0021031D01*
X0093127Y0021040D01*
X0093117Y0021050D01*
X0093107Y0021060D01*
X0093097Y0021069D01*
X0093088Y0021079D01*
X0093079Y0021090D01*
X0093070Y0021100D01*
X0093061Y0021111D01*
X0093053Y0021122D01*
X0093045Y0021133D01*
X0093037Y0021145D01*
X0093029Y0021156D01*
X0093022Y0021168D01*
X0093015Y0021180D01*
X0093009Y0021192D01*
X0093002Y0021204D01*
X0092996Y0021216D01*
X0092991Y0021229D01*
X0092985Y0021242D01*
X0092980Y0021254D01*
X0092975Y0021267D01*
X0092971Y0021280D01*
X0092967Y0021293D01*
X0092963Y0021307D01*
X0092959Y0021320D01*
X0092956Y0021333D01*
X0092953Y0021347D01*
X0092951Y0021360D01*
X0092948Y0021374D01*
X0092947Y0021388D01*
X0092945Y0021401D01*
X0092944Y0021415D01*
X0092943Y0021429D01*
X0092943Y0021442D01*
X0092942Y0021456D01*
X0092942Y0010039D02*
X0092943Y0010053D01*
X0092943Y0010066D01*
X0092944Y0010080D01*
X0092945Y0010094D01*
X0092947Y0010108D01*
X0092948Y0010121D01*
X0092951Y0010135D01*
X0092953Y0010148D01*
X0092956Y0010162D01*
X0092959Y0010175D01*
X0092963Y0010189D01*
X0092967Y0010202D01*
X0092971Y0010215D01*
X0092975Y0010228D01*
X0092980Y0010241D01*
X0092985Y0010254D01*
X0092991Y0010266D01*
X0092996Y0010279D01*
X0093002Y0010291D01*
X0093009Y0010303D01*
X0093015Y0010315D01*
X0093022Y0010327D01*
X0093029Y0010339D01*
X0093037Y0010351D01*
X0093045Y0010362D01*
X0093053Y0010373D01*
X0093061Y0010384D01*
X0093070Y0010395D01*
X0093079Y0010405D01*
X0093088Y0010416D01*
X0093097Y0010426D01*
X0093107Y0010436D01*
X0093117Y0010445D01*
X0093127Y0010455D01*
X0093137Y0010464D01*
X0093148Y0010473D01*
X0093158Y0010481D01*
X0093169Y0010490D01*
X0093180Y0010498D01*
X0093192Y0010505D01*
X0093203Y0010513D01*
X0093215Y0010520D01*
X0093227Y0010527D01*
X0093239Y0010534D01*
X0093251Y0010540D01*
X0093264Y0010546D01*
X0093276Y0010552D01*
X0093289Y0010557D01*
X0093302Y0010562D01*
X0093314Y0010567D01*
X0093327Y0010572D01*
X0093341Y0010576D01*
X0093354Y0010580D01*
X0093367Y0010583D01*
X0093381Y0010586D01*
X0093394Y0010589D01*
X0093408Y0010592D01*
X0093421Y0010594D01*
X0093435Y0010596D01*
X0093448Y0010597D01*
X0093462Y0010598D01*
X0093476Y0010599D01*
X0093490Y0010600D01*
X0093503Y0010600D01*
X0093517Y0010600D01*
X0093531Y0010599D01*
X0093545Y0010598D01*
X0093558Y0010597D01*
X0093572Y0010596D01*
X0093586Y0010594D01*
X0093599Y0010592D01*
X0093613Y0010589D01*
X0093626Y0010586D01*
X0093640Y0010583D01*
X0093653Y0010580D01*
X0093666Y0010576D01*
X0093679Y0010572D01*
X0093692Y0010567D01*
X0093705Y0010562D01*
X0093718Y0010557D01*
X0093731Y0010552D01*
X0093743Y0010546D01*
X0093756Y0010540D01*
X0093768Y0010534D01*
X0093780Y0010527D01*
X0093792Y0010520D01*
X0093804Y0010513D01*
X0093815Y0010505D01*
X0093826Y0010498D01*
X0093838Y0010490D01*
X0093849Y0010481D01*
X0093859Y0010473D01*
X0093870Y0010464D01*
X0093880Y0010455D01*
X0093890Y0010445D01*
X0093900Y0010436D01*
X0093910Y0010426D01*
X0093919Y0010416D01*
X0093928Y0010405D01*
X0093937Y0010395D01*
X0093946Y0010384D01*
X0093954Y0010373D01*
X0093962Y0010362D01*
X0093970Y0010351D01*
X0093977Y0010339D01*
X0093985Y0010327D01*
X0093992Y0010315D01*
X0093998Y0010303D01*
X0094005Y0010291D01*
X0094011Y0010279D01*
X0094016Y0010266D01*
X0094022Y0010254D01*
X0094027Y0010241D01*
X0094032Y0010228D01*
X0094036Y0010215D01*
X0094040Y0010202D01*
X0094044Y0010189D01*
X0094048Y0010175D01*
X0094051Y0010162D01*
X0094054Y0010148D01*
X0094056Y0010135D01*
X0094058Y0010121D01*
X0094060Y0010108D01*
X0094062Y0010094D01*
X0094063Y0010080D01*
X0094064Y0010066D01*
X0094064Y0010053D01*
X0094064Y0010039D01*
X0094064Y0010025D01*
X0094064Y0010011D01*
X0094063Y0009998D01*
X0094062Y0009984D01*
X0094060Y0009970D01*
X0094058Y0009957D01*
X0094056Y0009943D01*
X0094054Y0009929D01*
X0094051Y0009916D01*
X0094048Y0009903D01*
X0094044Y0009889D01*
X0094040Y0009876D01*
X0094036Y0009863D01*
X0094032Y0009850D01*
X0094027Y0009837D01*
X0094022Y0009824D01*
X0094016Y0009812D01*
X0094011Y0009799D01*
X0094005Y0009787D01*
X0093998Y0009774D01*
X0093992Y0009762D01*
X0093985Y0009750D01*
X0093977Y0009739D01*
X0093970Y0009727D01*
X0093962Y0009716D01*
X0093954Y0009705D01*
X0093946Y0009694D01*
X0093937Y0009683D01*
X0093928Y0009672D01*
X0093919Y0009662D01*
X0093910Y0009652D01*
X0093900Y0009642D01*
X0093890Y0009633D01*
X0093880Y0009623D01*
X0093870Y0009614D01*
X0093859Y0009605D01*
X0093849Y0009597D01*
X0093838Y0009588D01*
X0093826Y0009580D01*
X0093815Y0009572D01*
X0093804Y0009565D01*
X0093792Y0009558D01*
X0093780Y0009551D01*
X0093768Y0009544D01*
X0093756Y0009538D01*
X0093743Y0009532D01*
X0093731Y0009526D01*
X0093718Y0009521D01*
X0093705Y0009515D01*
X0093692Y0009511D01*
X0093679Y0009506D01*
X0093666Y0009502D01*
X0093653Y0009498D01*
X0093640Y0009495D01*
X0093626Y0009491D01*
X0093613Y0009489D01*
X0093599Y0009486D01*
X0093586Y0009484D01*
X0093572Y0009482D01*
X0093558Y0009481D01*
X0093545Y0009479D01*
X0093531Y0009479D01*
X0093517Y0009478D01*
X0093503Y0009478D01*
X0093490Y0009478D01*
X0093476Y0009479D01*
X0093462Y0009479D01*
X0093448Y0009481D01*
X0093435Y0009482D01*
X0093421Y0009484D01*
X0093408Y0009486D01*
X0093394Y0009489D01*
X0093381Y0009491D01*
X0093367Y0009495D01*
X0093354Y0009498D01*
X0093341Y0009502D01*
X0093327Y0009506D01*
X0093314Y0009511D01*
X0093302Y0009515D01*
X0093289Y0009521D01*
X0093276Y0009526D01*
X0093264Y0009532D01*
X0093251Y0009538D01*
X0093239Y0009544D01*
X0093227Y0009551D01*
X0093215Y0009558D01*
X0093203Y0009565D01*
X0093192Y0009572D01*
X0093180Y0009580D01*
X0093169Y0009588D01*
X0093158Y0009597D01*
X0093148Y0009605D01*
X0093137Y0009614D01*
X0093127Y0009623D01*
X0093117Y0009633D01*
X0093107Y0009642D01*
X0093097Y0009652D01*
X0093088Y0009662D01*
X0093079Y0009672D01*
X0093070Y0009683D01*
X0093061Y0009694D01*
X0093053Y0009705D01*
X0093045Y0009716D01*
X0093037Y0009727D01*
X0093029Y0009739D01*
X0093022Y0009750D01*
X0093015Y0009762D01*
X0093009Y0009774D01*
X0093002Y0009787D01*
X0092996Y0009799D01*
X0092991Y0009812D01*
X0092985Y0009824D01*
X0092980Y0009837D01*
X0092975Y0009850D01*
X0092971Y0009863D01*
X0092967Y0009876D01*
X0092963Y0009889D01*
X0092959Y0009903D01*
X0092956Y0009916D01*
X0092953Y0009929D01*
X0092951Y0009943D01*
X0092948Y0009957D01*
X0092947Y0009970D01*
X0092945Y0009984D01*
X0092944Y0009998D01*
X0092943Y0010011D01*
X0092943Y0010025D01*
X0092942Y0010039D01*
X0114399Y0011614D02*
X0114399Y0011627D01*
X0114400Y0011641D01*
X0114401Y0011655D01*
X0114402Y0011669D01*
X0114403Y0011682D01*
X0114405Y0011696D01*
X0114407Y0011710D01*
X0114410Y0011723D01*
X0114413Y0011737D01*
X0114416Y0011750D01*
X0114419Y0011763D01*
X0114423Y0011777D01*
X0114427Y0011790D01*
X0114432Y0011803D01*
X0114437Y0011816D01*
X0114442Y0011828D01*
X0114447Y0011841D01*
X0114453Y0011854D01*
X0114459Y0011866D01*
X0114465Y0011878D01*
X0114472Y0011890D01*
X0114479Y0011902D01*
X0114486Y0011914D01*
X0114494Y0011925D01*
X0114501Y0011937D01*
X0114510Y0011948D01*
X0114518Y0011959D01*
X0114526Y0011970D01*
X0114535Y0011980D01*
X0114544Y0011990D01*
X0114554Y0012001D01*
X0114563Y0012010D01*
X0114573Y0012020D01*
X0114583Y0012029D01*
X0114594Y0012038D01*
X0114604Y0012047D01*
X0114615Y0012056D01*
X0114626Y0012064D01*
X0114637Y0012072D01*
X0114648Y0012080D01*
X0114660Y0012088D01*
X0114672Y0012095D01*
X0114684Y0012102D01*
X0114696Y0012108D01*
X0114708Y0012115D01*
X0114720Y0012121D01*
X0114733Y0012127D01*
X0114745Y0012132D01*
X0114758Y0012137D01*
X0114771Y0012142D01*
X0114784Y0012146D01*
X0114797Y0012151D01*
X0114810Y0012154D01*
X0114824Y0012158D01*
X0114837Y0012161D01*
X0114851Y0012164D01*
X0114864Y0012166D01*
X0114878Y0012169D01*
X0114891Y0012170D01*
X0114905Y0012172D01*
X0114919Y0012173D01*
X0114933Y0012174D01*
X0114946Y0012175D01*
X0114960Y0012175D01*
X0114974Y0012175D01*
X0114988Y0012174D01*
X0115001Y0012173D01*
X0115015Y0012172D01*
X0115029Y0012170D01*
X0115042Y0012169D01*
X0115056Y0012166D01*
X0115070Y0012164D01*
X0115083Y0012161D01*
X0115096Y0012158D01*
X0115110Y0012154D01*
X0115123Y0012151D01*
X0115136Y0012146D01*
X0115149Y0012142D01*
X0115162Y0012137D01*
X0115175Y0012132D01*
X0115187Y0012127D01*
X0115200Y0012121D01*
X0115212Y0012115D01*
X0115225Y0012108D01*
X0115237Y0012102D01*
X0115249Y0012095D01*
X0115260Y0012088D01*
X0115272Y0012080D01*
X0115283Y0012072D01*
X0115294Y0012064D01*
X0115305Y0012056D01*
X0115316Y0012047D01*
X0115327Y0012038D01*
X0115337Y0012029D01*
X0115347Y0012020D01*
X0115357Y0012010D01*
X0115366Y0012001D01*
X0115376Y0011990D01*
X0115385Y0011980D01*
X0115394Y0011970D01*
X0115402Y0011959D01*
X0115411Y0011948D01*
X0115419Y0011937D01*
X0115427Y0011925D01*
X0115434Y0011914D01*
X0115441Y0011902D01*
X0115448Y0011890D01*
X0115455Y0011878D01*
X0115461Y0011866D01*
X0115467Y0011854D01*
X0115473Y0011841D01*
X0115478Y0011828D01*
X0115484Y0011816D01*
X0115488Y0011803D01*
X0115493Y0011790D01*
X0115497Y0011777D01*
X0115501Y0011763D01*
X0115504Y0011750D01*
X0115508Y0011737D01*
X0115510Y0011723D01*
X0115513Y0011710D01*
X0115515Y0011696D01*
X0115517Y0011682D01*
X0115518Y0011669D01*
X0115520Y0011655D01*
X0115520Y0011641D01*
X0115521Y0011627D01*
X0115521Y0011614D01*
X0115521Y0011600D01*
X0115520Y0011586D01*
X0115520Y0011572D01*
X0115518Y0011559D01*
X0115517Y0011545D01*
X0115515Y0011531D01*
X0115513Y0011518D01*
X0115510Y0011504D01*
X0115508Y0011491D01*
X0115504Y0011477D01*
X0115501Y0011464D01*
X0115497Y0011451D01*
X0115493Y0011438D01*
X0115488Y0011425D01*
X0115484Y0011412D01*
X0115478Y0011399D01*
X0115473Y0011386D01*
X0115467Y0011374D01*
X0115461Y0011361D01*
X0115455Y0011349D01*
X0115448Y0011337D01*
X0115441Y0011325D01*
X0115434Y0011314D01*
X0115427Y0011302D01*
X0115419Y0011291D01*
X0115411Y0011279D01*
X0115402Y0011269D01*
X0115394Y0011258D01*
X0115385Y0011247D01*
X0115376Y0011237D01*
X0115366Y0011227D01*
X0115357Y0011217D01*
X0115347Y0011207D01*
X0115337Y0011198D01*
X0115327Y0011189D01*
X0115316Y0011180D01*
X0115305Y0011171D01*
X0115294Y0011163D01*
X0115283Y0011155D01*
X0115272Y0011147D01*
X0115260Y0011140D01*
X0115249Y0011132D01*
X0115237Y0011126D01*
X0115225Y0011119D01*
X0115212Y0011113D01*
X0115200Y0011107D01*
X0115187Y0011101D01*
X0115175Y0011095D01*
X0115162Y0011090D01*
X0115149Y0011085D01*
X0115136Y0011081D01*
X0115123Y0011077D01*
X0115110Y0011073D01*
X0115096Y0011069D01*
X0115083Y0011066D01*
X0115070Y0011063D01*
X0115056Y0011061D01*
X0115042Y0011059D01*
X0115029Y0011057D01*
X0115015Y0011055D01*
X0115001Y0011054D01*
X0114988Y0011053D01*
X0114974Y0011053D01*
X0114960Y0011053D01*
X0114946Y0011053D01*
X0114933Y0011053D01*
X0114919Y0011054D01*
X0114905Y0011055D01*
X0114891Y0011057D01*
X0114878Y0011059D01*
X0114864Y0011061D01*
X0114851Y0011063D01*
X0114837Y0011066D01*
X0114824Y0011069D01*
X0114810Y0011073D01*
X0114797Y0011077D01*
X0114784Y0011081D01*
X0114771Y0011085D01*
X0114758Y0011090D01*
X0114745Y0011095D01*
X0114733Y0011101D01*
X0114720Y0011107D01*
X0114708Y0011113D01*
X0114696Y0011119D01*
X0114684Y0011126D01*
X0114672Y0011132D01*
X0114660Y0011140D01*
X0114648Y0011147D01*
X0114637Y0011155D01*
X0114626Y0011163D01*
X0114615Y0011171D01*
X0114604Y0011180D01*
X0114594Y0011189D01*
X0114583Y0011198D01*
X0114573Y0011207D01*
X0114563Y0011217D01*
X0114554Y0011227D01*
X0114544Y0011237D01*
X0114535Y0011247D01*
X0114526Y0011258D01*
X0114518Y0011269D01*
X0114510Y0011279D01*
X0114501Y0011291D01*
X0114494Y0011302D01*
X0114486Y0011314D01*
X0114479Y0011325D01*
X0114472Y0011337D01*
X0114465Y0011349D01*
X0114459Y0011361D01*
X0114453Y0011374D01*
X0114447Y0011386D01*
X0114442Y0011399D01*
X0114437Y0011412D01*
X0114432Y0011425D01*
X0114427Y0011438D01*
X0114423Y0011451D01*
X0114419Y0011464D01*
X0114416Y0011477D01*
X0114413Y0011491D01*
X0114410Y0011504D01*
X0114407Y0011518D01*
X0114405Y0011531D01*
X0114403Y0011545D01*
X0114402Y0011559D01*
X0114401Y0011572D01*
X0114400Y0011586D01*
X0114399Y0011600D01*
X0114399Y0011614D01*
X0114399Y0019881D02*
X0114399Y0019895D01*
X0114400Y0019909D01*
X0114401Y0019923D01*
X0114402Y0019936D01*
X0114403Y0019950D01*
X0114405Y0019964D01*
X0114407Y0019977D01*
X0114410Y0019991D01*
X0114413Y0020004D01*
X0114416Y0020018D01*
X0114419Y0020031D01*
X0114423Y0020044D01*
X0114427Y0020057D01*
X0114432Y0020070D01*
X0114437Y0020083D01*
X0114442Y0020096D01*
X0114447Y0020109D01*
X0114453Y0020121D01*
X0114459Y0020134D01*
X0114465Y0020146D01*
X0114472Y0020158D01*
X0114479Y0020170D01*
X0114486Y0020182D01*
X0114494Y0020193D01*
X0114501Y0020204D01*
X0114510Y0020216D01*
X0114518Y0020227D01*
X0114526Y0020237D01*
X0114535Y0020248D01*
X0114544Y0020258D01*
X0114554Y0020268D01*
X0114563Y0020278D01*
X0114573Y0020288D01*
X0114583Y0020297D01*
X0114594Y0020306D01*
X0114604Y0020315D01*
X0114615Y0020324D01*
X0114626Y0020332D01*
X0114637Y0020340D01*
X0114648Y0020348D01*
X0114660Y0020355D01*
X0114672Y0020363D01*
X0114684Y0020370D01*
X0114696Y0020376D01*
X0114708Y0020382D01*
X0114720Y0020389D01*
X0114733Y0020394D01*
X0114745Y0020400D01*
X0114758Y0020405D01*
X0114771Y0020410D01*
X0114784Y0020414D01*
X0114797Y0020418D01*
X0114810Y0020422D01*
X0114824Y0020426D01*
X0114837Y0020429D01*
X0114851Y0020432D01*
X0114864Y0020434D01*
X0114878Y0020436D01*
X0114891Y0020438D01*
X0114905Y0020440D01*
X0114919Y0020441D01*
X0114933Y0020442D01*
X0114946Y0020442D01*
X0114960Y0020442D01*
X0114974Y0020442D01*
X0114988Y0020442D01*
X0115001Y0020441D01*
X0115015Y0020440D01*
X0115029Y0020438D01*
X0115042Y0020436D01*
X0115056Y0020434D01*
X0115070Y0020432D01*
X0115083Y0020429D01*
X0115096Y0020426D01*
X0115110Y0020422D01*
X0115123Y0020418D01*
X0115136Y0020414D01*
X0115149Y0020410D01*
X0115162Y0020405D01*
X0115175Y0020400D01*
X0115187Y0020394D01*
X0115200Y0020389D01*
X0115212Y0020382D01*
X0115225Y0020376D01*
X0115237Y0020370D01*
X0115249Y0020363D01*
X0115260Y0020355D01*
X0115272Y0020348D01*
X0115283Y0020340D01*
X0115294Y0020332D01*
X0115305Y0020324D01*
X0115316Y0020315D01*
X0115327Y0020306D01*
X0115337Y0020297D01*
X0115347Y0020288D01*
X0115357Y0020278D01*
X0115366Y0020268D01*
X0115376Y0020258D01*
X0115385Y0020248D01*
X0115394Y0020237D01*
X0115402Y0020227D01*
X0115411Y0020216D01*
X0115419Y0020204D01*
X0115427Y0020193D01*
X0115434Y0020182D01*
X0115441Y0020170D01*
X0115448Y0020158D01*
X0115455Y0020146D01*
X0115461Y0020134D01*
X0115467Y0020121D01*
X0115473Y0020109D01*
X0115478Y0020096D01*
X0115484Y0020083D01*
X0115488Y0020070D01*
X0115493Y0020057D01*
X0115497Y0020044D01*
X0115501Y0020031D01*
X0115504Y0020018D01*
X0115508Y0020004D01*
X0115510Y0019991D01*
X0115513Y0019977D01*
X0115515Y0019964D01*
X0115517Y0019950D01*
X0115518Y0019936D01*
X0115520Y0019923D01*
X0115520Y0019909D01*
X0115521Y0019895D01*
X0115521Y0019881D01*
X0115521Y0019868D01*
X0115520Y0019854D01*
X0115520Y0019840D01*
X0115518Y0019826D01*
X0115517Y0019813D01*
X0115515Y0019799D01*
X0115513Y0019785D01*
X0115510Y0019772D01*
X0115508Y0019758D01*
X0115504Y0019745D01*
X0115501Y0019732D01*
X0115497Y0019719D01*
X0115493Y0019705D01*
X0115488Y0019692D01*
X0115484Y0019679D01*
X0115478Y0019667D01*
X0115473Y0019654D01*
X0115467Y0019642D01*
X0115461Y0019629D01*
X0115455Y0019617D01*
X0115448Y0019605D01*
X0115441Y0019593D01*
X0115434Y0019581D01*
X0115427Y0019570D01*
X0115419Y0019558D01*
X0115411Y0019547D01*
X0115402Y0019536D01*
X0115394Y0019525D01*
X0115385Y0019515D01*
X0115376Y0019505D01*
X0115366Y0019495D01*
X0115357Y0019485D01*
X0115347Y0019475D01*
X0115337Y0019466D01*
X0115327Y0019457D01*
X0115316Y0019448D01*
X0115305Y0019439D01*
X0115294Y0019431D01*
X0115283Y0019423D01*
X0115272Y0019415D01*
X0115260Y0019407D01*
X0115249Y0019400D01*
X0115237Y0019393D01*
X0115225Y0019387D01*
X0115212Y0019380D01*
X0115200Y0019374D01*
X0115187Y0019369D01*
X0115175Y0019363D01*
X0115162Y0019358D01*
X0115149Y0019353D01*
X0115136Y0019349D01*
X0115123Y0019345D01*
X0115110Y0019341D01*
X0115096Y0019337D01*
X0115083Y0019334D01*
X0115070Y0019331D01*
X0115056Y0019329D01*
X0115042Y0019326D01*
X0115029Y0019325D01*
X0115015Y0019323D01*
X0115001Y0019322D01*
X0114988Y0019321D01*
X0114974Y0019321D01*
X0114960Y0019320D01*
X0114946Y0019321D01*
X0114933Y0019321D01*
X0114919Y0019322D01*
X0114905Y0019323D01*
X0114891Y0019325D01*
X0114878Y0019326D01*
X0114864Y0019329D01*
X0114851Y0019331D01*
X0114837Y0019334D01*
X0114824Y0019337D01*
X0114810Y0019341D01*
X0114797Y0019345D01*
X0114784Y0019349D01*
X0114771Y0019353D01*
X0114758Y0019358D01*
X0114745Y0019363D01*
X0114733Y0019369D01*
X0114720Y0019374D01*
X0114708Y0019380D01*
X0114696Y0019387D01*
X0114684Y0019393D01*
X0114672Y0019400D01*
X0114660Y0019407D01*
X0114648Y0019415D01*
X0114637Y0019423D01*
X0114626Y0019431D01*
X0114615Y0019439D01*
X0114604Y0019448D01*
X0114594Y0019457D01*
X0114583Y0019466D01*
X0114573Y0019475D01*
X0114563Y0019485D01*
X0114554Y0019495D01*
X0114544Y0019505D01*
X0114535Y0019515D01*
X0114526Y0019525D01*
X0114518Y0019536D01*
X0114510Y0019547D01*
X0114501Y0019558D01*
X0114494Y0019570D01*
X0114486Y0019581D01*
X0114479Y0019593D01*
X0114472Y0019605D01*
X0114465Y0019617D01*
X0114459Y0019629D01*
X0114453Y0019642D01*
X0114447Y0019654D01*
X0114442Y0019667D01*
X0114437Y0019679D01*
X0114432Y0019692D01*
X0114427Y0019705D01*
X0114423Y0019719D01*
X0114419Y0019732D01*
X0114416Y0019745D01*
X0114413Y0019758D01*
X0114410Y0019772D01*
X0114407Y0019785D01*
X0114405Y0019799D01*
X0114403Y0019813D01*
X0114402Y0019826D01*
X0114401Y0019840D01*
X0114400Y0019854D01*
X0114399Y0019868D01*
X0114399Y0019881D01*
D11*
X0090551Y0007874D02*
X0090558Y0007702D01*
X0090581Y0007532D01*
X0090618Y0007364D01*
X0090669Y0007200D01*
X0090735Y0007042D01*
X0090814Y0006889D01*
X0090907Y0006744D01*
X0091011Y0006608D01*
X0091127Y0006482D01*
X0091254Y0006366D01*
X0091390Y0006261D01*
X0091535Y0006169D01*
X0091687Y0006089D01*
X0091846Y0006024D01*
X0092010Y0005972D01*
X0092177Y0005935D01*
X0092348Y0005912D01*
X0092519Y0005905D01*
X0116141Y0005905D01*
X0116313Y0005912D01*
X0116483Y0005935D01*
X0116651Y0005972D01*
X0116815Y0006024D01*
X0116973Y0006089D01*
X0117125Y0006169D01*
X0117270Y0006261D01*
X0117407Y0006366D01*
X0117533Y0006482D01*
X0117649Y0006608D01*
X0117754Y0006744D01*
X0117846Y0006889D01*
X0117925Y0007042D01*
X0117991Y0007200D01*
X0118043Y0007364D01*
X0118080Y0007532D01*
X0118102Y0007702D01*
X0118110Y0007874D01*
X0118110Y0023622D01*
X0118102Y0023793D01*
X0118080Y0023963D01*
X0118043Y0024131D01*
X0117991Y0024295D01*
X0117925Y0024453D01*
X0117846Y0024606D01*
X0117754Y0024751D01*
X0117649Y0024887D01*
X0117533Y0025013D01*
X0117407Y0025130D01*
X0117270Y0025234D01*
X0117125Y0025326D01*
X0116973Y0025406D01*
X0116815Y0025471D01*
X0116651Y0025523D01*
X0116483Y0025560D01*
X0116313Y0025583D01*
X0116141Y0025590D01*
X0092519Y0025590D01*
X0092348Y0025583D01*
X0092177Y0025560D01*
X0092010Y0025523D01*
X0091846Y0025471D01*
X0091687Y0025406D01*
X0091535Y0025326D01*
X0091390Y0025234D01*
X0091254Y0025130D01*
X0091127Y0025013D01*
X0091011Y0024887D01*
X0090907Y0024751D01*
X0090814Y0024606D01*
X0090735Y0024453D01*
X0090669Y0024295D01*
X0090618Y0024131D01*
X0090581Y0023963D01*
X0090558Y0023793D01*
X0090551Y0023622D01*
X0090551Y0007874D01*
X0117322Y0024392D02*
X0117319Y0024358D01*
X0117313Y0024324D01*
X0117304Y0024290D01*
X0117293Y0024258D01*
X0117278Y0024227D01*
X0117261Y0024197D01*
X0117241Y0024169D01*
X0117219Y0024143D01*
X0117195Y0024118D01*
X0117169Y0024096D01*
X0117140Y0024077D01*
X0117111Y0024059D01*
X0117079Y0024045D01*
X0117047Y0024033D01*
X0117014Y0024024D01*
X0116980Y0024018D01*
X0116946Y0024015D01*
X0116911Y0024015D01*
X0116877Y0024018D01*
X0116843Y0024024D01*
X0116810Y0024033D01*
X0116778Y0024045D01*
X0116747Y0024059D01*
X0116717Y0024077D01*
X0116689Y0024096D01*
X0116662Y0024118D01*
X0116638Y0024143D01*
X0116616Y0024169D01*
X0116596Y0024197D01*
X0116579Y0024227D01*
X0116565Y0024258D01*
X0116553Y0024290D01*
X0116544Y0024324D01*
X0116538Y0024358D01*
X0116535Y0024392D01*
X0116535Y0024426D01*
X0116538Y0024460D01*
X0116544Y0024494D01*
X0116553Y0024527D01*
X0116565Y0024560D01*
X0116579Y0024591D01*
X0116596Y0024621D01*
X0116616Y0024649D01*
X0116638Y0024675D01*
X0116662Y0024700D01*
X0116689Y0024722D01*
X0116717Y0024741D01*
X0116747Y0024759D01*
X0116778Y0024773D01*
X0116810Y0024785D01*
X0116843Y0024794D01*
X0116877Y0024800D01*
X0116911Y0024803D01*
X0116946Y0024803D01*
X0116980Y0024800D01*
X0117014Y0024794D01*
X0117047Y0024785D01*
X0117079Y0024773D01*
X0117111Y0024759D01*
X0117140Y0024741D01*
X0117169Y0024722D01*
X0117195Y0024700D01*
X0117219Y0024675D01*
X0117241Y0024649D01*
X0117261Y0024621D01*
X0117278Y0024591D01*
X0117293Y0024560D01*
X0117304Y0024527D01*
X0117313Y0024494D01*
X0117319Y0024460D01*
X0117322Y0024426D01*
X0117322Y0024392D01*
X0099803Y0015730D02*
X0099800Y0015696D01*
X0099794Y0015662D01*
X0099785Y0015629D01*
X0099773Y0015597D01*
X0099759Y0015566D01*
X0099741Y0015536D01*
X0099722Y0015508D01*
X0099700Y0015481D01*
X0099675Y0015457D01*
X0099649Y0015435D01*
X0099621Y0015415D01*
X0099591Y0015398D01*
X0099560Y0015383D01*
X0099527Y0015372D01*
X0099494Y0015363D01*
X0099460Y0015357D01*
X0099426Y0015354D01*
X0099392Y0015354D01*
X0099358Y0015357D01*
X0099324Y0015363D01*
X0099290Y0015372D01*
X0099258Y0015383D01*
X0099227Y0015398D01*
X0099197Y0015415D01*
X0099169Y0015435D01*
X0099143Y0015457D01*
X0099118Y0015481D01*
X0099096Y0015508D01*
X0099077Y0015536D01*
X0099059Y0015566D01*
X0099045Y0015597D01*
X0099033Y0015629D01*
X0099024Y0015662D01*
X0099018Y0015696D01*
X0099015Y0015730D01*
X0099015Y0015765D01*
X0099018Y0015799D01*
X0099024Y0015833D01*
X0099033Y0015866D01*
X0099045Y0015898D01*
X0099059Y0015929D01*
X0099077Y0015959D01*
X0099096Y0015987D01*
X0099118Y0016014D01*
X0099143Y0016038D01*
X0099169Y0016060D01*
X0099197Y0016080D01*
X0099227Y0016097D01*
X0099258Y0016112D01*
X0099290Y0016123D01*
X0099324Y0016132D01*
X0099358Y0016138D01*
X0099392Y0016141D01*
X0099426Y0016141D01*
X0099460Y0016138D01*
X0099494Y0016132D01*
X0099527Y0016123D01*
X0099560Y0016112D01*
X0099591Y0016097D01*
X0099621Y0016080D01*
X0099649Y0016060D01*
X0099675Y0016038D01*
X0099700Y0016014D01*
X0099722Y0015987D01*
X0099741Y0015959D01*
X0099759Y0015929D01*
X0099773Y0015898D01*
X0099785Y0015866D01*
X0099794Y0015833D01*
X0099800Y0015799D01*
X0099803Y0015765D01*
X0099803Y0015730D01*
X0117322Y0007069D02*
X0117319Y0007035D01*
X0117313Y0007001D01*
X0117304Y0006968D01*
X0117293Y0006935D01*
X0117278Y0006904D01*
X0117261Y0006874D01*
X0117241Y0006846D01*
X0117219Y0006820D01*
X0117195Y0006796D01*
X0117169Y0006773D01*
X0117140Y0006754D01*
X0117111Y0006737D01*
X0117079Y0006722D01*
X0117047Y0006710D01*
X0117014Y0006701D01*
X0116980Y0006695D01*
X0116946Y0006692D01*
X0116911Y0006692D01*
X0116877Y0006695D01*
X0116843Y0006701D01*
X0116810Y0006710D01*
X0116778Y0006722D01*
X0116747Y0006737D01*
X0116717Y0006754D01*
X0116689Y0006773D01*
X0116662Y0006796D01*
X0116638Y0006820D01*
X0116616Y0006846D01*
X0116596Y0006874D01*
X0116579Y0006904D01*
X0116565Y0006935D01*
X0116553Y0006968D01*
X0116544Y0007001D01*
X0116538Y0007035D01*
X0116535Y0007069D01*
X0116535Y0007103D01*
X0116538Y0007138D01*
X0116544Y0007171D01*
X0116553Y0007205D01*
X0116565Y0007237D01*
X0116579Y0007268D01*
X0116596Y0007298D01*
X0116616Y0007326D01*
X0116638Y0007352D01*
X0116662Y0007377D01*
X0116689Y0007399D01*
X0116717Y0007418D01*
X0116747Y0007436D01*
X0116778Y0007450D01*
X0116810Y0007462D01*
X0116843Y0007471D01*
X0116877Y0007477D01*
X0116911Y0007480D01*
X0116946Y0007480D01*
X0116980Y0007477D01*
X0117014Y0007471D01*
X0117047Y0007462D01*
X0117079Y0007450D01*
X0117111Y0007436D01*
X0117140Y0007418D01*
X0117169Y0007399D01*
X0117195Y0007377D01*
X0117219Y0007352D01*
X0117241Y0007326D01*
X0117261Y0007298D01*
X0117278Y0007268D01*
X0117293Y0007237D01*
X0117304Y0007205D01*
X0117313Y0007171D01*
X0117319Y0007138D01*
X0117322Y0007103D01*
X0117322Y0007069D01*
X0104724Y0015730D02*
X0104721Y0015696D01*
X0104715Y0015662D01*
X0104706Y0015629D01*
X0104694Y0015597D01*
X0104680Y0015566D01*
X0104663Y0015536D01*
X0104643Y0015508D01*
X0104621Y0015481D01*
X0104596Y0015457D01*
X0104570Y0015435D01*
X0104542Y0015415D01*
X0104512Y0015398D01*
X0104481Y0015383D01*
X0104449Y0015372D01*
X0104415Y0015363D01*
X0104382Y0015357D01*
X0104347Y0015354D01*
X0104313Y0015354D01*
X0104279Y0015357D01*
X0104245Y0015363D01*
X0104212Y0015372D01*
X0104179Y0015383D01*
X0104148Y0015398D01*
X0104118Y0015415D01*
X0104090Y0015435D01*
X0104064Y0015457D01*
X0104040Y0015481D01*
X0104018Y0015508D01*
X0103998Y0015536D01*
X0103981Y0015566D01*
X0103966Y0015597D01*
X0103954Y0015629D01*
X0103945Y0015662D01*
X0103940Y0015696D01*
X0103937Y0015730D01*
X0103937Y0015765D01*
X0103940Y0015799D01*
X0103945Y0015833D01*
X0103954Y0015866D01*
X0103966Y0015898D01*
X0103981Y0015929D01*
X0103998Y0015959D01*
X0104018Y0015987D01*
X0104040Y0016014D01*
X0104064Y0016038D01*
X0104090Y0016060D01*
X0104118Y0016080D01*
X0104148Y0016097D01*
X0104179Y0016112D01*
X0104212Y0016123D01*
X0104245Y0016132D01*
X0104279Y0016138D01*
X0104313Y0016141D01*
X0104347Y0016141D01*
X0104382Y0016138D01*
X0104415Y0016132D01*
X0104449Y0016123D01*
X0104481Y0016112D01*
X0104512Y0016097D01*
X0104542Y0016080D01*
X0104570Y0016060D01*
X0104596Y0016038D01*
X0104621Y0016014D01*
X0104643Y0015987D01*
X0104663Y0015959D01*
X0104680Y0015929D01*
X0104694Y0015898D01*
X0104706Y0015866D01*
X0104715Y0015833D01*
X0104721Y0015799D01*
X0104724Y0015765D01*
X0104724Y0015730D01*
X0093483Y0020895D02*
X0093443Y0020898D01*
X0093404Y0020904D01*
X0093365Y0020912D01*
X0093326Y0020924D01*
X0093289Y0020938D01*
X0093252Y0020954D01*
X0093217Y0020973D01*
X0093183Y0020995D01*
X0093151Y0021019D01*
X0093121Y0021045D01*
X0093093Y0021074D01*
X0093066Y0021104D01*
X0093042Y0021136D01*
X0093021Y0021170D01*
X0093001Y0021205D01*
X0092985Y0021241D01*
X0092971Y0021279D01*
X0092960Y0021317D01*
X0092951Y0021357D01*
X0092945Y0021396D01*
X0092942Y0021436D01*
X0092942Y0021476D01*
X0092945Y0021516D01*
X0092951Y0021556D01*
X0092960Y0021595D01*
X0092971Y0021633D01*
X0092985Y0021671D01*
X0093001Y0021707D01*
X0093021Y0021743D01*
X0093042Y0021776D01*
X0093066Y0021808D01*
X0093093Y0021839D01*
X0093121Y0021867D01*
X0093151Y0021893D01*
X0093183Y0021917D01*
X0093217Y0021939D01*
X0093252Y0021958D01*
X0093289Y0021975D01*
X0093326Y0021989D01*
X0093365Y0022000D01*
X0093404Y0022009D01*
X0093443Y0022014D01*
X0093483Y0022017D01*
X0093523Y0022017D01*
X0093563Y0022014D01*
X0093603Y0022009D01*
X0093642Y0022000D01*
X0093681Y0021989D01*
X0093718Y0021975D01*
X0093755Y0021958D01*
X0093790Y0021939D01*
X0093824Y0021917D01*
X0093856Y0021893D01*
X0093886Y0021867D01*
X0093914Y0021839D01*
X0093941Y0021808D01*
X0093965Y0021776D01*
X0093986Y0021743D01*
X0094005Y0021707D01*
X0094022Y0021671D01*
X0094036Y0021633D01*
X0094047Y0021595D01*
X0094056Y0021556D01*
X0094062Y0021516D01*
X0094064Y0021476D01*
X0094064Y0021436D01*
X0094062Y0021396D01*
X0094056Y0021357D01*
X0094047Y0021317D01*
X0094036Y0021279D01*
X0094022Y0021241D01*
X0094005Y0021205D01*
X0093986Y0021170D01*
X0093965Y0021136D01*
X0093941Y0021104D01*
X0093914Y0021074D01*
X0093886Y0021045D01*
X0093856Y0021019D01*
X0093824Y0020995D01*
X0093790Y0020973D01*
X0093755Y0020954D01*
X0093718Y0020938D01*
X0093681Y0020924D01*
X0093642Y0020912D01*
X0093603Y0020904D01*
X0093563Y0020898D01*
X0093523Y0020895D01*
X0093483Y0020895D01*
X0093483Y0009478D02*
X0093443Y0009481D01*
X0093404Y0009486D01*
X0093365Y0009495D01*
X0093326Y0009506D01*
X0093289Y0009520D01*
X0093252Y0009537D01*
X0093217Y0009556D01*
X0093183Y0009578D01*
X0093151Y0009602D01*
X0093121Y0009628D01*
X0093093Y0009656D01*
X0093066Y0009687D01*
X0093042Y0009719D01*
X0093021Y0009752D01*
X0093001Y0009788D01*
X0092985Y0009824D01*
X0092971Y0009862D01*
X0092960Y0009900D01*
X0092951Y0009939D01*
X0092945Y0009979D01*
X0092942Y0010019D01*
X0092942Y0010059D01*
X0092945Y0010099D01*
X0092951Y0010139D01*
X0092960Y0010178D01*
X0092971Y0010216D01*
X0092985Y0010254D01*
X0093001Y0010290D01*
X0093021Y0010325D01*
X0093042Y0010359D01*
X0093066Y0010391D01*
X0093093Y0010421D01*
X0093121Y0010450D01*
X0093151Y0010476D01*
X0093183Y0010500D01*
X0093217Y0010522D01*
X0093252Y0010541D01*
X0093289Y0010558D01*
X0093326Y0010572D01*
X0093365Y0010583D01*
X0093404Y0010591D01*
X0093443Y0010597D01*
X0093483Y0010600D01*
X0093523Y0010600D01*
X0093563Y0010597D01*
X0093603Y0010591D01*
X0093642Y0010583D01*
X0093681Y0010572D01*
X0093718Y0010558D01*
X0093755Y0010541D01*
X0093790Y0010522D01*
X0093824Y0010500D01*
X0093856Y0010476D01*
X0093886Y0010450D01*
X0093914Y0010421D01*
X0093941Y0010391D01*
X0093965Y0010359D01*
X0093986Y0010325D01*
X0094005Y0010290D01*
X0094022Y0010254D01*
X0094036Y0010216D01*
X0094047Y0010178D01*
X0094056Y0010139D01*
X0094062Y0010099D01*
X0094064Y0010059D01*
X0094064Y0010019D01*
X0094062Y0009979D01*
X0094056Y0009939D01*
X0094047Y0009900D01*
X0094036Y0009862D01*
X0094022Y0009824D01*
X0094005Y0009788D01*
X0093986Y0009752D01*
X0093965Y0009719D01*
X0093941Y0009687D01*
X0093914Y0009656D01*
X0093886Y0009628D01*
X0093856Y0009602D01*
X0093824Y0009578D01*
X0093790Y0009556D01*
X0093755Y0009537D01*
X0093718Y0009520D01*
X0093681Y0009506D01*
X0093642Y0009495D01*
X0093603Y0009486D01*
X0093563Y0009481D01*
X0093523Y0009478D01*
X0093483Y0009478D01*
X0114980Y0012175D02*
X0115020Y0012172D01*
X0115060Y0012166D01*
X0115099Y0012158D01*
X0115137Y0012146D01*
X0115175Y0012132D01*
X0115211Y0012116D01*
X0115247Y0012096D01*
X0115280Y0012075D01*
X0115312Y0012051D01*
X0115343Y0012025D01*
X0115371Y0011996D01*
X0115397Y0011966D01*
X0115421Y0011934D01*
X0115443Y0011900D01*
X0115462Y0011865D01*
X0115479Y0011829D01*
X0115493Y0011791D01*
X0115504Y0011752D01*
X0115513Y0011713D01*
X0115518Y0011674D01*
X0115521Y0011634D01*
X0115521Y0011594D01*
X0115518Y0011554D01*
X0115513Y0011514D01*
X0115504Y0011475D01*
X0115493Y0011436D01*
X0115479Y0011399D01*
X0115462Y0011362D01*
X0115443Y0011327D01*
X0115421Y0011294D01*
X0115397Y0011261D01*
X0115371Y0011231D01*
X0115343Y0011203D01*
X0115312Y0011177D01*
X0115280Y0011153D01*
X0115247Y0011131D01*
X0115211Y0011112D01*
X0115175Y0011095D01*
X0115137Y0011081D01*
X0115099Y0011070D01*
X0115060Y0011061D01*
X0115020Y0011056D01*
X0114980Y0011053D01*
X0114940Y0011053D01*
X0114900Y0011056D01*
X0114860Y0011061D01*
X0114821Y0011070D01*
X0114783Y0011081D01*
X0114745Y0011095D01*
X0114709Y0011112D01*
X0114674Y0011131D01*
X0114640Y0011153D01*
X0114608Y0011177D01*
X0114578Y0011203D01*
X0114549Y0011231D01*
X0114523Y0011261D01*
X0114499Y0011294D01*
X0114477Y0011327D01*
X0114458Y0011362D01*
X0114441Y0011399D01*
X0114427Y0011436D01*
X0114416Y0011475D01*
X0114408Y0011514D01*
X0114402Y0011554D01*
X0114399Y0011594D01*
X0114399Y0011634D01*
X0114402Y0011674D01*
X0114408Y0011713D01*
X0114416Y0011752D01*
X0114427Y0011791D01*
X0114441Y0011829D01*
X0114458Y0011865D01*
X0114477Y0011900D01*
X0114499Y0011934D01*
X0114523Y0011966D01*
X0114549Y0011996D01*
X0114578Y0012025D01*
X0114608Y0012051D01*
X0114640Y0012075D01*
X0114674Y0012096D01*
X0114709Y0012116D01*
X0114745Y0012132D01*
X0114783Y0012146D01*
X0114821Y0012158D01*
X0114860Y0012166D01*
X0114900Y0012172D01*
X0114940Y0012175D01*
X0114980Y0012175D01*
X0114980Y0020442D02*
X0115020Y0020440D01*
X0115060Y0020434D01*
X0115099Y0020425D01*
X0115137Y0020414D01*
X0115175Y0020400D01*
X0115211Y0020383D01*
X0115247Y0020364D01*
X0115280Y0020343D01*
X0115312Y0020319D01*
X0115343Y0020292D01*
X0115371Y0020264D01*
X0115397Y0020234D01*
X0115421Y0020202D01*
X0115443Y0020168D01*
X0115462Y0020133D01*
X0115479Y0020096D01*
X0115493Y0020059D01*
X0115504Y0020020D01*
X0115513Y0019981D01*
X0115518Y0019941D01*
X0115521Y0019901D01*
X0115521Y0019861D01*
X0115518Y0019821D01*
X0115513Y0019782D01*
X0115504Y0019743D01*
X0115493Y0019704D01*
X0115479Y0019667D01*
X0115462Y0019630D01*
X0115443Y0019595D01*
X0115421Y0019561D01*
X0115397Y0019529D01*
X0115371Y0019499D01*
X0115343Y0019471D01*
X0115312Y0019444D01*
X0115280Y0019420D01*
X0115247Y0019399D01*
X0115211Y0019379D01*
X0115175Y0019363D01*
X0115137Y0019349D01*
X0115099Y0019337D01*
X0115060Y0019329D01*
X0115020Y0019323D01*
X0114980Y0019320D01*
X0114940Y0019320D01*
X0114900Y0019323D01*
X0114860Y0019329D01*
X0114821Y0019337D01*
X0114783Y0019349D01*
X0114745Y0019363D01*
X0114709Y0019379D01*
X0114674Y0019399D01*
X0114640Y0019420D01*
X0114608Y0019444D01*
X0114578Y0019471D01*
X0114549Y0019499D01*
X0114523Y0019529D01*
X0114499Y0019561D01*
X0114477Y0019595D01*
X0114458Y0019630D01*
X0114441Y0019667D01*
X0114427Y0019704D01*
X0114416Y0019743D01*
X0114408Y0019782D01*
X0114402Y0019821D01*
X0114399Y0019861D01*
X0114399Y0019901D01*
X0114402Y0019941D01*
X0114408Y0019981D01*
X0114416Y0020020D01*
X0114427Y0020059D01*
X0114441Y0020096D01*
X0114458Y0020133D01*
X0114477Y0020168D01*
X0114499Y0020202D01*
X0114523Y0020234D01*
X0114549Y0020264D01*
X0114578Y0020292D01*
X0114608Y0020319D01*
X0114640Y0020343D01*
X0114674Y0020364D01*
X0114709Y0020383D01*
X0114745Y0020400D01*
X0114783Y0020414D01*
X0114821Y0020425D01*
X0114860Y0020434D01*
X0114900Y0020440D01*
X0114940Y0020442D01*
X0114980Y0020442D01*
G04 next file*
%LPD*%
G04 EAGLE Gerber RS-274X export*
G75*
G01*
D22*
X0005905Y0005905D02*
X0078740Y0005905D01*
X0078740Y0017716D01*
X0065748Y0030708D02*
X0018897Y0030708D01*
X0005905Y0017716D02*
X0005905Y0005905D01*
X0005905Y0017716D02*
X0005909Y0018030D01*
X0005920Y0018344D01*
X0005939Y0018657D01*
X0005966Y0018970D01*
X0006000Y0019282D01*
X0006041Y0019593D01*
X0006090Y0019903D01*
X0006147Y0020212D01*
X0006211Y0020520D01*
X0006283Y0020825D01*
X0006361Y0021129D01*
X0006447Y0021431D01*
X0006541Y0021731D01*
X0006642Y0022028D01*
X0006749Y0022323D01*
X0006864Y0022615D01*
X0006986Y0022905D01*
X0007115Y0023191D01*
X0007251Y0023474D01*
X0007393Y0023754D01*
X0007542Y0024030D01*
X0007698Y0024303D01*
X0007861Y0024571D01*
X0008030Y0024836D01*
X0008205Y0025096D01*
X0008386Y0025353D01*
X0008574Y0025604D01*
X0008767Y0025851D01*
X0008967Y0026094D01*
X0009172Y0026331D01*
X0009383Y0026564D01*
X0009600Y0026791D01*
X0009822Y0027013D01*
X0010049Y0027230D01*
X0010282Y0027441D01*
X0010519Y0027646D01*
X0010762Y0027846D01*
X0011009Y0028039D01*
X0011261Y0028227D01*
X0011517Y0028408D01*
X0011777Y0028584D01*
X0012042Y0028752D01*
X0012311Y0028915D01*
X0012583Y0029071D01*
X0012859Y0029220D01*
X0013139Y0029363D01*
X0013422Y0029498D01*
X0013709Y0029627D01*
X0013998Y0029749D01*
X0014290Y0029864D01*
X0014585Y0029972D01*
X0014882Y0030072D01*
X0015182Y0030166D01*
X0015484Y0030252D01*
X0015788Y0030331D01*
X0016094Y0030402D01*
X0016401Y0030466D01*
X0016710Y0030523D01*
X0017020Y0030572D01*
X0017331Y0030613D01*
X0017643Y0030647D01*
X0017956Y0030674D01*
X0018269Y0030693D01*
X0018583Y0030704D01*
X0018897Y0030708D01*
X0065748Y0030708D02*
X0066061Y0030704D01*
X0066375Y0030693D01*
X0066689Y0030674D01*
X0067001Y0030647D01*
X0067314Y0030613D01*
X0067625Y0030572D01*
X0067935Y0030523D01*
X0068244Y0030466D01*
X0068551Y0030402D01*
X0068857Y0030331D01*
X0069161Y0030252D01*
X0069463Y0030166D01*
X0069762Y0030072D01*
X0070060Y0029972D01*
X0070355Y0029864D01*
X0070647Y0029749D01*
X0070936Y0029627D01*
X0071222Y0029498D01*
X0071506Y0029363D01*
X0071785Y0029220D01*
X0072062Y0029071D01*
X0072334Y0028915D01*
X0072603Y0028752D01*
X0072867Y0028584D01*
X0073128Y0028408D01*
X0073384Y0028227D01*
X0073636Y0028039D01*
X0073883Y0027846D01*
X0074125Y0027646D01*
X0074363Y0027441D01*
X0074595Y0027230D01*
X0074823Y0027013D01*
X0075045Y0026791D01*
X0075261Y0026564D01*
X0075472Y0026331D01*
X0075678Y0026094D01*
X0075877Y0025851D01*
X0076071Y0025604D01*
X0076258Y0025353D01*
X0076440Y0025096D01*
X0076615Y0024836D01*
X0076784Y0024571D01*
X0076946Y0024303D01*
X0077102Y0024030D01*
X0077251Y0023754D01*
X0077394Y0023474D01*
X0077530Y0023191D01*
X0077659Y0022905D01*
X0077780Y0022615D01*
X0077895Y0022323D01*
X0078003Y0022028D01*
X0078104Y0021731D01*
X0078197Y0021431D01*
X0078283Y0021129D01*
X0078362Y0020825D01*
X0078434Y0020520D01*
X0078498Y0020212D01*
X0078554Y0019903D01*
X0078603Y0019593D01*
X0078645Y0019282D01*
X0078679Y0018970D01*
X0078706Y0018657D01*
X0078725Y0018344D01*
X0078736Y0018030D01*
X0078740Y0017716D01*
X0013385Y0009842D02*
X0013385Y0009852D01*
X0013386Y0009861D01*
X0013386Y0009871D01*
X0013387Y0009881D01*
X0013388Y0009890D01*
X0013390Y0009900D01*
X0013391Y0009909D01*
X0013393Y0009919D01*
X0013395Y0009928D01*
X0013397Y0009938D01*
X0013400Y0009947D01*
X0013402Y0009956D01*
X0013405Y0009966D01*
X0013408Y0009975D01*
X0013412Y0009984D01*
X0013415Y0009993D01*
X0013419Y0010002D01*
X0013423Y0010010D01*
X0013427Y0010019D01*
X0013432Y0010028D01*
X0013436Y0010036D01*
X0013441Y0010044D01*
X0013446Y0010053D01*
X0013452Y0010061D01*
X0013457Y0010069D01*
X0013463Y0010077D01*
X0013469Y0010084D01*
X0013475Y0010092D01*
X0013481Y0010099D01*
X0013487Y0010106D01*
X0013494Y0010113D01*
X0013501Y0010120D01*
X0013508Y0010127D01*
X0013515Y0010134D01*
X0013522Y0010140D01*
X0013529Y0010146D01*
X0013537Y0010152D01*
X0013545Y0010158D01*
X0013552Y0010164D01*
X0013560Y0010169D01*
X0013568Y0010175D01*
X0013577Y0010180D01*
X0013585Y0010185D01*
X0013593Y0010189D01*
X0013602Y0010194D01*
X0013611Y0010198D01*
X0013620Y0010202D01*
X0013628Y0010206D01*
X0013637Y0010209D01*
X0013646Y0010213D01*
X0013656Y0010216D01*
X0013665Y0010219D01*
X0013674Y0010221D01*
X0013683Y0010224D01*
X0013693Y0010226D01*
X0013702Y0010228D01*
X0013712Y0010230D01*
X0013721Y0010231D01*
X0013731Y0010233D01*
X0013740Y0010234D01*
X0013750Y0010235D01*
X0013760Y0010235D01*
X0013769Y0010236D01*
X0013779Y0010236D01*
X0013789Y0010236D01*
X0013798Y0010235D01*
X0013808Y0010235D01*
X0013818Y0010234D01*
X0013827Y0010233D01*
X0013837Y0010231D01*
X0013846Y0010230D01*
X0013856Y0010228D01*
X0013865Y0010226D01*
X0013875Y0010224D01*
X0013884Y0010221D01*
X0013893Y0010219D01*
X0013903Y0010216D01*
X0013912Y0010213D01*
X0013921Y0010209D01*
X0013930Y0010206D01*
X0013939Y0010202D01*
X0013947Y0010198D01*
X0013956Y0010194D01*
X0013965Y0010189D01*
X0013973Y0010185D01*
X0013981Y0010180D01*
X0013990Y0010175D01*
X0013998Y0010169D01*
X0014006Y0010164D01*
X0014014Y0010158D01*
X0014021Y0010152D01*
X0014029Y0010146D01*
X0014036Y0010140D01*
X0014043Y0010134D01*
X0014050Y0010127D01*
X0014057Y0010120D01*
X0014064Y0010113D01*
X0014071Y0010106D01*
X0014077Y0010099D01*
X0014083Y0010092D01*
X0014089Y0010084D01*
X0014095Y0010077D01*
X0014101Y0010069D01*
X0014106Y0010061D01*
X0014112Y0010053D01*
X0014117Y0010044D01*
X0014122Y0010036D01*
X0014126Y0010028D01*
X0014131Y0010019D01*
X0014135Y0010010D01*
X0014139Y0010002D01*
X0014143Y0009993D01*
X0014146Y0009984D01*
X0014150Y0009975D01*
X0014153Y0009966D01*
X0014156Y0009956D01*
X0014158Y0009947D01*
X0014161Y0009938D01*
X0014163Y0009928D01*
X0014165Y0009919D01*
X0014167Y0009909D01*
X0014168Y0009900D01*
X0014170Y0009890D01*
X0014171Y0009881D01*
X0014172Y0009871D01*
X0014172Y0009861D01*
X0014173Y0009852D01*
X0014173Y0009842D01*
X0014173Y0009832D01*
X0014172Y0009823D01*
X0014172Y0009813D01*
X0014171Y0009803D01*
X0014170Y0009794D01*
X0014168Y0009784D01*
X0014167Y0009775D01*
X0014165Y0009765D01*
X0014163Y0009756D01*
X0014161Y0009746D01*
X0014158Y0009737D01*
X0014156Y0009728D01*
X0014153Y0009719D01*
X0014150Y0009709D01*
X0014146Y0009700D01*
X0014143Y0009691D01*
X0014139Y0009682D01*
X0014135Y0009674D01*
X0014131Y0009665D01*
X0014126Y0009656D01*
X0014122Y0009648D01*
X0014117Y0009640D01*
X0014112Y0009631D01*
X0014106Y0009623D01*
X0014101Y0009615D01*
X0014095Y0009607D01*
X0014089Y0009600D01*
X0014083Y0009592D01*
X0014077Y0009585D01*
X0014071Y0009578D01*
X0014064Y0009571D01*
X0014057Y0009564D01*
X0014050Y0009557D01*
X0014043Y0009550D01*
X0014036Y0009544D01*
X0014029Y0009538D01*
X0014021Y0009532D01*
X0014014Y0009526D01*
X0014006Y0009520D01*
X0013998Y0009515D01*
X0013990Y0009509D01*
X0013981Y0009504D01*
X0013973Y0009499D01*
X0013965Y0009495D01*
X0013956Y0009490D01*
X0013947Y0009486D01*
X0013939Y0009482D01*
X0013930Y0009478D01*
X0013921Y0009475D01*
X0013912Y0009471D01*
X0013903Y0009468D01*
X0013893Y0009465D01*
X0013884Y0009463D01*
X0013875Y0009460D01*
X0013865Y0009458D01*
X0013856Y0009456D01*
X0013846Y0009454D01*
X0013837Y0009453D01*
X0013827Y0009451D01*
X0013818Y0009450D01*
X0013808Y0009449D01*
X0013798Y0009449D01*
X0013789Y0009448D01*
X0013779Y0009448D01*
X0013769Y0009448D01*
X0013760Y0009449D01*
X0013750Y0009449D01*
X0013740Y0009450D01*
X0013731Y0009451D01*
X0013721Y0009453D01*
X0013712Y0009454D01*
X0013702Y0009456D01*
X0013693Y0009458D01*
X0013683Y0009460D01*
X0013674Y0009463D01*
X0013665Y0009465D01*
X0013656Y0009468D01*
X0013646Y0009471D01*
X0013637Y0009475D01*
X0013628Y0009478D01*
X0013620Y0009482D01*
X0013611Y0009486D01*
X0013602Y0009490D01*
X0013593Y0009495D01*
X0013585Y0009499D01*
X0013577Y0009504D01*
X0013568Y0009509D01*
X0013560Y0009515D01*
X0013552Y0009520D01*
X0013545Y0009526D01*
X0013537Y0009532D01*
X0013529Y0009538D01*
X0013522Y0009544D01*
X0013515Y0009550D01*
X0013508Y0009557D01*
X0013501Y0009564D01*
X0013494Y0009571D01*
X0013487Y0009578D01*
X0013481Y0009585D01*
X0013475Y0009592D01*
X0013469Y0009600D01*
X0013463Y0009607D01*
X0013457Y0009615D01*
X0013452Y0009623D01*
X0013446Y0009631D01*
X0013441Y0009640D01*
X0013436Y0009648D01*
X0013432Y0009656D01*
X0013427Y0009665D01*
X0013423Y0009674D01*
X0013419Y0009682D01*
X0013415Y0009691D01*
X0013412Y0009700D01*
X0013408Y0009709D01*
X0013405Y0009719D01*
X0013402Y0009728D01*
X0013400Y0009737D01*
X0013397Y0009746D01*
X0013395Y0009756D01*
X0013393Y0009765D01*
X0013391Y0009775D01*
X0013390Y0009784D01*
X0013388Y0009794D01*
X0013387Y0009803D01*
X0013386Y0009813D01*
X0013386Y0009823D01*
X0013385Y0009832D01*
X0013385Y0009842D01*
X0013385Y0021653D02*
X0013385Y0021663D01*
X0013386Y0021672D01*
X0013386Y0021682D01*
X0013387Y0021692D01*
X0013388Y0021701D01*
X0013390Y0021711D01*
X0013391Y0021720D01*
X0013393Y0021730D01*
X0013395Y0021739D01*
X0013397Y0021749D01*
X0013400Y0021758D01*
X0013402Y0021767D01*
X0013405Y0021777D01*
X0013408Y0021786D01*
X0013412Y0021795D01*
X0013415Y0021804D01*
X0013419Y0021813D01*
X0013423Y0021821D01*
X0013427Y0021830D01*
X0013432Y0021839D01*
X0013436Y0021847D01*
X0013441Y0021855D01*
X0013446Y0021864D01*
X0013452Y0021872D01*
X0013457Y0021880D01*
X0013463Y0021888D01*
X0013469Y0021895D01*
X0013475Y0021903D01*
X0013481Y0021910D01*
X0013487Y0021917D01*
X0013494Y0021925D01*
X0013501Y0021931D01*
X0013508Y0021938D01*
X0013515Y0021945D01*
X0013522Y0021951D01*
X0013529Y0021957D01*
X0013537Y0021963D01*
X0013545Y0021969D01*
X0013552Y0021975D01*
X0013560Y0021980D01*
X0013568Y0021986D01*
X0013577Y0021991D01*
X0013585Y0021996D01*
X0013593Y0022000D01*
X0013602Y0022005D01*
X0013611Y0022009D01*
X0013620Y0022013D01*
X0013628Y0022017D01*
X0013637Y0022020D01*
X0013646Y0022024D01*
X0013656Y0022027D01*
X0013665Y0022030D01*
X0013674Y0022032D01*
X0013683Y0022035D01*
X0013693Y0022037D01*
X0013702Y0022039D01*
X0013712Y0022041D01*
X0013721Y0022042D01*
X0013731Y0022044D01*
X0013740Y0022045D01*
X0013750Y0022046D01*
X0013760Y0022046D01*
X0013769Y0022047D01*
X0013779Y0022047D01*
X0013789Y0022047D01*
X0013798Y0022046D01*
X0013808Y0022046D01*
X0013818Y0022045D01*
X0013827Y0022044D01*
X0013837Y0022042D01*
X0013846Y0022041D01*
X0013856Y0022039D01*
X0013865Y0022037D01*
X0013875Y0022035D01*
X0013884Y0022032D01*
X0013893Y0022030D01*
X0013903Y0022027D01*
X0013912Y0022024D01*
X0013921Y0022020D01*
X0013930Y0022017D01*
X0013939Y0022013D01*
X0013947Y0022009D01*
X0013956Y0022005D01*
X0013965Y0022000D01*
X0013973Y0021996D01*
X0013981Y0021991D01*
X0013990Y0021986D01*
X0013998Y0021980D01*
X0014006Y0021975D01*
X0014014Y0021969D01*
X0014021Y0021963D01*
X0014029Y0021957D01*
X0014036Y0021951D01*
X0014043Y0021945D01*
X0014050Y0021938D01*
X0014057Y0021931D01*
X0014064Y0021925D01*
X0014071Y0021917D01*
X0014077Y0021910D01*
X0014083Y0021903D01*
X0014089Y0021895D01*
X0014095Y0021888D01*
X0014101Y0021880D01*
X0014106Y0021872D01*
X0014112Y0021864D01*
X0014117Y0021855D01*
X0014122Y0021847D01*
X0014126Y0021839D01*
X0014131Y0021830D01*
X0014135Y0021821D01*
X0014139Y0021813D01*
X0014143Y0021804D01*
X0014146Y0021795D01*
X0014150Y0021786D01*
X0014153Y0021777D01*
X0014156Y0021767D01*
X0014158Y0021758D01*
X0014161Y0021749D01*
X0014163Y0021739D01*
X0014165Y0021730D01*
X0014167Y0021720D01*
X0014168Y0021711D01*
X0014170Y0021701D01*
X0014171Y0021692D01*
X0014172Y0021682D01*
X0014172Y0021672D01*
X0014173Y0021663D01*
X0014173Y0021653D01*
X0014173Y0021643D01*
X0014172Y0021634D01*
X0014172Y0021624D01*
X0014171Y0021614D01*
X0014170Y0021605D01*
X0014168Y0021595D01*
X0014167Y0021586D01*
X0014165Y0021576D01*
X0014163Y0021567D01*
X0014161Y0021557D01*
X0014158Y0021548D01*
X0014156Y0021539D01*
X0014153Y0021530D01*
X0014150Y0021520D01*
X0014146Y0021511D01*
X0014143Y0021502D01*
X0014139Y0021494D01*
X0014135Y0021485D01*
X0014131Y0021476D01*
X0014126Y0021467D01*
X0014122Y0021459D01*
X0014117Y0021451D01*
X0014112Y0021442D01*
X0014106Y0021434D01*
X0014101Y0021426D01*
X0014095Y0021419D01*
X0014089Y0021411D01*
X0014083Y0021403D01*
X0014077Y0021396D01*
X0014071Y0021389D01*
X0014064Y0021382D01*
X0014057Y0021375D01*
X0014050Y0021368D01*
X0014043Y0021361D01*
X0014036Y0021355D01*
X0014029Y0021349D01*
X0014021Y0021343D01*
X0014014Y0021337D01*
X0014006Y0021331D01*
X0013998Y0021326D01*
X0013990Y0021320D01*
X0013981Y0021315D01*
X0013973Y0021310D01*
X0013965Y0021306D01*
X0013956Y0021301D01*
X0013947Y0021297D01*
X0013939Y0021293D01*
X0013930Y0021289D01*
X0013921Y0021286D01*
X0013912Y0021282D01*
X0013903Y0021279D01*
X0013893Y0021276D01*
X0013884Y0021274D01*
X0013875Y0021271D01*
X0013865Y0021269D01*
X0013856Y0021267D01*
X0013846Y0021265D01*
X0013837Y0021264D01*
X0013827Y0021262D01*
X0013818Y0021261D01*
X0013808Y0021260D01*
X0013798Y0021260D01*
X0013789Y0021259D01*
X0013779Y0021259D01*
X0013769Y0021259D01*
X0013760Y0021260D01*
X0013750Y0021260D01*
X0013740Y0021261D01*
X0013731Y0021262D01*
X0013721Y0021264D01*
X0013712Y0021265D01*
X0013702Y0021267D01*
X0013693Y0021269D01*
X0013683Y0021271D01*
X0013674Y0021274D01*
X0013665Y0021276D01*
X0013656Y0021279D01*
X0013646Y0021282D01*
X0013637Y0021286D01*
X0013628Y0021289D01*
X0013620Y0021293D01*
X0013611Y0021297D01*
X0013602Y0021301D01*
X0013593Y0021306D01*
X0013585Y0021310D01*
X0013577Y0021315D01*
X0013568Y0021320D01*
X0013560Y0021326D01*
X0013552Y0021331D01*
X0013545Y0021337D01*
X0013537Y0021343D01*
X0013529Y0021349D01*
X0013522Y0021355D01*
X0013515Y0021361D01*
X0013508Y0021368D01*
X0013501Y0021375D01*
X0013494Y0021382D01*
X0013487Y0021389D01*
X0013481Y0021396D01*
X0013475Y0021403D01*
X0013469Y0021411D01*
X0013463Y0021419D01*
X0013457Y0021426D01*
X0013452Y0021434D01*
X0013446Y0021442D01*
X0013441Y0021451D01*
X0013436Y0021459D01*
X0013432Y0021467D01*
X0013427Y0021476D01*
X0013423Y0021485D01*
X0013419Y0021494D01*
X0013415Y0021502D01*
X0013412Y0021511D01*
X0013408Y0021520D01*
X0013405Y0021530D01*
X0013402Y0021539D01*
X0013400Y0021548D01*
X0013397Y0021557D01*
X0013395Y0021567D01*
X0013393Y0021576D01*
X0013391Y0021586D01*
X0013390Y0021595D01*
X0013388Y0021605D01*
X0013387Y0021614D01*
X0013386Y0021624D01*
X0013386Y0021634D01*
X0013385Y0021643D01*
X0013385Y0021653D01*
X0072440Y0009842D02*
X0072441Y0009852D01*
X0072441Y0009861D01*
X0072442Y0009871D01*
X0072442Y0009881D01*
X0072443Y0009890D01*
X0072445Y0009900D01*
X0072446Y0009909D01*
X0072448Y0009919D01*
X0072450Y0009928D01*
X0072452Y0009938D01*
X0072455Y0009947D01*
X0072457Y0009956D01*
X0072460Y0009966D01*
X0072463Y0009975D01*
X0072467Y0009984D01*
X0072470Y0009993D01*
X0072474Y0010002D01*
X0072478Y0010010D01*
X0072482Y0010019D01*
X0072487Y0010028D01*
X0072492Y0010036D01*
X0072496Y0010044D01*
X0072502Y0010053D01*
X0072507Y0010061D01*
X0072512Y0010069D01*
X0072518Y0010077D01*
X0072524Y0010084D01*
X0072530Y0010092D01*
X0072536Y0010099D01*
X0072542Y0010106D01*
X0072549Y0010113D01*
X0072556Y0010120D01*
X0072563Y0010127D01*
X0072570Y0010134D01*
X0072577Y0010140D01*
X0072584Y0010146D01*
X0072592Y0010152D01*
X0072600Y0010158D01*
X0072607Y0010164D01*
X0072615Y0010169D01*
X0072624Y0010175D01*
X0072632Y0010180D01*
X0072640Y0010185D01*
X0072649Y0010189D01*
X0072657Y0010194D01*
X0072666Y0010198D01*
X0072675Y0010202D01*
X0072683Y0010206D01*
X0072692Y0010209D01*
X0072701Y0010213D01*
X0072711Y0010216D01*
X0072720Y0010219D01*
X0072729Y0010221D01*
X0072738Y0010224D01*
X0072748Y0010226D01*
X0072757Y0010228D01*
X0072767Y0010230D01*
X0072776Y0010231D01*
X0072786Y0010233D01*
X0072796Y0010234D01*
X0072805Y0010235D01*
X0072815Y0010235D01*
X0072825Y0010236D01*
X0072834Y0010236D01*
X0072844Y0010236D01*
X0072853Y0010235D01*
X0072863Y0010235D01*
X0072873Y0010234D01*
X0072882Y0010233D01*
X0072892Y0010231D01*
X0072901Y0010230D01*
X0072911Y0010228D01*
X0072920Y0010226D01*
X0072930Y0010224D01*
X0072939Y0010221D01*
X0072948Y0010219D01*
X0072958Y0010216D01*
X0072967Y0010213D01*
X0072976Y0010209D01*
X0072985Y0010206D01*
X0072994Y0010202D01*
X0073002Y0010198D01*
X0073011Y0010194D01*
X0073020Y0010189D01*
X0073028Y0010185D01*
X0073037Y0010180D01*
X0073045Y0010175D01*
X0073053Y0010169D01*
X0073061Y0010164D01*
X0073069Y0010158D01*
X0073076Y0010152D01*
X0073084Y0010146D01*
X0073091Y0010140D01*
X0073099Y0010134D01*
X0073106Y0010127D01*
X0073113Y0010120D01*
X0073119Y0010113D01*
X0073126Y0010106D01*
X0073132Y0010099D01*
X0073138Y0010092D01*
X0073145Y0010084D01*
X0073150Y0010077D01*
X0073156Y0010069D01*
X0073162Y0010061D01*
X0073167Y0010053D01*
X0073172Y0010044D01*
X0073177Y0010036D01*
X0073181Y0010028D01*
X0073186Y0010019D01*
X0073190Y0010010D01*
X0073194Y0010002D01*
X0073198Y0009993D01*
X0073201Y0009984D01*
X0073205Y0009975D01*
X0073208Y0009966D01*
X0073211Y0009956D01*
X0073214Y0009947D01*
X0073216Y0009938D01*
X0073218Y0009928D01*
X0073220Y0009919D01*
X0073222Y0009909D01*
X0073224Y0009900D01*
X0073225Y0009890D01*
X0073226Y0009881D01*
X0073227Y0009871D01*
X0073227Y0009861D01*
X0073228Y0009852D01*
X0073228Y0009842D01*
X0073228Y0009832D01*
X0073227Y0009823D01*
X0073227Y0009813D01*
X0073226Y0009803D01*
X0073225Y0009794D01*
X0073224Y0009784D01*
X0073222Y0009775D01*
X0073220Y0009765D01*
X0073218Y0009756D01*
X0073216Y0009746D01*
X0073214Y0009737D01*
X0073211Y0009728D01*
X0073208Y0009719D01*
X0073205Y0009709D01*
X0073201Y0009700D01*
X0073198Y0009691D01*
X0073194Y0009682D01*
X0073190Y0009674D01*
X0073186Y0009665D01*
X0073181Y0009656D01*
X0073177Y0009648D01*
X0073172Y0009640D01*
X0073167Y0009631D01*
X0073162Y0009623D01*
X0073156Y0009615D01*
X0073150Y0009607D01*
X0073145Y0009600D01*
X0073138Y0009592D01*
X0073132Y0009585D01*
X0073126Y0009578D01*
X0073119Y0009571D01*
X0073113Y0009564D01*
X0073106Y0009557D01*
X0073099Y0009550D01*
X0073091Y0009544D01*
X0073084Y0009538D01*
X0073076Y0009532D01*
X0073069Y0009526D01*
X0073061Y0009520D01*
X0073053Y0009515D01*
X0073045Y0009509D01*
X0073037Y0009504D01*
X0073028Y0009499D01*
X0073020Y0009495D01*
X0073011Y0009490D01*
X0073002Y0009486D01*
X0072994Y0009482D01*
X0072985Y0009478D01*
X0072976Y0009475D01*
X0072967Y0009471D01*
X0072958Y0009468D01*
X0072948Y0009465D01*
X0072939Y0009463D01*
X0072930Y0009460D01*
X0072920Y0009458D01*
X0072911Y0009456D01*
X0072901Y0009454D01*
X0072892Y0009453D01*
X0072882Y0009451D01*
X0072873Y0009450D01*
X0072863Y0009449D01*
X0072853Y0009449D01*
X0072844Y0009448D01*
X0072834Y0009448D01*
X0072825Y0009448D01*
X0072815Y0009449D01*
X0072805Y0009449D01*
X0072796Y0009450D01*
X0072786Y0009451D01*
X0072776Y0009453D01*
X0072767Y0009454D01*
X0072757Y0009456D01*
X0072748Y0009458D01*
X0072738Y0009460D01*
X0072729Y0009463D01*
X0072720Y0009465D01*
X0072711Y0009468D01*
X0072701Y0009471D01*
X0072692Y0009475D01*
X0072683Y0009478D01*
X0072675Y0009482D01*
X0072666Y0009486D01*
X0072657Y0009490D01*
X0072649Y0009495D01*
X0072640Y0009499D01*
X0072632Y0009504D01*
X0072624Y0009509D01*
X0072615Y0009515D01*
X0072607Y0009520D01*
X0072600Y0009526D01*
X0072592Y0009532D01*
X0072584Y0009538D01*
X0072577Y0009544D01*
X0072570Y0009550D01*
X0072563Y0009557D01*
X0072556Y0009564D01*
X0072549Y0009571D01*
X0072542Y0009578D01*
X0072536Y0009585D01*
X0072530Y0009592D01*
X0072524Y0009600D01*
X0072518Y0009607D01*
X0072512Y0009615D01*
X0072507Y0009623D01*
X0072502Y0009631D01*
X0072496Y0009640D01*
X0072492Y0009648D01*
X0072487Y0009656D01*
X0072482Y0009665D01*
X0072478Y0009674D01*
X0072474Y0009682D01*
X0072470Y0009691D01*
X0072467Y0009700D01*
X0072463Y0009709D01*
X0072460Y0009719D01*
X0072457Y0009728D01*
X0072455Y0009737D01*
X0072452Y0009746D01*
X0072450Y0009756D01*
X0072448Y0009765D01*
X0072446Y0009775D01*
X0072445Y0009784D01*
X0072443Y0009794D01*
X0072442Y0009803D01*
X0072442Y0009813D01*
X0072441Y0009823D01*
X0072441Y0009832D01*
X0072440Y0009842D01*
X0072440Y0021653D02*
X0072441Y0021663D01*
X0072441Y0021672D01*
X0072442Y0021682D01*
X0072442Y0021692D01*
X0072443Y0021701D01*
X0072445Y0021711D01*
X0072446Y0021720D01*
X0072448Y0021730D01*
X0072450Y0021739D01*
X0072452Y0021749D01*
X0072455Y0021758D01*
X0072457Y0021767D01*
X0072460Y0021777D01*
X0072463Y0021786D01*
X0072467Y0021795D01*
X0072470Y0021804D01*
X0072474Y0021813D01*
X0072478Y0021821D01*
X0072482Y0021830D01*
X0072487Y0021839D01*
X0072492Y0021847D01*
X0072496Y0021855D01*
X0072502Y0021864D01*
X0072507Y0021872D01*
X0072512Y0021880D01*
X0072518Y0021888D01*
X0072524Y0021895D01*
X0072530Y0021903D01*
X0072536Y0021910D01*
X0072542Y0021917D01*
X0072549Y0021925D01*
X0072556Y0021931D01*
X0072563Y0021938D01*
X0072570Y0021945D01*
X0072577Y0021951D01*
X0072584Y0021957D01*
X0072592Y0021963D01*
X0072600Y0021969D01*
X0072607Y0021975D01*
X0072615Y0021980D01*
X0072624Y0021986D01*
X0072632Y0021991D01*
X0072640Y0021996D01*
X0072649Y0022000D01*
X0072657Y0022005D01*
X0072666Y0022009D01*
X0072675Y0022013D01*
X0072683Y0022017D01*
X0072692Y0022020D01*
X0072701Y0022024D01*
X0072711Y0022027D01*
X0072720Y0022030D01*
X0072729Y0022032D01*
X0072738Y0022035D01*
X0072748Y0022037D01*
X0072757Y0022039D01*
X0072767Y0022041D01*
X0072776Y0022042D01*
X0072786Y0022044D01*
X0072796Y0022045D01*
X0072805Y0022046D01*
X0072815Y0022046D01*
X0072825Y0022047D01*
X0072834Y0022047D01*
X0072844Y0022047D01*
X0072853Y0022046D01*
X0072863Y0022046D01*
X0072873Y0022045D01*
X0072882Y0022044D01*
X0072892Y0022042D01*
X0072901Y0022041D01*
X0072911Y0022039D01*
X0072920Y0022037D01*
X0072930Y0022035D01*
X0072939Y0022032D01*
X0072948Y0022030D01*
X0072958Y0022027D01*
X0072967Y0022024D01*
X0072976Y0022020D01*
X0072985Y0022017D01*
X0072994Y0022013D01*
X0073002Y0022009D01*
X0073011Y0022005D01*
X0073020Y0022000D01*
X0073028Y0021996D01*
X0073037Y0021991D01*
X0073045Y0021986D01*
X0073053Y0021980D01*
X0073061Y0021975D01*
X0073069Y0021969D01*
X0073076Y0021963D01*
X0073084Y0021957D01*
X0073091Y0021951D01*
X0073099Y0021945D01*
X0073106Y0021938D01*
X0073113Y0021931D01*
X0073119Y0021925D01*
X0073126Y0021917D01*
X0073132Y0021910D01*
X0073138Y0021903D01*
X0073145Y0021895D01*
X0073150Y0021888D01*
X0073156Y0021880D01*
X0073162Y0021872D01*
X0073167Y0021864D01*
X0073172Y0021855D01*
X0073177Y0021847D01*
X0073181Y0021839D01*
X0073186Y0021830D01*
X0073190Y0021821D01*
X0073194Y0021813D01*
X0073198Y0021804D01*
X0073201Y0021795D01*
X0073205Y0021786D01*
X0073208Y0021777D01*
X0073211Y0021767D01*
X0073214Y0021758D01*
X0073216Y0021749D01*
X0073218Y0021739D01*
X0073220Y0021730D01*
X0073222Y0021720D01*
X0073224Y0021711D01*
X0073225Y0021701D01*
X0073226Y0021692D01*
X0073227Y0021682D01*
X0073227Y0021672D01*
X0073228Y0021663D01*
X0073228Y0021653D01*
X0073228Y0021643D01*
X0073227Y0021634D01*
X0073227Y0021624D01*
X0073226Y0021614D01*
X0073225Y0021605D01*
X0073224Y0021595D01*
X0073222Y0021586D01*
X0073220Y0021576D01*
X0073218Y0021567D01*
X0073216Y0021557D01*
X0073214Y0021548D01*
X0073211Y0021539D01*
X0073208Y0021530D01*
X0073205Y0021520D01*
X0073201Y0021511D01*
X0073198Y0021502D01*
X0073194Y0021494D01*
X0073190Y0021485D01*
X0073186Y0021476D01*
X0073181Y0021467D01*
X0073177Y0021459D01*
X0073172Y0021451D01*
X0073167Y0021442D01*
X0073162Y0021434D01*
X0073156Y0021426D01*
X0073150Y0021419D01*
X0073145Y0021411D01*
X0073138Y0021403D01*
X0073132Y0021396D01*
X0073126Y0021389D01*
X0073119Y0021382D01*
X0073113Y0021375D01*
X0073106Y0021368D01*
X0073099Y0021361D01*
X0073091Y0021355D01*
X0073084Y0021349D01*
X0073076Y0021343D01*
X0073069Y0021337D01*
X0073061Y0021331D01*
X0073053Y0021326D01*
X0073045Y0021320D01*
X0073037Y0021315D01*
X0073028Y0021310D01*
X0073020Y0021306D01*
X0073011Y0021301D01*
X0073002Y0021297D01*
X0072994Y0021293D01*
X0072985Y0021289D01*
X0072976Y0021286D01*
X0072967Y0021282D01*
X0072958Y0021279D01*
X0072948Y0021276D01*
X0072939Y0021274D01*
X0072930Y0021271D01*
X0072920Y0021269D01*
X0072911Y0021267D01*
X0072901Y0021265D01*
X0072892Y0021264D01*
X0072882Y0021262D01*
X0072873Y0021261D01*
X0072863Y0021260D01*
X0072853Y0021260D01*
X0072844Y0021259D01*
X0072834Y0021259D01*
X0072825Y0021259D01*
X0072815Y0021260D01*
X0072805Y0021260D01*
X0072796Y0021261D01*
X0072786Y0021262D01*
X0072776Y0021264D01*
X0072767Y0021265D01*
X0072757Y0021267D01*
X0072748Y0021269D01*
X0072738Y0021271D01*
X0072729Y0021274D01*
X0072720Y0021276D01*
X0072711Y0021279D01*
X0072701Y0021282D01*
X0072692Y0021286D01*
X0072683Y0021289D01*
X0072675Y0021293D01*
X0072666Y0021297D01*
X0072657Y0021301D01*
X0072649Y0021306D01*
X0072640Y0021310D01*
X0072632Y0021315D01*
X0072624Y0021320D01*
X0072615Y0021326D01*
X0072607Y0021331D01*
X0072600Y0021337D01*
X0072592Y0021343D01*
X0072584Y0021349D01*
X0072577Y0021355D01*
X0072570Y0021361D01*
X0072563Y0021368D01*
X0072556Y0021375D01*
X0072549Y0021382D01*
X0072542Y0021389D01*
X0072536Y0021396D01*
X0072530Y0021403D01*
X0072524Y0021411D01*
X0072518Y0021419D01*
X0072512Y0021426D01*
X0072507Y0021434D01*
X0072502Y0021442D01*
X0072496Y0021451D01*
X0072492Y0021459D01*
X0072487Y0021467D01*
X0072482Y0021476D01*
X0072478Y0021485D01*
X0072474Y0021494D01*
X0072470Y0021502D01*
X0072467Y0021511D01*
X0072463Y0021520D01*
X0072460Y0021530D01*
X0072457Y0021539D01*
X0072455Y0021548D01*
X0072452Y0021557D01*
X0072450Y0021567D01*
X0072448Y0021576D01*
X0072446Y0021586D01*
X0072445Y0021595D01*
X0072443Y0021605D01*
X0072442Y0021614D01*
X0072442Y0021624D01*
X0072441Y0021634D01*
X0072441Y0021643D01*
X0072440Y0021653D01*
X0075423Y0018700D02*
X0075423Y0018714D01*
X0075423Y0018728D01*
X0075424Y0018742D01*
X0075425Y0018755D01*
X0075427Y0018769D01*
X0075429Y0018783D01*
X0075431Y0018796D01*
X0075434Y0018810D01*
X0075436Y0018823D01*
X0075440Y0018837D01*
X0075443Y0018850D01*
X0075447Y0018863D01*
X0075451Y0018876D01*
X0075456Y0018889D01*
X0075460Y0018902D01*
X0075465Y0018915D01*
X0075471Y0018928D01*
X0075477Y0018940D01*
X0075483Y0018953D01*
X0075489Y0018965D01*
X0075496Y0018977D01*
X0075503Y0018989D01*
X0075510Y0019000D01*
X0075517Y0019012D01*
X0075525Y0019023D01*
X0075533Y0019035D01*
X0075541Y0019045D01*
X0075550Y0019056D01*
X0075559Y0019067D01*
X0075568Y0019077D01*
X0075577Y0019087D01*
X0075587Y0019097D01*
X0075597Y0019107D01*
X0075607Y0019116D01*
X0075617Y0019125D01*
X0075628Y0019134D01*
X0075639Y0019143D01*
X0075650Y0019151D01*
X0075661Y0019159D01*
X0075672Y0019167D01*
X0075684Y0019174D01*
X0075695Y0019181D01*
X0075707Y0019188D01*
X0075719Y0019195D01*
X0075732Y0019201D01*
X0075744Y0019207D01*
X0075756Y0019213D01*
X0075769Y0019219D01*
X0075782Y0019224D01*
X0075795Y0019229D01*
X0075808Y0019233D01*
X0075821Y0019237D01*
X0075834Y0019241D01*
X0075847Y0019245D01*
X0075861Y0019248D01*
X0075874Y0019250D01*
X0075888Y0019253D01*
X0075901Y0019255D01*
X0075915Y0019257D01*
X0075929Y0019259D01*
X0075942Y0019260D01*
X0075956Y0019261D01*
X0075970Y0019261D01*
X0075984Y0019261D01*
X0075998Y0019261D01*
X0076011Y0019261D01*
X0076025Y0019260D01*
X0076039Y0019259D01*
X0076052Y0019257D01*
X0076066Y0019255D01*
X0076080Y0019253D01*
X0076093Y0019250D01*
X0076107Y0019248D01*
X0076120Y0019245D01*
X0076133Y0019241D01*
X0076147Y0019237D01*
X0076160Y0019233D01*
X0076173Y0019229D01*
X0076186Y0019224D01*
X0076198Y0019219D01*
X0076211Y0019213D01*
X0076224Y0019207D01*
X0076236Y0019201D01*
X0076248Y0019195D01*
X0076260Y0019188D01*
X0076272Y0019181D01*
X0076284Y0019174D01*
X0076295Y0019167D01*
X0076307Y0019159D01*
X0076318Y0019151D01*
X0076329Y0019143D01*
X0076340Y0019134D01*
X0076350Y0019125D01*
X0076361Y0019116D01*
X0076371Y0019107D01*
X0076380Y0019097D01*
X0076390Y0019087D01*
X0076399Y0019077D01*
X0076409Y0019067D01*
X0076417Y0019056D01*
X0076426Y0019045D01*
X0076434Y0019035D01*
X0076442Y0019023D01*
X0076450Y0019012D01*
X0076458Y0019000D01*
X0076465Y0018989D01*
X0076472Y0018977D01*
X0076479Y0018965D01*
X0076485Y0018953D01*
X0076491Y0018940D01*
X0076497Y0018928D01*
X0076502Y0018915D01*
X0076507Y0018902D01*
X0076512Y0018889D01*
X0076516Y0018876D01*
X0076521Y0018863D01*
X0076524Y0018850D01*
X0076528Y0018837D01*
X0076531Y0018823D01*
X0076534Y0018810D01*
X0076537Y0018796D01*
X0076539Y0018783D01*
X0076541Y0018769D01*
X0076542Y0018755D01*
X0076543Y0018742D01*
X0076544Y0018728D01*
X0076545Y0018714D01*
X0076545Y0018700D01*
X0076545Y0018687D01*
X0076544Y0018673D01*
X0076543Y0018659D01*
X0076542Y0018645D01*
X0076541Y0018632D01*
X0076539Y0018618D01*
X0076537Y0018604D01*
X0076534Y0018591D01*
X0076531Y0018577D01*
X0076528Y0018564D01*
X0076524Y0018551D01*
X0076521Y0018537D01*
X0076516Y0018524D01*
X0076512Y0018511D01*
X0076507Y0018498D01*
X0076502Y0018486D01*
X0076497Y0018473D01*
X0076491Y0018460D01*
X0076485Y0018448D01*
X0076479Y0018436D01*
X0076472Y0018424D01*
X0076465Y0018412D01*
X0076458Y0018400D01*
X0076450Y0018389D01*
X0076442Y0018377D01*
X0076434Y0018366D01*
X0076426Y0018355D01*
X0076417Y0018344D01*
X0076409Y0018334D01*
X0076399Y0018324D01*
X0076390Y0018313D01*
X0076380Y0018304D01*
X0076371Y0018294D01*
X0076361Y0018285D01*
X0076350Y0018275D01*
X0076340Y0018267D01*
X0076329Y0018258D01*
X0076318Y0018250D01*
X0076307Y0018242D01*
X0076295Y0018234D01*
X0076284Y0018226D01*
X0076272Y0018219D01*
X0076260Y0018212D01*
X0076248Y0018206D01*
X0076236Y0018199D01*
X0076224Y0018193D01*
X0076211Y0018187D01*
X0076198Y0018182D01*
X0076186Y0018177D01*
X0076173Y0018172D01*
X0076160Y0018168D01*
X0076147Y0018163D01*
X0076133Y0018160D01*
X0076120Y0018156D01*
X0076107Y0018153D01*
X0076093Y0018150D01*
X0076080Y0018148D01*
X0076066Y0018145D01*
X0076052Y0018143D01*
X0076039Y0018142D01*
X0076025Y0018141D01*
X0076011Y0018140D01*
X0075998Y0018139D01*
X0075984Y0018139D01*
X0075970Y0018139D01*
X0075956Y0018140D01*
X0075942Y0018141D01*
X0075929Y0018142D01*
X0075915Y0018143D01*
X0075901Y0018145D01*
X0075888Y0018148D01*
X0075874Y0018150D01*
X0075861Y0018153D01*
X0075847Y0018156D01*
X0075834Y0018160D01*
X0075821Y0018163D01*
X0075808Y0018168D01*
X0075795Y0018172D01*
X0075782Y0018177D01*
X0075769Y0018182D01*
X0075756Y0018187D01*
X0075744Y0018193D01*
X0075732Y0018199D01*
X0075719Y0018206D01*
X0075707Y0018212D01*
X0075695Y0018219D01*
X0075684Y0018226D01*
X0075672Y0018234D01*
X0075661Y0018242D01*
X0075650Y0018250D01*
X0075639Y0018258D01*
X0075628Y0018267D01*
X0075617Y0018275D01*
X0075607Y0018285D01*
X0075597Y0018294D01*
X0075587Y0018304D01*
X0075577Y0018313D01*
X0075568Y0018324D01*
X0075559Y0018334D01*
X0075550Y0018344D01*
X0075541Y0018355D01*
X0075533Y0018366D01*
X0075525Y0018377D01*
X0075517Y0018389D01*
X0075510Y0018400D01*
X0075503Y0018412D01*
X0075496Y0018424D01*
X0075489Y0018436D01*
X0075483Y0018448D01*
X0075477Y0018460D01*
X0075471Y0018473D01*
X0075465Y0018486D01*
X0075460Y0018498D01*
X0075456Y0018511D01*
X0075451Y0018524D01*
X0075447Y0018537D01*
X0075443Y0018551D01*
X0075440Y0018564D01*
X0075436Y0018577D01*
X0075434Y0018591D01*
X0075431Y0018604D01*
X0075429Y0018618D01*
X0075427Y0018632D01*
X0075425Y0018645D01*
X0075424Y0018659D01*
X0075423Y0018673D01*
X0075423Y0018687D01*
X0075423Y0018700D01*
X0075423Y0010433D02*
X0075423Y0010446D01*
X0075423Y0010460D01*
X0075424Y0010474D01*
X0075425Y0010488D01*
X0075427Y0010501D01*
X0075429Y0010515D01*
X0075431Y0010528D01*
X0075434Y0010542D01*
X0075436Y0010555D01*
X0075440Y0010569D01*
X0075443Y0010582D01*
X0075447Y0010595D01*
X0075451Y0010609D01*
X0075456Y0010622D01*
X0075460Y0010634D01*
X0075465Y0010647D01*
X0075471Y0010660D01*
X0075477Y0010672D01*
X0075483Y0010685D01*
X0075489Y0010697D01*
X0075496Y0010709D01*
X0075503Y0010721D01*
X0075510Y0010733D01*
X0075517Y0010744D01*
X0075525Y0010756D01*
X0075533Y0010767D01*
X0075541Y0010778D01*
X0075550Y0010788D01*
X0075559Y0010799D01*
X0075568Y0010809D01*
X0075577Y0010819D01*
X0075587Y0010829D01*
X0075597Y0010839D01*
X0075607Y0010848D01*
X0075617Y0010857D01*
X0075628Y0010866D01*
X0075639Y0010875D01*
X0075650Y0010883D01*
X0075661Y0010891D01*
X0075672Y0010899D01*
X0075684Y0010907D01*
X0075695Y0010914D01*
X0075707Y0010921D01*
X0075719Y0010927D01*
X0075732Y0010934D01*
X0075744Y0010940D01*
X0075756Y0010945D01*
X0075769Y0010951D01*
X0075782Y0010956D01*
X0075795Y0010961D01*
X0075808Y0010965D01*
X0075821Y0010969D01*
X0075834Y0010973D01*
X0075847Y0010977D01*
X0075861Y0010980D01*
X0075874Y0010983D01*
X0075888Y0010985D01*
X0075901Y0010988D01*
X0075915Y0010989D01*
X0075929Y0010991D01*
X0075942Y0010992D01*
X0075956Y0010993D01*
X0075970Y0010993D01*
X0075984Y0010994D01*
X0075998Y0010993D01*
X0076011Y0010993D01*
X0076025Y0010992D01*
X0076039Y0010991D01*
X0076052Y0010989D01*
X0076066Y0010988D01*
X0076080Y0010985D01*
X0076093Y0010983D01*
X0076107Y0010980D01*
X0076120Y0010977D01*
X0076133Y0010973D01*
X0076147Y0010969D01*
X0076160Y0010965D01*
X0076173Y0010961D01*
X0076186Y0010956D01*
X0076198Y0010951D01*
X0076211Y0010945D01*
X0076224Y0010940D01*
X0076236Y0010934D01*
X0076248Y0010927D01*
X0076260Y0010921D01*
X0076272Y0010914D01*
X0076284Y0010907D01*
X0076295Y0010899D01*
X0076307Y0010891D01*
X0076318Y0010883D01*
X0076329Y0010875D01*
X0076340Y0010866D01*
X0076350Y0010857D01*
X0076361Y0010848D01*
X0076371Y0010839D01*
X0076380Y0010829D01*
X0076390Y0010819D01*
X0076399Y0010809D01*
X0076409Y0010799D01*
X0076417Y0010788D01*
X0076426Y0010778D01*
X0076434Y0010767D01*
X0076442Y0010756D01*
X0076450Y0010744D01*
X0076458Y0010733D01*
X0076465Y0010721D01*
X0076472Y0010709D01*
X0076479Y0010697D01*
X0076485Y0010685D01*
X0076491Y0010672D01*
X0076497Y0010660D01*
X0076502Y0010647D01*
X0076507Y0010634D01*
X0076512Y0010622D01*
X0076516Y0010609D01*
X0076521Y0010595D01*
X0076524Y0010582D01*
X0076528Y0010569D01*
X0076531Y0010555D01*
X0076534Y0010542D01*
X0076537Y0010528D01*
X0076539Y0010515D01*
X0076541Y0010501D01*
X0076542Y0010488D01*
X0076543Y0010474D01*
X0076544Y0010460D01*
X0076545Y0010446D01*
X0076545Y0010433D01*
X0076545Y0010419D01*
X0076544Y0010405D01*
X0076543Y0010391D01*
X0076542Y0010378D01*
X0076541Y0010364D01*
X0076539Y0010350D01*
X0076537Y0010337D01*
X0076534Y0010323D01*
X0076531Y0010310D01*
X0076528Y0010296D01*
X0076524Y0010283D01*
X0076521Y0010270D01*
X0076516Y0010257D01*
X0076512Y0010244D01*
X0076507Y0010231D01*
X0076502Y0010218D01*
X0076497Y0010205D01*
X0076491Y0010193D01*
X0076485Y0010180D01*
X0076479Y0010168D01*
X0076472Y0010156D01*
X0076465Y0010144D01*
X0076458Y0010132D01*
X0076450Y0010121D01*
X0076442Y0010110D01*
X0076434Y0010098D01*
X0076426Y0010087D01*
X0076417Y0010077D01*
X0076409Y0010066D01*
X0076399Y0010056D01*
X0076390Y0010046D01*
X0076380Y0010036D01*
X0076371Y0010026D01*
X0076361Y0010017D01*
X0076350Y0010008D01*
X0076340Y0009999D01*
X0076329Y0009990D01*
X0076318Y0009982D01*
X0076307Y0009974D01*
X0076295Y0009966D01*
X0076284Y0009959D01*
X0076272Y0009951D01*
X0076260Y0009944D01*
X0076248Y0009938D01*
X0076236Y0009931D01*
X0076224Y0009925D01*
X0076211Y0009920D01*
X0076198Y0009914D01*
X0076186Y0009909D01*
X0076173Y0009904D01*
X0076160Y0009900D01*
X0076147Y0009896D01*
X0076133Y0009892D01*
X0076120Y0009888D01*
X0076107Y0009885D01*
X0076093Y0009882D01*
X0076080Y0009880D01*
X0076066Y0009878D01*
X0076052Y0009876D01*
X0076039Y0009874D01*
X0076025Y0009873D01*
X0076011Y0009872D01*
X0075998Y0009872D01*
X0075984Y0009872D01*
X0075970Y0009872D01*
X0075956Y0009872D01*
X0075942Y0009873D01*
X0075929Y0009874D01*
X0075915Y0009876D01*
X0075901Y0009878D01*
X0075888Y0009880D01*
X0075874Y0009882D01*
X0075861Y0009885D01*
X0075847Y0009888D01*
X0075834Y0009892D01*
X0075821Y0009896D01*
X0075808Y0009900D01*
X0075795Y0009904D01*
X0075782Y0009909D01*
X0075769Y0009914D01*
X0075756Y0009920D01*
X0075744Y0009925D01*
X0075732Y0009931D01*
X0075719Y0009938D01*
X0075707Y0009944D01*
X0075695Y0009951D01*
X0075684Y0009959D01*
X0075672Y0009966D01*
X0075661Y0009974D01*
X0075650Y0009982D01*
X0075639Y0009990D01*
X0075628Y0009999D01*
X0075617Y0010008D01*
X0075607Y0010017D01*
X0075597Y0010026D01*
X0075587Y0010036D01*
X0075577Y0010046D01*
X0075568Y0010056D01*
X0075559Y0010066D01*
X0075550Y0010077D01*
X0075541Y0010087D01*
X0075533Y0010098D01*
X0075525Y0010110D01*
X0075517Y0010121D01*
X0075510Y0010132D01*
X0075503Y0010144D01*
X0075496Y0010156D01*
X0075489Y0010168D01*
X0075483Y0010180D01*
X0075477Y0010193D01*
X0075471Y0010205D01*
X0075465Y0010218D01*
X0075460Y0010231D01*
X0075456Y0010244D01*
X0075451Y0010257D01*
X0075447Y0010270D01*
X0075443Y0010283D01*
X0075440Y0010296D01*
X0075436Y0010310D01*
X0075434Y0010323D01*
X0075431Y0010337D01*
X0075429Y0010350D01*
X0075427Y0010364D01*
X0075425Y0010378D01*
X0075424Y0010391D01*
X0075423Y0010405D01*
X0075423Y0010419D01*
X0075423Y0010433D01*
D23*
X0005905Y0005905D02*
X0078740Y0005905D01*
X0078740Y0017716D01*
X0078690Y0018848D01*
X0078542Y0019972D01*
X0078297Y0021079D01*
X0077956Y0022160D01*
X0077522Y0023207D01*
X0076999Y0024212D01*
X0076390Y0025168D01*
X0075700Y0026067D01*
X0074934Y0026903D01*
X0074099Y0027669D01*
X0073200Y0028359D01*
X0072244Y0028968D01*
X0071238Y0029491D01*
X0070191Y0029925D01*
X0069110Y0030265D01*
X0068004Y0030511D01*
X0066880Y0030659D01*
X0065748Y0030708D01*
X0018897Y0030708D01*
X0017765Y0030659D01*
X0016641Y0030511D01*
X0015535Y0030265D01*
X0014454Y0029925D01*
X0013406Y0029491D01*
X0012401Y0028968D01*
X0011445Y0028359D01*
X0010546Y0027669D01*
X0009710Y0026903D01*
X0008945Y0026067D01*
X0008255Y0025168D01*
X0007646Y0024212D01*
X0007122Y0023207D01*
X0006688Y0022160D01*
X0006348Y0021079D01*
X0006102Y0019972D01*
X0005954Y0018848D01*
X0005905Y0017716D01*
X0005905Y0005905D01*
X0014173Y0009825D02*
X0014170Y0009791D01*
X0014164Y0009757D01*
X0014155Y0009723D01*
X0014143Y0009691D01*
X0014129Y0009660D01*
X0014111Y0009630D01*
X0014092Y0009602D01*
X0014070Y0009576D01*
X0014045Y0009551D01*
X0014019Y0009529D01*
X0013991Y0009510D01*
X0013961Y0009492D01*
X0013930Y0009478D01*
X0013898Y0009466D01*
X0013864Y0009457D01*
X0013830Y0009451D01*
X0013796Y0009448D01*
X0013762Y0009448D01*
X0013728Y0009451D01*
X0013694Y0009457D01*
X0013661Y0009466D01*
X0013628Y0009478D01*
X0013597Y0009492D01*
X0013567Y0009510D01*
X0013539Y0009529D01*
X0013513Y0009551D01*
X0013488Y0009576D01*
X0013466Y0009602D01*
X0013447Y0009630D01*
X0013429Y0009660D01*
X0013415Y0009691D01*
X0013403Y0009723D01*
X0013394Y0009757D01*
X0013388Y0009791D01*
X0013385Y0009825D01*
X0013385Y0009859D01*
X0013388Y0009893D01*
X0013394Y0009927D01*
X0013403Y0009961D01*
X0013415Y0009993D01*
X0013429Y0010024D01*
X0013447Y0010054D01*
X0013466Y0010082D01*
X0013488Y0010108D01*
X0013513Y0010133D01*
X0013539Y0010155D01*
X0013567Y0010174D01*
X0013597Y0010192D01*
X0013628Y0010206D01*
X0013661Y0010218D01*
X0013694Y0010227D01*
X0013728Y0010233D01*
X0013762Y0010236D01*
X0013796Y0010236D01*
X0013830Y0010233D01*
X0013864Y0010227D01*
X0013898Y0010218D01*
X0013930Y0010206D01*
X0013961Y0010192D01*
X0013991Y0010174D01*
X0014019Y0010155D01*
X0014045Y0010133D01*
X0014070Y0010108D01*
X0014092Y0010082D01*
X0014111Y0010054D01*
X0014129Y0010024D01*
X0014143Y0009993D01*
X0014155Y0009961D01*
X0014164Y0009927D01*
X0014170Y0009893D01*
X0014173Y0009859D01*
X0014173Y0009825D01*
X0014173Y0021636D02*
X0014170Y0021602D01*
X0014164Y0021568D01*
X0014155Y0021535D01*
X0014143Y0021502D01*
X0014129Y0021471D01*
X0014111Y0021441D01*
X0014092Y0021413D01*
X0014070Y0021387D01*
X0014045Y0021362D01*
X0014019Y0021340D01*
X0013991Y0021321D01*
X0013961Y0021303D01*
X0013930Y0021289D01*
X0013898Y0021277D01*
X0013864Y0021268D01*
X0013830Y0021262D01*
X0013796Y0021259D01*
X0013762Y0021259D01*
X0013728Y0021262D01*
X0013694Y0021268D01*
X0013661Y0021277D01*
X0013628Y0021289D01*
X0013597Y0021303D01*
X0013567Y0021321D01*
X0013539Y0021340D01*
X0013513Y0021362D01*
X0013488Y0021387D01*
X0013466Y0021413D01*
X0013447Y0021441D01*
X0013429Y0021471D01*
X0013415Y0021502D01*
X0013403Y0021535D01*
X0013394Y0021568D01*
X0013388Y0021602D01*
X0013385Y0021636D01*
X0013385Y0021670D01*
X0013388Y0021705D01*
X0013394Y0021738D01*
X0013403Y0021772D01*
X0013415Y0021804D01*
X0013429Y0021835D01*
X0013447Y0021865D01*
X0013466Y0021893D01*
X0013488Y0021919D01*
X0013513Y0021944D01*
X0013539Y0021966D01*
X0013567Y0021985D01*
X0013597Y0022003D01*
X0013628Y0022017D01*
X0013661Y0022029D01*
X0013694Y0022038D01*
X0013728Y0022044D01*
X0013762Y0022047D01*
X0013796Y0022047D01*
X0013830Y0022044D01*
X0013864Y0022038D01*
X0013898Y0022029D01*
X0013930Y0022017D01*
X0013961Y0022003D01*
X0013991Y0021985D01*
X0014019Y0021966D01*
X0014045Y0021944D01*
X0014070Y0021919D01*
X0014092Y0021893D01*
X0014111Y0021865D01*
X0014129Y0021835D01*
X0014143Y0021804D01*
X0014155Y0021772D01*
X0014164Y0021738D01*
X0014170Y0021705D01*
X0014173Y0021670D01*
X0014173Y0021636D01*
X0073228Y0009825D02*
X0073225Y0009791D01*
X0073219Y0009757D01*
X0073210Y0009723D01*
X0073198Y0009691D01*
X0073184Y0009660D01*
X0073167Y0009630D01*
X0073147Y0009602D01*
X0073125Y0009576D01*
X0073100Y0009551D01*
X0073074Y0009529D01*
X0073046Y0009510D01*
X0073016Y0009492D01*
X0072985Y0009478D01*
X0072953Y0009466D01*
X0072919Y0009457D01*
X0072886Y0009451D01*
X0072851Y0009448D01*
X0072817Y0009448D01*
X0072783Y0009451D01*
X0072749Y0009457D01*
X0072716Y0009466D01*
X0072683Y0009478D01*
X0072652Y0009492D01*
X0072622Y0009510D01*
X0072594Y0009529D01*
X0072568Y0009551D01*
X0072544Y0009576D01*
X0072522Y0009602D01*
X0072502Y0009630D01*
X0072485Y0009660D01*
X0072470Y0009691D01*
X0072458Y0009723D01*
X0072449Y0009757D01*
X0072443Y0009791D01*
X0072440Y0009825D01*
X0072440Y0009859D01*
X0072443Y0009893D01*
X0072449Y0009927D01*
X0072458Y0009961D01*
X0072470Y0009993D01*
X0072485Y0010024D01*
X0072502Y0010054D01*
X0072522Y0010082D01*
X0072544Y0010108D01*
X0072568Y0010133D01*
X0072594Y0010155D01*
X0072622Y0010174D01*
X0072652Y0010192D01*
X0072683Y0010206D01*
X0072716Y0010218D01*
X0072749Y0010227D01*
X0072783Y0010233D01*
X0072817Y0010236D01*
X0072851Y0010236D01*
X0072886Y0010233D01*
X0072919Y0010227D01*
X0072953Y0010218D01*
X0072985Y0010206D01*
X0073016Y0010192D01*
X0073046Y0010174D01*
X0073074Y0010155D01*
X0073100Y0010133D01*
X0073125Y0010108D01*
X0073147Y0010082D01*
X0073167Y0010054D01*
X0073184Y0010024D01*
X0073198Y0009993D01*
X0073210Y0009961D01*
X0073219Y0009927D01*
X0073225Y0009893D01*
X0073228Y0009859D01*
X0073228Y0009825D01*
X0073228Y0021636D02*
X0073225Y0021602D01*
X0073219Y0021568D01*
X0073210Y0021535D01*
X0073198Y0021502D01*
X0073184Y0021471D01*
X0073167Y0021441D01*
X0073147Y0021413D01*
X0073125Y0021387D01*
X0073100Y0021362D01*
X0073074Y0021340D01*
X0073046Y0021321D01*
X0073016Y0021303D01*
X0072985Y0021289D01*
X0072953Y0021277D01*
X0072919Y0021268D01*
X0072886Y0021262D01*
X0072851Y0021259D01*
X0072817Y0021259D01*
X0072783Y0021262D01*
X0072749Y0021268D01*
X0072716Y0021277D01*
X0072683Y0021289D01*
X0072652Y0021303D01*
X0072622Y0021321D01*
X0072594Y0021340D01*
X0072568Y0021362D01*
X0072544Y0021387D01*
X0072522Y0021413D01*
X0072502Y0021441D01*
X0072485Y0021471D01*
X0072470Y0021502D01*
X0072458Y0021535D01*
X0072449Y0021568D01*
X0072443Y0021602D01*
X0072440Y0021636D01*
X0072440Y0021670D01*
X0072443Y0021705D01*
X0072449Y0021738D01*
X0072458Y0021772D01*
X0072470Y0021804D01*
X0072485Y0021835D01*
X0072502Y0021865D01*
X0072522Y0021893D01*
X0072544Y0021919D01*
X0072568Y0021944D01*
X0072594Y0021966D01*
X0072622Y0021985D01*
X0072652Y0022003D01*
X0072683Y0022017D01*
X0072716Y0022029D01*
X0072749Y0022038D01*
X0072783Y0022044D01*
X0072817Y0022047D01*
X0072851Y0022047D01*
X0072886Y0022044D01*
X0072919Y0022038D01*
X0072953Y0022029D01*
X0072985Y0022017D01*
X0073016Y0022003D01*
X0073046Y0021985D01*
X0073074Y0021966D01*
X0073100Y0021944D01*
X0073125Y0021919D01*
X0073147Y0021893D01*
X0073167Y0021865D01*
X0073184Y0021835D01*
X0073198Y0021804D01*
X0073210Y0021772D01*
X0073219Y0021738D01*
X0073225Y0021705D01*
X0073228Y0021670D01*
X0073228Y0021636D01*
X0076004Y0018139D02*
X0076044Y0018142D01*
X0076083Y0018148D01*
X0076123Y0018156D01*
X0076161Y0018168D01*
X0076199Y0018182D01*
X0076235Y0018198D01*
X0076270Y0018217D01*
X0076304Y0018239D01*
X0076336Y0018263D01*
X0076366Y0018289D01*
X0076395Y0018318D01*
X0076421Y0018348D01*
X0076445Y0018380D01*
X0076467Y0018414D01*
X0076486Y0018449D01*
X0076502Y0018485D01*
X0076516Y0018523D01*
X0076528Y0018561D01*
X0076536Y0018601D01*
X0076542Y0018640D01*
X0076545Y0018680D01*
X0076545Y0018720D01*
X0076542Y0018760D01*
X0076536Y0018800D01*
X0076528Y0018839D01*
X0076516Y0018878D01*
X0076502Y0018915D01*
X0076486Y0018952D01*
X0076467Y0018987D01*
X0076445Y0019020D01*
X0076421Y0019053D01*
X0076395Y0019083D01*
X0076366Y0019111D01*
X0076336Y0019137D01*
X0076304Y0019161D01*
X0076270Y0019183D01*
X0076235Y0019202D01*
X0076199Y0019219D01*
X0076161Y0019233D01*
X0076123Y0019244D01*
X0076083Y0019253D01*
X0076044Y0019258D01*
X0076004Y0019261D01*
X0075964Y0019261D01*
X0075924Y0019258D01*
X0075884Y0019253D01*
X0075845Y0019244D01*
X0075806Y0019233D01*
X0075769Y0019219D01*
X0075732Y0019202D01*
X0075697Y0019183D01*
X0075664Y0019161D01*
X0075632Y0019137D01*
X0075601Y0019111D01*
X0075573Y0019083D01*
X0075547Y0019053D01*
X0075523Y0019020D01*
X0075501Y0018987D01*
X0075482Y0018952D01*
X0075465Y0018915D01*
X0075451Y0018878D01*
X0075440Y0018839D01*
X0075431Y0018800D01*
X0075426Y0018760D01*
X0075423Y0018720D01*
X0075423Y0018680D01*
X0075426Y0018640D01*
X0075431Y0018601D01*
X0075440Y0018561D01*
X0075451Y0018523D01*
X0075465Y0018485D01*
X0075482Y0018449D01*
X0075501Y0018414D01*
X0075523Y0018380D01*
X0075547Y0018348D01*
X0075573Y0018318D01*
X0075601Y0018289D01*
X0075632Y0018263D01*
X0075664Y0018239D01*
X0075697Y0018217D01*
X0075732Y0018198D01*
X0075769Y0018182D01*
X0075806Y0018168D01*
X0075845Y0018156D01*
X0075884Y0018148D01*
X0075924Y0018142D01*
X0075964Y0018139D01*
X0076004Y0018139D01*
X0076004Y0009872D02*
X0076044Y0009874D01*
X0076083Y0009880D01*
X0076123Y0009889D01*
X0076161Y0009900D01*
X0076199Y0009914D01*
X0076235Y0009931D01*
X0076270Y0009950D01*
X0076304Y0009971D01*
X0076336Y0009995D01*
X0076366Y0010022D01*
X0076395Y0010050D01*
X0076421Y0010080D01*
X0076445Y0010112D01*
X0076467Y0010146D01*
X0076486Y0010181D01*
X0076502Y0010218D01*
X0076516Y0010255D01*
X0076528Y0010294D01*
X0076536Y0010333D01*
X0076542Y0010373D01*
X0076545Y0010413D01*
X0076545Y0010453D01*
X0076542Y0010493D01*
X0076536Y0010532D01*
X0076528Y0010571D01*
X0076516Y0010610D01*
X0076502Y0010647D01*
X0076486Y0010684D01*
X0076467Y0010719D01*
X0076445Y0010753D01*
X0076421Y0010785D01*
X0076395Y0010815D01*
X0076366Y0010843D01*
X0076336Y0010870D01*
X0076304Y0010894D01*
X0076270Y0010915D01*
X0076235Y0010935D01*
X0076199Y0010951D01*
X0076161Y0010965D01*
X0076123Y0010977D01*
X0076083Y0010985D01*
X0076044Y0010991D01*
X0076004Y0010994D01*
X0075964Y0010994D01*
X0075924Y0010991D01*
X0075884Y0010985D01*
X0075845Y0010977D01*
X0075806Y0010965D01*
X0075769Y0010951D01*
X0075732Y0010935D01*
X0075697Y0010915D01*
X0075664Y0010894D01*
X0075632Y0010870D01*
X0075601Y0010843D01*
X0075573Y0010815D01*
X0075547Y0010785D01*
X0075523Y0010753D01*
X0075501Y0010719D01*
X0075482Y0010684D01*
X0075465Y0010647D01*
X0075451Y0010610D01*
X0075440Y0010571D01*
X0075431Y0010532D01*
X0075426Y0010493D01*
X0075423Y0010453D01*
X0075423Y0010413D01*
X0075426Y0010373D01*
X0075431Y0010333D01*
X0075440Y0010294D01*
X0075451Y0010255D01*
X0075465Y0010218D01*
X0075482Y0010181D01*
X0075501Y0010146D01*
X0075523Y0010112D01*
X0075547Y0010080D01*
X0075573Y0010050D01*
X0075601Y0010022D01*
X0075632Y0009995D01*
X0075664Y0009971D01*
X0075697Y0009950D01*
X0075732Y0009931D01*
X0075769Y0009914D01*
X0075806Y0009900D01*
X0075845Y0009889D01*
X0075884Y0009880D01*
X0075924Y0009874D01*
X0075964Y0009872D01*
X0076004Y0009872D01*
M02*