%MOIN*%
%OFA0B0*%
%FSLAX34Y34*%
%IPPOS*%
%LPD*%
%AMOC8*
5,1,8,0,0,$1,22.5*%
%AMOC80*
5,1,8,0,0,$1,22.5*%
%ADD10C,0.086740157480314953*%
%ADD11C,0.060000000000000005*%
%ADD12C,0.082000000000000017*%
%ADD13C,0.072000000000000008*%
%ADD14C,0.060000000000000005*%
%ADD15C,0.073000000000000009*%
%ADD16R,0.10248818897637797X0.10248818897637797*%
%ADD17R,0.22453543307086615X0.16548031496062993*%
%ADD18R,0.43319685039370082X0.41784251968503944*%
%ADD19R,0.05X0.093000000000000013*%
%ADD20R,0.11134645669291339X0.11134645669291339*%
%ADD21C,0.11134645669291339*%
%ADD22C,0.12020472440944882*%
%ADD23P,0.076849685039370091X8X292.5*%
%ADD24C,0.071*%
%ADD25C,0.068*%
%ADD26P,0.073602519685039378X8X22.5*%
%ADD27C,0.037779527559055122*%
%ADD28C,0.031874015748031496*%
%ADD39C,0.086740157480314953*%
%ADD40P,0.080096850393700791X8X22.5*%
%ADD41C,0.082000000000000017*%
%ADD42C,0.072000000000000008*%
%ADD43C,0.073000000000000009*%
%ADD44C,0.068*%
%ADD45R,0.11134645669291339X0.11134645669291339*%
%ADD46C,0.11134645669291339*%
%ADD47C,0.12020472440944882*%
%ADD48C,0.037779527559055122*%
G75*
%LPD*%
G01*
D10*
X0090551Y0005905D02*
X0116929Y0024409D03*
X0099409Y0015748D03*
X0116929Y0007086D03*
X0104330Y0015748D03*
D11*
X0096874Y0010610D02*
X0096874Y0010090D01*
X0097874Y0010090D02*
X0097874Y0010610D01*
X0097874Y0013610D02*
X0097874Y0014130D01*
X0096874Y0014130D02*
X0096874Y0013610D01*
D12*
X0098740Y0020397D03*
X0098740Y0017397D03*
X0099543Y0017397D03*
X0099543Y0020397D03*
D11*
X0110641Y0015370D02*
X0110641Y0014850D01*
X0111641Y0014850D02*
X0111641Y0015370D01*
X0111641Y0018370D02*
X0111641Y0018890D01*
X0110641Y0018890D02*
X0110641Y0018370D01*
D12*
X0111141Y0020716D03*
X0111891Y0020216D03*
X0111141Y0019716D03*
X0108960Y0017397D03*
X0108960Y0020397D03*
D11*
X0096862Y0015370D02*
X0096862Y0014850D01*
X0097862Y0014850D02*
X0097862Y0015370D01*
X0097862Y0018370D02*
X0097862Y0018890D01*
X0096862Y0018890D02*
X0096862Y0018370D01*
D12*
X0096968Y0020814D03*
X0097718Y0020314D03*
X0096968Y0019814D03*
X0100347Y0017397D03*
X0100347Y0020397D03*
D11*
X0110641Y0010610D02*
X0110641Y0010090D01*
X0111641Y0010090D02*
X0111641Y0010610D01*
X0111641Y0013610D02*
X0111641Y0014130D01*
X0110641Y0014130D02*
X0110641Y0013610D01*
D12*
X0108156Y0020397D03*
X0108156Y0017397D03*
X0101151Y0020397D03*
X0101151Y0017397D03*
X0107352Y0017397D03*
X0107352Y0020397D03*
X0106549Y0020397D03*
X0106549Y0017397D03*
D13*
X0110830Y0024728D03*
X0109830Y0024728D03*
X0108830Y0024728D03*
X0107830Y0024728D03*
X0106830Y0024728D03*
X0105830Y0024728D03*
X0104830Y0024728D03*
X0103830Y0024728D03*
X0102830Y0024728D03*
X0101830Y0024728D03*
X0100830Y0024728D03*
X0099830Y0024728D03*
X0098830Y0024728D03*
X0097830Y0024728D03*
X0097830Y0021728D03*
X0098830Y0021728D03*
X0099830Y0021728D03*
X0100830Y0021728D03*
X0101830Y0021728D03*
X0102830Y0021728D03*
X0103830Y0021728D03*
X0104830Y0021728D03*
X0105830Y0021728D03*
X0106830Y0021728D03*
X0107830Y0021728D03*
X0108830Y0021728D03*
X0109830Y0021728D03*
X0110830Y0021728D03*
D14*
X0104251Y0019847D03*
X0104251Y0017947D03*
D15*
X0096653Y0024712D03*
X0096653Y0023712D03*
X0096653Y0022744D03*
X0096653Y0021744D03*
D12*
X0105745Y0020397D03*
X0105745Y0017397D03*
D16*
X0100275Y0007480D03*
X0102007Y0007480D03*
D17*
X0106062Y0006925D03*
X0106062Y0011255D03*
D18*
X0101220Y0011974D03*
D19*
X0099880Y0008694D03*
X0100550Y0008694D03*
X0101220Y0008694D03*
X0101890Y0008694D03*
X0102560Y0008694D03*
D12*
X0108082Y0015433D03*
X0109082Y0015433D03*
X0102758Y0020397D03*
X0102758Y0017397D03*
D20*
X0095275Y0018897D03*
D21*
X0095275Y0017322D03*
X0095275Y0015748D03*
X0095275Y0014173D03*
X0095275Y0012598D03*
X0093700Y0018110D03*
X0093700Y0016535D03*
X0093700Y0014960D03*
X0093700Y0013385D03*
X0092125Y0018897D03*
X0092125Y0017322D03*
X0092125Y0015748D03*
X0092125Y0014173D03*
X0092125Y0012598D03*
D22*
X0093503Y0021456D03*
X0093503Y0010039D03*
D20*
X0113188Y0014173D03*
D21*
X0113188Y0015748D03*
X0113188Y0017322D03*
X0114763Y0014960D03*
X0114763Y0016535D03*
X0116338Y0014173D03*
X0116338Y0015748D03*
X0116338Y0017322D03*
D22*
X0114960Y0011614D03*
X0114960Y0019881D03*
D23*
X0097814Y0007272D03*
D24*
X0097814Y0008672D03*
D23*
X0110472Y0007272D03*
D24*
X0110472Y0008672D03*
D12*
X0101954Y0017397D03*
X0101954Y0020397D03*
X0109763Y0017397D03*
X0109763Y0020397D03*
D25*
X0109748Y0011523D02*
X0109148Y0011523D01*
X0109148Y0010523D02*
X0109748Y0010523D01*
D26*
X0100870Y0015129D03*
X0100870Y0016129D03*
X0101870Y0015129D03*
X0101870Y0016129D03*
X0102870Y0015129D03*
X0102870Y0016129D03*
D15*
X0099751Y0014763D03*
X0098751Y0014763D03*
D27*
X0110236Y0016141D03*
D28*
X0097626Y0016102D03*
X0096863Y0016033D03*
X0110668Y0011663D03*
X0097280Y0012148D03*
X0101095Y0023525D03*
X0103870Y0023109D03*
X0106020Y0021166D03*
X0097598Y0019747D03*
X0099430Y0023109D03*
X0100540Y0021166D03*
X0104633Y0025329D03*
X0094921Y0013397D03*
X0101650Y0022484D03*
X0103870Y0022484D03*
X0106090Y0019779D03*
X0109419Y0018877D03*
X0111500Y0016935D03*
X0103592Y0022831D03*
X0110737Y0009304D03*
X0102829Y0018253D03*
X0110113Y0012010D03*
X0099291Y0016727D03*
X0098390Y0019363D03*
X0105188Y0016449D03*
X0103731Y0016588D03*
X0105535Y0018045D03*
X0105188Y0012426D03*
G04 next file*
%LPD*%
G04 EAGLE Gerber RS-274X export*
G75*
G01*
D39*
X0005905Y0005905D02*
X0013779Y0009842D03*
X0013779Y0021653D03*
X0072834Y0009842D03*
X0072834Y0021653D03*
D40*
X0007672Y0007712D03*
X0008672Y0007712D03*
X0053271Y0008133D03*
X0054271Y0008133D03*
X0047429Y0008133D03*
X0048429Y0008133D03*
X0021082Y0010629D03*
X0022082Y0010629D03*
X0021106Y0015570D03*
X0022106Y0015570D03*
X0021051Y0019724D03*
X0022051Y0019724D03*
X0007672Y0012437D03*
X0008672Y0012437D03*
X0007672Y0017161D03*
X0008672Y0017161D03*
X0008573Y0022086D03*
X0009573Y0022086D03*
X0011609Y0026141D03*
X0012609Y0026141D03*
X0016452Y0028460D03*
X0017452Y0028460D03*
X0021749Y0028736D03*
X0022749Y0028736D03*
X0026614Y0028736D03*
X0027614Y0028736D03*
X0058405Y0008133D03*
X0059405Y0008133D03*
D41*
X0038566Y0025224D03*
X0037566Y0025224D03*
X0036566Y0025224D03*
X0035566Y0025224D03*
X0034566Y0025224D03*
X0038566Y0011224D03*
X0037566Y0011224D03*
X0036566Y0011224D03*
X0035566Y0011224D03*
X0034566Y0011224D03*
X0050137Y0025224D03*
X0049137Y0025224D03*
X0048137Y0025224D03*
X0047137Y0025224D03*
X0046137Y0025224D03*
X0050137Y0011224D03*
X0049137Y0011224D03*
X0048137Y0011224D03*
X0047137Y0011224D03*
X0046137Y0011224D03*
X0064566Y0025909D03*
X0064566Y0022909D03*
X0065748Y0025909D03*
X0065748Y0022909D03*
X0064566Y0017397D03*
X0064566Y0020397D03*
X0065748Y0017397D03*
X0065748Y0020397D03*
X0064566Y0011492D03*
X0064566Y0014492D03*
X0016216Y0021259D03*
X0019216Y0021259D03*
X0019216Y0020078D03*
X0016216Y0020078D03*
X0065748Y0011492D03*
X0065748Y0014492D03*
X0066929Y0022909D03*
X0066929Y0025909D03*
X0066929Y0020397D03*
X0066929Y0017397D03*
X0066929Y0014492D03*
X0066929Y0011492D03*
X0016216Y0018897D03*
X0019216Y0018897D03*
X0068110Y0025909D03*
X0068110Y0022909D03*
X0068110Y0017397D03*
X0068110Y0020397D03*
X0068110Y0011492D03*
X0068110Y0014492D03*
X0016216Y0017716D03*
X0019216Y0017716D03*
X0025665Y0024803D03*
X0028665Y0024803D03*
X0025665Y0025984D03*
X0028665Y0025984D03*
X0025665Y0017716D03*
X0028665Y0017716D03*
X0025665Y0018897D03*
X0028665Y0018897D03*
X0025665Y0023622D03*
X0028665Y0023622D03*
X0025665Y0021259D03*
X0028665Y0021259D03*
X0025665Y0022440D03*
X0028665Y0022440D03*
X0025665Y0020078D03*
X0028665Y0020078D03*
X0028665Y0012992D03*
X0025665Y0012992D03*
X0028665Y0011811D03*
X0025665Y0011811D03*
X0025665Y0009448D03*
X0028665Y0009448D03*
X0025665Y0008267D03*
X0028665Y0008267D03*
X0028665Y0014173D03*
X0025665Y0014173D03*
X0028665Y0016535D03*
X0025665Y0016535D03*
X0028665Y0015354D03*
X0025665Y0015354D03*
X0025665Y0010629D03*
X0028665Y0010629D03*
X0014885Y0012204D03*
X0011885Y0012204D03*
X0014885Y0011023D03*
X0011885Y0011023D03*
X0014885Y0016929D03*
X0011885Y0016929D03*
X0014885Y0015748D03*
X0011885Y0015748D03*
X0014885Y0014566D03*
X0011885Y0014566D03*
X0014885Y0019291D03*
X0011885Y0019291D03*
X0014885Y0018110D03*
X0011885Y0018110D03*
X0014885Y0013385D03*
X0011885Y0013385D03*
X0064566Y0006767D03*
X0064566Y0009767D03*
X0065748Y0009767D03*
X0065748Y0006767D03*
X0066929Y0009767D03*
X0066929Y0006767D03*
X0063385Y0006767D03*
X0063385Y0009767D03*
X0062204Y0006767D03*
X0062204Y0009767D03*
X0068110Y0009767D03*
X0068110Y0006767D03*
D42*
X0056342Y0025909D03*
X0057342Y0025909D03*
X0058342Y0025909D03*
X0059342Y0025909D03*
X0060342Y0025909D03*
X0061342Y0025909D03*
X0062342Y0025909D03*
X0063342Y0025909D03*
X0063342Y0022909D03*
X0062342Y0022909D03*
X0061342Y0022909D03*
X0060342Y0022909D03*
X0059342Y0022909D03*
X0058342Y0022909D03*
X0057342Y0022909D03*
X0056342Y0022909D03*
X0056342Y0020397D03*
X0057342Y0020397D03*
X0058342Y0020397D03*
X0059342Y0020397D03*
X0060342Y0020397D03*
X0061342Y0020397D03*
X0062342Y0020397D03*
X0063342Y0020397D03*
X0063342Y0017397D03*
X0062342Y0017397D03*
X0061342Y0017397D03*
X0060342Y0017397D03*
X0059342Y0017397D03*
X0058342Y0017397D03*
X0057342Y0017397D03*
X0056342Y0017397D03*
X0016216Y0009492D03*
X0016216Y0010492D03*
X0016216Y0011492D03*
X0016216Y0012492D03*
X0016216Y0013492D03*
X0016216Y0014492D03*
X0016216Y0015492D03*
X0016216Y0016492D03*
X0019216Y0016492D03*
X0019216Y0015492D03*
X0019216Y0014492D03*
X0019216Y0013492D03*
X0019216Y0012492D03*
X0019216Y0011492D03*
X0019216Y0010492D03*
X0019216Y0009492D03*
X0056342Y0014492D03*
X0057342Y0014492D03*
X0058342Y0014492D03*
X0059342Y0014492D03*
X0060342Y0014492D03*
X0061342Y0014492D03*
X0062342Y0014492D03*
X0063342Y0014492D03*
X0063342Y0011492D03*
X0062342Y0011492D03*
X0061342Y0011492D03*
X0060342Y0011492D03*
X0059342Y0011492D03*
X0058342Y0011492D03*
X0057342Y0011492D03*
X0056342Y0011492D03*
D43*
X0060326Y0021653D03*
X0061326Y0021653D03*
X0060129Y0016043D03*
X0061129Y0016043D03*
X0023622Y0013492D03*
X0023622Y0012492D03*
X0060228Y0010137D03*
X0061228Y0010137D03*
D44*
X0070172Y0008767D02*
X0070772Y0008767D01*
X0070772Y0007767D02*
X0070172Y0007767D01*
D45*
X0074212Y0016141D03*
D46*
X0074212Y0014566D03*
X0074212Y0012992D03*
X0075787Y0015354D03*
X0075787Y0013779D03*
X0077362Y0016141D03*
X0077362Y0014566D03*
X0077362Y0012992D03*
D47*
X0075984Y0018700D03*
X0075984Y0010433D03*
D48*
X0062795Y0016338D03*
X0026181Y0027165D03*
X0026574Y0027559D03*
X0026968Y0027755D03*
X0027362Y0027952D03*
X0027755Y0028149D03*
X0025000Y0029527D03*
X0029921Y0016338D03*
X0049606Y0017322D03*
X0029330Y0021259D03*
X0027952Y0020669D03*
X0056889Y0016338D03*
X0029724Y0015157D03*
X0057874Y0014960D03*
X0030905Y0014960D03*
X0030905Y0013582D03*
X0058858Y0016141D03*
X0030511Y0015551D03*
X0030511Y0014370D03*
X0039566Y0019488D03*
X0039566Y0008464D03*
X0039173Y0019094D03*
X0039173Y0008070D03*
X0059448Y0015748D03*
X0030118Y0015157D03*
X0030511Y0018897D03*
X0030511Y0017716D03*
X0064173Y0012007D03*
X0065157Y0006299D03*
X0024212Y0006496D03*
X0055708Y0007283D03*
X0017519Y0012795D03*
X0059842Y0015354D03*
X0032677Y0015354D03*
X0030905Y0022047D03*
X0021653Y0018700D03*
X0031889Y0009251D03*
X0023425Y0006889D03*
X0063779Y0008464D03*
X0029724Y0020472D03*
X0046062Y0017716D03*
X0031889Y0009645D03*
M02*