%
M48
METRIC,000.000
T09C0.20
T08C0.35
T07C0.70
T06C0.81
T05C0.90
T04C1.02
T03C1.75
T02C2.00
T01C2.85
T10C1.00
T11C0.50
%
T09
X277926Y047949
X269469Y050240
X263830Y057112
X258192Y057112
X241101Y034030
X265769Y064336
X255373Y053764
X252554Y058698
X247901Y050159
X269293Y053764
X263830Y058698
X256781Y059755
X247091Y030858
X281098Y029625
X247972Y040900
X281274Y023634
X267178Y031563
X268058Y045835
X263478Y042135
X267178Y041782
X249911Y049183
X252201Y042486
X279688Y030506
X261187Y046364
X263126Y057993
X246034Y040725
X283212Y043016
T08
X280000Y041000
X044500Y032500
X141500Y018500
X061500Y016500
X165500Y016000
X163000Y030500
X077500Y045000
X077500Y048000
X076500Y038500
X159500Y041500
X151000Y040000
X099500Y020500
X099500Y048500
X100500Y021500
X100500Y049500
X077500Y036500
X077500Y039500
X149500Y041000
X078500Y034500
X078500Y038000
X147000Y038000
X075500Y038500
X144500Y041500
X071000Y052500
X074500Y054000
X117000Y045000
X075500Y052000
X162000Y021500
X059500Y017500
X081000Y023500
X055000Y047500
X078500Y056000
X152000Y039000
X126000Y044000
X076000Y041500
X063500Y075000
X070500Y071500
X069500Y071000
X068500Y070500
X067500Y070000
X066500Y069000
X083000Y039000
X081000Y024500
T07
X245500Y055230
X245500Y057770
X250829Y037500
X245500Y062770
X245500Y060230
X253370Y037500
X153230Y055000
X155770Y055000
X152730Y040750
X155270Y040750
X060000Y034269
X060000Y031730
X152980Y025750
X155520Y025750
T06
X282300Y050080
X246030Y039040
X248570Y039040
X248570Y046660
X246030Y046660
X246300Y052870
X248204Y051600
X246300Y050330
X281030Y026950
X283570Y026950
X283570Y034570
X281030Y034570
X281510Y062810
X278970Y062810
X276430Y062810
X273890Y062810
X271350Y062810
X268810Y062810
X266270Y062810
X263730Y062810
X261190Y062810
X258649Y062810
X256110Y062810
X253570Y062810
X251030Y062810
X248490Y062810
X248490Y055190
X251030Y055190
X253570Y055190
X256110Y055190
X258649Y055190
X261190Y055190
X263730Y055190
X266270Y055190
X268810Y055190
X271350Y055190
X273890Y055190
X276430Y055190
X278970Y055190
X281510Y055190
X264800Y050413
X264800Y045587
X274530Y039200
X277070Y039200
X248450Y018472
X248450Y022028
X280600Y018472
X280600Y022028
X248600Y034570
X246060Y026950
X248600Y026950
X246060Y034570
X281030Y039040
X283570Y039040
X283570Y046660
X281030Y046660
X282300Y052620
X284205Y051350
X044329Y072289
X055244Y072990
X057784Y072990
X067600Y072990
X070140Y072990
X148350Y020660
X150890Y020660
X143110Y058190
X029488Y066400
X019488Y019590
X022028Y019590
X135310Y020660
X137850Y020660
X120470Y020660
X123010Y020660
X053550Y027000
X056090Y027000
X053610Y039550
X056150Y039550
X143110Y065810
X145650Y065810
X148190Y065810
X150730Y065810
X153270Y065810
X155810Y065810
X158350Y065810
X160890Y065810
X160890Y058190
X158350Y058190
X155810Y058190
X153270Y058190
X150730Y058190
X148190Y058190
X145650Y058190
X053470Y050100
X143110Y051810
X145650Y051810
X148190Y051810
X150730Y051810
X153270Y051810
X155810Y051810
X158350Y051810
X160890Y051810
X160890Y044190
X158350Y044190
X155810Y044190
X153270Y044190
X150730Y044190
X148190Y044190
X145650Y044190
X143110Y044190
X041190Y024110
X041190Y026650
X041190Y029189
X041190Y031730
X041190Y034269
X041190Y036810
X041190Y039350
X041190Y041890
X048810Y041890
X048810Y039350
X048810Y036810
X048810Y034269
X048810Y031730
X048810Y029189
X048810Y026650
X048810Y024110
X145650Y036810
X148190Y036810
X150730Y036810
X153270Y036810
X155810Y036810
X158350Y036810
X160890Y036810
X160890Y029189
X158350Y029189
X155810Y029189
X153270Y029189
X150730Y029189
X148190Y029189
X145650Y029189
X143110Y029189
X056010Y050100
X019488Y031590
X022028Y031590
X019488Y043590
X022028Y043590
X021777Y056100
X024317Y056100
X032028Y066400
X041789Y072289
X143110Y036810
T05
X258964Y051810
X258964Y044190
X268594Y044190
X261005Y051810
X261005Y044190
X276759Y051810
X272676Y051810
X270635Y051810
X268594Y051810
X270635Y044190
X250800Y051810
X250800Y044190
X252841Y044190
X252841Y051810
X274718Y051810
X274718Y044190
X256923Y051810
X254882Y044190
X254882Y051810
X272676Y044190
X276759Y044190
X278800Y044190
X278800Y051810
X256923Y044190
X065190Y024000
X065190Y030000
X072810Y030000
X065190Y033000
X072810Y048000
X072810Y033000
X072810Y051000
X065190Y051000
X072810Y057000
X065190Y057000
X072810Y054000
X065190Y054000
X072810Y060000
X041190Y051000
X167000Y029189
X167000Y036810
X170000Y058190
X170000Y065810
X170000Y051810
X170000Y044190
X170000Y036810
X170000Y029189
X041190Y048000
X048810Y048000
X173000Y065810
X173000Y058190
X173000Y044190
X173000Y051810
X030189Y031000
X173000Y036810
X065190Y060000
X041190Y045000
X048810Y045000
X065190Y063000
X072810Y063000
X065190Y066000
X072810Y066000
X065190Y045000
X072810Y045000
X065190Y048000
X048810Y054000
X164000Y017190
X030189Y034000
X037810Y034000
X173000Y029189
X030189Y046000
X037810Y046000
X030189Y049000
X037810Y049000
X030189Y037000
X037810Y037000
X030189Y040000
X037810Y040000
X030189Y043000
X037810Y043000
X030189Y028000
X037810Y028000
X037810Y031000
X072810Y027000
X065190Y027000
X164000Y065810
X164000Y058190
X167000Y065810
X167000Y058190
X164000Y044190
X164000Y051810
X167000Y044190
X167000Y051810
X164000Y029189
X164000Y036810
X041190Y054000
X164000Y024810
X167000Y024810
X167000Y017190
X170000Y024810
X048810Y051000
X161000Y017190
X161000Y024810
X158000Y017190
X158000Y024810
X173000Y024810
X173000Y017190
X065190Y039000
X072810Y039000
X065190Y042000
X072810Y042000
X065190Y036000
X072810Y036000
X072810Y021000
X065190Y021000
X072810Y024000
X170000Y017190
T04
X278000Y029270
X261290Y040970
X278000Y026730
X256209Y038430
X256209Y040970
X258750Y038430
X258750Y040970
X261290Y038430
X179000Y022270
X179000Y019730
T03
X287500Y044000
X242000Y044000
X242000Y048000
X295500Y044000
X295500Y036000
X291500Y042000
X291500Y038000
X234000Y048000
X287500Y040000
X287500Y036000
X234000Y032000
X234000Y036000
X234000Y040000
X234000Y044000
X238000Y034000
X238000Y038000
X238000Y042000
X238000Y046000
X295500Y040000
X242000Y032000
X242000Y036000
X242000Y040000
X196500Y041000
X196500Y037000
X196500Y033000
X188500Y041000
X188500Y037000
X188500Y033000
X192500Y039000
X192500Y035000
T02
X297000Y018000
X252500Y040000
X297000Y062000
X265000Y040000
X035000Y055000
X185000Y025000
X185000Y055000
X035000Y025000
T01
X292000Y029500
X292000Y050500
X237500Y054500
X237500Y025500
X193000Y047500
X193000Y026500
T10
X087800Y028509
X127350Y064069
X117190Y028509
X122270Y064069
X119730Y064069
X117190Y064069
X127350Y028509
X124810Y028509
X122270Y028509
X119730Y028509
X087800Y064069
X097960Y064069
X095420Y064069
X092880Y064069
X090340Y064069
X097960Y028509
X095420Y028509
X092880Y028509
X090340Y028509
X124810Y064069
T11
M30