M48
;GenerationSoftware,Autodesk,EAGLE,9.5.2*%
;CreationDate,2020-02-19T14:58:27Z*%
FMAT,2
ICI,OFF
METRIC,TZ,000.000
T9C0.350
T8C0.700
T7C0.813
T6C0.900
T5C1.000
T4C1.016
T3C1.750
T2C2.000
T1C2.850
%
G90
M71
T1
X178000Y32500
X178000Y11500
T2
X20000Y40000
X170000Y10000
X170000Y40000
X20000Y10000
T3
X181500Y26000
X181500Y22000
X181500Y18000
X173500Y26000
X173500Y22000
X173500Y18000
X177500Y24000
X177500Y20000
T4
X164000Y7270
X164000Y4730
T5
X72800Y13510
X112350Y49070
X102190Y13510
X107270Y49070
X104730Y49070
X102190Y49070
X112350Y13510
X109810Y13510
X107270Y13510
X104730Y13510
X72800Y49070
X82960Y49070
X80420Y49070
X77880Y49070
X75340Y49070
X82960Y13510
X80420Y13510
X77880Y13510
X75340Y13510
X109810Y49070
T6
X50190Y9000
X50190Y15000
X57810Y15000
X50190Y18000
X57810Y33000
X57810Y18000
X57810Y36000
X50190Y36000
X57810Y42000
X50190Y42000
X57810Y39000
X50190Y39000
X57810Y45000
X26190Y36000
X152000Y14190
X152000Y21810
X155000Y43190
X155000Y50810
X155000Y36810
X155000Y29190
X155000Y21810
X155000Y14190
X26190Y33000
X33810Y33000
X158000Y50810
X158000Y43190
X158000Y29190
X158000Y36810
X15190Y16000
X158000Y21810
X50190Y45000
X26190Y30000
X33810Y30000
X50190Y48000
X57810Y48000
X50190Y51000
X57810Y51000
X50190Y30000
X57810Y30000
X50190Y33000
X33810Y39000
X149000Y2190
X15190Y19000
X22810Y19000
X158000Y14190
X15190Y31000
X22810Y31000
X15190Y34000
X22810Y34000
X15190Y22000
X22810Y22000
X15190Y25000
X22810Y25000
X15190Y28000
X22810Y28000
X15190Y13000
X22810Y13000
X22810Y16000
X57810Y12000
X50190Y12000
X149000Y50810
X149000Y43190
X152000Y50810
X152000Y43190
X149000Y29190
X149000Y36810
X152000Y29190
X152000Y36810
X149000Y14190
X149000Y21810
X26190Y39000
X149000Y9810
X152000Y9810
X152000Y2190
X155000Y9810
X33810Y36000
X146000Y2190
X146000Y9810
X143000Y2190
X143000Y9810
X158000Y9810
X158000Y2190
X50190Y24000
X57810Y24000
X50190Y27000
X57810Y27000
X50190Y21000
X57810Y21000
X57810Y6000
X50190Y6000
X57810Y9000
X155000Y2190
T7
X29329Y57290
X40244Y57990
X42784Y57990
X52600Y57990
X55140Y57990
X133350Y5660
X135890Y5660
X128110Y43190
X14488Y51400
X4488Y4590
X7028Y4590
X120310Y5660
X122850Y5660
X105470Y5660
X108010Y5660
X38550Y12000
X41090Y12000
X38610Y24550
X41150Y24550
X128110Y50810
X130650Y50810
X133190Y50810
X135730Y50810
X138270Y50810
X140810Y50810
X143350Y50810
X145890Y50810
X145890Y43190
X143350Y43190
X140810Y43190
X138270Y43190
X135730Y43190
X133190Y43190
X130650Y43190
X38470Y35100
X128110Y36810
X130650Y36810
X133190Y36810
X135730Y36810
X138270Y36810
X140810Y36810
X143350Y36810
X145890Y36810
X145890Y29190
X143350Y29190
X140810Y29190
X138270Y29190
X135730Y29190
X133190Y29190
X130650Y29190
X128110Y29190
X26190Y9110
X26190Y11650
X26190Y14190
X26190Y16730
X26190Y19270
X26190Y21810
X26190Y24350
X26190Y26890
X33810Y26890
X33810Y24350
X33810Y21810
X33810Y19270
X33810Y16730
X33810Y14190
X33810Y11650
X33810Y9110
X130650Y21810
X133190Y21810
X135730Y21810
X138270Y21810
X140810Y21810
X143350Y21810
X145890Y21810
X145890Y14190
X143350Y14190
X140810Y14190
X138270Y14190
X135730Y14190
X133190Y14190
X130650Y14190
X128110Y14190
X41010Y35100
X4488Y16590
X7028Y16590
X4488Y28590
X7028Y28590
X6777Y41100
X9317Y41100
X17028Y51400
X26789Y57290
X128110Y21810
T8
X138230Y40000
X140770Y40000
X137730Y25750
X140270Y25750
X45000Y19270
X45000Y16730
X137980Y10750
X140520Y10750
T9
X29500Y17500
X126500Y3500
X46500Y1500
X150500Y1000
X148000Y15500
X62500Y30000
X62500Y33000
X61500Y23500
X144500Y26500
X136000Y25000
X84500Y5500
X84500Y33500
X85500Y6500
X85500Y34500
X62500Y21500
X62500Y24500
X134500Y26000
X63500Y19500
X63500Y23000
X132000Y23000
X60500Y23500
X129500Y26500
X56000Y37500
X59500Y39000
X102000Y30000
X60500Y37000
X147000Y6500
X44500Y2500
X66000Y8500
X40000Y32500
X63500Y41000
X137000Y24000
X111000Y29000
X61000Y26500
X48500Y60000
X55500Y56500
X54500Y56000
X53500Y55500
X52500Y55000
X51500Y54000
X68000Y24000
X66000Y9500
M30